<svg width="18" height="18" viewBox="0 0 18 18" fill="none" xmlns="http://www.w3.org/2000/svg">
<g id="noun-orbit-1363724 1">
<g id="Group">
<path id="Vector" d="M8.7948 6.92971C7.95739 6.92971 7.20292 7.43385 6.8823 8.20729C6.56239 8.98073 6.73887 9.87159 7.3309 10.4636C7.92294 11.0556 8.81379 11.2328 9.5872 10.9122C10.3606 10.5916 10.8648 9.8371 10.8648 8.99969C10.8641 7.8571 9.93809 6.93043 8.7948 6.92971ZM8.7948 10.3497C8.24919 10.3497 7.75629 10.0206 7.54746 9.5165C7.33862 9.01166 7.45394 8.43089 7.84066 8.04486C8.22667 7.65885 8.80676 7.54352 9.3116 7.75236C9.81575 7.9612 10.1448 8.45337 10.1448 8.99971C10.1441 9.74501 9.54011 10.349 8.7948 10.3497Z" fill="#12AAFF"/>
<path id="Vector_2" d="M8.79473 4.13981C7.25912 4.14192 5.81483 4.87036 4.89935 6.10361C4.01411 5.88212 3.11201 6.40103 2.85887 7.27853C2.60576 8.15533 3.09231 9.07572 3.95997 9.35969C4.05419 10.6246 4.63848 11.803 5.58911 12.6425C6.54045 13.4821 7.78151 13.9166 9.04853 13.8533C10.3149 13.7907 11.5073 13.2346 12.3701 12.305C13.2321 11.3748 13.6976 10.1443 13.6652 8.87657C13.6329 7.60813 13.1062 6.40301 12.1978 5.51849C11.2894 4.63325 10.0702 4.13825 8.80175 4.13965L8.79473 4.13981ZM3.50435 7.73981C3.50435 7.34536 3.74201 6.98957 4.10694 6.83841C4.47115 6.68724 4.89093 6.77091 5.17005 7.05005C5.4492 7.3292 5.53286 7.74896 5.3817 8.11317C5.23053 8.47738 4.87475 8.71576 4.48029 8.71576C3.9417 8.71435 3.50576 8.27841 3.50435 7.73981ZM8.79473 13.1398C7.77168 13.1391 6.78449 12.7594 6.02507 12.0739C5.26499 11.3883 4.78617 10.4461 4.67999 9.42805C5.35639 9.35001 5.9203 8.87329 6.11084 8.21939C6.30139 7.56548 6.08131 6.86095 5.55326 6.43134C6.43779 5.31338 7.83566 4.72908 9.25244 4.88446C10.6699 5.04055 11.9074 5.91454 12.5275 7.19836C13.1477 8.48226 13.064 9.99466 12.3053 11.2019C11.5467 12.4092 10.2207 13.1411 8.79473 13.1398Z" fill="#12AAFF"/>
<path id="Vector_3" d="M16.2001 11.549C17.0368 9.13858 16.648 6.4717 15.1567 4.40098C13.666 2.33026 11.2606 1.11526 8.70906 1.14406C6.1581 1.17288 3.78012 2.44272 2.3367 4.54642C0.893895 6.6508 0.564819 9.3256 1.4564 11.7162C2.34797 14.1068 4.34756 15.9138 6.81626 16.5593C9.28424 17.2047 11.9124 16.6085 13.8602 14.9597C14.8024 15.6058 16.0899 15.3661 16.7361 14.4246C17.0461 13.9718 17.1643 13.4149 17.0637 12.8756C16.9632 12.3363 16.6524 11.8589 16.2003 11.5488L16.2001 11.549ZM1.68833 9.00016C1.69114 6.92098 2.60521 4.94656 4.18871 3.59872C5.77215 2.25082 7.86611 1.66444 9.91918 1.99348C11.973 2.32253 13.7786 3.53402 14.8614 5.30944C15.945 7.08483 16.196 9.24478 15.5484 11.2214C14.685 10.9577 13.7512 11.2853 13.2408 12.03C12.7303 12.7746 12.7627 13.7639 13.3203 14.474C11.9274 15.6243 10.1492 16.2009 8.34703 16.087C6.54415 15.973 4.85251 15.1771 3.61573 13.8609C2.37893 12.5439 1.68977 10.8065 1.68833 9.00016ZM14.9619 14.5569C14.4155 14.5569 13.9234 14.2279 13.7145 13.723C13.5057 13.2189 13.621 12.6381 14.007 12.2521C14.393 11.8661 14.9738 11.7508 15.478 11.9596C15.9828 12.1684 16.3119 12.6606 16.3119 13.2069C16.3105 13.9522 15.7072 14.5555 14.9619 14.5569Z" fill="#12AAFF"/>
</g>
</g>
</svg>
