<svg width="800" height="800" viewBox="0 0 800 800" fill="none" xmlns="http://www.w3.org/2000/svg">
<rect width="800" height="800" fill="white"/>
<path d="M444.878 595.753C444.878 609.144 434.037 620 420.665 620L190 619.999C190 602.668 190 609.05 190 595.659L190.639 389.656C190.639 376.264 201.48 365.409 214.852 365.409C214.852 365.409 434.5 365.407 444.88 365.409C444.886 371.38 444.878 376.264 444.878 389.656L444.878 595.753ZM396.455 571.506V413.902H239.069L239.069 571.506H396.455Z" fill="#1F1F1F"/>
<path d="M481.25 180.301C493.913 180.301 504.288 190.272 505.205 202.918L505.271 204.742C505.271 204.742 505.271 456.002 505.271 469.5C505.271 482.999 494.516 479.779 481.25 479.779C468.587 479.779 458.212 469.808 457.295 457.162L457.229 455.338C457.229 455.338 457.229 204.223 457.229 190.725C457.229 177.226 467.984 180.301 481.25 180.301Z" fill="#1F1F1F"/>
<path d="M581.502 219.755C590.936 228.282 592.076 242.695 584.402 252.734L583.246 254.138C583.246 254.138 497.942 354.692 489.022 364.748C480.102 374.805 474.217 365.165 464.334 356.232C454.899 347.706 453.759 333.292 461.433 323.253L462.589 321.85C462.589 321.85 547.798 221.403 556.718 211.347C565.638 201.29 571.618 210.823 581.502 219.755Z" fill="#1F1F1F"/>
<path d="M375.441 225.084C384.318 215.967 398.635 215.488 408.213 223.692L409.548 224.923C409.548 224.923 587.074 401.048 596.611 410.51C606.148 419.972 596.335 425.457 587.036 435.008C578.159 444.124 563.842 444.604 554.264 436.399L552.929 435.168C552.929 435.168 375.505 259.145 365.968 249.683C356.431 240.221 366.142 234.634 375.441 225.084Z" fill="#1F1F1F"/>
<path d="M332.895 328.853C332.996 316.071 342.957 305.679 355.492 304.855L357.3 304.803C357.3 304.803 606.209 306.816 619.581 306.924C632.953 307.032 629.677 317.862 629.571 331.253C629.47 344.035 619.509 354.427 606.974 355.251L605.166 355.303C605.166 355.303 356.401 353.291 343.028 353.183C329.656 353.074 332.789 342.244 332.895 328.853Z" fill="#1F1F1F"/>
</svg>
