<svg width="342" height="65" viewBox="0 0 342 65" fill="none" xmlns="http://www.w3.org/2000/svg">
<g clip-path="url(#clip0_2221_8159)">
<path d="M193.511 1.3905H149.203C148.693 1.3905 148.28 1.80378 148.28 2.31358V9.6982C148.28 10.208 148.693 10.6213 149.203 10.6213H193.511C194.02 10.6213 194.434 10.208 194.434 9.6982V2.31358C194.434 1.80378 194.02 1.3905 193.511 1.3905Z" fill="white"/>
<path d="M193.511 53.6982H149.203C148.693 53.6982 148.28 54.1115 148.28 54.6213V62.0059C148.28 62.5157 148.693 62.929 149.203 62.929H193.511C194.02 62.929 194.434 62.5157 194.434 62.0059V54.6213C194.434 54.1115 194.02 53.6982 193.511 53.6982Z" fill="white"/>
<path d="M193.511 27.5104H149.203C148.693 27.5104 148.28 27.9237 148.28 28.4335V35.8181C148.28 36.3279 148.693 36.7411 149.203 36.7411H193.511C194.02 36.7411 194.434 36.3279 194.434 35.8181V28.4335C194.434 27.9237 194.02 27.5104 193.511 27.5104Z" fill="white"/>
<path d="M53.733 36.7412H63.9721C64.482 36.7412 64.8952 36.3279 64.8952 35.8181V28.4335C64.8952 27.9237 64.482 27.5104 63.9721 27.5104H49.6233L38.3189 2.12067C38.1212 1.6766 37.6806 1.3905 37.1945 1.3905H27.9805C27.4944 1.3905 27.0539 1.6766 26.8562 2.12067L15.5521 27.5104H1.20292C0.69312 27.5104 0.279846 27.9237 0.279846 28.4335V35.8181C0.279846 36.3279 0.69312 36.7412 1.20292 36.7412H11.4421L0.360788 61.6303C0.0889662 62.2409 0.535822 62.929 1.20413 62.929H9.44481C9.93092 62.929 10.3715 62.6428 10.5692 62.1988L32.5875 12.7448L54.6059 62.1988C54.8036 62.6429 55.2442 62.929 55.7303 62.929H63.9711C64.6394 62.929 65.0862 62.2409 64.8144 61.6304L53.733 36.7412L53.733 36.7412Z" fill="white"/>
<path d="M262.42 36.1741C264.825 32.6192 266.235 28.3025 266.232 23.6985L266.233 23.6982C266.233 20.6309 265.608 17.685 264.478 15.0137C262.781 11.0044 259.958 7.60744 256.4 5.203C252.846 2.79855 248.529 1.3887 243.925 1.3908L217.925 1.3905C217.415 1.3905 217.002 1.80397 217.002 2.31358V9.69819C217.002 10.2081 217.415 10.6213 217.925 10.6213H243.925C245.743 10.6222 247.451 10.9873 249.014 11.6471C251.354 12.6363 253.36 14.3006 254.771 16.3902C256.182 18.4827 257 20.974 257.002 23.6982V23.6985C257.001 25.5167 256.636 27.2249 255.976 28.7871C254.987 31.1279 253.323 33.1339 251.233 34.5446C249.14 35.9554 246.649 36.7733 243.925 36.7754L217.925 36.7751C217.415 36.7751 217.002 37.1886 217.002 37.6982V62.0059C217.002 62.5158 217.415 62.929 217.925 62.929H225.31C225.82 62.929 226.233 62.5158 226.233 62.0059V46.0062L243.925 46.0059C245.496 46.0063 247.034 45.8403 248.521 45.5284L256.025 62.3815C256.173 62.7144 256.503 62.929 256.868 62.929H265.309C265.977 62.929 266.424 62.241 266.152 61.6306L257.23 41.5905C259.248 40.0878 261.009 38.2623 262.42 36.1741Z" fill="white"/>
<path d="M127.995 1.3905H83.6878C83.178 1.3905 82.7647 1.80378 82.7647 2.31358V9.69819C82.7647 10.208 83.178 10.6213 83.6878 10.6213H115.2L102.943 26.2624C102.531 26.7876 102.905 27.5561 103.572 27.5561H112.887C113.454 27.5561 113.99 27.2952 114.34 26.8487L128.525 8.74696C128.78 8.42196 128.919 8.02096 128.919 7.60805V2.31358C128.919 1.80378 128.505 1.3905 127.995 1.3905Z" fill="white"/>
<path d="M127.995 53.6982H93.299L105.538 38.0804C105.95 37.5553 105.575 36.7869 104.908 36.7869H95.594C95.0267 36.7869 94.4908 37.0477 94.1408 37.4943L80.0808 55.4362C79.8262 55.7611 79.6878 56.1621 79.6878 56.5749V62.0059C79.6878 62.5157 80.1011 62.929 80.6109 62.929H127.995C128.505 62.929 128.919 62.5157 128.919 62.0059V54.6213C128.919 54.1115 128.505 53.6982 127.995 53.6982L127.995 53.6982Z" fill="white"/>
<path d="M332.845 36.7185C332.395 36.7185 332.018 37.0445 331.936 37.4866C331.659 38.9954 331.27 40.4071 330.78 41.7145C329.218 45.8612 326.699 49.011 323.562 51.1814C320.421 53.3444 316.635 54.5372 312.42 54.5414C309.611 54.5406 306.991 54.0055 304.627 53.0127C301.083 51.5179 298.097 49.0091 295.929 45.5295C294.529 43.2733 293.482 40.5859 292.912 37.4859C292.831 37.0446 292.455 36.7185 292.006 36.7185H284.515C283.957 36.7185 283.518 37.2122 283.598 37.7646C283.964 40.3011 284.574 42.7083 285.418 44.9577C287.593 50.7681 291.316 55.5286 296.037 58.7792C300.752 62.0373 306.439 63.7762 312.42 63.772C316.408 63.7727 320.264 63.0049 323.79 61.5227C329.08 59.3052 333.612 55.465 336.752 50.401C339.021 46.7535 340.561 42.4857 341.245 37.7656C341.325 37.2129 340.886 36.7185 340.327 36.7185H332.845Z" fill="white"/>
<path d="M291.987 27.4878C292.437 27.4878 292.815 27.1609 292.896 26.7181C293.173 25.1924 293.565 23.7655 294.06 22.4451C295.623 18.2982 298.141 15.1485 301.278 12.9782C304.42 10.8152 308.206 9.62241 312.42 9.6182C315.23 9.61895 317.849 10.1541 320.214 11.1467C323.757 12.6416 326.743 15.1505 328.911 18.6299C330.318 20.8972 331.369 23.5997 331.937 26.7189C332.018 27.1609 332.394 27.4878 332.843 27.4878H340.332C340.889 27.4878 341.328 26.9948 341.249 26.4427C340.884 23.8887 340.272 21.4653 339.422 19.2017C337.248 13.3915 333.524 8.63082 328.804 5.38022C324.088 2.12226 318.402 0.383378 312.42 0.387581C308.432 0.386682 304.577 1.15471 301.051 2.63683C295.76 4.85423 291.229 8.69438 288.088 13.7584C285.812 17.4184 284.269 21.7027 283.588 26.4418C283.509 26.9941 283.949 27.4878 284.507 27.4878H291.987V27.4878Z" fill="white"/>
</g>
<defs>
<clipPath id="clip0_2221_8159">
<rect width="341.538" height="64" fill="white" transform="translate(0 0.079834)"/>
</clipPath>
</defs>
</svg>
