<?xml version="1.0" encoding="UTF-8"?>
<svg id="Layer_1" xmlns="http://www.w3.org/2000/svg" xmlns:xlink="http://www.w3.org/1999/xlink" viewBox="0 0 185.56 185.56">
  <defs>
    <style>
      .cls-1, .cls-2, .cls-3, .cls-4, .cls-5, .cls-6, .cls-7 {
        fill: none;
      }

      .cls-8 {
        fill: url(#radial-gradient);
      }

      .cls-9 {
        fill: #fff;
      }

      .cls-10 {
        opacity: .8;
      }

      .cls-2 {
        stroke: url(#linear-gradient);
      }

      .cls-2, .cls-3, .cls-4, .cls-5, .cls-6, .cls-7 {
        stroke-miterlimit: 10;
      }

      .cls-2, .cls-7 {
        stroke-width: 1.06px;
      }

      .cls-3 {
        stroke: url(#linear-gradient-6);
      }

      .cls-3, .cls-4 {
        stroke-width: .86px;
      }

      .cls-4 {
        stroke: url(#linear-gradient-5);
      }

      .cls-5 {
        stroke: url(#linear-gradient-3);
        stroke-width: .99px;
      }

      .cls-6 {
        stroke: url(#linear-gradient-4);
        stroke-width: .92px;
      }

      .cls-7 {
        stroke: url(#linear-gradient-2);
      }

      .cls-11 {
        clip-path: url(#clippath);
      }
    </style>
    <clipPath id="clippath">
      <path class="cls-1" d="M92.78,0h0c51.24,0,92.78,41.54,92.78,92.78s-41.54,92.78-92.78,92.78S0,144.02,0,92.78,41.54,0,92.78,0Z"/>
    </clipPath>
    <radialGradient id="radial-gradient" cx="-412.77" cy="545.34" fx="-412.77" fy="545.34" r="1" gradientTransform="translate(-56751 43127.96) rotate(90) scale(104.24 -104.24)" gradientUnits="userSpaceOnUse">
      <stop offset=".17" stop-color="#073183"/>
      <stop offset="1" stop-color="#0054f9"/>
    </radialGradient>
    <linearGradient id="linear-gradient" x1="-13.06" y1="208.3" x2="199.56" y2="-14.86" gradientTransform="translate(0 187.5) scale(1 -1)" gradientUnits="userSpaceOnUse">
      <stop offset=".21" stop-color="#89d0ff"/>
      <stop offset=".4" stop-color="#ebbf9a"/>
      <stop offset=".6" stop-color="#eb8280"/>
      <stop offset=".84" stop-color="#a281ff"/>
    </linearGradient>
    <linearGradient id="linear-gradient-2" x1="-4.76" y1="198.75" x2="191.26" y2="-7.82" gradientTransform="translate(0 187.5) scale(1 -1)" gradientUnits="userSpaceOnUse">
      <stop offset=".21" stop-color="#89d0ff"/>
      <stop offset=".4" stop-color="#ebbf9a"/>
      <stop offset=".6" stop-color="#eb80da"/>
      <stop offset=".84" stop-color="#a281ff"/>
    </linearGradient>
    <linearGradient id="linear-gradient-3" x1="3.58" y1="190.46" x2="182.99" y2=".48" gradientTransform="translate(0 187.5) scale(1 -1)" gradientUnits="userSpaceOnUse">
      <stop offset=".21" stop-color="#89d0ff"/>
      <stop offset=".4" stop-color="#ebbf9a"/>
      <stop offset=".6" stop-color="#eb8280"/>
      <stop offset=".84" stop-color="#a281ff"/>
    </linearGradient>
    <linearGradient id="linear-gradient-4" x1="11.91" y1="182.15" x2="174.67" y2="8.81" gradientTransform="translate(0 187.5) scale(1 -1)" gradientUnits="userSpaceOnUse">
      <stop offset=".21" stop-color="#89d0ff"/>
      <stop offset=".4" stop-color="#ebbf9a"/>
      <stop offset=".6" stop-color="#eb80e7"/>
      <stop offset=".84" stop-color="#a281ff"/>
    </linearGradient>
    <linearGradient id="linear-gradient-5" x1="20.23" y1="173.85" x2="166.37" y2="17.17" gradientTransform="translate(0 187.5) scale(1 -1)" gradientUnits="userSpaceOnUse">
      <stop offset=".21" stop-color="#89d0ff"/>
      <stop offset=".4" stop-color="#ebbf9a"/>
      <stop offset=".6" stop-color="#eb80d3"/>
      <stop offset=".84" stop-color="#a281ff"/>
    </linearGradient>
    <linearGradient id="linear-gradient-6" x1="28.58" y1="165.57" x2="158.09" y2="25.49" gradientTransform="translate(0 187.5) scale(1 -1)" gradientUnits="userSpaceOnUse">
      <stop offset=".21" stop-color="#89d0ff"/>
      <stop offset=".4" stop-color="#ebbf9a"/>
      <stop offset=".6" stop-color="#a280eb"/>
      <stop offset=".84" stop-color="#a281ff"/>
    </linearGradient>
  </defs>
  <g class="cls-11">
    <g>
      <path class="cls-8" d="M92.78,0h0c51.24,0,92.78,41.54,92.78,92.78h0c0,51.24-41.54,92.78-92.78,92.78h0C41.54,185.56,0,144.02,0,92.78h0C0,41.54,41.54,0,92.78,0Z"/>
      <path class="cls-9" d="M155.87,63.82c-.39,2.27-.84,3.37-1.38,4.65h0c-.57,1.38-1.23,2.95-1.82,6.06-.23,1.24-.35,2.16-.45,2.96v.05s-.01.05-.01.05c-.16,1.29-.27,2.16-.8,3.7-.42,1.26-1.14,3.37-2.85,5.64-1.38,1.84-3.7,4.91-6.79,5.28-.27.02-.83.05-1.06-.07-8.76-4.48-16.29-7.78-18.9-8.52-3.03-.86-2.64-7.47-2.3-13.3.15-2.61.3-5.07.18-7.18-.43-7.36-1.73-15.42-8.14-19.35-3.83-2.34-8.76-3.03-13.48-3.04.87-.42,1.85-.98,2.91-1.6l.03-.02c2.78-1.61,6.23-3.61,9.65-3.96,1.12-.11,2.22-.24,3.31-.36,6.91-.78,12.87-1.45,19.17.7,2.85.98,8.71,4.24,10.22,7.27,1.06,2.14,2.86,3.81,6.44,7.14,1.86,1.73,3.09,2.74,3.99,3.48l.04.03c1.26,1.04,1.51,1.26,1.89,2.02,1.16,2.36.74,4.88.15,8.36Z"/>
      <path class="cls-9" d="M123.99,94.08c.42.14.57.65.33,1.01-.94,1.42-2.01,3.37-3.29,5.75-.6,1.12-1.17,2.18-1.65,3.01-1.7,2.92-1.84,5.37-1.94,7.34-.12,2.06-.22,3.01-1.45,3.83-1.02.68-2.06.91-9.27,2.01-1.26.2-1.82.44-2.31.65-.13.06-.27.12-.42.17-.42.16-.83-.2-.8-.64.06-1.04.09-2.34.1-3.97v-.31c.04-1.41-.02-2.56-.07-3.49-.1-1.84-.11-2.62.38-3.42.6-.97,1.07-1.27,1.85-1.76,1.08-.68,2.56-1.61,4.75-4.62,1.16-1.59,1.42-2.46,1.58-3.2.07-.31.1-.43.99-1.11.95-.72,3.83-2.91,7.53-2.29,1.02.17,2.32.55,3.71,1.03Z"/>
      <path class="cls-9" d="M95.28,127.34c-.16.21-.34.3-.61.31-.75.03-1.28-.15-1.64-.58-.74-.91-.64-2.73-.47-3.79l3.05-.81c.24,1.62.35,3.97-.34,4.87Z"/>
      <path class="cls-9" d="M95.53,116.33c-.05.45-.11.95-.11,1.47,0,.19,0,.39.01.58,0,.5.03,1.29-.04,1.65-.95.35-1.77.35-2.84.33-.02-.31,0-.77.02-1.08,0-.24.02-.48.02-.71,0-.25,0-.5,0-.75,0-.59-.01-1.55.13-1.83.29-.04.58-.1.9-.18.63-.14,1.45-.31,1.98-.23,0,.2-.04.51-.07.75Z"/>
      <path class="cls-9" d="M89.89,126.4c-.15,1.56-.63,3.5-2.1,3.79-.66.14-.98-.06-1.18-.25-.99-.92-1.15-3.69-1.01-5.68.66.01,1.53-.14,2.55-.33.62-.12,1.25-.26,1.74-.38.06.73.1,1.78,0,2.85Z"/>
      <path class="cls-9" d="M89.19,120.79l-3.31,1.16c.17-1.29.39-3.09.47-4.29.06-.85.29-1.11.35-1.16.02-.02.07-.06.19-.06.02,0,.04,0,.06,0h.07s2.09-.1,2.09-.1c.09.98.09,3.14.08,4.45Z"/>
      <path class="cls-9" d="M83.85,119.76c-.19.5-.41,1.91-.55,2.9l-4.15-.13c.23-1.28.56-2.59.91-3.63.36-1.04.75-1.81,1.1-2.03.42-.25,1.33-.31,1.89.17.91.78,1.16,1.67.78,2.71Z"/>
      <path class="cls-9" d="M82.3,132.45c-.32.44-.68.66-1.12.71-.45.05-.8-.05-1.08-.31-1.3-1.2-1.2-5.14-1.15-7.03,1.72-.39,3.58-.73,4.46-.78.13,1.58.17,5.68-1.11,7.41Z"/>
      <path class="cls-9" d="M76.89,122.42c-.2.54-.4,1.05-.55,1.5-.48.15-1.96.02-3.46-.31l1.04-6.53c1.7-.45,3.67-.6,4.15-.09.63.67-.63,4.01-1.18,5.43Z"/>
      <path class="cls-9" d="M75.01,133.44c-.8.99-2.01,1.45-3.69,1.44-1.16-.02-1.58-.46-1.79-.79-.93-1.48-.02-4.97.9-7.19l5.62.34c.06.39.1.87.13,1.39.06,1.58-.14,3.56-1.16,4.83Z"/>
      <path class="cls-9" d="M121.42,86.09c-5.06-1.43-4.62-8.82-4.2-15.97.15-2.53.29-4.92.17-6.87-.39-6.69-1.51-13.97-6.89-17.27-5.79-3.54-15.25-2.73-21.09-1.99,0,0,0,0-.01,0,0,0,0,0,0,0-2.14.65-4.14,1.07-5.69.99-3.45-.18-6.13-1.63-8.49-2.9-1.84-1-3.45-1.86-4.96-1.86-.08,0-.16,0-.25,0-4.53.29-6.61,1.4-8.5,3.09-.48.42-1.05,1.64-2.95,7.11-.96,2.76-1.13,4.28-1.31,5.75-.16,1.34-.32,2.72-1.04,4.78-.5,1.42-.86,2.65-1.22,3.83-.94,3.14-1.68,5.61-3.9,8.56-.26.35-.58.86-.96,1.44-.5.79-1.13,1.78-1.95,2.92-.58.81-1.92,3.82-1.84,4.74.11,1.46.58,2.37,1.13,3.43.54,1.04,1.16,2.23,1.27,3.86l.02.27c.2,2.59-.17,3.89-5.1,8.29-3.15,2.82-5.39,5.53-6.9,7.52-.13.18.04.44.26.42.05,0,.1,0,.15,0,.1,0,.19-.01.28-.01s.19,0,.28,0c.1,0,.19.01.28.02,1.19.14,2.35.64,3.19,1.51.15.15.37.19.57.11.8-.33,1.68-.28,2.52-.2,1.04.1,2.09.41,2.78,1.08.21.2.51.31.79.24.82-.18,1.67-.17,2.46.12.63.23,1.15.6,1.57,1.06.29.32.81.39,1.18.15.23-.15.48-.27.76-.37,1.07-.36,2.25-.16,3.29.22.51.18,1.05.35,1.51.66.85.56,1.36,1.39,1.69,2.31.19.52.89.7,1.31.35.76-.63,1.36-.74,1.97-.47.31.14.53.33.67.57.25.42.77.76,1.24.63,1.65-.46,3.73-.22,5.23.58.53.28,1.05.7,1.43,1.35t0,0s0,0,0,0l.04-.29c.02-.13.11-.24.24-.27l.35-.11c.82-.26,5-1.46,6.62.25.07.07.19.08.26,0,.22-.24.4-.38.52-.44,1.06-.64,2.87-.68,4.08.35.24.2.64.13.82-.13.11-.16.24-.3.39-.42.42-.37.96-.54,1.56-.5l2.29-.12c.58-.03,2.37-.15,2.94-.27.04,0,.09-.02.13-.02.24-.04.52-.1.82-.16,1.11-.24,2.38-.52,3.41-.04,1,.46.87,1.6.75,2.6-.05.41-.1.83-.09,1.23,0,.19.01.38.01.57.01.86.03,1.66-.14,2.27h0s.11.48.11.48c0,.02,0,.04.02.07.09.43.56.68.94.45.8-.49,1.64-1.12,1.89-1.49.02-.03.03-.06.05-.09.04-.09.1-.29.17-.71.14-.85.3-2.59.32-6.11,0-.19,0-.32,0-.38.03-1.31-.02-2.35-.07-3.28-.09-1.91-.17-3.41.78-4.94.92-1.49,1.82-2.05,2.68-2.59,1-.63,2.13-1.34,4.03-3.95.93-1.28,1.05-1.8,1.14-2.22.21-.97.53-1.55,1.97-2.64,1.17-.89,4.74-3.59,9.55-2.78,1.58.27,4.13,1.11,6.66,2.1,0,0,0,0,0,0h0c.09.03.19.06.28.11.03.02.07.03.1.05,2.25.9,4.45,1.9,5.85,2.71.33.19.75.08.98-.22.46-.6.96-.94,1.5-1.27.2-.12.36-.22.51-.34.05-.04.1-.09.15-.12.42-.34.42-1.07-.06-1.32-6.78-3.51-13.16-5.46-15.27-6.06ZM73.24,87.65c-1.56,6.84-12.17,14.37-16.99,14.37h-.1c-.08,0-.16-.01-.25-.03-.09-.01-.19-.04-.29-.07-.05-.01-.11-.03-.16-.05-.88-.28-2.09-.95-3-1.85-.63-.62-1.13-1.35-1.28-2.14-.03-.14-.06-.27-.09-.41-.26-1.16-.58-2.62.44-5,.14-.32.27-.62.38-.89.04-.09.08-.18.11-.27.11-.26.21-.49.29-.71.15-.36.26-.67.36-.93.04-.1.08-.2.11-.29.29-.82.33-1.13.37-1.45.04-.25.07-.56.18-.99.3-1.28.46-2.37.6-3.34.25-1.74.46-3.25,1.4-4.63.16-.23.34-.45.54-.64.07-.06.14-.13.21-.19.07-.06.15-.12.22-.17.23-.16.47-.3.74-.42.09-.04.18-.08.27-.11.19-.07.38-.13.58-.18.86-.21,1.88-.24,3.05-.09,1.28.1,2.47.34,3.52.64.88.24,1.66.53,2.33.79.07.03.13.05.2.08.13.05.25.1.37.16.18.08.35.15.5.22.21.09.4.18.56.25l.16.07c.74.34,1.38.71,1.92,1.1.27.2.52.4.74.6.08.07.15.14.22.21.07.07.14.14.21.21,2.04,2.14,1.94,4.63,1.58,6.15ZM78.15,61.71l-.21,1.24c-.48,2.8-1.57,6.63-5.59,7.62-3.87.95-4.79,1.15-7.55,1.27-.06,0-.13,0-.19,0-2.01,0-5.89-1.27-6.57-4.42-.44-2.03.46-3.5,1.93-5.94.25-.4.51-.83.79-1.32,1.95-3.29,2.72-5.67,3.34-7.57.6-1.86,1.1-3.4,2.39-4.68.3-.3.63-.58,1.03-.85.25-.17.51-.32.79-.46.37-.18.75-.34,1.15-.47.9-.29,1.86-.43,2.83-.43,1.88,0,3.75.54,5.09,1.61.6.48,1.46,1.45,1.95,4.29.26,1.46-.18,4.16-1.19,10.11ZM106.88,69.67c-1.39,2.38-2.14,3.69-3.34,4.67-2.38,1.95-5.15,2.44-7.43,2.44-1.64,0-3.03-.25-3.85-.4-2.36-.43-6.75-1.23-8.21-4.69-.29-.68-.29-1.12-.29-1.67s0-1.46-.25-3.64v-.14c-.13-.99-.26-2.1.02-3.54l.03-.17c.83-4.21,1.05-4.85,1.24-5.21.43-.83,1.44-1.15,2.27-.73.8.42,1.14,1.39.76,2.2-.08.24-.32,1.14-.96,4.39l-.03.17c-.18.92-.1,1.61,0,2.5v.15c.29,2.37.29,3.44.29,4.02,0,.1,0,.22,0,.28,0,.03.01.06.02.08.27.65.89,1.14,1.64,1.52.47.24.96-.21.85-.73-.75-3.71-.71-8.03.71-10.7.46-.89,1.32-2.34,2.14-3.69,0,0,0,0,0-.01,0,0,0,0,0-.01.08-.14.17-.27.25-.41.07-.12.14-.23.2-.34.36-.6.7-1.14.97-1.58.04-.06.07-.12.11-.18.02-.04.05-.08.08-.12.06-.1.11-.18.16-.26.02-.04.04-.07.06-.1.01-.01.02-.03.03-.04.03-.04.05-.08.07-.12.04-.07.08-.12.09-.15,0,0,0,0,0,0,0,0,.01-.02.02-.02,0,0,0,0,0-.01.28-.41.56-.8.83-1.16.37-.5-.06-1.15-.63-.91-1.38.56-2.32,1.28-2.51,1.43-.73.58-1.79.46-2.36-.27-.58-.73-.46-1.79.27-2.37.87-.68,5.46-4.03,10.96-2.46,3.96,1.13,6.04,4.16,6.83,5.3.63.92,2.57,3.73,2.5,7.65-.05,2.99-1.29,5.14-3.57,9.05Z"/>
      <path class="cls-9" d="M71.14,49.16c-.28.68-.62,1.53-.98,2.45-.85,2.13-1.8,4.53-2.27,5.41-.79,1.51-1.41,2.46-1.91,3.23-.57.88-1.02,1.58-1.36,2.55-.6,1.7-.7,3.6-.32,5.67-1.05-.12-2.78-.84-2.97-1.76-.15-.68.28-1.43,1.52-3.48.25-.41.52-.85.81-1.35,2.14-3.61,3.01-6.29,3.65-8.26.69-2.14,1.01-3.03,2.11-3.78.49-.34,1.09-.56,1.71-.68Z"/>
      <path class="cls-9" d="M69.05,124.85c-1.17,2.39-2.62,4.59-3.53,5.68-.75-2.03-2.05-6.68-1.71-10.41,0-.11.02-.21.04-.32.14-1.15.45-2.21.99-3.06.36-.56,1.36-.9,2.49-.9.84,0,1.75.18,2.53.6h0c.42.22.99.68,1.05,2,.09,1.78-.76,4.18-1.86,6.42Z"/>
      <path class="cls-9" d="M133.04,98.11c.09.07.15.18.1.29-.35.7-.77,1.19-1.26,1.77-.6.71-1.28,1.51-1.91,2.77-.9,1.78-1.19,3.4-1.34,7.56-.18,4.88.01,7.62.15,9.62.14,1.93.22,3.1-.13,4.98-.69,3.8-2.32,6.31-4.38,9.5-2.58,3.98-5.24,8.1-9.65,9.41-.41.13-.42.13-1.57.13-1,0-2.67,0-5.82.12-5.76.21-8.65.31-11.12.79-2.59.5-3.95,1.05-5.26,1.58-1.18.48-2.3.93-4.45,1.38-1.28.26-3.19.54-9.7.55-6.77.01-10.85.01-16.25-.6-7.4-.85-11.12-1.27-13.59-2.59-5.82-3.11-8.28-8.69-12.35-17.94,0-.02-.01-.03-.02-.05-.05-.11.09-.23.2-.16.19.12.39.22.61.29.18.06.36.11.55.14.37.06.76.07,1.15,0,.07-.01.13-.03.19-.05.01,0,.02-.01.04-.02.07-.03.15,0,.18.07.26.71.67,1.35,1.36,1.71.69.36,1.48.39,2.25.38.79-.01,1.59-.06,2.38-.15.42-.04.85.16,1.01.55.72,1.75,1.62,3.02,2.96,3.21.07.01.17.02.29.02.3,0,.77-.09,1.43-.54.51-.35,1.3-.14,1.67.35.34.46.74.78,1.08,1.06,1.39,1.42,4.75,2.1,7.58,2.1,1.54,0,2.93-.2,3.74-.6,1.16-.57,1.16-1.43,1.11-1.78-.1-.63-.19-1.25-.27-1.87,0-.07.1-.1.13-.03.17.37.38.83.93.92.06,0,.13.02.2.02.79,0,2.01.26,2.23,1.02.11.39.26.75.47,1.08.47.75,1.44,1.64,3.35,1.67h.15c2.19,0,3.88-.72,5.02-2.13.07-.09.14-.18.21-.28.41-.58,1.63-.6,2.15-.12.59.54,1.33.82,2.15.82.13,0,.27,0,.4-.02.98-.1,1.83-.62,2.46-1.51.42-.58.72-1.29.94-2.06.07-.23.38-.29.55-.14.42.39,1.09.8,2.06.8.24,0,.49-.02.76-.08,1.9-.38,2.85-1.96,3.3-3.74.02-.06.1-.08.14-.03.48.59,1.37,1.26,2.92,1.26.08,0,.16,0,.24,0,.82-.04,1.51-.4,2.01-1.04.61-.79.85-1.96.9-3.14.02-.34.24-.65.56-.78,1.63-.68,3.61-2.15,4.19-3.16.02-.03.04-.07.06-.11.13-.26.36-.46.65-.52,1.27-.24,1.82-.48,2.32-.7.41-.18.74-.32,1.66-.46,7.32-1.12,8.75-1.36,10.33-2.42,2.37-1.58,2.49-3.75,2.61-5.86.1-1.78.21-3.8,1.6-6.17.5-.86,1.08-1.94,1.7-3.09,1.08-2,2.58-4.8,3.66-6.26.2-.28.57-.36.89-.23,2.53,1.08,4.68,2.15,5.15,2.52Z"/>
      <path class="cls-9" d="M61.95,119.89c-.29,2.53-.47,5.91-.06,10.32.12,1.24.28,2.53.48,3.84-.35.19-1.38.45-3.23.42-2.65-.05-5.22-.72-6-1.56l-.12-.11c-.64-.52-1.07-.86-1.13-1.78-.02-.31.11-.62.4-1.06.16-.25.37-.53.62-.88.45-.6,1-1.34,1.56-2.3,1.66-2.8,2.29-3.66,3.08-4.76.06-.09.13-.18.2-.27.47-.64,1.02-1.41,1.85-2.68.62-.94,1.13-1.67,1.56-2.25.71-.96,1.17-1.48,1.47-1.77-.04.44-.14,1.05-.24,1.61-.14.87-.32,1.93-.46,3.21Z"/>
      <path class="cls-9" d="M60.74,80.55s-.04.04-.05.07c-.34.48-.74,1.02-1.21,2.07-1.26,2.8-1.29,4.39-1.31,5.67-.01.67-.02,1.2-.2,1.82-.13.41-.33.88-.57,1.42-.74,1.7-1.72,3.94-1.28,6.94-.6-.29-1.52-.95-1.65-1.31-.03-.16-.07-.32-.1-.49-.21-.94-.35-1.55.25-2.92,1.57-3.62,1.76-4.47,1.88-5.46.02-.21.05-.38.11-.65.33-1.43.5-2.65.65-3.63.21-1.49.35-2.47.86-3.22.18-.27.7-.42,1.44-.42.29,0,.62.02.99.07h.08s.08.01.11.02Z"/>
      <path class="cls-9" d="M58.67,116.21c-.08-.87-.24-1.74-.55-2.55-.02-.04-.12-.25-.14-.29-.06-.1-.12-.2-.18-.31,0,0,0,0,0,0,0,0,0,0,0,0-.04-.04-.07-.07-.1-.11-.05-.05-.11-.1-.16-.14-.01-.01-.02-.02-.03-.03-.02-.02-.06-.05-.1-.08-.07-.04-.13-.07-.2-.11-.02-.01-.07-.03-.11-.05,0,0,0,0,0,0-.01,0-.02,0-.03,0,0,0-.02-.01-.02-.01,0,0-.02,0-.02,0s0,0,0,0c-.02-.01-.03-.01-.04-.02-.51-.19-1.02-.39-1.55-.47,0,0-.01,0-.02,0h-.01c-.06,0-.18-.01-.19-.01-.08,0-.15,0-.22,0-.04,0-.07,0-.1,0h-.03s-.03,0-.04,0c0,0-.02,0-.02,0h0c-.12.04-.25.07-.37.1-.05.03-.11.05-.16.08-.04.02-.09.06-.13.08,0,0,0,0-.02,0h0c-.06.07-.12.12-.17.18-.02.02-.07.09-.11.13-.01,0-.02.01-.02.02h0s0,.01-.01.02c0,0,0,0,0,0-.02.03-.03.05-.04.06-.2.32-.41.63-.62.94-.49.74-.98,1.49-1.49,2.22-.46.67-.92,1.33-1.38,2-.26.37-.51.74-.76,1.11-.04.06-.09.13-.13.19.3.06.6.12.9.17.68.12,1.35.24,2.04.34,1.42.19,2.86.28,4.29.23.07,0,.14,0,.2.01.35-.49.75-1.08,1.27-1.86.29-.44.56-.85.82-1.22-.12-.18-.19-.39-.21-.62Z"/>
      <path class="cls-9" d="M53.63,122.07c-.12,1.09-1.34,3.92-3.25,6.61-1.6,2.25-2.57,2.8-2.76,2.82-.77-.11-1.53-2.01-2.13-3.9-.24-.77-.46-1.53-.64-2.17-.41-1.44-.49-3.37-.42-4.58,1.61.89,4.44,1.13,8.41,1.15h.01c.26.03.52.06.78.08Z"/>
      <path class="cls-9" d="M50.81,113.08h0s-.04.06-.05.09c-.68,1-1.37,2-2.06,3-.36.51-.71,1.03-1.06,1.55-.19.28-.45.59-.68.92-.57-.13-1.13-.26-1.69-.42-.46-.13-.91-.27-1.35-.45-.09-.03-.17-.07-.26-.11-.07-.15-.18-.28-.3-.38,0,0,0-.01,0-.02.16-.33.33-.66.49-.99.31-.6.61-1.2.95-1.78.61-1.05,1.34-2.11,2.36-2.79.05-.04.11-.07.16-.11.4-.25.8-.43,1.28-.49.06,0,.4,0,.56,0,.03,0,.05,0,.07,0h0s.04,0,.07.02c.12.04.24.06.36.1.04.02.08.04.12.06.1.06.21.12.31.2-.16-.12.22.27.22.24.3.42.4.77.48,1.34Z"/>
      <path class="cls-9" d="M45.41,110.23c-1.26,1.04-2.18,2.42-2.95,3.86-.43.8-.82,1.61-1.22,2.42-.04.08-.08.16-.13.24-.38-.08-.76-.19-1.14-.31-.4-.13-.79-.27-1.17-.45-.17-.08-.35-.17-.52-.26.38-.72.83-1.4,1.26-2.07.61-.94,1.26-1.87,1.97-2.74.27-.33.55-.69.93-.91.38-.23.85-.17,1.29-.15.47.03.97.04,1.41.22.09.04.19.1.26.15Z"/>
      <path class="cls-9" d="M43.4,127.17c-.06.05-.12.11-.16.18-.04.01-.09.02-.12.03-.3.03-.61.05-.92.07-.59.04-1.18.06-1.78.04-.33-.01-.63-.06-.77-.27-.22-.33-.28-.91-.36-1.35-.39-2.15-.44-4.4-.16-6.58,1.13.4,2.29.72,3.47.91-.26,1.97.18,4.85.43,5.74.12.41.24.83.36,1.23Z"/>
      <path class="cls-9" d="M39.78,109.51c-1,1.22-1.9,2.53-2.72,3.88-.33.55-.7,1.12-.97,1.7-.4-.11-.75-.27-1.13-.5-.29-.18-.57-.38-.85-.59-.07-.06-.26-.21-.38-.3-.03-.02-.05-.04-.08-.06.09-.26.26-.55.35-.74.21-.46.44-.91.69-1.34.46-.82.98-1.62,1.57-2.36.22-.27.42-.62.76-.72.31-.09.72-.05.96,0,.74.14,1.32.48,1.79,1.04Z"/>
      <path class="cls-9" d="M32.1,114.83c.01-.05.08-.06.11-.01.26.37.63.7,1.02,1,.17.13.35.27.52.39.02.02.03.04.03.07-.41,1.71-.7,3.53-.69,5.32,0,.08-.12.1-.14.02-.51-2.08-1.19-5.56-.86-6.78Z"/>
      <path class="cls-9" d="M36.98,118.55c-.2,1.49-.3,2.98-.23,4.48.03.82.12,1.64.23,2.45,0,0,0,.01,0,.02h0c-.18-.04-.36-.04-.55-.02.04-.01-.06,0-.1,0h-.01s-.07,0-.08,0c-.21-.05-.23-.07-.39-.18-.21-.14-.44-.39-.59-.65-.4-.69-.49-1.54-.52-2.32-.06-1.54.07-3.08.36-4.59.25.1.46.19.82.35.35.15.72.31,1.08.47h0s0,0,0,0Z"/>
      <g class="cls-10">
        <path class="cls-2" d="M76.35,196.47c-6.79,0-13.24-.43-18.65-.85l-1.49-.12-1.49-.21c-.65-.09-1.54-.19-2.39-.28-5.2-.57-14.88-1.62-25.56-6.64l-1.66-.78-1.55-.87c-20.53-11.51-28.21-28.82-32.35-38.13-.26-.59-.58-1.31-.88-1.97-2.09-4.27-3.41-8.13-4.53-11.65l-.25-.79-.21-.76c-2.98-10.59-3.73-19.74-2.37-28.78,1.37-9.08,4.73-17.34,10.57-25.99l3.03-4.95c.62-1,1.05-2.1,1.28-3.25,2.31-11.45,7.55-19.56,10.13-23.43.71-4.69,1.88-9.3,3.49-13.75l.24-.68.26-.66c.04-.12.1-.28.2-.58,1.16-3.49,3.87-11.64,10.82-20.21l2.61-3.16,2.66-2.4c6.83-6.2,14.96-10.8,23.8-13.44,4.94-1.47,10.02-2.37,15.17-2.68l.5-.04.75-.04c.89-.04,1.77-.06,2.64-.06,3.21,0,6.41.26,9.57.81,1.98.33,4.01.1,5.85-.67,5.48-2.29,11.24-3.83,17.13-4.6.49-.07.92-.12,1.26-.17.93-.12,2.4-.29,4.19-.46,3.11-.3,7.88-.65,13.05-.65,10.1,0,18.79,1.31,26.57,4l.66.23.65.24c17.17,6.49,25.91,15.55,32.19,23.55l.3.38.87.77c5.68,4.44,10.51,9.87,14.25,16.03l1.17,1.93.99,2.02c8.4,17.14,5.73,32.97,4.72,38.92l-.05.32c-.72,4.39-1.87,8.69-3.44,12.86-.57,4.01-1.52,7.97-2.82,11.8-2.23,6.82-5.52,13.26-9.75,19.06-2.43,3.44-5.18,6.65-8.21,9.59-1.07,1.04-1.77,2.4-1.97,3.87-.13.91-.28,1.81-.45,2.7-2.46,13.21-8.24,22.39-10.59,26.05l-7.13,10.24c-8.58,10.69-18.77,17.75-31.09,21.54l-2.99.94-3.22.56c-3.69.65-7.43.98-11.17.97-.52,0-1.04,0-1.61-.02h-.17l-.64.04-.68.02h-.02c-1.43.05-2.84.28-4.21.69-7.96,2.43-16.96,3.58-27.98,3.58Z"/>
        <path class="cls-7" d="M76.35,189.43c-6.51,0-12.76-.41-18-.83l-1.24-.1-1.24-.17c-.78-.11-1.72-.21-2.64-.31-5.05-.55-13.5-1.47-22.93-5.89l-1.39-.65-1.29-.72c-18.11-10.16-24.82-25.25-28.82-34.26-.29-.64-.64-1.43-.96-2.15-1.87-3.83-3.09-7.36-4.12-10.62l-.21-.66-.18-.64c-2.65-9.42-3.33-17.46-2.15-25.3,1.18-7.84,4.16-15.09,9.35-22.73l3.88-6.34c.69-1.12,1.16-2.37,1.39-3.66,1.93-10.77,7.02-18.4,9.33-21.88l.29-.44.11-.17c.05-.11.09-.21.14-.32.14-.46.28-.9.42-1.33.61-4.42,1.68-8.76,3.2-12.95l.21-.56.22-.57c.07-.18.14-.38.33-.96,1.1-3.32,3.39-10.21,9.39-17.6l2.17-2.63,2.21-2c5.92-5.38,12.97-9.36,20.64-11.65C58.8.06,63.29-.73,67.82-.99l.41-.03.62-.03c.76-.04,1.51-.05,2.25-.05,3.25,0,6.49-.94,9.68-.29,2.46.51,5.01.24,7.31-.78,4.29-1.89,10.06-2.65,16.67-3.47.47-.07.88-.12,1.2-.16.87-.11,2.26-.27,3.94-.43,2.92-.28,7.42-.62,12.26-.62,9.16,0,16.96,1.16,23.86,3.54l.55.19.54.21c15.22,5.75,22.74,13.45,28.6,20.91.33.41.66.84.78.99l.14.12,1.11.99.15.15c5.06,3.88,9.36,8.66,12.67,14.11l.98,1.61.83,1.68c7.22,14.74,4.96,28.16,3.99,33.89l-.05.3c-.69,4.16-1.81,8.24-3.35,12.17-.49,3.82-1.36,7.58-2.6,11.23-1.97,6.04-4.88,11.73-8.62,16.86-2.53,3.6-5.46,6.9-8.73,9.85-1.52,1.36-2.47,3.24-2.68,5.26-.16,1.49-.37,2.94-.64,4.37-2.17,11.66-7.24,19.72-9.57,23.33l-5.77,8.39c-7.67,9.86-16.76,16.3-27.78,19.7l-2.49.78-2.7.47c-3.22.57-6.48.85-9.75.84-.47,0-.96,0-1.48-.01h-.46s-.1,0-.32.02l-.57.04-.57.02-1.15.04c-1.52.05-3.02.32-4.46.78-7.33,2.34-15.8,3.45-26.28,3.45Z"/>
        <path class="cls-5" d="M76.35,181.14c-6.22,0-12.27-.4-17.36-.8l-.99-.08-.99-.14c-.9-.12-1.91-.23-2.89-.34-4.83-.52-12.12-1.32-20.3-5.15l-1.11-.52-1.04-.58c-15.71-8.81-21.48-21.8-25.3-30.39-.33-.74-.69-1.57-1.04-2.33-1.66-3.37-2.77-6.59-3.71-9.57l-.17-.52-.15-.51c-2.32-8.24-2.93-15.18-1.93-21.81,1.01-6.73,3.66-13,8.31-19.74l.55-.8.6-.77c.38-.48.74-.96,1.1-1.42l2.33-4.28c.77-1.4,1.28-2.92,1.53-4.5,1.48-9.61,6.11-16.55,8.25-19.75v-.02c.13-.18.29-.41.37-.54l.46-.73c.18-.39.42-.91.62-1.45.21-.65.45-1.45.72-2.28.51-4.09,1.48-8.11,2.89-11.99l.16-.45.18-.46c.15-.38.26-.71.47-1.36,1.02-3.07,2.92-8.77,7.96-14.99l1.74-2.11,1.76-1.59c5.01-4.55,10.98-7.92,17.47-9.86,3.77-1.12,7.65-1.8,11.57-2.02l.33-.02.5-.02c.62-.03,1.24-.04,1.87-.04,3.37,0,6.73.42,9.99,1.27,2.83.71,5.81.4,8.43-.89,4.18-2.03,9.78-4.18,16.33-4.99.45-.06.83-.11,1.14-.15.82-.1,2.11-.25,3.69-.41,2.74-.26,6.96-.58,11.47-.58,8.22,0,15.14,1.01,21.15,3.09l.44.15.43.16c13.98,5.28,20.24,12.2,25,18.27,1.05,1.34,1.21,1.54,1.93,2.19l.89.79.35.35c2.3,1.78,7,5.45,11.12,12.23l.78,1.29.66,1.35c6.05,12.35,4.17,23.5,3.26,28.86l-.05.3c-.65,3.93-1.74,7.77-3.26,11.46l-.04.34c-.4,3.52-1.18,6.99-2.32,10.35-1.71,5.26-4.24,10.21-7.5,14.67-2.72,3.9-6,7.39-9.72,10.36-.89.7-1.61,1.58-2.13,2.59-.52,1.01-.81,2.11-.86,3.24-.1,2.21-.36,4.42-.76,6.6-1.88,10.11-6.29,17.11-8.54,20.61l-4.48,6.61c-6.75,9.01-14.74,14.83-24.4,17.8l-1.99.62-2.15.37c-2.75.49-5.54.73-8.33.72-.43,0-.88,0-1.35-.01h-.59c-.08,0-.33,0-.83.03l-.46.03-.44.02-2.31.08c-1.62.05-3.21.34-4.75.86-6.72,2.26-14.64,3.33-24.61,3.33Z"/>
        <path class="cls-6" d="M76.35,172.84c-5.95,0-11.79-.39-16.72-.77l-.74-.06-.74-.1c-1.02-.14-2.09-.26-3.13-.37-4.54-.5-10.75-1.17-17.67-4.42l-.83-.39-.77-.43c-13.3-7.46-18.2-18.48-21.77-26.53-.37-.83-.76-1.7-1.14-2.54-1.52-3.06-2.49-5.99-3.29-8.5l-.12-.39-.11-.38c-3.89-13.82-2.43-23.52,5.21-34.59l.42-.6.45-.58c.51-.65.98-1.27,1.45-1.87.7-.93,1.42-1.87,2.2-2.84.48-.6.87-1.28,1.15-1.99l.88-2.24c.37-.95.6-1.95.69-2.97.76-8.87,5.07-15.33,7.21-18.54v-.02c.17-.24.4-.59.48-.71l.5-.8.15-.21c.27-.54.79-1.67,1.24-2.86.25-.81.64-2.06,1.02-3.2,0-.04,0-.09.02-.14.41-3.72,1.26-7.37,2.55-10.88l.12-.34.13-.34c.23-.59.4-1.08.62-1.77.91-2.74,2.44-7.33,6.53-12.37l1.31-1.58,1.31-1.19c9.66-8.76,20.47-9.52,24.08-9.76l.25-.02.38-.02c.49-.02.98-.03,1.46-.03,4.29.01,8.53.88,12.48,2.55.7.29,1.46.42,2.21.39.76-.04,1.5-.24,2.17-.59h.02c3.67-2.13,10.4-5.99,18.98-7.02.41-.06.8-.11,1.08-.14.76-.1,1.96-.24,3.44-.38,2.56-.25,6.5-.54,10.68-.54,7.29,0,13.32.86,18.44,2.63l.33.11.32.12c11.98,4.53,17.14,10.21,21.41,15.64,1.15,1.45,1.66,2.12,2.94,3.26l.67.6.54.55.41.33c2.03,1.57,5.81,4.5,9.16,10.01l.59.96.49,1.01c4.87,9.95,3.35,18.98,2.53,23.83l-.05.29c-.58,3.53-1.58,6.97-2.99,10.26l-.12.28c-.01.06-.03.15-.05.28-.06.33-.1.6-.15.94l-.05.38c-.33,2.98-.99,5.9-1.95,8.74-1.45,4.47-3.6,8.68-6.37,12.48-2.74,3.89-5.81,7.05-9.25,9.56-1.51,1.1-2.75,2.54-3.61,4.21-.86,1.66-1.32,3.5-1.35,5.38-.03,2.33-.26,4.66-.68,6.96-1.59,8.56-5.24,14.36-7.52,17.89l-3.25,4.88c-5.82,8.13-12.69,13.33-20.96,15.86l-.44.14c-.7.22-1.42.39-2.14.52l-.52.09c-2.28.4-4.59.61-6.91.6-.39,0-.79,0-1.22-.01h-.72c-.16,0-.59,0-1.36.05l-.34.02h-.33c-1.11.05-2.49.1-3.72.16-1.68.07-3.35.4-4.94.97-5.95,2.13-13.23,3.13-22.67,3.13Z"/>
        <path class="cls-4" d="M76.35,164.55c-5.66,0-11.31-.38-16.08-.75l-.5-.04-.5-.07c-1.14-.16-2.28-.28-3.38-.4-4.17-.45-9.36-1.02-15.04-3.68l-.55-.26-.52-.29c-10.9-6.11-14.97-15.29-18.25-22.66-.4-.91-.83-1.85-1.24-2.76-1.28-2.56-2.15-5.18-2.86-7.43l-.08-.26-.07-.25c-3.21-11.4-2.15-18.64,4.06-27.63l.28-.4.3-.38c.54-.69,1.04-1.34,1.51-1.96,1.62-2.12,3.18-4.17,5.51-6.65.51-.55.82-1.25.86-2l.18-2.68-.07-.88.03-.91c.24-7.36,3.94-12.9,5.92-15.87.23-.34.47-.7.61-.92l.33-.53.31-.41c.37-.6,1.34-2.66,2.07-4.63.25-.83.74-2.41,1.17-3.67.13-.4.14-.5.24-1.36.34-3.1,1.05-6.16,2.13-9.09l.08-.23.09-.23c.31-.78.52-1.42.77-2.17.78-2.35,1.96-5.89,5.1-9.77l.88-1.06.87-.78c6.77-6.14,14.14-7.31,19.11-7.64h.17s.26-.01.26-.01c.36-.02.72-.02,1.07-.02,4.25,0,9.33,2.04,12,3.27.64.29,1.33.46,2.03.48.7.02,1.4-.09,2.06-.34,1.66-.6,3.28-1.31,4.84-2.13,3.39-1.97,9.03-5.22,16.02-6.04.39-.06.73-.1,1.02-.14.7-.09,1.81-.21,3.19-.35,2.39-.23,6.04-.5,9.9-.5,6.35,0,11.49.71,15.73,2.18l.22.08.21.08c10.01,3.78,13.99,8.12,17.82,13,1.24,1.57,2.12,2.7,3.95,4.33l.44.4.41.42c.37.37.77.71,1.2,1.01,1.72,1.33,4.6,3.56,7.15,7.76l.39.64.33.67c3.7,7.55,2.51,14.59,1.8,18.8l-.05.29c-.47,2.9-1.3,5.74-2.47,8.44v.02c-.32.7-.54,1.44-.66,2.2-.1.53-.16.96-.22,1.43l-.05.38c-.27,2.43-.8,4.82-1.58,7.13-1.18,3.69-2.96,7.16-5.24,10.29-3.38,4.82-7.29,8.21-11.99,10.37-1.14.52-2.12,1.35-2.82,2.39-.7,1.04-1.1,2.26-1.16,3.51-.02.51-.03.94-.02,1.17.23,3.63.49,7.74-.31,11.97-1.3,7-4.26,11.71-6.49,15.17,0,0-10.23,14.23-19.53,17.07l-1,.31-1.08.19c-1.81.32-3.65.48-5.49.48-.35,0-.71,0-1.09-.01h-.85c-.36,0-.96,0-1.88.06l-.23.02h-.22c-3.56.13-6.93.25-7.86.43-.5.08-.99.22-1.45.43-5.27,2.31-12.17,3.39-21.7,3.39Z"/>
        <path class="cls-3" d="M76.35,156.26c-5.38,0-10.82-.37-15.44-.73l-.25-.02-.25-.04c-1.26-.17-2.46-.3-3.62-.43-3.93-.43-7.99-.87-12.42-2.95l-.28-.13-.26-.14c-8.5-4.77-11.66-11.89-14.72-18.79-.44-.98-.89-1.99-1.35-3-1.04-2.05-1.77-4.25-2.43-6.33l-.04-.13-.04-.13c-2.55-9.08-1.9-13.71,2.9-20.67l.14-.21.15-.19c.56-.72,1.08-1.39,1.57-2.04,2.31-3.03,4.31-5.65,8.78-9.78h.01c.33-.33.56-.73.66-1.17.11-.44.08-.9-.07-1.33l-.81-2.3c-.16-.73-.28-1.46-.34-2.2v-.02l-.05-.62.02-.46c.16-4.99,2.79-8.93,4.53-11.54.27-.42.53-.79.73-1.12l.17-.27.19-.25c.92-1.24,2.42-4.69,3.21-6.82.21-.66.74-2.42,1.18-3.7.31-.96.52-1.96.61-2.97.26-2.5.83-4.95,1.7-7.3l.04-.12.05-.11c.38-.98.65-1.79.91-2.58.7-2.09,1.48-4.46,3.67-7.15l.44-.53.43-.39c4.81-4.37,10.08-5.25,14.14-5.52h.22c.23,0,.46-.02.68-.02,3.96,0,6.99,1.62,9.01,2.7l.47.25.07.04c.55.3,1.04.56,1.49.78,1.25.63,2.69.77,4.04.42,2.75-.74,7.05-2.37,9.94-3.96l.06-.04c3.04-1.76,7.62-4.42,12.99-5.01.34-.05.66-.09.97-.13.62-.08,1.66-.21,2.93-.32,2.21-.21,5.58-.46,9.11-.46,5.41,0,9.66.56,13.02,1.72l.11.04.11.04c8.03,3.03,10.96,6.21,14.22,10.37,1.33,1.69,2.58,3.29,4.96,5.4l.22.21.21.21c.64.65,1.34,1.25,2.07,1.79,1.43,1.1,3.38,2.62,5.14,5.51l.19.32.17.34c2.52,5.15,1.68,10.13,1.07,13.77l-.05.29c-.37,2.29-1.02,4.53-1.96,6.66-.54,1.23-.93,2.51-1.15,3.84-.15.77-.23,1.37-.3,1.92l-.05.39c-.2,1.88-.61,3.73-1.21,5.52-.92,2.9-2.31,5.64-4.12,8.09-3.05,4.38-6.43,7.07-10.92,8.5-2.15.68-4,2.08-5.24,3.97l-.36.55-.39.45c-1.14,1.3-.82,6.33-.62,9.33.21,3.3.43,6.7-.19,9.91-1.01,5.48-3.36,9.19-5.46,12.44,0,0-7.81,11.27-14.86,13.41l-.51.16-.54.09c-1.34.24-2.7.36-4.07.35h-1.94c-.48,0-1.24,0-2.41.08h-.22c-4.73.17-7.58.27-9.15.58-1.06.19-2.1.5-3.09.92-4.22,1.87-10.11,2.75-18.52,2.75Z"/>
      </g>
    </g>
  </g>
</svg>