<svg xmlns="http://www.w3.org/2000/svg" id="Layer_1" data-name="Layer 1" viewBox="0 0 799.32 780.55">
  <defs>
    <style>
      .cls-1 {
        fill: #fff;
      }
    </style>
  </defs>
  <g id="Layer_1-2" data-name="Layer 1-2">
    <g>
      <g>
        <g>
          <path class="cls-1" d="m447.27,370.68l-31.14,85.43c-.86,2.35-.86,4.93,0,7.35l53.59,147,62.04-35.83-74.4-203.96c-1.72-4.69-8.37-4.69-10.09,0h0Z"/>
          <path class="cls-1" d="m509.78,226.96c-1.72-4.69-8.37-4.69-10.09,0l-31.14,85.43c-.86,2.35-.86,4.93,0,7.35l87.78,240.73,62.04-35.83-108.59-297.68h0Z"/>
        </g>
        <path class="cls-1" d="m399.54,39.9c1.56,0,3.05.39,4.46,1.17l236.43,136.52c2.74,1.56,4.46,4.54,4.46,7.67v272.96c0,3.13-1.72,6.1-4.46,7.67l-236.43,136.52c-1.33.78-2.89,1.17-4.46,1.17s-3.05-.39-4.46-1.17l-236.35-136.44c-2.74-1.56-4.46-4.54-4.46-7.67V185.26c0-3.13,1.72-6.1,4.46-7.67L395.16,41.07c1.33-.78,2.89-1.17,4.38-1.17m0-39.9c-8.45,0-16.82,2.19-24.41,6.49l-236.35,136.52c-15.1,8.68-24.41,24.8-24.41,42.25v272.96c0,17.45,9.31,33.48,24.41,42.25l236.43,136.52c7.51,4.38,15.96,6.49,24.41,6.49s16.82-2.19,24.41-6.49l236.43-136.52c15.1-8.68,24.41-24.8,24.41-42.25V185.26c0-17.45-9.31-33.48-24.41-42.25L423.95,6.49c-7.51-4.3-15.96-6.49-24.41-6.49h0Z"/>
        <g>
          <path class="cls-1" d="m379.67,165.7h-59.93c-4.46,0-8.53,2.82-10.09,7.04l-128.46,352.21,62.04,35.83,141.45-387.89c1.33-3.52-1.25-7.2-5.01-7.2h0Z"/>
          <path class="cls-1" d="m484.51,165.7h-59.93c-4.46,0-8.53,2.82-10.09,7.04l-146.69,402.2,62.04,35.83,159.76-437.88c1.25-3.52-1.33-7.2-5.09-7.2h0Z"/>
        </g>
      </g>
      <g>
        <path class="cls-1" d="m51.4,707.87c2.66,0,4.85.55,6.65,1.64,1.8,1.1,3.6,3.13,5.32,6.26l34.35,62.35c.31.7.47,1.25.23,1.72-.16.47-.7.7-1.49.7h-13.14c-1.17,0-1.96-.47-2.43-1.33l-7.35-13.38H24.72l-7.12,13.38c-.47.94-1.25,1.33-2.35,1.33H1.72c-.94,0-1.41-.23-1.64-.7-.16-.47-.08-1.02.23-1.72l34.03-62.35c1.72-3.13,3.44-5.24,5.09-6.26,1.64-1.1,3.6-1.64,5.79-1.64h6.18Zm-20.11,45.92h35.67l-16.51-30.43c-.31-.47-.63-.7-1.17-.7h-.63c-.47,0-.86.23-1.17.7l-16.19,30.43Z"/>
        <path class="cls-1" d="m173.21,707.87c7.98,0,13.69,1.8,17.13,5.4,3.44,3.6,5.16,8.92,5.16,15.96v5.95c0,5.95-1.17,10.64-3.6,14.08-2.43,3.44-6.34,5.71-11.81,6.65l17.76,21.98c.31.31.47.86.31,1.56-.16.7-.7,1.02-1.64,1.02h-13.46c-.94,0-1.49-.08-1.88-.31-.31-.23-.7-.55-1.02-1.02l-16.43-21.59h-33.48v20.65c0,1.49-.78,2.27-2.27,2.27h-11.19c-1.56,0-2.43-.78-2.43-2.27v-67.2c0-2.11,1.02-3.13,3.13-3.13h55.7Zm-42.95,37.08h39.74c3.52,0,6.02-.78,7.43-2.27,1.49-1.49,2.19-3.83,2.19-6.96v-4.38c0-3.13-.7-5.4-2.19-6.96-1.49-1.49-3.91-2.27-7.43-2.27h-38.41c-.94,0-1.33.39-1.33,1.25v21.59h0Z"/>
        <path class="cls-1" d="m282.35,707.87c7.12,0,12.2,1.41,15.18,4.22,2.97,2.82,4.54,7.12,4.54,12.83v5.01c0,5.79-2.19,10.17-6.65,13.14,4.77,2.74,7.2,7.2,7.2,13.38v6.02c0,2.74-.31,5.24-.94,7.43-.63,2.19-1.64,4.07-3.05,5.63-1.41,1.56-3.29,2.74-5.63,3.6-2.35.86-5.24,1.25-8.68,1.25h-61.65c-2.11,0-3.13-1.02-3.13-3.13v-66.42c0-2.11,1.02-3.13,3.13-3.13l59.69.16h0Zm-47.02,30.2h42.56c3.44,0,5.79-.55,7.04-1.56,1.25-1.02,1.88-2.58,1.88-4.54v-3.52c0-2.11-.63-3.76-1.8-4.69-1.17-1.02-3.13-1.49-5.87-1.49h-42.48c-.94,0-1.33.47-1.33,1.33v14.47Zm0,11.34v15.49c0,.94.47,1.33,1.33,1.33h42.56c2.74,0,4.77-.47,5.95-1.49,1.17-1.02,1.8-2.58,1.8-4.85v-3.91c0-2.11-.63-3.76-1.96-4.85-1.25-1.1-3.68-1.64-7.12-1.64l-42.56-.08h0Z"/>
        <path class="cls-1" d="m341.26,707.87c1.49,0,2.27.78,2.27,2.27v68.06c0,1.49-.78,2.27-2.27,2.27h-11.19c-1.56,0-2.35-.78-2.35-2.27v-68.06c0-1.49.78-2.27,2.35-2.27h11.19Z"/>
        <path class="cls-1" d="m450.01,707.87c1.56,0,2.43.78,2.43,2.27v10.17c0,1.56-.78,2.43-2.43,2.43h-32.55v55.55c0,1.49-.78,2.27-2.27,2.27h-11.34c-1.49,0-2.27-.78-2.27-2.27v-55.55h-32.55c-1.56,0-2.43-.78-2.43-2.43v-10.17c0-1.49.78-2.27,2.43-2.27h80.97Z"/>
        <path class="cls-1" d="m532.07,707.87c7.98,0,13.69,1.8,17.13,5.4,3.44,3.6,5.16,8.92,5.16,15.96v5.95c0,5.95-1.17,10.64-3.6,14.08-2.43,3.44-6.34,5.71-11.81,6.65l17.76,21.98c.31.31.47.86.31,1.56-.16.7-.7,1.02-1.64,1.02h-13.38c-.94,0-1.49-.08-1.88-.31-.31-.23-.7-.55-1.02-1.02l-16.43-21.59h-33.48v20.65c0,1.49-.78,2.27-2.27,2.27h-11.27c-1.56,0-2.43-.78-2.43-2.27v-67.2c0-2.11,1.02-3.13,3.13-3.13h55.7,0Zm-42.95,37.08h39.74c3.52,0,6.02-.78,7.43-2.27,1.49-1.49,2.19-3.83,2.19-6.96v-4.38c0-3.13-.7-5.4-2.19-6.96-1.49-1.49-3.91-2.27-7.43-2.27h-38.33c-.94,0-1.33.39-1.33,1.25l-.08,21.59h0Z"/>
        <path class="cls-1" d="m590.44,707.87c1.49,0,2.27.78,2.27,2.27v41.39c0,2.74.23,5.09.7,6.88.47,1.8,1.17,3.29,2.27,4.38,1.02,1.1,2.43,1.8,4.22,2.27,1.8.47,3.99.7,6.73.7h28.63c2.66,0,4.93-.23,6.73-.7,1.8-.47,3.13-1.17,4.22-2.27,1.02-1.1,1.8-2.5,2.19-4.38.39-1.8.63-4.15.63-6.88v-41.39c0-1.49.78-2.27,2.27-2.27h11.34c1.49,0,2.27.78,2.27,2.27v42.95c0,5.01-.55,9.23-1.56,12.67-1.02,3.52-2.74,6.34-5.01,8.53-2.35,2.19-5.32,3.76-9,4.69-3.68.94-8.21,1.49-13.46,1.49h-29.89c-5.24,0-9.7-.47-13.38-1.49-3.68-.94-6.65-2.58-9-4.69-2.35-2.19-3.99-5.01-5.09-8.53-1.1-3.52-1.64-7.75-1.64-12.67v-42.95c0-1.49.78-2.27,2.43-2.27h11.11,0Z"/>
        <path class="cls-1" d="m709.51,707.87c1.49,0,2.82.08,3.91.31,1.1.23,2.11.63,2.89,1.17.86.63,1.56,1.41,2.27,2.43.63,1.02,1.33,2.35,2.03,3.99l21.59,49.84c.31.63.78.94,1.49.94h1.25c.7,0,1.17-.31,1.49-.94l21.59-49.84c.7-1.64,1.33-2.97,2.03-3.99.63-1.02,1.41-1.8,2.27-2.43.86-.63,1.8-1.02,2.82-1.17,1.1-.23,2.35-.31,3.91-.31h11.11c3.6,0,6.02.78,7.28,2.43,1.25,1.64,1.88,4.38,1.88,8.37v59.54c0,1.49-.78,2.27-2.35,2.27h-10.56c-1.49,0-2.27-.78-2.27-2.27v-54.14c0-.7-.31-1.02-.86-1.02h-.94c-.7,0-1.17.31-1.33.86l-20.97,46.47c-.86,1.88-1.64,3.44-2.58,4.69-.86,1.25-1.8,2.35-2.82,3.13-1.02.86-2.11,1.41-3.44,1.8-1.25.31-2.82.55-4.54.55h-5.01c-1.72,0-3.21-.16-4.54-.55-1.25-.31-2.43-.94-3.44-1.8-1.02-.86-1.96-1.88-2.82-3.13s-1.72-2.82-2.5-4.69l-20.97-46.47c-.23-.55-.63-.86-1.33-.86h-.94c-.55,0-.86.31-.86,1.02v54.14c0,1.49-.78,2.27-2.27,2.27h-10.56c-1.56,0-2.43-.78-2.43-2.27v-59.54c0-3.91.63-6.73,1.88-8.37,1.25-1.64,3.68-2.43,7.35-2.43h11.27,0Z"/>
      </g>
    </g>
  </g>
</svg>
