<svg width="1745" height="257" viewBox="0 0 1745 257" fill="none" xmlns="http://www.w3.org/2000/svg">
<path fill-rule="evenodd" clip-rule="evenodd" d="M285.046 114.728L226.394 13.399C221.627 5.14219 212.813 0.0546875 203.277 0.0546875H85.9763C76.4433 0.0546875 67.626 5.14219 62.8545 13.399L4.2028 114.728C-0.573786 122.985 -0.573786 133.15 4.2028 141.369L62.8545 242.723C67.626 250.98 76.4433 256.055 85.9763 256.055H203.277C212.813 256.055 221.627 250.98 226.394 242.723L285.046 141.369C289.812 133.15 289.812 122.985 285.046 114.728Z" fill="#E48D2F"/>
<path fill-rule="evenodd" clip-rule="evenodd" d="M249.316 142.651L209.102 212.223C210.645 215.563 210.939 219.101 209.811 222.727C208.325 227.506 204.471 231.493 199.606 232.796C193.185 234.516 186.855 232.087 183.276 226.99H104.828C101.136 232.257 94.5222 234.673 87.919 232.613C83.1427 231.122 79.4293 227.052 78.1481 222.25C77.2698 218.967 77.4933 215.769 78.7978 212.713L38.3473 142.739C30.9698 141.761 25.3203 135.432 25.3203 127.953C25.3203 119.986 31.5779 113.433 39.4465 112.982L78.6705 45.1556C77.987 43.3606 77.6206 41.5321 77.6206 39.737C77.6206 31.4841 84.3589 24.7451 92.6434 24.7451C97.3573 24.7451 101.728 26.945 104.579 30.646H183.565C186.379 26.945 190.776 24.7451 195.492 24.7451C203.751 24.7451 210.494 31.4841 210.494 39.737C210.494 41.71 210.045 43.7371 209.216 45.6276L248.19 113.031C255.851 113.706 261.906 120.19 261.906 127.953C261.906 135.321 256.561 141.488 249.316 142.651ZM210.357 73.2074L235.722 117.203C232.973 119.99 231.431 123.727 231.431 127.649C231.431 131.875 233.236 135.919 236.356 138.729L198.819 203.868C190.797 201.625 182.624 206.65 180.533 214.353H106.496C104.738 207.876 98.89 203.333 92.0691 203.333C90.5894 203.333 89.1618 203.527 87.781 203.961L84.533 198.326L78.2192 187.383L50.0462 138.484C53.0341 135.645 54.7244 131.79 54.7244 127.649C54.7244 123.822 53.2915 120.234 50.6625 117.418L87.5651 53.4669C89.024 53.9353 90.5556 54.1604 92.0691 54.1604C98.9602 54.1604 104.967 49.3372 106.579 42.6924H180.447C182.08 49.3372 188.043 54.1604 194.989 54.1604C196.341 54.1604 197.714 53.9637 199.048 53.5834L204.043 62.2206L210.357 73.2074Z" fill="white"/>
<rect width="27.4054" height="27.4054" rx="13.7027" transform="matrix(0.999882 -0.0153447 0.0153458 0.999882 76.7979 114.083)" fill="white"/>
<rect width="27.4054" height="27.4054" rx="13.7027" transform="matrix(0.999882 -0.0153447 0.0153458 0.999882 132.62 114.083)" fill="white"/>
<rect width="98.8542" height="12.4418" transform="matrix(-0.5 0.866025 -0.866026 -0.499999 144.824 42.2754)" fill="white"/>
<rect width="98.8542" height="12.4418" transform="matrix(-0.5 0.866025 -0.866026 -0.499999 200.647 42.2754)" fill="white"/>
<rect width="98.8542" height="12.4418" transform="matrix(-1 -8.74228e-08 -9.80895e-07 -1 140.475 131.497)" fill="white"/>
<rect width="101.562" height="12.4418" transform="matrix(-0.5 -0.866025 -0.866026 0.499999 146.176 215.01)" fill="white"/>
<rect width="101.562" height="12.4418" transform="matrix(-0.5 -0.866025 -0.866026 0.499999 201.999 215.01)" fill="white"/>
<path d="M1744.46 88.7163L1685.69 240.683H1656.11L1670.46 203.384L1625.94 88.7163H1655.72L1685.1 166.975H1685.5L1714.68 88.7163H1744.46Z" fill="#F2E7DC"/>
<path d="M1567.07 111.867H1556.48V88.7161H1567.07V62.2012H1595.86V88.7161H1615.94V111.867H1595.86V173.406C1595.86 175.483 1596.45 177.165 1597.84 178.55C1599.22 179.936 1600.81 180.529 1602.69 180.529H1615.94V206.055H1602.69C1592 206.055 1583.39 202.988 1576.86 196.656C1570.33 190.423 1567.07 182.013 1567.07 171.427V111.867Z" fill="#F2E7DC"/>
<path d="M1458.24 206.055H1429.45V88.7162H1458.24V106.723H1458.63C1465.96 92.4758 1477.23 85.2534 1492.67 85.2534C1506.12 85.2534 1517.11 89.9034 1525.61 99.2035C1534.02 108.503 1538.28 120.475 1538.28 135.117V206.055H1509.49V137.195C1509.49 130.072 1506.92 123.938 1501.97 118.892C1496.92 113.846 1490.89 111.274 1483.96 111.274C1476.74 111.274 1470.61 113.846 1465.66 118.892C1460.71 123.938 1458.24 130.072 1458.24 137.195V206.055Z" fill="#F2E7DC"/>
<path d="M1376.32 88.7163H1405.11V206.055H1376.32V188.049H1375.92C1372.76 194.282 1368.31 199.426 1362.57 203.483C1356.73 207.539 1349.8 209.518 1341.89 209.518C1328.34 209.518 1317.35 204.967 1308.94 195.667C1300.44 186.367 1296.28 174.395 1296.28 159.654V88.7163H1325.07V157.675C1325.07 164.897 1327.54 171.031 1332.49 176.077C1337.44 181.123 1343.47 183.596 1350.6 183.596C1357.72 183.596 1363.85 181.123 1368.8 175.978C1373.75 170.933 1376.32 164.798 1376.32 157.675V88.7163Z" fill="#F2E7DC"/>
<path d="M1250.92 147.287C1250.92 137.393 1247.36 128.983 1240.43 121.86C1233.51 114.835 1225 111.274 1215.11 111.274C1205.21 111.274 1196.7 114.835 1189.68 121.959C1182.65 129.082 1179.19 137.492 1179.19 147.287C1179.19 157.378 1182.65 165.887 1189.68 173.01C1196.7 180.133 1205.21 183.596 1215.11 183.596C1225.1 183.596 1233.61 180.133 1240.53 173.01C1247.46 165.887 1250.92 157.378 1250.92 147.287ZM1280.9 147.287C1280.9 164.897 1274.37 179.639 1261.31 191.61C1248.25 203.581 1232.91 209.518 1215.11 209.518C1197.4 209.518 1181.96 203.581 1168.9 191.61C1155.74 179.639 1149.21 164.897 1149.21 147.287C1149.21 129.874 1155.74 115.231 1168.8 103.26C1181.86 91.2885 1197.3 85.2534 1215.01 85.2534C1232.72 85.2534 1248.15 91.2885 1261.21 103.26C1274.27 115.231 1280.9 129.874 1280.9 147.287Z" fill="#F2E7DC"/>
<path d="M1033.28 147.287C1033.28 157.378 1036.74 165.887 1043.67 173.01C1050.6 180.133 1059.1 183.596 1069.1 183.596C1078.99 183.596 1087.4 180.133 1094.42 173.01C1101.45 165.887 1105.01 157.378 1105.01 147.287C1105.01 137.393 1101.45 128.983 1094.42 121.86C1087.4 114.835 1078.99 111.274 1069.1 111.274C1059.01 111.274 1050.6 114.835 1043.67 121.86C1036.74 128.983 1033.28 137.393 1033.28 147.287ZM1033.28 187.257V206.055H1004.49V54.0884H1033.28V105.733H1033.68C1043.77 92.08 1056.83 85.2534 1072.76 85.2534C1089.97 85.2534 1104.71 91.2885 1116.78 103.161C1128.85 115.033 1134.99 129.775 1134.99 147.287C1134.99 164.996 1128.85 179.837 1116.78 191.709C1104.71 203.581 1089.97 209.518 1072.76 209.518C1063.66 209.518 1055.84 207.44 1049.21 203.087C1042.58 198.734 1037.44 193.49 1033.68 187.257H1033.28Z" fill="#F2E7DC"/>
<path d="M900.113 206.055H871.323V88.7162H900.113V106.723H900.509C907.83 92.4758 919.109 85.2534 934.543 85.2534C947.999 85.2534 958.98 89.9034 967.489 99.2035C975.899 108.503 980.153 120.475 980.153 135.117V206.055H951.362V137.195C951.362 130.072 948.79 123.938 943.843 118.892C938.797 113.846 932.762 111.274 925.837 111.274C918.614 111.274 912.48 113.846 907.534 118.892C902.587 123.938 900.113 130.072 900.113 137.195V206.055Z" fill="#F2E7DC"/>
<path d="M818.293 88.7161H847.083V206.055H818.293V88.7161ZM815.622 62.9927C815.622 58.4416 817.205 54.3852 820.568 51.0213C823.932 47.6575 827.89 45.9756 832.639 45.9756C837.388 45.9756 841.345 47.6575 844.709 51.0213C847.974 54.3852 849.656 58.4416 849.656 62.9927C849.656 67.6427 847.974 71.6001 844.709 74.964C841.345 78.3278 837.388 80.0097 832.639 80.0097C827.89 80.0097 823.932 78.3278 820.568 74.964C817.205 71.6001 815.622 67.6427 815.622 62.9927Z" fill="#F2E7DC"/>
<path d="M765.164 147.287C765.164 137.393 761.602 128.983 754.677 121.86C747.751 114.835 739.243 111.274 729.349 111.274C719.456 111.274 710.947 114.835 703.923 121.959C696.898 129.082 693.435 137.492 693.435 147.287C693.435 157.378 696.898 165.887 703.923 173.01C710.947 180.133 719.456 183.596 729.349 183.596C739.342 183.596 747.85 180.133 754.776 173.01C761.701 165.887 765.164 157.378 765.164 147.287ZM765.164 206.055V187.257H764.768C761.009 193.49 755.765 198.734 749.137 203.087C742.508 207.44 734.692 209.518 725.689 209.518C708.375 209.518 693.633 203.581 681.563 191.709C669.493 179.837 663.458 164.996 663.458 147.287C663.458 129.775 669.493 115.033 681.563 103.161C693.633 91.2885 708.375 85.2534 725.689 85.2534C741.617 85.2534 754.677 92.08 764.768 105.733H765.164V88.7162H793.955V206.055H765.164Z" fill="#F2E7DC"/>
<path d="M563.531 206.055H534.741V54.0884H563.531V104.546H564.125C566.895 99.4013 571.347 94.9491 577.284 91.0906C583.22 87.2321 590.046 85.2534 597.764 85.2534C611.417 85.2534 622.399 89.9034 630.709 99.1045C639.02 108.306 643.175 120.277 643.175 135.117V206.055H614.385V137.195C614.385 130.072 611.911 123.938 606.965 118.892C602.018 113.846 595.983 111.274 589.057 111.274C581.835 111.274 575.8 113.846 570.853 118.892C565.906 123.938 563.531 130.072 563.531 137.195V206.055Z" fill="#F2E7DC"/>
<path d="M439.168 50.6255C457.175 50.6255 473.499 55.8691 487.944 66.3564C502.389 76.8437 511.59 90.5958 515.547 107.613H485.965C481.81 98.6097 475.478 91.1894 467.068 85.3522C458.56 79.5149 449.26 76.5468 439.168 76.5468C424.922 76.5468 412.752 81.8894 402.661 92.4756C392.569 103.161 387.524 115.627 387.524 130.071C387.524 144.714 392.569 157.279 402.661 167.766C412.752 178.352 424.922 183.596 439.168 183.596C449.26 183.596 458.56 180.727 467.068 174.989C475.478 169.25 481.81 161.83 485.965 152.53H515.547C511.59 169.547 502.389 183.299 487.944 193.787C473.499 204.274 457.175 209.517 439.168 209.517C416.413 209.517 397.219 201.899 381.389 186.663C365.56 171.427 357.744 152.53 357.744 130.071C357.744 107.712 365.56 88.815 381.389 73.5788C397.219 58.3425 416.413 50.6255 439.168 50.6255Z" fill="#F2E7DC"/>
</svg>
