<svg width="1200" height="1200" version="1.1" xmlns="http://www.w3.org/2000/svg" desc="Created with imagetracer.js version 1.2.6" ><path fill="rgb(255,255,255)" stroke="rgb(255,255,255)" stroke-width="1" opacity="1" d="M 0 0 L 407 0 L 407 372.5 L 410.5 376 L 784.5 376 L 787 372.5 L 787 0 L 1200 0 L 1200 407 L 822.5 407 L 819 409.5 L 818 411.5 L 818 783.5 L 821.5 787 L 1200 787 L 1200 817.5 L 1199.5 818 L 822.5 818 L 819 820.5 L 818 822.5 L 818 1200 L 787.5 1200 L 787 1199.5 L 787 821.5 L 783.5 818 L 411.5 818 L 408 820.5 L 407 822.5 L 407 1200 L 376.5 1200 L 376 1199.5 L 376 821.5 L 372.5 818 L 0 818 L 0 0 Z " /><path fill="rgb(100,100,100)" stroke="rgb(100,100,100)" stroke-width="1" opacity="0.7254901960784313" d="M 374.5 1198 L 375 1200 L 373 1199.5 L 374.5 1198 Z " /><path fill="rgb(0,0,0)" stroke="rgb(0,0,0)" stroke-width="1" opacity="1" d="M 407 0 L 787 0 L 787 372.5 L 784.5 376 L 410.5 376 L 407 372.5 L 407 0 Z " /><path fill="rgb(0,0,0)" stroke="rgb(0,0,0)" stroke-width="1" opacity="1" d="M 822.5 407 L 1200 407 L 1200 787 L 821.5 787 L 818 783.5 L 818 411.5 L 820.5 408 L 822.5 407 Z " /><path fill="rgb(0,0,0)" stroke="rgb(0,0,0)" stroke-width="1" opacity="1" d="M 0 818 L 372.5 818 L 376 821.5 L 375.5 1200 L 374.5 1198 L 372.5 1200 L 0 1200 L 0 818 Z " /><path fill="rgb(0,0,0)" stroke="rgb(0,0,0)" stroke-width="1" opacity="1" d="M 411.5 818 L 783.5 818 L 787 821.5 L 787 1200 L 407 1200 L 407 822.5 L 409.5 819 L 411.5 818 Z " /><path fill="rgb(0,0,0)" stroke="rgb(0,0,0)" stroke-width="1" opacity="1" d="M 822.5 818 L 1200 818 L 1200 1200 L 818 1200 L 818 822.5 L 820.5 819 L 822.5 818 Z " /></svg>