<svg width="471" height="462" viewBox="0 0 471 462" fill="none" xmlns="http://www.w3.org/2000/svg">
<path fill-rule="evenodd" clip-rule="evenodd" d="M323.958 8.75513C322.795 8.23122 321.681 7.51729 320.463 7.21192C275.456 -4.06341 230.998 -2.2789 187.434 13.7037C170.489 19.9201 154.541 28.2442 139.713 38.7992C126.878 47.9347 115.126 58.1544 104.787 69.8312C69.939 109.187 53.3537 154.996 56.4246 207.518C58.4814 242.692 70.1846 274.502 92.4706 301.802C118.438 333.61 151.854 353.387 193.578 357.368C221.06 359.991 247.288 355.41 271.359 341.385C281.715 335.351 291.068 327.974 299.371 319.31C301.916 316.653 304.605 314.047 307.602 311.941C308.892 311.034 311.588 310.728 312.812 311.481C314.017 312.222 315.028 314.894 314.622 316.29C313.277 320.916 311.892 325.741 309.372 329.783C301.878 341.804 292.235 351.924 280.271 359.806C234.434 390.005 186.105 390.421 136.727 370.518C110.649 360.006 89.0263 342.957 70.7871 321.46C39.5119 284.598 25.387 241.651 24.4477 194.241C23.9048 166.821 29.8949 140.225 40.0038 114.708C48.2648 93.8561 59.1615 74.3826 73.845 57.2184C80.3214 49.6481 87.3034 42.5021 94.0491 35.1568C95.326 33.7666 96.5699 32.3472 97.8295 30.9406C97.6313 30.7029 97.4331 30.4644 97.2349 30.226C95.5019 31.6283 93.6132 32.8796 92.0612 34.4563C77.9177 48.8252 64.7337 63.9025 54.0654 81.1265C35.4499 111.18 24.1288 143.547 21.1571 178.698C18.6377 208.49 21.6117 237.74 31.4964 266.056C39.9844 290.373 52.2219 312.799 69.5152 332.09C110.76 378.1 162.129 401.033 224.658 396.691C256.851 394.455 286.242 383.635 311.365 363.371C349.861 332.32 369.143 292.282 366.376 242.57C366.145 238.427 365.712 234.256 366.001 230.141C366.126 228.373 367.599 225.604 368.926 225.301C370.432 224.958 373.094 226.416 374.153 227.876C378.899 234.418 380.378 242.242 381.5 249.973C385.976 280.789 379.784 309.601 364.447 336.654C349.801 362.486 329.624 383.045 303.943 398.019C257.488 425.107 207.831 430.325 156.001 417.604C123.601 409.652 95.0316 394.147 69.8183 372.547C43.4962 349.995 23.5414 322.796 9.76773 291.145C6.55395 283.761 3.52474 276.297 0 268.954C1.45428 273.679 2.64786 278.501 4.40305 283.113C21.84 328.926 50.3209 366.315 91.4149 393.798C127.691 418.057 167.835 430.886 211.645 430.803C258.182 430.716 300.203 416.677 336.545 387.477C372.686 358.437 394.484 320.919 401.172 275.296C406.28 240.459 399.795 207.256 381.963 176.867C366.843 151.1 345.387 131.655 317.197 120.22C310.674 117.574 303.964 115.383 297.344 112.971C295.548 112.317 293.504 111.961 292.054 110.852C290.606 109.743 288.676 107.653 288.926 106.369C289.238 104.769 291.355 102.81 293.067 102.337C296.116 101.496 299.459 101.323 302.657 101.448C322.491 102.224 340.206 109.308 356.619 119.895C392.196 142.841 413.923 175.463 423.671 216.013C433.501 256.903 428.893 296.654 411.981 334.987C397.98 366.72 376.431 392.836 349.035 414.06C331.329 427.776 311.693 438.279 290.553 446.185C270.786 453.577 250.491 458.03 229.531 459.903C227.99 460.041 226.464 460.337 224.933 460.937C228.009 460.937 231.116 461.217 234.157 460.892C257.45 458.402 280.346 453.997 302.001 444.882C328.536 433.712 352.553 418.745 373.217 398.476C388.842 383.151 402.226 366.327 412.514 347.121C433.859 307.271 441.638 265.003 434.238 220.383C426.402 173.136 403.725 134.275 364.836 105.561C334.269 82.9922 299.696 71.9354 261.315 74.1271C237.023 75.5144 214.37 82.7801 194.195 96.0278C167.891 113.302 150.1 137.087 142.786 167.981C142.025 171.199 141.168 174.497 139.649 177.393C138.801 179.01 136.51 180.799 134.845 180.823C133.197 180.846 130.438 179.024 130.048 177.529C128.691 172.323 127.453 166.911 127.431 161.573C127.373 147.007 132.233 133.557 138.896 120.836C155.999 88.1828 183.014 66.9021 217.587 54.5476C267.24 36.8046 314.929 43.194 360.849 66.8401C386.578 80.0894 407.819 98.8253 425.412 121.753C447.711 150.813 461.389 183.378 466.852 219.374C468.398 229.563 469.306 239.847 470.597 250.856C471.775 237.373 470.197 224.791 468.111 212.316C462.134 176.559 448.241 144.014 425.997 115.245C407.505 91.3262 384.826 72.1731 357.681 58.1836C327.159 42.453 294.756 34.5061 260.532 35.9013C220.959 37.5143 184.43 49.572 154.198 75.3479C108.847 114.014 88.5638 162.823 100.879 222.149C108.161 257.227 128.379 283.879 160.506 300.849C167.812 304.709 176.096 306.759 183.947 309.593C186.753 310.606 189.853 311.075 192.36 312.555C194.04 313.548 195.902 315.902 195.872 317.616C195.842 319.354 193.877 322.149 192.254 322.571C187.001 323.936 181.467 325.362 176.13 325.087C153.207 323.907 133.438 314.94 115.98 300.288C89.789 278.307 75.0846 250.048 68.7684 217.076C61.3397 178.298 68.5709 141.632 86.6872 107.136C102.692 76.6598 126.043 52.6121 155.584 34.309C192.437 11.475 232.594 1.26599 275.752 2.1693C292.036 2.51026 308.158 4.86573 324.012 8.73522L323.958 8.75513Z" fill="url(#paint0_linear_12511_14915)" style=""/>
<path d="M198.315 17.6232L200.651 125.464C200.984 140.833 213.363 153.212 228.732 153.545L336.573 155.881L228.732 158.217C213.363 158.55 200.984 170.929 200.651 186.298L198.315 294.139L195.979 186.298C195.646 170.929 183.267 158.55 167.898 158.217L60.0571 155.881L167.898 153.545C183.267 153.212 195.646 140.833 195.979 125.464L198.315 17.6232Z" fill="#2B2B2B" style="fill:#2B2B2B;fill:color(display-p3 0.1704 0.1704 0.1704);fill-opacity:1;"/>
<defs>
<linearGradient id="paint0_linear_12511_14915" x1="172.655" y1="878.697" x2="747.814" y2="702.357" gradientUnits="userSpaceOnUse">
<stop stop-color="#F26F56" style="stop-color:#F26F56;stop-color:color(display-p3 0.9490 0.4353 0.3373);stop-opacity:1;"/>
<stop offset="1" stop-color="#F49756" style="stop-color:#F49756;stop-color:color(display-p3 0.9569 0.5922 0.3373);stop-opacity:1;"/>
</linearGradient>
</defs>
</svg>
