<svg width="538" height="78" viewBox="0 0 538 78" fill="none" xmlns="http://www.w3.org/2000/svg">
<path fill-rule="evenodd" clip-rule="evenodd" d="M54.2709 3.40993C54.0847 3.32606 53.9064 3.21177 53.7113 3.16289C46.5065 1.35788 39.3895 1.64355 32.4155 4.20213C29.7028 5.19727 27.1497 6.52984 24.776 8.21952C22.7215 9.68199 20.8401 11.318 19.185 13.1873C13.6063 19.4875 10.9513 26.8208 11.4429 35.2288C11.7721 40.8596 13.6456 45.9519 17.2133 50.3222C21.3703 55.4142 26.7197 58.5802 33.399 59.2176C37.7984 59.6374 41.9971 58.9041 45.8506 56.6589C47.5084 55.6929 49.0057 54.512 50.3349 53.125C50.7423 52.6997 51.1728 52.2825 51.6525 51.9454C51.859 51.8002 52.2907 51.7512 52.4866 51.8716C52.6795 51.9903 52.8413 52.4182 52.7763 52.6416C52.561 53.3822 52.3393 54.1544 51.9359 54.8016C50.7362 56.7259 49.1924 58.3461 47.2772 59.6079C39.9395 64.4422 32.2027 64.5088 24.2981 61.3226C20.1233 59.6399 16.6619 56.9106 13.7421 53.4691C8.7354 47.5681 6.47423 40.693 6.32386 33.1033C6.23694 28.7139 7.19588 24.4563 8.81415 20.3714C10.1366 17.0333 11.881 13.9159 14.2316 11.1682C15.2684 9.95627 16.3861 8.8123 17.466 7.63643C17.6704 7.41388 17.8695 7.18666 18.0712 6.96149C18.0394 6.92343 18.0077 6.88526 17.976 6.84708C17.6986 7.07157 17.3962 7.2719 17.1478 7.5243C14.8836 9.82454 12.773 12.2382 11.0652 14.9955C8.08515 19.8066 6.27281 24.988 5.79708 30.6152C5.39377 35.3844 5.86985 40.067 7.45226 44.5999C8.81105 48.4926 10.7701 52.0827 13.5385 55.1709C20.1411 62.5364 28.3645 66.2075 38.3745 65.5125C43.5281 65.1546 48.2332 63.4225 52.2549 60.1785C58.4175 55.2077 61.5044 48.7982 61.0613 40.8401C61.0244 40.1769 60.955 39.5092 61.0014 38.8504C61.0213 38.5673 61.2571 38.1242 61.4696 38.0756C61.7106 38.0207 62.1368 38.2541 62.3063 38.4878C63.0661 39.5351 63.3028 40.7876 63.4825 42.0252C64.199 46.9585 63.2078 51.5708 60.7525 55.9015C58.408 60.0368 55.1779 63.328 51.0668 65.7252C43.63 70.0615 35.6807 70.8968 27.3836 68.8604C22.1969 67.5874 17.6233 65.1053 13.587 61.6474C9.37324 58.0373 6.17877 53.6831 3.97382 48.6162C3.45934 47.4341 2.97441 46.2393 2.41016 45.0638C2.64296 45.8202 2.83404 46.5921 3.11502 47.3304C5.90641 54.6644 10.4658 60.6498 17.0443 65.0493C22.8516 68.9329 29.278 70.9866 36.2913 70.9734C43.7412 70.9594 50.468 68.712 56.2859 64.0374C62.0715 59.3886 65.561 53.3826 66.6316 46.0791C67.4493 40.5021 66.4113 35.1868 63.5566 30.3221C61.1361 26.1971 57.7014 23.0843 53.1886 21.2537C52.1443 20.8302 51.0701 20.4794 50.0103 20.0934C49.7229 19.9886 49.3956 19.9317 49.1636 19.754C48.9317 19.5765 48.6228 19.2419 48.6628 19.0363C48.7127 18.7803 49.0516 18.4667 49.3257 18.391C49.8138 18.2563 50.349 18.2287 50.8608 18.2487C54.036 18.3729 56.8719 19.507 59.4995 21.2017C65.1948 24.875 68.6729 30.0974 70.2334 36.5888C71.8071 43.1346 71.0694 49.4981 68.362 55.6347C66.1207 60.7146 62.671 64.8954 58.2853 68.293C55.4509 70.4887 52.3075 72.1701 48.9233 73.4358C45.7588 74.6192 42.5099 75.3319 39.1546 75.6317C38.9079 75.6539 38.6636 75.7013 38.4186 75.7973C38.911 75.7973 39.4083 75.8422 39.8951 75.7901C43.6239 75.3915 47.2893 74.6863 50.7559 73.2271C55.0038 71.4391 58.8485 69.043 62.1566 65.7982C64.6578 63.3449 66.8004 60.6518 68.4473 57.5771C71.8644 51.1977 73.1096 44.4313 71.9249 37.2883C70.6705 29.7247 67.0404 23.5037 60.8148 18.9071C55.9216 15.2941 50.3868 13.5241 44.2427 13.875C40.3539 14.0971 36.7275 15.2602 33.4979 17.381C29.287 20.1462 26.4388 23.954 25.268 28.8996C25.1461 29.4147 25.009 29.9426 24.7658 30.4063C24.63 30.6652 24.2633 30.9516 23.9968 30.9553C23.7329 30.9591 23.2912 30.6674 23.2289 30.4281C23.0116 29.5946 22.8134 28.7283 22.81 27.8737C22.8006 25.5419 23.5786 23.3889 24.6453 21.3523C27.3831 16.1251 31.7078 12.7184 37.2426 10.7406C45.1913 7.90023 52.8255 8.92307 60.1766 12.7085C64.2954 14.8295 67.6957 17.8288 70.5121 21.4992C74.0818 26.1512 76.2715 31.3644 77.1459 37.1269C77.3935 38.7579 77.5389 40.4041 77.7455 42.1666C77.9341 40.0082 77.6815 37.994 77.3476 35.9969C76.3907 30.2727 74.1667 25.0628 70.6058 20.4573C67.6454 16.6283 64.0149 13.5622 59.6695 11.3227C54.7833 8.80444 49.5961 7.53227 44.1174 7.75562C37.7823 8.01384 31.9346 9.94408 27.0949 14.0704C19.8349 20.2603 16.5879 28.0738 18.5593 37.5711C19.7251 43.1865 22.9616 47.453 28.1047 50.1698C29.2743 50.7876 30.6004 51.1158 31.8573 51.5695C32.3065 51.7317 32.8028 51.8067 33.204 52.0437C33.473 52.2027 33.771 52.5794 33.7662 52.8538C33.7615 53.1321 33.4468 53.5794 33.187 53.647C32.3461 53.8656 31.4603 54.0938 30.6059 54.0498C26.9363 53.8609 23.7716 52.4254 20.9768 50.08C16.784 46.5611 14.4301 42.0372 13.4189 36.7589C12.2297 30.5511 13.3873 24.6816 16.2875 19.1592C18.8496 14.2804 22.5878 10.4308 27.3168 7.50071C33.2164 3.84534 39.6449 2.21104 46.5538 2.35564C49.1607 2.41023 51.7415 2.7873 54.2795 3.40674L54.2709 3.40993Z" fill="url(#paint0_linear_12511_14899)" style=""/>
<path d="M101.621 24.9353C101.621 18.8523 106.753 15.8978 117.412 15.8978H136.262C146.822 15.8978 152.053 18.835 152.053 24.9353V32.3218H129.551V23.0713C129.488 22.6646 129.157 22.2867 128.626 22.0141C128.094 21.7416 127.402 21.5945 126.689 21.6027C126.012 21.6094 125.366 21.7663 124.887 22.0403C124.409 22.3142 124.134 22.6839 124.123 23.0713V56.2887C124.115 56.6849 124.379 57.067 124.859 57.3524C125.34 57.6378 125.997 57.8035 126.689 57.8138C127.417 57.819 128.121 57.6634 128.654 57.3794C129.187 57.0954 129.508 56.7047 129.551 56.2887V45.2133H126.59V39.8473H152.053V63.2363H140.111L138.433 59.9037C135.966 62.2761 131.426 63.5187 124.715 63.5187H117.412C106.783 63.5187 101.621 60.525 101.621 54.4812V24.9353Z" fill="#2B2B2B" style="fill:#2B2B2B;fill:color(display-p3 0.1704 0.1704 0.1704);fill-opacity:1;"/>
<path fill-rule="evenodd" clip-rule="evenodd" d="M201.006 16.1802L210.48 63.2363H187.781L185.906 52.5607H177.221L174.943 63.2363H154.62L165.377 16.1802H201.006ZM184.919 46.4603L182.254 23.1843L178.01 46.4603H184.919Z" fill="#2B2B2B" style="fill:#2B2B2B;fill:color(display-p3 0.1704 0.1704 0.1704);fill-opacity:1;"/>
<path d="M235.54 56.5885V16.1802H213.038V63.2537H246.708V56.5885H235.54Z" fill="#2B2B2B" style="fill:#2B2B2B;fill:color(display-p3 0.1704 0.1704 0.1704);fill-opacity:1;"/>
<path fill-rule="evenodd" clip-rule="evenodd" d="M295.554 16.1802L305.029 63.2363H282.329L280.454 52.5607H271.761L269.484 63.2363H249.161L259.918 16.1802H295.554ZM279.459 46.4603L276.795 23.1843L272.521 46.4603H279.459Z" fill="#2B2B2B" style="fill:#2B2B2B;fill:color(display-p3 0.1704 0.1704 0.1704);fill-opacity:1;"/>
<path d="M341.438 63.5187C351.999 63.5187 357.229 60.525 357.229 54.4812V44.7614H334.727V56.2887C334.684 56.7047 334.363 57.0954 333.83 57.3794C333.297 57.6634 332.593 57.819 331.865 57.8138C331.173 57.8035 330.516 57.6378 330.036 57.3524C329.555 57.067 329.291 56.6849 329.299 56.2887V23.0713C329.311 22.6839 329.585 22.3142 330.063 22.0403C330.542 21.7663 331.188 21.6094 331.865 21.6027C332.578 21.5945 333.271 21.7416 333.802 22.0141C334.333 22.2867 334.664 22.6646 334.727 23.0713V32.3218H357.267V24.9353C357.267 18.835 352.036 15.8978 341.476 15.8978H322.626C311.967 15.8978 306.835 18.8523 306.835 24.9353V54.4812C306.835 60.525 311.997 63.5187 322.626 63.5187H341.438Z" fill="#2B2B2B" style="fill:#2B2B2B;fill:color(display-p3 0.1704 0.1704 0.1704);fill-opacity:1;"/>
<path d="M397.891 16.1802V22.9714H389.996V63.2493H367.494V22.9714H359.598V16.1932L397.891 16.1802Z" fill="#2B2B2B" style="fill:#2B2B2B;fill:color(display-p3 0.1704 0.1704 0.1704);fill-opacity:1;"/>
<path d="M402.234 63.2363H424.736V16.1802H402.234V63.2363Z" fill="#2B2B2B" style="fill:#2B2B2B;fill:color(display-p3 0.1704 0.1704 0.1704);fill-opacity:1;"/>
<path d="M480.536 54.4812C480.536 60.525 475.305 63.5187 464.745 63.5187H445.857C435.228 63.5187 430.066 60.525 430.066 54.4812V24.9353C430.066 18.8523 435.198 15.8978 445.857 15.8978H464.707C475.267 15.8978 480.498 18.835 480.498 24.9353V32.3218H457.996V23.0713C457.933 22.6646 457.602 22.2867 457.071 22.0141C456.539 21.7416 455.847 21.5945 455.134 21.6027C454.457 21.6094 453.811 21.7663 453.332 22.0403C452.854 22.3142 452.579 22.6839 452.568 23.0713V56.2887C452.56 56.6849 452.824 57.067 453.304 57.3524C453.785 57.6378 454.442 57.8035 455.134 57.8138C455.862 57.819 456.566 57.6634 457.099 57.3794C457.632 57.0954 457.953 56.7047 457.996 56.2887V44.7614H480.536V54.4812Z" fill="#2B2B2B" style="fill:#2B2B2B;fill:color(display-p3 0.1704 0.1704 0.1704);fill-opacity:1;"/>
<path fill-rule="evenodd" clip-rule="evenodd" d="M536.162 63.2363L526.687 16.1802H491.059L480.301 63.2363H500.625L502.902 52.5607H511.587L513.462 63.2363H536.162ZM507.935 23.1843L510.6 46.4603H503.692L507.935 23.1843Z" fill="#2B2B2B" style="fill:#2B2B2B;fill:color(display-p3 0.1704 0.1704 0.1704);fill-opacity:1;"/>
<path d="M34.1574 4.82965L34.5313 22.0933C34.5846 24.5536 36.5664 26.5353 39.0267 26.5886L56.2903 26.9626L39.0267 27.3366C36.5664 27.3899 34.5846 29.3716 34.5313 31.8319L34.1574 49.0955L33.7834 31.8319C33.7301 29.3716 31.7484 27.3899 29.2881 27.3366L12.0244 26.9626L29.2881 26.5886C31.7484 26.5353 33.7301 24.5536 33.7834 22.0933L34.1574 4.82965Z" fill="#2B2B2B" style="fill:#2B2B2B;fill:color(display-p3 0.1704 0.1704 0.1704);fill-opacity:1;"/>
<defs>
<linearGradient id="paint0_linear_12511_14899" x1="30.0496" y1="142.674" x2="122.124" y2="114.445" gradientUnits="userSpaceOnUse">
<stop stop-color="#F26F56" style="stop-color:#F26F56;stop-color:color(display-p3 0.9490 0.4353 0.3373);stop-opacity:1;"/>
<stop offset="1" stop-color="#F49756" style="stop-color:#F49756;stop-color:color(display-p3 0.9569 0.5922 0.3373);stop-opacity:1;"/>
</linearGradient>
</defs>
</svg>
