<svg width="80" height="76" viewBox="0 0 80 76" fill="none" xmlns="http://www.w3.org/2000/svg">
<path d="M0 0H80V76H0V0Z" fill="#D5EBD5"/>
<path d="M49.9661 54.6406C49.7459 54.4634 49.412 54.4724 49.1712 54.6586L49.1668 54.6541C47.9049 55.6313 46.5131 56.3894 45.0267 56.9117L44.9085 56.9553C44.3825 57.1354 43.7856 56.9388 43.4561 56.4704L42.7572 55.4752C42.3583 54.9018 41.8279 54.6 41.1453 54.546C40.8483 54.5235 40.5631 54.513 40.2174 54.5115C39.8716 54.5115 39.5865 54.5205 39.2895 54.543C38.6083 54.594 38.0764 54.8943 37.676 55.4677L36.9742 56.4599C36.6447 56.9282 36.0478 57.1219 35.5203 56.9403L35.4021 56.8967C33.9172 56.3698 32.5269 55.6073 31.268 54.6271L31.2636 54.6316C31.0242 54.4454 30.6903 54.4349 30.4687 54.6121C30.318 54.7306 30.2234 54.9078 30.2234 55.0984C30.2234 55.232 30.2603 55.3656 30.3401 55.4812C30.5145 55.7304 34.0886 61.0262 34.6515 61.8533C35.4391 63.0107 36.5206 63.6802 37.8637 63.8498C38.6246 63.9459 39.3988 63.9939 40.2011 63.9999C41.0034 63.9969 41.7776 63.9519 42.5386 63.8573C43.8831 63.6922 44.9661 63.0242 45.7566 61.8699C46.3225 61.0443 49.9114 55.7574 50.0858 55.5097C50.1656 55.3956 50.204 55.262 50.204 55.1284C50.204 54.9378 50.1109 54.7607 49.9602 54.6406H49.9661Z" fill="#BA5400"/>
<path d="M27.3343 52.6372C27.4309 52.3682 27.3197 52.0449 27.0738 51.8696L27.0767 51.8636C25.7846 50.9404 24.6564 49.8223 23.7155 48.5395L23.6394 48.4382C23.3101 47.9819 23.3101 47.3413 23.6438 46.8759L24.352 45.8862C24.7618 45.3196 24.8788 44.7092 24.7193 44.0307C24.6505 43.7346 24.5715 43.4536 24.4676 43.1181C24.3623 42.7827 24.2657 42.5077 24.1545 42.2251C23.8984 41.5785 23.4565 41.1539 22.8038 40.9438L21.6683 40.5706C21.1342 40.3954 20.7698 39.8756 20.7786 39.306L20.783 39.1775C20.8181 37.5699 21.0976 35.9803 21.6215 34.4512L21.6156 34.4482C21.7151 34.1566 21.6229 33.8287 21.3917 33.6686C21.2351 33.5598 21.042 33.522 20.8649 33.5809C20.7405 33.6217 20.6279 33.7003 20.5459 33.8136C20.3688 34.0599 16.551 39.1851 15.9569 39.9889C15.1257 41.1146 14.8345 42.3747 15.0892 43.7346C15.2326 44.5052 15.4257 45.2728 15.6657 46.0554C15.9145 46.8351 16.194 47.574 16.5144 48.2856C17.0793 49.5427 18.029 50.3874 19.3416 50.7968C20.2796 51.09 26.2807 52.9364 26.5631 53.0285C26.6933 53.0708 26.8294 53.0663 26.9538 53.024C27.1309 52.9651 27.267 52.8185 27.3314 52.6357L27.3343 52.6372Z" fill="#BA5400"/>
<path d="M22.4664 30.2228C22.7561 30.2348 23.029 30.0282 23.1189 29.7348H23.125C23.5946 28.1958 24.3051 26.7556 25.2336 25.4487L25.3068 25.3439C25.6392 24.8843 26.2537 24.6882 26.8086 24.8693L27.9857 25.2556C28.6611 25.4816 29.2847 25.4083 29.8854 25.046C30.1477 24.8873 30.3916 24.7256 30.6798 24.522C30.968 24.3169 31.2012 24.1388 31.436 23.9442C31.9742 23.4965 32.2395 22.9381 32.2319 22.2375L32.2258 21.0189C32.2212 20.4456 32.6039 19.9321 33.1528 19.7659L33.2763 19.73C34.8315 19.2719 36.4461 19.0578 38.0821 19.0997V19.0937C38.3946 19.1012 38.6798 18.9111 38.759 18.6371C38.8139 18.4515 38.7865 18.2524 38.6737 18.0982C38.5944 17.9904 38.4831 17.9051 38.3474 17.8586C38.0546 17.7613 31.9072 15.6176 30.9436 15.2852C29.5942 14.8211 28.2921 14.9244 27.0694 15.5876C26.3772 15.9634 25.7017 16.3855 25.0278 16.8586C24.36 17.3392 23.7395 17.8377 23.1616 18.3661C22.137 19.3003 21.6324 20.483 21.6613 21.8857C21.6827 22.8887 21.8428 29.2916 21.8443 29.5955C21.8458 29.7363 21.8946 29.8665 21.9739 29.9743C22.0882 30.1285 22.2712 30.2153 22.4679 30.2228H22.4664Z" fill="#BA5400"/>
<path d="M42.143 18.6088C42.2201 18.8823 42.496 19.0737 42.7986 19.0662V19.0722C44.3916 19.0348 45.9623 19.2531 47.4737 19.715L47.5939 19.7509C48.1263 19.9183 48.4971 20.4326 48.4912 21.0051L48.4808 22.222C48.4719 22.9217 48.727 23.4808 49.2506 23.9292C49.4776 24.1251 49.7045 24.303 49.9833 24.5078C50.2637 24.7126 50.501 24.8755 50.7546 25.034C51.3375 25.3973 51.9442 25.472 52.6027 25.2493L53.7493 24.8666C54.2892 24.6857 54.8869 24.8845 55.2088 25.3435L55.2785 25.4481C56.1773 26.7562 56.8655 28.1958 57.3179 29.7356H57.3238C57.4099 30.0271 57.6754 30.2334 57.9572 30.2229C58.1485 30.2169 58.328 30.1302 58.4392 29.9763C58.5164 29.8686 58.5638 29.7386 58.5668 29.598C58.5698 29.2946 58.7433 22.9007 58.7655 21.8991C58.7967 20.4984 58.3087 19.3159 57.3149 18.38C56.7528 17.8493 56.1521 17.3515 55.5039 16.8687C54.8498 16.3933 54.1942 15.9702 53.5223 15.5935C52.3343 14.9267 51.0676 14.8206 49.7549 15.281C48.816 15.6099 42.8312 17.7342 42.5449 17.8314C42.4129 17.8762 42.3047 17.9615 42.2275 18.0691C42.1163 18.2231 42.0896 18.4204 42.143 18.6073V18.6088Z" fill="#BA5400"/>
<path d="M59.0734 33.6678C58.8426 33.8281 58.7491 34.1547 58.847 34.4465L58.8412 34.4496C59.3597 35.9813 59.6358 37.572 59.6665 39.1824L59.6708 39.3109C59.6767 39.8795 59.313 40.3996 58.7784 40.5735L57.6449 40.944C56.992 41.1541 56.5508 41.576 56.2938 42.2232C56.1813 42.5044 56.0849 42.7796 55.9783 43.1153C55.8731 43.451 55.7942 43.7322 55.7241 44.0286C55.5634 44.7075 55.6788 45.3184 56.0864 45.8869L56.7904 46.8789C57.122 47.3446 57.1205 47.9872 56.7904 48.4424L56.7144 48.5437C55.7723 49.8244 54.6432 50.9403 53.3505 51.8612L53.3534 51.8672C53.1081 52.0426 52.997 52.3647 53.092 52.6339C53.1563 52.8168 53.2906 52.965 53.4674 53.024C53.5915 53.0663 53.7259 53.0708 53.8574 53.0285C54.1407 52.9363 60.1353 51.1066 61.0716 50.8148C62.3833 50.4081 63.3327 49.5643 63.9009 48.3093C64.2223 47.5986 64.5027 46.8607 64.754 46.0805C64.9964 45.2987 65.1907 44.5306 65.3353 43.761C65.5938 42.4001 65.3061 41.139 64.4793 40.0095C63.8878 39.202 60.0915 34.0625 59.9148 33.816C59.833 33.7026 59.7205 33.624 59.5978 33.5816C59.4211 33.5227 59.2282 33.5574 59.072 33.6678H59.0734Z" fill="#BA5400"/>
</svg>
