<?xml version="1.0" encoding="UTF-8"?>
<svg version="1.1" xmlns="http://www.w3.org/2000/svg" width="512" height="512">
<path d="M0 0 C168.96 0 337.92 0 512 0 C512 168.96 512 337.92 512 512 C343.04 512 174.08 512 0 512 C0 343.04 0 174.08 0 0 Z " fill="#0300A8" transform="translate(0,0)"/>
<path d="M0 0 C33.99 0 67.98 0 103 0 C103 9.24 103 18.48 103 28 C90.79 28 78.58 28 66 28 C66 60.34 66 92.68 66 126 C78.21 126 90.42 126 103 126 C103 135.24 103 144.48 103 154 C69.01 154 35.02 154 0 154 C0 144.76 0 135.52 0 126 C12.21 126 24.42 126 37 126 C37 93.66 37 61.32 37 28 C24.79 28 12.58 28 0 28 C0 18.76 0 9.52 0 0 Z " fill="#FDFDFE" transform="translate(205,180)"/>
<path d="M0 0 C4.83860076 -0.06919609 9.67545726 -0.12882835 14.51416016 -0.16479492 C16.15712326 -0.17980136 17.80004686 -0.20021312 19.44287109 -0.22631836 C21.81618042 -0.26306359 24.18895625 -0.27980772 26.5625 -0.29296875 C27.28679199 -0.30845261 28.01108398 -0.32393646 28.75732422 -0.33988953 C34.86855285 -0.34186741 40.38968432 0.86718109 45.2421875 4.83203125 C45.78101563 5.48558594 46.31984375 6.13914063 46.875 6.8125 C47.70644531 7.78123047 47.70644531 7.78123047 48.5546875 8.76953125 C51.83227017 13.82763855 52.29426499 18.90261071 52.27415466 24.79144287 C52.28200968 25.94011097 52.28200968 25.94011097 52.29002339 27.11198449 C52.30497894 29.66813423 52.30572756 32.22408301 52.30639648 34.78027344 C52.314021 36.61712988 52.322449 38.45398314 52.33161926 40.29083252 C52.35354317 45.27446699 52.36236042 50.2580401 52.36744571 55.24171734 C52.37109197 58.35785077 52.37733346 61.4739682 52.3844471 64.59009552 C52.4089349 75.46859949 52.42199191 86.34705582 52.42553711 97.22558594 C52.42917117 107.35374797 52.45905911 117.48160675 52.50094169 127.60967612 C52.53567336 136.3147751 52.55108605 145.01977372 52.55178314 153.72494149 C52.55257501 158.91984043 52.5612724 164.11443038 52.58978081 169.30925751 C52.61601044 174.19808426 52.61813929 179.08634693 52.60212517 183.9752121 C52.60031454 185.76419304 52.60696639 187.5532068 52.62294388 189.34211731 C52.70810762 199.50102787 52.66917518 208.6038084 45.55727291 216.62774277 C40.03337459 221.69888726 33.94622838 222.29632184 26.7578125 222.1953125 C25.60525467 222.19106766 25.60525467 222.19106766 24.42941284 222.18673706 C21.99444479 222.17561311 19.55985538 222.1505236 17.125 222.125 C15.46615118 222.11496011 13.80729654 222.10583603 12.1484375 222.09765625 C8.09869791 222.07740755 4.04976882 222.03824546 0 222 C0 213.42 0 204.84 0 196 C10.375 195.6875 10.375 195.6875 13.64208984 195.61206055 C14.48980957 195.57894775 15.3375293 195.54583496 16.2109375 195.51171875 C17.08024902 195.48553467 17.94956055 195.45935059 18.84521484 195.43237305 C21.38600027 195.18654782 21.38600027 195.18654782 23 192 C23.30346695 188.97536518 23.30346695 188.97536518 23.25396729 185.46458435 C23.25708727 184.79781317 23.26020725 184.131042 23.26342177 183.44406563 C23.27141184 181.20537819 23.26507436 178.96696104 23.25878906 176.72827148 C23.26149846 175.12518149 23.2650591 173.52209273 23.26940918 171.91900635 C23.27854089 167.56171971 23.27498591 163.20452759 23.26865101 158.84723926 C23.26359594 154.2931001 23.26828101 149.73896917 23.27142334 145.18482971 C23.27506405 137.53734887 23.27026074 129.88990663 23.26074219 122.24243164 C23.24985355 113.39178928 23.25338576 104.54123904 23.264395 95.69059891 C23.27346024 88.09990379 23.27475701 80.50923646 23.26951766 72.91853768 C23.26639425 68.381243 23.26599883 63.84399167 23.27259064 59.30669975 C23.27835254 55.04267929 23.27438852 50.77877804 23.26280212 46.51477051 C23.26014949 44.94659181 23.26093085 43.37840313 23.26532745 41.81022835 C23.27076065 39.67615911 23.2639764 37.54247635 23.25396729 35.40843201 C23.25321323 34.212154 23.25245918 33.01587599 23.25168228 31.78334713 C23.28690569 28.85986989 23.28690569 28.85986989 21 27 C18.77341846 26.62995706 18.77341846 26.62995706 16.2109375 26.5859375 C15.36321777 26.55032715 14.51549805 26.5147168 13.64208984 26.47802734 C12.5639502 26.44402832 11.48581055 26.4100293 10.375 26.375 C6.95125 26.25125 3.5275 26.1275 0 26 C0 17.42 0 8.84 0 0 Z " fill="#FCFCFE" transform="translate(355,146)"/>
<path d="M0 0 C0.79339783 0.0028299 1.58679565 0.00565979 2.40423584 0.00857544 C4.93110417 0.01974471 7.45761432 0.04484306 9.984375 0.0703125 C11.7005157 0.08034652 13.41666198 0.08947163 15.1328125 0.09765625 C19.33358139 0.11796945 23.53357861 0.15712344 27.734375 0.1953125 C27.734375 8.7753125 27.734375 17.3553125 27.734375 26.1953125 C20.474375 26.5253125 13.214375 26.8553125 5.734375 27.1953125 C5.734375 82.6353125 5.734375 138.0753125 5.734375 195.1953125 C12.994375 195.5253125 20.254375 195.8553125 27.734375 196.1953125 C27.734375 204.7753125 27.734375 213.3553125 27.734375 222.1953125 C22.75243208 222.31063525 17.77518725 222.409996 12.79296875 222.4699707 C11.10140219 222.4949891 9.40994236 222.5290154 7.71875 222.57250977 C-9.25830898 222.99793725 -9.25830898 222.99793725 -14.88525391 218.56494141 C-15.34077637 218.11296387 -15.79629883 217.66098633 -16.265625 217.1953125 C-17.00498291 216.48060791 -17.00498291 216.48060791 -17.75927734 215.75146484 C-22.80942304 210.29073819 -23.56392669 204.47681294 -23.53977966 197.31448364 C-23.54763468 196.15144819 -23.54763468 196.15144819 -23.55564839 194.96491706 C-23.57060568 192.37646097 -23.57135259 189.78820331 -23.57202148 187.19970703 C-23.57964575 185.33990141 -23.58807371 183.48009893 -23.59724426 181.62030029 C-23.61916753 176.57481869 -23.62798505 171.52939769 -23.63307071 166.48387384 C-23.63671631 163.33023391 -23.64295739 160.17660981 -23.6500721 157.02297592 C-23.67455736 146.01710056 -23.68761686 135.01127229 -23.69116211 124.00537109 C-23.69479845 113.75220285 -23.72470335 103.49933375 -23.76656669 93.24625695 C-23.80126965 84.43758085 -23.81671054 75.62900392 -23.81740814 66.82025993 C-23.81820084 61.5617103 -23.82693654 56.30346561 -23.85540581 51.04498672 C-23.88158698 46.09871375 -23.88379128 41.15299859 -23.86775017 36.20668793 C-23.86593583 34.39429126 -23.87262504 32.58186251 -23.88856888 30.76953506 C-24.02517233 14.23003349 -24.02517233 14.23003349 -19.63737583 8.58431816 C-13.40666108 2.27522918 -8.94997434 -0.12048178 0 0 Z " fill="#FDFCFE" transform="translate(129.265625,145.8046875)"/>
</svg>
