<svg width="64" height="64" viewBox="0 0 64 64" fill="none" xmlns="http://www.w3.org/2000/svg">
<path fill-rule="evenodd" clip-rule="evenodd" d="M16.6919 16.6919C16.6544 16.2545 16.6353 15.8118 16.6353 15.3647C16.6353 6.87902 23.5143 0 32 0C40.4857 0 47.3648 6.87902 47.3648 15.3647C47.3648 15.8118 47.3456 16.2545 47.3081 16.6919C47.7455 16.6544 48.1882 16.6353 48.6353 16.6353C57.121 16.6353 64 23.5143 64 32C64 40.4857 57.121 47.3647 48.6353 47.3647C48.1882 47.3647 47.7455 47.3456 47.3081 47.3081C47.3456 47.7455 47.3648 48.1882 47.3648 48.6353C47.3648 57.121 40.4857 64 32 64C23.5143 64 16.6353 57.121 16.6353 48.6353C16.6353 48.1882 16.6544 47.7455 16.6919 47.3081C16.2545 47.3455 15.8118 47.3647 15.3647 47.3647C6.87902 47.3647 0 40.4857 0 32C0 23.5143 6.87902 16.6353 15.3647 16.6353C15.8118 16.6353 16.2545 16.6544 16.6919 16.6919ZM22.0597 18.1679C21.8089 17.2765 21.6747 16.3363 21.6747 15.3647C21.6747 9.66218 26.2975 5.03937 32 5.03937C37.7026 5.03937 42.3254 9.66219 42.3254 15.3647C42.3254 16.3363 42.1912 17.2764 41.9404 18.1678C41.7755 18.7535 41.5603 19.3181 41.2997 19.8567C40.5536 21.3986 39.4352 22.7268 38.0614 23.7246C38.9027 24.3535 39.6449 25.1076 40.2603 25.9594C41.2556 24.5818 42.5825 23.4596 44.1239 22.7097C44.6683 22.4449 45.2395 22.2264 45.8322 22.0596C46.7235 21.8088 47.6637 21.6746 48.6353 21.6746C54.3378 21.6746 58.9606 26.2974 58.9606 32C58.9606 37.7025 54.3378 42.3253 48.6353 42.3253C47.6637 42.3253 46.7235 42.1911 45.8322 41.9403C45.2394 41.7735 44.6683 41.5551 44.1239 41.2902C42.5825 40.5403 41.2556 39.4181 40.2603 38.0406C39.6449 38.8923 38.9027 39.6465 38.0614 40.2754C39.4352 41.2732 40.5535 42.6014 41.2997 44.1433C41.5603 44.6818 41.7755 45.2464 41.9403 45.8321C42.1912 46.7235 42.3254 47.6637 42.3254 48.6353C42.3254 54.3378 37.7026 58.9606 32 58.9606C26.2975 58.9606 21.6747 54.3378 21.6747 48.6353C21.6747 47.6637 21.8089 46.7234 22.0597 45.8321C22.2115 45.2928 22.4059 44.7715 22.6392 44.2719C23.3645 42.7187 24.4649 41.3758 25.824 40.3599C24.9875 39.7523 24.2458 39.0223 23.625 38.1962C22.6065 39.5518 21.262 40.6486 19.7079 41.3702C19.2145 41.5993 18.6999 41.7905 18.1679 41.9403C17.2766 42.1911 16.3363 42.3253 15.3647 42.3253C9.6622 42.3253 5.03937 37.7025 5.03937 32C5.03937 26.2974 9.6622 21.6746 15.3647 21.6746C16.3363 21.6746 17.2765 21.8088 18.1679 22.0597C18.6999 22.2094 19.2145 22.4007 19.7079 22.6298C21.262 23.3513 22.6065 24.4481 23.625 25.8038C24.2457 24.9776 24.9875 24.2476 25.824 23.6401C24.4649 22.6241 23.3644 21.2813 22.6392 19.728C22.4059 19.2284 22.2115 18.7071 22.0597 18.1679Z" fill="#F4C7C3"/>
</svg>
