<?xml version="1.0" encoding="UTF-8"?>
<svg id="Layer_1" data-name="Layer 1" xmlns="http://www.w3.org/2000/svg" xmlns:xlink="http://www.w3.org/1999/xlink" viewBox="0 0 433.01 500">
  <defs>
    <radialGradient id="radial-gradient" cx="9672.2" cy="226.65" fx="9672.2" fy="226.65" r="185.64" gradientTransform="translate(9861.93 17.83) rotate(-180) scale(1 -1)" gradientUnits="userSpaceOnUse">
      <stop offset=".1" stop-color="#000" stop-opacity=".1"/>
      <stop offset="1" stop-color="#000" stop-opacity=".45"/>
    </radialGradient>
    <radialGradient id="radial-gradient-2" cx="213.5" cy="254.95" fx="213.5" fy="254.95" r="224.11" gradientUnits="userSpaceOnUse">
      <stop offset=".1" stop-color="#000" stop-opacity=".55"/>
      <stop offset="1" stop-color="#000" stop-opacity=".72"/>
    </radialGradient>
    <radialGradient id="radial-gradient-3" cx="9672.2" cy="231.64" fx="9672.2" fy="231.64" r="219.78" gradientTransform="translate(9861.93 17.83) rotate(-180) scale(1 -1)" gradientUnits="userSpaceOnUse">
      <stop offset=".1" stop-color="#000" stop-opacity=".1"/>
      <stop offset="1" stop-color="#000" stop-opacity=".18"/>
    </radialGradient>
    <radialGradient id="radial-gradient-4" cx="9669.71" cy="234.13" fx="9669.71" fy="234.13" r="219.44" gradientTransform="translate(9861.93 17.83) rotate(-180) scale(1 -1)" gradientUnits="userSpaceOnUse">
      <stop offset=".1" stop-color="#000" stop-opacity=".1"/>
      <stop offset="1" stop-color="#000" stop-opacity=".35"/>
    </radialGradient>
    <radialGradient id="radial-gradient-5" cx="9672.2" cy="234.13" fx="9672.2" fy="234.13" r="219.03" gradientTransform="translate(9861.93 17.83) rotate(-180) scale(1 -1)" gradientUnits="userSpaceOnUse">
      <stop offset=".1" stop-color="#000" stop-opacity=".65"/>
      <stop offset="1" stop-color="#000" stop-opacity=".75"/>
    </radialGradient>
  </defs>
  <polygon points="216.5 250 0 375 0 375 0 125 216.5 250" style="opacity: .1;"/>
  <polygon points="216.51 250 216.51 0 216.51 0 433.01 125 216.51 250" style="fill: url(#radial-gradient);"/>
  <polygon points="432.99 125.01 432.99 374.99 216.51 250 216.51 250 216.51 250 432.99 125.01" style="fill: url(#radial-gradient-2);"/>
  <polygon points="216.5 250 216.5 250 216.5 250 216.51 250 216.51 250 216.51 500 216.51 500 0 375 216.5 250" style="fill: url(#radial-gradient-3);"/>
  <polygon points="216.51 250 216.51 250 0 125 0 125 216.51 0 216.51 250" style="fill: url(#radial-gradient-4);"/>
  <polygon points="216.51 500 216.51 250 432.99 374.99 432.99 374.99 433.01 375 433.01 375 216.51 500" style="fill: url(#radial-gradient-5);"/>
</svg>