<?xml version="1.0" encoding="UTF-8"?>
<svg fill="#fff" width="100pt" height="100pt" version="1.1" viewBox="0 0 100 100" xmlns="http://www.w3.org/2000/svg">
 <g>
  <path d="m48.859 38.5c-4.6523 0-8.8438 2.8008-10.625 7.0977-1.7773 4.2969-0.79688 9.2461 2.4922 12.535 3.2891 3.2891 8.2383 4.2734 12.535 2.4922s7.0977-5.9727 7.0977-10.625c-0.003906-6.3477-5.1484-11.496-11.5-11.5zm0 19c-3.0312 0-5.7695-1.8281-6.9297-4.6289-1.1602-2.8047-0.51953-6.0312 1.6289-8.1758 2.1445-2.1445 5.3672-2.7852 8.1719-1.625 2.8008 1.1602 4.6289 3.8945 4.6289 6.9297-0.003906 4.1406-3.3594 7.4961-7.5 7.5z"/>
  <path d="m48.859 23c-8.5312 0.011719-16.555 4.0586-21.641 10.91-4.918-1.2305-9.9297 1.6523-11.336 6.5273-1.4062 4.8711 1.2969 9.9844 6.1172 11.562 0.52344 7.0273 3.7695 13.574 9.0508 18.238 5.2852 4.6641 12.18 7.0781 19.219 6.7266 7.0352-0.34766 13.66-3.4375 18.453-8.6016 4.7891-5.168 7.375-12.004 7.1953-19.047-0.17969-7.0469-3.1055-13.742-8.1523-18.656-5.0469-4.918-11.82-7.668-18.867-7.6602zm-29.391 20c0-2.1914 1.3203-4.168 3.3477-5.0078 2.0234-0.83984 4.3555-0.375 5.9062 1.1758 1.5508 1.5508 2.0156 3.8828 1.1758 5.9062-0.83984 2.0234-2.8164 3.3477-5.0078 3.3477-2.9922-0.007813-5.4141-2.4297-5.4219-5.4219zm29.391 30c-5.6836-0.003906-11.168-2.1133-15.387-5.9219-4.2227-3.8086-6.8828-9.043-7.4727-14.699 3.7578-0.43359 6.8906-3.082 7.9492-6.7148 1.0586-3.6328-0.16406-7.5469-3.0977-9.9336 4.9141-6.2109 12.68-9.457 20.551-8.5938 7.875 0.86719 14.75 5.7227 18.195 12.855 3.4453 7.1328 2.9805 15.535-1.2344 22.242-4.2148 6.707-11.582 10.773-19.504 10.766z"/>
  <path d="m90 64.16c4.6484-13.391 2.4883-28.207-5.7969-39.711-8.2812-11.504-21.645-18.254-35.82-18.094-14.172 0.16016-27.383 7.2148-35.402 18.902-8.0156 11.691-9.8438 26.551-4.8906 39.832s16.062 23.32 29.777 26.906c13.711 3.5859 28.312 0.27344 39.133-8.8867 5.2344 3.5898 12.387 2.2578 15.977-2.9727 1.7227-2.5156 2.3789-5.6094 1.8203-8.6055s-2.2852-5.6484-4.7969-7.3711zm-80.621-14.16c0.015625-11.551 5.0938-22.52 13.891-30.008 8.7969-7.4883 20.43-10.746 31.836-8.918 11.41 1.8281 21.441 8.5586 27.457 18.422 6.0195 9.8633 7.4141 21.863 3.8164 32.844-4.7969-1.4648-9.9844 0.35547-12.82 4.4922-2.8359 4.1367-2.6562 9.6328 0.44141 13.578-7.7383 6.3906-17.617 9.5938-27.629 8.9609-10.016-0.63281-19.414-5.0547-26.285-12.367-6.8711-7.3164-10.699-16.969-10.707-27.004zm73.742 30.871c-3.0352 0-5.7695-1.8281-6.9297-4.6328-1.1602-2.8008-0.51953-6.0273 1.625-8.1719 2.1445-2.1445 5.3711-2.7852 8.1719-1.625 2.8047 1.1602 4.6328 3.8945 4.6328 6.9297-0.007813 4.1406-3.3594 7.4922-7.5 7.5z"/>
 </g>
</svg>
