<svg width="3373" height="2868" viewBox="0 0 3373 2868" fill="none" xmlns="http://www.w3.org/2000/svg">
<path d="M4.59872 1741.04C4.02894 1740.73 4.02892 1740.14 4.59862 1739.83L524.751 1453.07C525.186 1452.84 525.814 1452.84 526.248 1453.08L1699.25 2103.24C1699.68 2103.49 1700.32 2103.49 1700.75 2103.24L2852.76 1458.58C2853.19 1458.34 2853.82 1458.33 2854.25 1458.57L3371.75 1739.83C3372.32 1740.15 3372.33 1740.73 3371.77 1741.05L1704.6 2680.3C1704.16 2680.54 1703.53 2680.54 1703.09 2680.3L4.59872 1741.04Z" fill="url(#paint0_linear_1188_8010)"/>
<path d="M1.13541 1127.92C0.553741 1127.6 0.567998 1127 1.16468 1126.69L1699.62 250.069C1700.05 249.849 1700.64 249.851 1701.07 250.074L3368.22 1126.7C3368.8 1127 3368.82 1127.59 3368.25 1127.92L1701.1 2067.16C1700.66 2067.4 1700.03 2067.4 1699.59 2067.16L1.13541 1127.92Z" fill="url(#paint1_linear_1188_8010)"/>
<defs>
<linearGradient id="paint0_linear_1188_8010" x1="845.47" y1="1174.85" x2="2419.05" y2="2789.97" gradientUnits="userSpaceOnUse">
<stop stop-color="#DD75A6"/>
<stop offset="1" stop-color="#F2B05B"/>
</linearGradient>
<linearGradient id="paint1_linear_1188_8010" x1="845.47" y1="563.647" x2="1882.19" y2="2118.73" gradientUnits="userSpaceOnUse">
<stop stop-color="#6F73F6"/>
<stop offset="1" stop-color="#D975A9"/>
</linearGradient>
</defs>
</svg>
