<svg width="160" height="160" viewBox="0 0 160 160" fill="none" xmlns="http://www.w3.org/2000/svg">
<path fill-rule="evenodd" clip-rule="evenodd" d="M121.93 77.4769L98.8024 90.9438V106.988V117.87L121.93 104.403V77.4769ZM56.8684 44.6454L79.9962 58.1123L103.124 44.6454L79.9962 31.1784L56.8684 44.6454ZM38.0698 90.9438V104.411L44.3411 108.048L61.1976 117.862V90.9361L38.0698 77.4769V90.9438ZM25.5426 111.694V126.291L19.2713 122.638L13 118.992V79.9923L13.0077 41L80.0038 2L147 41V119L113.502 138.496L98.8101 147.048V132.451L134.457 111.694V55.5969L86.2751 83.6454C86.2751 91.4237 86.2751 99.202 86.2751 106.98V154.347L80.0038 158L73.7402 154.355L46.5058 138.504L38.0852 133.605V119L73.7325 139.758V83.6454L25.5503 55.5969V111.694H25.5426ZM79.9962 72.6938L31.8139 44.6454L80.0038 16.5892L128.186 44.6531L80.0038 72.7015L79.9962 72.6938Z" fill="#3E63DD"/>
</svg>
