<svg width="110" height="19" viewBox="0 0 110 19" fill="none" xmlns="http://www.w3.org/2000/svg">
<path d="M98.4816 17.9577V14.9049H102.561V3.05281H98.4816V0H110V3.05281H105.896V14.9049H110V17.9577H98.4816Z" fill="white"/>
<path d="M76.4089 17.9577V0H85.9265C87.0723 0 88.0985 0.247988 89.0049 0.743963C89.9114 1.22284 90.6297 1.88984 91.1598 2.74496C91.7071 3.60009 91.9808 4.56639 91.9808 5.64385C91.9808 6.72131 91.6986 7.70471 91.1342 8.59404C90.5698 9.46628 89.8087 10.1589 88.851 10.672C87.9104 11.1851 86.8585 11.4416 85.6956 11.4416H79.6669V17.9577H76.4089ZM88.8767 17.9577L83.3354 9.85108L86.85 9.20974L92.9043 17.9834L88.8767 17.9577ZM79.6669 8.54274H85.4903C86.0547 8.54274 86.5678 8.42302 87.0296 8.18358C87.4913 7.92704 87.8505 7.58499 88.107 7.15743C88.3807 6.72986 88.5175 6.25099 88.5175 5.72081C88.5175 5.19063 88.3721 4.72886 88.0814 4.3355C87.8077 3.92504 87.4229 3.60009 86.927 3.36066C86.431 3.12122 85.8752 3.0015 85.2595 3.0015H79.6669V8.54274Z" fill="white"/>
<path d="M52.4541 17.9577L60.612 0H64.024L72.1306 17.9577H68.5904L63.5109 6.77262C63.3912 6.46477 63.2544 6.13127 63.1005 5.77212C62.9465 5.39586 62.7926 5.01961 62.6387 4.64335C62.4848 4.26709 62.3394 3.89084 62.2026 3.51458C62.0657 3.12122 61.946 2.77062 61.8434 2.46277L62.6387 2.43712C62.519 2.79627 62.3907 3.17253 62.2539 3.56589C62.1171 3.94214 61.9717 4.3184 61.8178 4.69466C61.6638 5.07091 61.5099 5.43862 61.356 5.79777C61.2021 6.13983 61.0567 6.49043 60.9199 6.84958L55.8404 17.9577H52.4541ZM56.0969 14.007L57.3027 11.1081H67.0768L67.8464 14.007H56.0969Z" fill="white"/>
<path d="M32.6901 17.9577V0H42.2076C43.3535 0 44.3797 0.247988 45.2861 0.743963C46.1925 1.22284 46.9109 1.88984 47.441 2.74496C47.9883 3.60009 48.262 4.56639 48.262 5.64385C48.262 6.72131 47.9798 7.70471 47.4154 8.59404C46.851 9.46628 46.0899 10.1589 45.1322 10.672C44.1915 11.1851 43.1397 11.4416 41.9768 11.4416H35.9481V17.9577H32.6901ZM45.1578 17.9577L39.6166 9.85108L43.1312 9.20974L49.1855 17.9834L45.1578 17.9577ZM35.9481 8.54274H41.7715C42.3359 8.54274 42.849 8.42302 43.3108 8.18358C43.7725 7.92704 44.1317 7.58499 44.3882 7.15743C44.6619 6.72986 44.7987 6.25099 44.7987 5.72081C44.7987 5.19063 44.6533 4.72886 44.3626 4.3355C44.0889 3.92504 43.7041 3.60009 43.2081 3.36066C42.7122 3.12122 42.1563 3.0015 41.5406 3.0015H35.9481V8.54274Z" fill="white"/>
<path d="M0 5.01857V1.89372C0 0.944523 0.953227 0.175049 2.12909 0.175049H6.00018C7.17605 0.175049 8.12928 0.944521 8.12928 1.89371V4.41715C8.12928 4.85225 8.34339 5.26953 8.72453 5.57719C9.5182 6.21787 10.805 6.21787 11.5987 5.57719L17.6673 0.678435C18.0666 0.356122 18.6081 0.175049 19.1728 0.175049H20.2264C21.4023 0.175049 22.3555 0.944522 22.3555 1.89372V2.74425C22.3555 3.20007 22.1312 3.63722 21.7319 3.95953L15.6633 8.85829C14.8696 9.49896 14.8696 10.5377 15.6633 11.1784C16.0444 11.486 16.5614 11.6589 17.1004 11.6589H20.2264C21.4023 11.6589 22.3555 12.4283 22.3555 13.3775V16.5024C22.3555 17.4516 21.4023 18.2211 20.2264 18.2211H16.3553C15.1795 18.2211 14.2262 17.4516 14.2262 16.5024V13.979C14.2262 13.5439 14.0121 13.1266 13.631 12.8189C12.8373 12.1782 11.5505 12.1782 10.7568 12.8189L4.68824 17.7177C4.28895 18.04 3.74741 18.2211 3.18274 18.2211H2.1291C0.953229 18.2211 0 17.4516 0 16.5024V15.6519C0 15.196 0.224316 14.7589 0.623599 14.4366L6.69221 9.53782C7.48588 8.89715 7.48588 7.85841 6.69221 7.21774C6.31108 6.91008 5.79415 6.73723 5.25514 6.73723H2.1291C0.953229 6.73723 0 5.96776 0 5.01857Z" fill="#B16EFF"/>
</svg>
