<svg width="509" height="310" viewBox="0 0 509 310" fill="none" xmlns="http://www.w3.org/2000/svg">
<path d="M508.58 104.875C508.58 76.0204 481.534 49.2946 432.436 29.6135C384.778 10.5195 321.513 0 254.293 0C187.073 0 123.802 10.5195 76.1444 29.6135C27.0458 49.2946 0 76.0204 0 104.875C0 133.729 27.0458 160.455 76.1444 180.13C96.6437 188.343 120.049 194.996 145.802 199.936H0V204.905C0 233.76 27.0458 260.485 76.1444 280.161C123.808 299.26 187.073 309.78 254.287 309.78C321.501 309.78 384.772 299.26 432.43 280.161C481.534 260.485 508.574 233.76 508.574 204.905C508.574 176.051 481.528 149.325 432.43 129.644C411.93 121.431 388.52 114.778 362.772 109.838H508.574V104.875H508.58ZM416.2 191.978C413.318 196.965 408.165 199.936 402.407 199.936H359.037C357.394 165.063 337.921 132.751 307.886 114.795C333.189 119.522 356.528 127.711 375.545 138.568C394.414 149.337 408.094 161.949 416.212 176.051C419.082 181.038 419.076 186.991 416.2 191.972V191.978ZM185.685 154.893C185.685 130.053 216.461 109.844 254.287 109.844C292.113 109.844 322.889 130.053 322.889 154.893C322.889 179.733 292.113 199.942 254.287 199.942C216.461 199.942 185.685 179.733 185.685 154.893ZM92.3742 117.802C95.2561 112.821 100.409 109.844 106.167 109.844H149.537C151.18 144.717 170.653 177.029 200.682 194.985C175.379 190.258 152.046 182.069 133.029 171.212C114.16 160.437 100.48 147.831 92.3624 133.729C89.4923 128.742 89.4923 122.789 92.3742 117.808V117.802ZM149.537 99.9057H106.167C100.409 99.9057 95.2561 96.9289 92.3742 91.9479C89.4923 86.9668 89.4864 81.0133 92.3624 76.0263C100.474 61.9252 114.16 49.3184 133.029 38.5439C152.034 27.6923 175.368 19.5032 200.682 14.7712C170.653 32.7208 151.18 65.0324 149.537 99.9057ZM359.043 209.874H402.413C408.171 209.874 413.324 212.851 416.206 217.832C419.088 222.813 419.094 228.767 416.218 233.754C408.1 247.855 394.42 260.462 375.551 271.236C356.546 282.094 333.212 290.283 307.898 295.009C337.927 277.059 357.406 244.748 359.043 209.868V209.874ZM341.882 92.1436C338.312 97.0772 332.768 99.9057 326.678 99.9057H181.896C175.806 99.9057 170.268 97.0772 166.692 92.1436C163.122 87.2159 162.168 81.0785 164.065 75.2969C176.915 36.2016 213.17 9.93246 254.287 9.93246C295.404 9.93246 331.659 36.2016 344.509 75.2969C346.406 81.0726 345.452 87.2159 341.882 92.1436ZM150.534 19.0288C142.6 22.2843 135.075 25.9311 128.107 29.916C95.6415 48.4526 76.6484 73.2926 74.5611 99.9116H30.5265C25.3913 99.9116 20.7839 97.0416 18.5009 92.4163C16.218 87.7911 16.722 82.6084 19.8351 78.5465C22.1418 75.54 24.8814 72.5277 27.9708 69.5984C40.0676 58.136 57.5189 47.7885 79.8327 38.8463C100.528 30.5505 124.288 23.8913 150.522 19.0347L150.534 19.0288ZM30.5265 109.844H74.5552C76.6425 136.457 95.6356 161.303 128.101 179.84C135.075 183.825 142.6 187.471 150.528 190.733C124.294 185.864 100.534 179.211 79.8386 170.915C57.5189 161.973 40.0735 151.626 27.9767 140.163C24.8873 137.234 22.1478 134.222 19.8411 131.215C16.7279 127.147 16.2239 121.965 18.5069 117.345C20.7839 112.72 25.3973 109.85 30.5325 109.85L30.5265 109.844ZM166.698 217.642C170.268 212.709 175.812 209.88 181.902 209.88H326.684C332.774 209.88 338.318 212.709 341.888 217.642C345.457 222.57 346.412 228.713 344.515 234.489C331.671 273.584 295.41 299.853 254.293 299.853C213.176 299.853 176.921 273.584 164.071 234.489C162.174 228.713 163.128 222.57 166.698 217.642ZM358.052 290.763C365.986 287.508 373.511 283.855 380.479 279.87C412.944 261.333 431.938 236.493 434.025 209.874H478.053C483.189 209.874 487.796 212.744 490.079 217.37C492.362 221.995 491.858 227.178 488.745 231.239C486.438 234.246 483.699 237.258 480.609 240.188C468.507 251.656 451.055 262.003 428.747 270.94C408.052 279.235 384.292 285.895 358.058 290.757L358.052 290.763ZM478.053 199.942H434.025C431.938 173.329 412.944 148.483 380.479 129.946C373.523 125.973 365.992 122.32 358.046 119.053C384.286 123.921 408.04 130.575 428.741 138.871C451.061 147.813 468.507 158.16 480.603 169.623C483.693 172.552 486.432 175.564 488.739 178.571C491.852 182.639 492.356 187.821 490.073 192.441C487.796 197.066 483.183 199.936 478.048 199.936L478.053 199.942ZM96.4243 221.526C99.8754 214.339 106.973 209.88 114.949 209.88H149.537C151.18 244.759 170.653 277.065 200.682 295.021C175.368 290.295 152.034 282.105 133.029 271.248C118.631 263.029 107.151 253.63 98.897 243.307C93.91 237.074 92.9613 228.725 96.4183 221.532L96.4243 221.526ZM22.8415 220.429C25.5218 213.924 31.5465 209.88 38.5614 209.88H74.5552C76.6425 236.493 95.6356 261.339 128.101 279.876C135.075 283.861 142.6 287.508 150.528 290.769C124.294 285.901 100.54 279.247 79.8327 270.952C57.5189 262.009 40.0676 251.662 27.9708 240.199C27.4786 239.731 26.9924 239.257 26.518 238.788C21.5963 233.908 20.185 226.875 22.8356 220.435L22.8415 220.429ZM358.052 19.0288C384.286 23.8913 408.046 30.5505 428.741 38.8404C451.055 47.7825 468.507 58.1301 480.603 69.5924C481.095 70.0609 481.582 70.5353 482.056 71.0037C486.978 75.884 488.389 82.9167 485.738 89.3565C483.058 95.8616 477.034 99.9057 470.013 99.9057H434.019C431.932 73.2926 412.938 48.4467 380.473 29.91C373.499 25.9252 365.975 22.2784 358.046 19.0229L358.052 19.0288ZM412.162 88.2654C408.711 95.4465 401.613 99.9116 393.637 99.9116H359.049C357.406 65.0383 337.933 32.7267 307.898 14.7712C333.201 19.4973 356.54 27.6864 375.557 38.5439C389.949 46.7567 401.429 56.1614 409.689 66.4852C414.676 72.7234 415.625 81.0666 412.168 88.2654H412.162Z" fill="black"/>
</svg>
