<svg width="148" height="142" viewBox="0 0 148 142" fill="none" xmlns="http://www.w3.org/2000/svg">
<g opacity="0.5">
<path d="M72.1643 8.8015C72.5021 8.8015 72.8399 8.89488 73.1428 9.06997L125.106 39.3609C125.712 39.7111 126.084 40.3647 126.073 41.0534L125.875 101.297C125.875 101.997 125.502 102.639 124.896 102.989L72.7351 132.942C72.4439 133.117 72.0944 133.199 71.7566 133.199C71.4188 133.199 71.081 133.105 70.7782 132.93L18.815 102.639C18.2093 102.289 17.8366 101.635 17.8482 100.947L18.0463 40.7033C18.0463 40.0029 18.419 39.3609 19.0247 39.0107L71.1858 9.0583C71.4771 8.88321 71.8149 8.8015 72.1643 8.8015ZM72.1876 0.000208463C70.3355 -0.0114643 68.4834 0.46712 66.8177 1.42429L14.6566 31.365C11.3252 33.2794 9.27508 36.8162 9.25178 40.6682L9.05376 100.912C9.04211 104.752 11.0806 108.312 14.3887 110.25L66.3518 140.541C68.0059 141.51 69.8579 141.988 71.7217 142C73.5738 142.011 75.4258 141.533 77.0915 140.576L129.253 110.623C132.584 108.709 134.634 105.172 134.657 101.32L134.855 41.0885C134.867 37.2481 132.829 33.6879 129.521 31.7502L77.5575 1.45931C75.8918 0.490466 74.0397 0.000208463 72.1876 0.000208463Z" fill="#1B4ADD"/>
<path d="M84.1941 35.558H76.5761C76.0053 35.558 75.4928 35.9198 75.2948 36.4568L50.81 103.739C50.647 104.182 50.9731 104.649 51.4507 104.649H59.0687C59.6395 104.649 60.152 104.287 60.35 103.75L84.8464 36.4568C84.9862 36.0249 84.66 35.558 84.1941 35.558ZM70.8684 35.558H63.2504C62.6797 35.558 62.1672 35.9198 61.9691 36.4568L37.4844 103.739C37.3213 104.182 37.6475 104.649 38.125 104.649H45.743C46.3138 104.649 46.8263 104.287 47.0243 103.75L71.5207 36.4568C71.6722 36.0249 71.346 35.558 70.8684 35.558ZM80.7346 61.6467C80.5132 61.0514 79.6746 61.0514 79.4532 61.6467L75.4928 72.5257C75.388 72.8292 75.388 73.1561 75.4928 73.4596L86.5238 103.762C86.7218 104.299 87.2343 104.661 87.8051 104.661H95.4231C95.9007 104.661 96.2268 104.194 96.0637 103.75L80.7346 61.6467ZM109.378 103.739L87.3974 43.3554C87.1761 42.7601 86.3374 42.7601 86.1161 43.3554L82.1557 54.2345C82.0508 54.538 82.0508 54.8648 82.1557 55.1683L99.8494 103.762C100.047 104.299 100.56 104.661 101.131 104.661H108.749C109.203 104.649 109.541 104.182 109.378 103.739Z" fill="#1B4ADD"/>
</g>
</svg>
