<svg width="148" height="142" viewBox="0 0 148 142" fill="none" xmlns="http://www.w3.org/2000/svg">
<g opacity="0.5">
<g clip-path="url(#clip0_5165_11581)">
<path d="M73.2402 8.79852C73.5765 8.79852 73.9128 8.89175 74.2142 9.0549L126.125 39.1796C126.728 39.5293 127.099 40.1819 127.099 40.8694V101.107C127.099 101.806 126.728 102.447 126.125 102.797L74.2142 132.922C73.9244 133.097 73.5765 133.178 73.2402 133.178C72.904 133.178 72.5677 133.085 72.2663 132.922L20.3558 102.82C19.7529 102.471 19.3818 101.818 19.3818 101.131V40.8811C19.3818 40.1819 19.7529 39.5409 20.3558 39.1913L72.2663 9.06656C72.5677 8.89175 72.904 8.79852 73.2402 8.79852ZM73.2402 0C71.3967 0 69.5415 0.477801 67.8834 1.44506L15.9845 31.5581C12.6684 33.481 10.6277 37.0354 10.6277 40.8811V101.119C10.6277 104.965 12.6684 108.519 15.9845 110.442L67.895 140.567C69.5531 141.522 71.3967 142.012 73.2518 142.012C75.107 142.012 76.9506 141.534 78.6087 140.567L130.519 110.442C133.835 108.519 135.876 104.965 135.876 101.119V40.8811C135.876 37.0354 133.835 33.481 130.519 31.5581L78.5971 1.44506C76.939 0.477801 75.0838 0 73.2402 0Z" fill="#E57310"/>
<path d="M60.0105 40.1465H53.2274C52.7173 40.1465 52.2651 40.4611 52.0911 40.9506L30.2811 101.037C30.142 101.433 30.4318 101.853 30.8493 101.853H37.6323C38.1425 101.853 38.5947 101.538 38.7686 101.049L60.5786 40.9506C60.7178 40.566 60.4279 40.1465 60.0105 40.1465Z" fill="#E57310"/>
<path d="M68.7879 63.4421C68.5907 62.906 67.8487 62.906 67.6516 63.4421L64.1267 73.1613C64.0339 73.4293 64.0339 73.7206 64.1267 74.0003L73.9476 101.06C74.1215 101.538 74.5737 101.864 75.0839 101.864H81.8669C82.2843 101.864 82.5742 101.445 82.4351 101.048L68.7879 63.4421Z" fill="#E57310"/>
<path d="M71.8605 40.1465H65.0774C64.5673 40.1465 64.1151 40.4611 63.9411 40.9506L42.1427 101.037C42.0035 101.433 42.2934 101.853 42.7108 101.853H49.4939C50.004 101.853 50.4562 101.538 50.6302 101.049L72.4402 40.9506C72.5793 40.566 72.2895 40.1465 71.8605 40.1465Z" fill="#E57310"/>
<path d="M74.7128 47.1042C74.5157 46.5681 73.7736 46.5681 73.5765 47.1042L70.0516 56.8234C69.9589 57.0914 69.9589 57.3827 70.0516 57.6624L85.8091 101.061C85.983 101.539 86.4352 101.865 86.9454 101.865H93.7285C94.1459 101.865 94.4357 101.445 94.2966 101.049L74.7128 47.1042Z" fill="#E57310"/>
<path d="M115.631 40.1465H108.848C108.338 40.1465 107.886 40.4611 107.712 40.9506L91.9661 84.3489C91.8733 84.6169 91.8733 84.9082 91.9661 85.1879L95.4909 94.9071C95.688 95.4432 96.4301 95.4432 96.6272 94.9071L116.199 40.9739C116.35 40.566 116.049 40.1465 115.631 40.1465Z" fill="#E57310"/>
<path d="M89.566 78.557C89.7631 79.0931 90.5052 79.0931 90.7023 78.557L104.35 40.9622C104.489 40.566 104.199 40.1465 103.781 40.1465H96.9983C96.4882 40.1465 96.0359 40.4611 95.862 40.9506L86.0411 68.0104C85.9484 68.2784 85.9484 68.5698 86.0411 68.8495L89.566 78.557Z" fill="#E57310"/>
</g>
</g>
<defs>
<clipPath id="clip0_5165_11581">
<rect width="125.225" height="142" fill="white" transform="translate(10.6277)"/>
</clipPath>
</defs>
</svg>
