<svg width="20" height="20" viewBox="0 0 20 20" fill="none" xmlns="http://www.w3.org/2000/svg">
<path d="M11.7998 8.3335H12.2915" stroke="white" stroke-width="1.25" stroke-linecap="round" stroke-linejoin="round"/>
<path d="M7.7085 8.3335H9.70849" stroke="white" stroke-width="1.25" stroke-linecap="round" stroke-linejoin="round"/>
<path d="M2.91653 9.1665V15.2498C2.91653 17.4665 4.13319 17.9915 5.60819 16.4082L5.61654 16.3998C6.29987 15.6748 7.34154 15.7332 7.9332 16.5248L8.77486 17.6498C9.44986 18.5415 10.5415 18.5415 11.2165 17.6498L12.0582 16.5248C12.6582 15.7248 13.6999 15.6665 14.3832 16.3998C15.8665 17.9832 17.0749 17.4582 17.0749 15.2415V5.8665C17.0749 2.50817 16.2915 1.6665 13.1415 1.6665H6.84154C3.69154 1.6665 2.9082 2.50817 2.9082 5.8665" stroke="white" stroke-width="1.25" stroke-linecap="round" stroke-linejoin="round"/>
</svg>
