<svg width="512" height="368" viewBox="0 0 512 368" fill="none" xmlns="http://www.w3.org/2000/svg">
<g clip-path="url(#clip0_2401_7847)">
<path d="M322.499 59.9784L319.313 68.7131L300.548 120.289L266.03 215.119L241.393 282.808C241.393 282.808 241.358 282.79 241.34 282.79C240.946 283.981 240.535 285.171 240.097 286.352C233.244 305.056 222.015 321.65 207.644 334.883C207.644 334.883 207.644 334.892 207.636 334.892C185.58 355.206 156.138 367.59 123.808 367.59C110.566 367.59 97.7963 365.516 85.8322 361.665C73.3604 357.647 61.755 351.713 51.3575 344.195C47.3578 341.307 43.5331 338.191 39.9185 334.857C39.9272 334.857 39.9272 334.848 39.9272 334.848H39.936C41.6426 334.979 43.3843 335.041 45.126 335.041C48.4518 335.041 51.7163 334.813 54.9196 334.375C81.5524 330.752 103.546 312.539 112.614 288.033C112.692 287.84 112.762 287.639 112.833 287.438L168.549 134.354C169.205 132.595 169.896 130.844 170.632 129.129C171.971 125.996 173.45 122.941 175.06 119.966C194.306 84.2569 232.054 59.9784 275.473 59.9784H322.481H322.499Z" fill="black"/>
<path d="M512 5.34058e-05L508.779 8.83971L490.172 59.9784L430.885 222.899L408.305 284.917L407.788 286.344C390.433 333.754 344.913 367.59 291.499 367.59C278.073 367.59 265.146 365.454 253.042 361.507C240.754 357.499 229.323 351.617 219.057 344.195H219.048C215.066 341.325 211.268 338.226 207.662 334.901C209.185 334.997 210.716 335.049 212.265 335.049C215.793 335.049 219.258 334.796 222.646 334.297H222.654C249.068 330.481 270.835 312.294 279.806 287.902C279.814 287.91 279.823 287.902 279.823 287.902L337.701 128.875L352.028 89.4994L356.93 76.0474L357.884 73.4217C359.643 68.7918 361.699 64.302 364.028 59.9784C382.661 25.3725 418.65 1.48792 460.327 5.34058e-05H512Z" fill="black"/>
<path d="M132.857 120.281L98.514 214.646L64.4682 308.163C60.1447 319.978 51.2613 329.588 39.9448 334.839H39.9272C16.559 313.318 1.49662 282.887 0.105026 248.937C0.0350085 247.23 0 245.497 0 243.773C0 228.991 2.59063 214.812 7.34304 201.676C24.576 154.02 70.2184 119.957 123.816 119.957C126.862 119.957 129.873 120.071 132.857 120.281Z" fill="black"/>
</g>
<defs>
<clipPath id="clip0_2401_7847">
<rect width="512" height="367.59" fill="white"/>
</clipPath>
</defs>
</svg>
