<svg width="512" height="512" viewBox="0 0 512 512" fill="none" xmlns="http://www.w3.org/2000/svg">
<circle cx="256" cy="256" r="256" fill="#FFF533"/>
<path d="M299.478 169.012L297.248 175.126L284.113 211.229L259.95 277.61L242.704 324.992C242.704 324.992 242.679 324.98 242.667 324.98C242.391 325.813 242.103 326.646 241.797 327.474C237 340.566 229.14 352.182 219.08 361.445C219.08 361.445 219.08 361.451 219.074 361.451C203.635 375.671 183.026 384.34 160.394 384.34C151.125 384.34 142.186 382.888 133.811 380.192C125.081 377.38 116.957 373.226 109.679 367.964C106.879 365.942 104.202 363.761 101.672 361.427C101.678 361.427 101.678 361.42 101.678 361.42H101.684C102.879 361.512 104.098 361.555 105.317 361.555C107.645 361.555 109.93 361.396 112.173 361.09C130.816 358.553 146.211 345.804 152.559 328.65C152.614 328.515 152.663 328.374 152.712 328.233L191.713 221.075C192.172 219.843 192.656 218.618 193.171 217.417C194.108 215.224 195.144 213.086 196.271 211.003C209.743 186.007 236.167 169.012 266.56 169.012H299.466H299.478Z" fill="black"/>
<path d="M432.128 127.027L429.874 133.215L416.849 169.012L375.348 283.057L359.542 326.469L359.18 327.468C347.031 360.655 315.167 384.34 277.777 384.34C268.379 384.34 259.331 382.845 250.858 380.082C242.256 377.276 234.255 373.159 227.068 367.964H227.062C224.275 365.954 221.616 363.786 219.092 361.458C220.158 361.525 221.23 361.562 222.314 361.562C224.783 361.562 227.209 361.384 229.58 361.035H229.586C248.076 358.364 263.313 345.633 269.593 328.558C269.599 328.564 269.605 328.558 269.605 328.558L310.119 217.24L320.148 189.677L323.579 180.26L324.247 178.422C325.478 175.181 326.918 172.039 328.548 169.012C341.591 144.788 366.783 128.069 395.958 127.027H432.128Z" fill="black"/>
<path d="M166.729 211.227L142.688 277.283L118.856 342.744C115.83 351.015 109.611 357.742 101.69 361.418H101.678C85.3198 346.353 74.7761 325.051 73.802 301.286C73.753 300.092 73.7285 298.878 73.7285 297.672C73.7285 287.324 75.542 277.399 78.8686 268.203C90.9317 234.844 122.881 211 160.4 211C162.532 211 164.64 211.08 166.729 211.227Z" fill="black"/>
</svg>
