<svg xmlns="http://www.w3.org/2000/svg" width="32" height="32" viewBox="0 0 32 32" fill="none">
<path d="M0 16C0 7.16344 7.19459 0 16.0696 0C24.9388 0 31.7913 7.0303 32 15.9307C32 18.7706 31.0261 21.1602 28.5913 23.4113C26.5338 25.3135 23.0261 25.5931 20.4524 24.1732C18.6154 23.1181 17.1997 20.8711 16 19.2208L13.7739 22.6147H8.97392L13.4957 15.9305L9.11305 9.35065H14.0522L16.0348 12.7446L17.9826 9.35065H22.9565L18.4348 15.9307C18.4348 15.9307 20.5913 19.2208 21.7739 20.5022C22.9565 21.7835 25.1131 21.8182 26.5044 20.4329C28.034 18.9098 28.3765 17.6971 28.3826 15.9307C28.4065 9.09397 22.9524 3.60173 16.0696 3.60173C9.19242 3.60173 3.61739 9.15262 3.61739 16C3.61739 22.8474 9.19242 28.3983 16.0696 28.3983C17.0208 28.3983 17.9326 28.3187 18.8174 28.1212L19.5826 31.619C18.3236 31.9001 17.3063 32 16.0696 32C7.19459 32 0 24.8366 0 16Z" fill="#FC4F37"/>
</svg>
