<svg width="24" height="24" viewBox="0 0 24 24" fill="none" xmlns="http://www.w3.org/2000/svg">
<path d="M1.07544 20.904V22.2503C1.07544 22.7603 1.48795 23.1737 1.99889 23.1737H13.7373C14.2473 23.1737 14.6607 22.7603 14.6607 22.2503V20.904C14.6607 19.0384 13.1429 17.5195 11.2755 17.5195H4.46074C2.59418 17.5195 1.07554 19.0373 1.07554 20.904H1.07544ZM2.92231 20.904C2.92231 20.0556 3.61325 19.3656 4.46076 19.3656H11.2756C12.124 19.3656 12.814 20.0556 12.814 20.904V21.3268H2.92241L2.92231 20.904Z" fill="#191B1C"/>
<path d="M4.28454 9.05688C3.92267 8.70907 3.34986 8.71001 2.9936 9.06625C2.63267 9.42719 2.63267 10.0113 2.9936 10.3713L8.35232 15.729C8.71326 16.09 9.29732 16.09 9.65732 15.729C10.0136 15.3728 10.0145 14.799 9.6667 14.4381C10.2461 14.0256 10.8076 13.5943 11.3504 13.1434L17.883 20.1053C19.0061 21.3034 20.9008 21.3391 22.0681 20.1728C23.2334 19.0094 23.2034 17.1147 22.0025 15.9877L15.0396 9.45418C15.4906 8.91043 15.9218 8.34886 16.3343 7.7695C16.7065 8.12856 17.2765 8.10888 17.6252 7.76012C17.9862 7.39919 17.9862 6.81512 17.6252 6.45512C12.4175 1.24736 13.2808 2.1116 12.2665 1.09736C11.9056 0.736426 11.3215 0.736426 10.9615 1.09736C10.6053 1.45362 10.6043 2.02736 10.9521 2.3883C8.36278 4.23049 6.12694 6.46638 4.2847 9.0567L4.28454 9.05688ZM13.819 10.8391L20.7406 17.334C21.1737 17.739 21.2 18.4327 20.765 18.8677C20.5587 19.0739 20.2719 19.1968 19.9925 19.1799C19.7009 19.1752 19.4309 19.0561 19.2312 18.8433L12.7354 11.9217L12.9116 11.7455C13.1573 11.5083 13.3991 11.2674 13.6363 11.0217L13.819 10.8391ZM12.2712 3.71035C12.364 3.80316 15.1935 6.63259 15.0135 6.45259C13.3044 8.91355 10.9728 11.2958 8.34961 13.1164L5.60737 10.3742C7.42143 7.76131 9.65833 5.52451 12.2712 3.71035Z" fill="#191B1C"/>
</svg>
