<svg width="24" height="24" viewBox="0 0 24 24" fill="none" xmlns="http://www.w3.org/2000/svg">
<path d="M3.95894 17.2247C2.34549 17.2247 1.03309 18.5372 1.03309 20.1515C1.03216 21.764 2.34465 23.0766 3.95894 23.0766C5.57238 23.0766 6.88478 21.7641 6.88478 20.1508C6.88478 19.6464 6.74509 19.1786 6.51916 18.7633L8.3651 16.9173C9.41042 17.6908 10.6666 18.1136 11.9989 18.1136C13.3508 18.1136 14.5967 17.6833 15.6328 16.9173L17.4787 18.7642C17.2528 19.1786 17.1131 19.6473 17.1131 20.1517C17.114 21.7642 18.4265 23.0768 20.0399 23.0768C21.6532 23.0768 22.9667 21.7643 22.9667 20.151C22.9667 18.5375 21.6532 17.2242 20.0399 17.2242C19.6049 17.2242 19.1952 17.3264 18.824 17.497L16.9358 15.6089C17.7064 14.556 18.1293 13.2932 18.1293 11.975C18.1293 10.6185 17.6812 9.36789 16.9321 8.35053L18.7958 6.48772C19.1746 6.66772 19.5936 6.77647 20.0408 6.77647C21.6543 6.77647 22.9676 5.46396 22.9676 3.84967C22.9676 2.23622 21.6542 0.923828 20.0399 0.923828C18.4264 0.923828 17.114 2.23634 17.114 3.85063C17.114 4.34376 17.2481 4.80124 17.4637 5.20908L15.6262 7.04563C14.609 6.29563 13.3565 5.84563 11.9991 5.84563C10.6407 5.84563 9.3891 6.29469 8.37198 7.04563L6.53543 5.20814C6.75106 4.80033 6.88511 4.34282 6.88511 3.84969C6.88511 2.23624 5.5726 0.923852 3.95927 0.923852C2.34489 0.923852 1.03247 2.23636 1.03247 3.84969C1.03247 5.94876 3.22153 7.42809 5.20439 6.48777L7.06814 8.35152C5.48375 10.5031 5.4622 13.4186 7.06439 15.6086L5.17532 17.4977C4.80407 17.3261 4.39438 17.2249 3.95938 17.2249L3.95894 17.2247ZM3.95894 21.2305C3.36268 21.2305 2.87893 20.7458 2.87893 20.1505C2.87893 19.5543 3.36268 19.0705 3.95894 19.0705C4.55519 19.0705 5.03894 19.5552 5.03894 20.1505C5.03894 20.7458 4.55426 21.2305 3.95894 21.2305ZM11.307 11.458C11.307 11.0764 11.6183 10.7661 11.9989 10.7661C12.3804 10.7661 12.6908 11.0764 12.6908 11.458C12.6908 11.8395 12.3795 12.1498 11.9989 12.1498C11.6183 12.1498 11.307 11.8395 11.307 11.458ZM11.9998 13.9957C13.0564 13.9957 14.0183 14.5217 14.5957 15.3748C13.4575 16.2476 11.9979 16.4342 10.7173 16.0507C10.2195 15.8951 9.81726 15.6907 9.40475 15.3748C9.9813 14.5226 10.9422 13.9957 11.9996 13.9957H11.9998ZM21.1208 20.1505C21.1208 20.7458 20.6361 21.2305 20.0399 21.2305C19.4436 21.2305 18.9598 20.7458 18.9598 20.1505C18.9598 19.5543 19.4436 19.0705 20.0399 19.0705C20.6361 19.0705 21.1208 19.5552 21.1208 20.1505ZM20.0399 2.76924C20.6361 2.76924 21.1208 3.25392 21.1208 3.84924C21.1208 4.44549 20.6361 4.92924 20.0399 4.92924C19.4436 4.92924 18.9598 4.44456 18.9598 3.84924C18.9608 3.25392 19.4445 2.76924 20.0399 2.76924ZM16.2834 11.9744C16.2834 12.6598 16.1043 13.3179 15.8015 13.916C15.3609 13.3947 14.8209 12.9729 14.2152 12.6719C14.4149 12.3091 14.5387 11.8994 14.5387 11.4569C14.5387 10.0572 13.4006 8.9182 12 8.9182C10.6003 8.9182 9.46125 10.0563 9.46125 11.4569C9.46125 11.8994 9.585 12.3091 9.7847 12.6719C9.17908 12.9729 8.63908 13.3938 8.19938 13.9151C7.89563 13.316 7.7175 12.6597 7.7175 11.9735C7.7175 9.61195 9.63844 7.68998 12.0001 7.68998C14.3616 7.69092 16.2836 9.61279 16.2836 11.9745L16.2834 11.9744ZM2.87889 3.84924C2.87889 3.25392 3.36263 2.76924 3.95889 2.76924C4.55514 2.76924 5.03889 3.25392 5.03889 3.84924C5.03889 4.44549 4.55421 4.93017 3.95889 4.93017C3.36263 4.93017 2.87889 4.44549 2.87889 3.84924Z" fill="#191B1C"/>
</svg>
