<svg width="24" height="24" viewBox="0 0 24 24" fill="none" xmlns="http://www.w3.org/2000/svg">
<path d="M18.1651 23.0765C19.7588 23.0765 21.0554 21.7846 21.0554 20.1965V5.22457C21.0554 3.63176 19.7589 2.33521 18.1651 2.33521H15.8973C15.6948 1.52615 14.9663 0.92334 14.0954 0.92334H9.90476C9.03289 0.92334 8.30444 1.52615 8.10102 2.33521H5.83321C4.2404 2.33521 2.94385 3.63176 2.94385 5.22457V20.1975C2.94479 21.7846 4.24134 23.0765 5.83417 23.0765H18.1651ZM14.0954 2.76937C14.102 2.76937 14.1132 2.78062 14.1132 2.78812L14.0954 3.75751L9.88604 3.72938L9.90479 2.76938L14.0954 2.76937ZM4.7906 20.1975V5.22457C4.7906 4.64989 5.25841 4.18206 5.83311 4.18206H8.09437C8.29968 5.00893 9.06843 5.60332 9.90469 5.60332H14.0953C14.9466 5.60332 15.7013 4.99957 15.9047 4.18206H18.166C18.7416 4.18206 19.2094 4.64987 19.2094 5.22457V20.1975C19.2094 20.7665 18.7416 21.2306 18.165 21.2306H5.83407C5.25846 21.2306 4.79062 20.7665 4.79062 20.1975H4.7906Z" fill="#191B1C"/>
<path d="M7.40355 18.2233C8.69635 18.7511 10.1794 18.1389 10.7139 16.8339C11.1095 15.8683 10.8789 14.7648 10.112 14.0365L10.637 12.7521C10.667 12.679 10.7204 12.6443 10.7607 12.6274C10.802 12.6105 10.8657 12.5974 10.937 12.6265L12.527 13.2761C13.5798 13.7074 14.7967 13.2096 15.2344 12.1399L15.9704 10.3389L16.1616 10.7946C16.3585 11.2652 16.9013 11.4855 17.3691 11.2877C17.8397 11.0908 18.06 10.5489 17.8632 10.0792L16.8094 7.56956C16.5994 7.06988 16.02 6.89643 15.601 7.07549L13.0894 8.13017C12.6188 8.32705 12.3984 8.86892 12.5953 9.33862C12.7922 9.80924 13.3388 10.0296 13.8028 9.83175L14.2594 9.63956L13.5234 11.4414C13.4934 11.5146 13.44 11.5492 13.3997 11.5661C13.3603 11.5839 13.2975 11.598 13.2225 11.5671L11.6334 10.9174C10.5759 10.4861 9.3628 10.9858 8.92598 12.0536L8.40098 13.338C8.05504 13.3324 7.70817 13.3943 7.37911 13.5321C6.75472 13.7946 6.26817 14.2849 6.01224 14.9121C5.48256 16.2105 6.10411 17.6918 7.40349 18.2234L7.40355 18.2233ZM7.72323 15.6114C7.83197 15.3432 8.09167 15.181 8.36448 15.181C8.84448 15.181 9.1951 15.6714 9.0048 16.1345V16.1354C8.85668 16.4964 8.44887 16.6576 8.10293 16.5142C7.74948 16.3707 7.57699 15.9676 7.72325 15.6114L7.72323 15.6114Z" fill="#191B1C"/>
</svg>
