<svg width="24" height="24" viewBox="0 0 24 24" fill="none" xmlns="http://www.w3.org/2000/svg">
<path d="M4.19709 22.8403C4.5899 23.1225 5.09428 23.1525 5.5096 22.9322L8.26024 21.4875C8.48712 21.3694 8.73463 21.3375 8.93711 21.3994C9.92056 21.7031 10.9509 21.8569 12 21.8569C18.2081 21.8569 23.1187 16.4588 22.3903 10.1513C21.8363 5.34942 17.9474 1.49454 13.1448 0.98358C6.7032 0.307644 1.53864 5.37006 1.53864 11.3945C1.53864 13.8649 2.41612 16.2639 4.00896 18.151C4.13927 18.3048 4.19458 18.5401 4.15521 18.7801L3.69489 21.6253C3.61801 22.0959 3.81114 22.5618 4.1974 22.8403L4.19709 22.8403ZM3.38428 11.3945C3.38428 6.38998 7.68172 2.25958 12.9504 2.81998C16.9001 3.23998 20.0998 6.41254 20.5563 10.3641C21.1703 15.6919 16.9985 20.0109 11.9998 20.0109C11.1354 20.0109 10.2879 19.8844 9.48172 19.6359C8.80579 19.4259 8.06798 19.5038 7.40234 19.8534L5.7064 20.7431L5.9764 19.0763C6.10296 18.3 5.89859 17.5284 5.41766 16.9594C4.10611 15.4059 3.38421 13.4287 3.38421 11.3943L3.38428 11.3945Z" fill="#191B1C"/>
<path d="M9.68252 9.94139C10.1925 9.94139 10.606 9.52794 10.606 9.01794C10.606 8.14326 11.4188 7.42326 12.3872 7.67356C13.605 7.98856 13.7635 9.70888 12.6113 10.2723C11.6794 10.7298 11.0766 11.7226 11.0766 12.8036V12.9339C11.0766 13.4439 11.4891 13.8573 12 13.8573C12.51 13.8573 12.9235 13.4439 12.9235 12.9339V12.8036C12.9235 12.422 13.1204 12.0798 13.4241 11.9307C16.1186 10.6117 15.7172 6.62915 12.8494 5.88659C10.7354 5.34191 8.76007 6.91408 8.76007 9.01883C8.75913 9.52789 9.17259 9.94134 9.68259 9.94134L9.68252 9.94139Z" fill="#191B1C"/>
<path d="M11.3465 15.4293C11.0361 15.7405 10.9461 16.2937 11.3465 16.7399C11.7355 17.1083 12.3046 17.0849 12.6477 16.7399C12.9983 16.3912 13.0312 15.8118 12.6477 15.4293C12.3168 15.088 11.6877 15.088 11.3465 15.4293Z" fill="#191B1C"/>
</svg>
