<svg width="24" height="24" viewBox="0 0 24 24" fill="none" xmlns="http://www.w3.org/2000/svg">
<g clip-path="url(#clip0_4842_15145)">
<path d="M23.0645 2.72242C23.0645 2.72148 23.0645 2.72148 23.0635 2.72148V2.72055C22.817 1.86555 22.1335 1.18023 21.2776 0.933675H21.2767C21.2757 0.933675 21.2748 0.932737 21.2738 0.932737C18.901 0.249289 16.5348 0.654289 14.5483 2.34367C13.8115 2.96993 12.9011 3.94867 10.5058 6.32143L4.79257 5.98488C4.52818 5.96988 4.27318 6.06738 4.0857 6.25395L1.58922 8.75043C1.3539 8.98574 1.2639 9.32981 1.35203 9.65043C1.44109 9.97104 1.69609 10.2195 2.01952 10.2992L5.63176 11.1954L5.32989 11.4973C4.6305 12.1957 4.49363 13.2373 4.89956 14.0811L3.01612 15.0411C2.56518 15.2352 2.23799 15.6336 2.13673 16.1165C2.06079 16.4765 2.12267 16.8421 2.29517 17.1543C0.557979 19.3358 0.611427 22.3491 0.614235 22.4859C0.62736 22.9771 1.02298 23.3718 1.5133 23.384C1.52455 23.384 1.55455 23.3849 1.60236 23.3849C2.13862 23.3849 4.84428 23.2987 6.84588 21.7021C7.16463 21.8774 7.5115 21.9384 7.88088 21.8615C8.36369 21.7593 8.76214 21.4321 8.95714 20.9802L9.91714 19.0977C10.2275 19.2468 10.5612 19.3302 10.8978 19.3302C11.4781 19.3302 12.0584 19.109 12.5009 18.6674L12.8028 18.3655L13.699 21.9778C13.7796 22.3012 14.0271 22.5553 14.3478 22.6453C14.6571 22.7334 15.0059 22.65 15.2478 22.409L17.7442 19.9125C17.9308 19.726 18.0283 19.4691 18.0133 19.2057L17.6786 13.4925L21.197 9.97407C23.2417 7.92659 23.8332 5.37927 23.0645 2.72247L23.0645 2.72242ZM15.0958 19.9472L14.3251 16.8421L15.9301 15.238L16.1448 18.899L15.0958 19.9472ZM20.8061 7.5001C20.8051 7.50198 20.8033 7.50479 20.8014 7.50666L16.4898 3.19506C16.4926 3.19319 16.4954 3.19038 16.4992 3.1885C17.7864 2.38505 19.2704 2.28476 20.7263 2.69725C20.7385 2.701 20.7507 2.70193 20.7628 2.70568C21.015 2.77975 21.2166 2.9813 21.2907 3.23349C21.7116 4.68943 21.615 6.20829 20.806 7.49997L20.8061 7.5001ZM4.05023 8.90072L5.09836 7.85165L8.75932 8.06634C8.66651 8.15915 7.05306 9.77353 7.15526 9.67041L4.05023 8.90072ZM2.52585 21.4707C2.63085 20.6598 2.89617 19.4842 3.5693 18.5223L5.4743 20.4264C4.51242 21.1004 3.33585 21.3667 2.5259 21.4708L2.52585 21.4707ZM7.47681 19.8179L4.18065 16.5217C4.18065 16.5217 4.17971 16.5217 4.17971 16.5208L4.17877 16.5199L6.14471 15.5177C6.2469 15.6199 8.62727 18.0002 8.47909 17.8521L7.47681 19.8179ZM10.5987 17.3627L10.2593 17.0233C10.2593 17.0233 10.2584 17.0224 10.2584 17.0215C10.1656 16.9286 6.39489 13.1579 6.63489 13.3979C6.47082 13.2339 6.47082 12.9667 6.63489 12.8026L15.061 4.37645L19.621 8.93645L11.1939 17.3626C11.0299 17.5267 10.7627 17.5267 10.5986 17.3626L10.5987 17.3627Z" fill="#191B1C"/>
<path d="M15.5999 9.78068C15.5999 10.5457 14.9802 11.1654 14.2152 11.1654C13.4512 11.1654 12.8306 10.5457 12.8306 9.78068C12.8306 9.01568 13.4512 8.396 14.2152 8.396C14.9802 8.396 15.5999 9.01568 15.5999 9.78068Z" fill="#191B1C"/>
</g>
<defs>
<clipPath id="clip0_4842_15145">
<rect width="24" height="24" fill="white"/>
</clipPath>
</defs>
</svg>
