<svg width="24" height="24" viewBox="0 0 24 24" fill="none" xmlns="http://www.w3.org/2000/svg">
<g id="CTA/icon-transactions">
<path id="Vector" d="M16.1737 6.90903C16.0096 6.77121 15.7809 6.74028 15.5868 6.83028C15.3927 6.92028 15.269 7.11528 15.269 7.32902V8.56277H10.4951C10.2955 8.56277 10.1342 8.72495 10.1342 8.9237C10.1342 9.12339 10.2955 9.28558 10.4951 9.28558H15.6299C15.8296 9.28558 15.9909 9.12339 15.9918 8.9237V7.69932L19.2702 10.4612L15.9918 13.2241V11.9997C15.9909 11.8 15.8296 11.6388 15.6299 11.6388H8.7309V10.4051C8.7309 10.1913 8.60716 9.99631 8.4131 9.90631C8.21904 9.81631 7.99029 9.84631 7.82622 9.98412L3.93654 13.2606C3.85592 13.33 3.80811 13.4312 3.80811 13.5372C3.80811 13.644 3.85592 13.7453 3.93654 13.8137L7.82622 17.0902C7.99029 17.228 8.21903 17.2589 8.4131 17.1689C8.60716 17.0789 8.7309 16.8839 8.7309 16.6702V15.4365H13.5047C13.7035 15.4365 13.8657 15.2743 13.8657 15.0755C13.8657 14.8758 13.7035 14.7136 13.5047 14.7136H8.36994C8.17026 14.7136 8.00807 14.8758 8.00807 15.0755V16.2999L4.73063 13.537L8.00807 10.7751V11.9995C8.00807 12.1992 8.17026 12.3604 8.36994 12.3604H15.269V13.5942C15.269 13.8079 15.3927 14.0029 15.5868 14.0929C15.7809 14.1829 16.0096 14.1529 16.1737 14.0151L20.0633 10.7386C20.1449 10.6692 20.1918 10.568 20.1918 10.4621C20.1918 10.3552 20.1449 10.2539 20.0633 10.1855L16.1737 6.90903Z" fill="white"/>
</g>
</svg>
