<svg width="256" height="256" viewBox="0 0 256 256" fill="none" xmlns="http://www.w3.org/2000/svg">
<path fill-rule="evenodd" clip-rule="evenodd" d="M238.612 117.502L192.412 37.6865C188.658 31.1827 181.714 27.1753 174.203 27.1753H81.8065C74.2974 27.1753 67.3521 31.1827 63.5936 37.6865L17.3941 117.502C13.6316 124.006 13.6316 132.013 17.3941 138.487L63.5936 218.323C67.3521 224.827 74.2974 228.825 81.8065 228.825H174.203C181.714 228.825 188.658 224.827 192.412 218.323L238.612 138.487C242.366 132.013 242.366 124.006 238.612 117.502Z" fill="#E48D2F"/>
<path fill-rule="evenodd" clip-rule="evenodd" d="M210.468 139.497L178.791 194.299C180.007 196.93 180.239 199.717 179.35 202.573C178.179 206.337 175.144 209.478 171.312 210.504C166.254 211.859 161.268 209.945 158.449 205.931H96.6562C93.7475 210.079 88.5381 211.983 83.3369 210.36C79.5746 209.186 76.6495 205.98 75.6404 202.197C74.9485 199.611 75.1246 197.092 76.1521 194.685L44.2896 139.567C38.4784 138.797 34.0283 133.811 34.0283 127.92C34.0283 121.645 38.9573 116.483 45.1554 116.127L76.0518 62.7012C75.5135 61.2873 75.2249 59.847 75.2249 58.4331C75.2249 51.9323 80.5326 46.624 87.0582 46.624C90.7713 46.624 94.2142 48.3569 96.4597 51.2721H158.676C160.893 48.3569 164.356 46.624 168.072 46.624C174.577 46.624 179.889 51.9323 179.889 58.4331C179.889 59.9871 179.534 61.5839 178.881 63.073L209.581 116.166C215.616 116.698 220.385 121.805 220.385 127.92C220.385 133.724 216.175 138.581 210.468 139.497ZM179.781 84.7976L199.76 119.453C197.595 121.648 196.38 124.591 196.38 127.681C196.38 131.01 197.802 134.195 200.26 136.409L170.692 187.718C164.373 185.951 157.935 189.909 156.288 195.977H97.97C96.5854 190.875 91.9786 187.296 86.6059 187.296C85.4404 187.296 84.3158 187.449 83.2282 187.792L80.6698 183.352L75.6964 174.733L53.5047 136.215C55.8583 133.979 57.1897 130.942 57.1897 127.681C57.1897 124.667 56.0611 121.84 53.9902 119.622L83.0581 69.2482C84.2073 69.6172 85.4137 69.7945 86.6059 69.7945C92.034 69.7945 96.7656 65.9953 98.0356 60.7612H156.221C157.507 65.9953 162.204 69.7945 167.675 69.7945C168.74 69.7945 169.822 69.6396 170.872 69.34L174.807 76.1435L179.781 84.7976Z" fill="white"/>
<rect width="21.587" height="21.587" rx="10.7935" transform="matrix(0.999882 -0.0153447 0.0153458 0.999882 74.5767 116.995)" fill="white"/>
<rect width="21.587" height="21.587" rx="10.7935" transform="matrix(0.999882 -0.0153447 0.0153458 0.999882 118.548 116.995)" fill="white"/>
<rect width="77.8667" height="9.80029" transform="matrix(-0.5 0.866025 -0.866026 -0.499999 128.161 60.4321)" fill="white"/>
<rect width="77.8667" height="9.80029" transform="matrix(-0.5 0.866025 -0.866026 -0.499999 172.131 60.4321)" fill="white"/>
<rect width="77.8667" height="9.80029" transform="matrix(-1 -8.74228e-08 -9.80895e-07 -1 124.734 130.711)" fill="white"/>
<rect width="79.9995" height="9.80029" transform="matrix(-0.5 -0.866025 -0.866026 0.499999 129.226 196.494)" fill="white"/>
<rect width="79.9995" height="9.80029" transform="matrix(-0.5 -0.866025 -0.866026 0.499999 173.196 196.494)" fill="white"/>
</svg>
