<svg width="135" height="32" viewBox="0 0 135 32" fill="none" xmlns="http://www.w3.org/2000/svg">
<path d="M38.4318 10.7472L42.3651 17.3765H34.4984L38.4318 10.7472Z" fill="#00D632"/>
<path d="M56.7389 13.9428H65.3677C66.811 13.9428 67.5322 13.4202 67.5312 12.3749C67.5312 11.7905 67.3551 11.3629 67.0029 11.0921C66.6507 10.8213 66.1056 10.6868 65.3677 10.6887H56.7152L56.7389 13.9428Z" fill="#00D632"/>
<path fill-rule="evenodd" clip-rule="evenodd" d="M0 2.46139C0 1.102 1.1441 0 2.55543 0H132.445C133.856 0 135 1.102 135 2.46139V29.355C135 30.7144 133.856 31.8164 132.445 31.8164H2.55542C1.1441 31.8164 0 30.7144 0 29.355V2.46139ZM24.4427 10.7911V7.27737H17.303V4.21404H13.0803V7.27737H6.20604V24.1206H13.0803V27.147H17.303V24.1206H24.2466V20.6083H10.4755V17.2147H23.4296V13.9182H10.4755V10.7911H24.4427ZM36.0463 7.40753L25.6476 23.9831H30.5887L32.4577 20.8344H44.3806L46.2496 23.9831H51.2144L40.8157 7.40753H36.0463ZM52.5362 23.983V7.40753H66.229C67.9663 7.40753 69.3223 7.80996 70.297 8.61481C71.2717 9.41967 71.7595 10.4778 71.7605 11.7891C71.7605 13.0985 71.2603 14.1205 70.26 14.855C69.2596 15.5896 67.9159 15.9564 66.229 15.9554H64.4532C65.3734 15.9994 66.2793 16.1922 67.1331 16.5256C67.9703 16.8865 68.7179 17.4152 69.3262 18.0764C70.025 18.8087 70.6466 19.6061 71.1819 20.4567C71.7314 21.3252 72.3993 22.5011 73.1856 23.9845H68.1216C67.4824 22.8803 67.0029 22.0636 66.6833 21.5343C66.3636 21.005 65.9907 20.4225 65.5645 19.7868C65.2673 19.3119 64.9201 18.8677 64.5287 18.4612C64.2308 18.1889 63.9144 17.9361 63.5816 17.7043C63.2604 17.464 62.8863 17.2978 62.488 17.2183C62.0655 17.1509 61.6377 17.1194 61.2094 17.1242H56.7389L56.7641 23.9902L52.5362 23.983ZM74.9823 7.40753V23.9831H79.2101V13.4454L91.2572 23.9831H94.8221V7.40753H90.5928V17.9452L78.522 7.40753H74.9823ZM105.162 24.0246V7.38555H109.292L117.066 18.1772L124.812 7.38555H128.969V24.0246H124.326V14.4215L117.524 24.0246H116.607L109.805 14.4453V24.0246H105.162ZM99.2154 7.59869L97.7394 13.6915H100.035L102.683 7.59869L99.2154 7.59869Z" fill="#00D632"/>
</svg>
