<svg width="23" height="19" viewBox="0 0 23 19" fill="none" xmlns="http://www.w3.org/2000/svg">
<path d="M0 5.01857V1.89372C0 0.944523 0.953227 0.175049 2.12909 0.175049H6.00018C7.17605 0.175049 8.12928 0.944521 8.12928 1.89371V4.41715C8.12928 4.85225 8.34339 5.26953 8.72453 5.57719C9.5182 6.21787 10.805 6.21787 11.5987 5.57719L17.6673 0.678435C18.0666 0.356122 18.6081 0.175049 19.1728 0.175049H20.2264C21.4023 0.175049 22.3555 0.944522 22.3555 1.89372V2.74425C22.3555 3.20007 22.1312 3.63722 21.7319 3.95953L15.6633 8.85829C14.8696 9.49896 14.8696 10.5377 15.6633 11.1784C16.0444 11.486 16.5614 11.6589 17.1004 11.6589H20.2264C21.4023 11.6589 22.3555 12.4283 22.3555 13.3775V16.5024C22.3555 17.4516 21.4023 18.2211 20.2264 18.2211H16.3553C15.1795 18.2211 14.2262 17.4516 14.2262 16.5024V13.979C14.2262 13.5439 14.0121 13.1266 13.631 12.8189C12.8373 12.1782 11.5505 12.1782 10.7568 12.8189L4.68824 17.7177C4.28895 18.04 3.74741 18.2211 3.18274 18.2211H2.1291C0.953229 18.2211 0 17.4516 0 16.5024V15.6519C0 15.196 0.224316 14.7589 0.623599 14.4366L6.69221 9.53782C7.48588 8.89715 7.48588 7.85841 6.69221 7.21774C6.31108 6.91008 5.79415 6.73723 5.25514 6.73723H2.1291C0.953229 6.73723 0 5.96776 0 5.01857Z" fill="#B16EFF"/>
</svg>
