<svg width="25" height="25" viewBox="0 0 25 25" fill="none" xmlns="http://www.w3.org/2000/svg">
<path d="M18.2949 3.83983C17.0752 2.6201 16.2471 2 15.8349 2H6.3672C5.54005 2 4.86426 2.67481 4.86426 3.50294V22.2177C4.86426 22.413 4.99707 22.58 5.18653 22.625C5.37696 22.6699 5.5713 22.58 5.6592 22.4072L7.04688 19.6845L8.72657 22.4247C8.95117 22.7899 9.32617 22.9999 9.75684 22.9999C10.1865 22.9999 10.5615 22.7899 10.7871 22.4247L12.5 19.6297L14.2148 22.4247C14.4394 22.7899 14.8144 22.9999 15.2451 22.9999C15.6748 22.9999 16.0498 22.7899 16.2754 22.4247L17.9551 19.6845L19.3428 22.4072C19.4306 22.58 19.625 22.6699 19.8154 22.625C20.0059 22.58 20.1377 22.4101 20.1377 22.2177V6.29981C20.1348 5.88771 19.5147 5.05958 18.2949 3.83981L18.2949 3.83983ZM19.0146 5.87987H16.2548V3.12008C17.04 3.71969 18.415 5.09469 19.0146 5.87987ZM18.3623 18.6349C18.292 18.5001 18.1572 18.4122 18.0049 18.4044C17.8496 18.3966 17.71 18.4747 17.6299 18.6046L15.5576 21.9825C15.4853 22.0997 15.3799 22.1573 15.2451 22.1573C15.1074 22.1573 15.0029 22.0978 14.9326 21.9825L12.8603 18.6046C12.7832 18.4796 12.6474 18.4044 12.5029 18.4044C12.3584 18.4044 12.2207 18.4796 12.1455 18.6046L10.0732 21.9825C10.001 22.0997 9.8955 22.1573 9.76074 22.1573C9.62304 22.1573 9.51855 22.0978 9.44824 21.9825L7.37597 18.6046C7.29589 18.4747 7.1533 18.3976 7.00097 18.4044C6.84862 18.4093 6.71386 18.4972 6.64355 18.6349L5.71092 20.465L5.70995 3.50288C5.70995 3.13765 6.0078 2.84077 6.37205 2.84077H15.4198V6.29973C15.4198 6.53215 15.6073 6.71965 15.8397 6.71965H19.2997V20.4667L18.3623 18.6349ZM14.04 8.37508C14.04 8.6075 13.8525 8.795 13.6201 8.795H7.62009C7.38767 8.795 7.20017 8.6075 7.20017 8.37508C7.20017 8.14267 7.38767 7.95517 7.62009 7.95517H13.6201C13.8525 7.95517 14.04 8.14267 14.04 8.37508ZM17.7998 8.37508C17.7998 8.6075 17.6123 8.795 17.3799 8.795H16.3428C16.1104 8.795 15.9229 8.6075 15.9229 8.37508C15.9229 8.14267 16.1104 7.95517 16.3428 7.95517H17.3799C17.6103 7.95517 17.7998 8.14267 17.7998 8.37508ZM14.04 11.168C14.04 11.4004 13.8525 11.5879 13.6201 11.5879H7.62009C7.38767 11.5879 7.20017 11.4004 7.20017 11.168C7.20017 10.9356 7.38767 10.7481 7.62009 10.7481H13.6201C13.8525 10.7471 14.04 10.9346 14.04 11.168ZM17.7998 11.168C17.7998 11.4004 17.6123 11.5879 17.3799 11.5879H16.3428C16.1104 11.5879 15.9229 11.4004 15.9229 11.168C15.9229 10.9356 16.1104 10.7481 16.3428 10.7481H17.3799C17.6103 10.7471 17.7998 10.9346 17.7998 11.168ZM14.04 13.957C14.04 14.1894 13.8525 14.3769 13.6201 14.3769H7.62009C7.38767 14.3769 7.20017 14.1894 7.20017 13.957C7.20017 13.7245 7.38767 13.537 7.62009 13.537H13.6201C13.8525 13.537 14.04 13.7275 14.04 13.957ZM17.7998 13.957C17.7998 14.1894 17.6123 14.3769 17.3799 14.3769H16.3428C16.1104 14.3769 15.9229 14.1894 15.9229 13.957C15.9229 13.7245 16.1104 13.537 16.3428 13.537H17.3799C17.6103 13.537 17.7998 13.7275 17.7998 13.957ZM14.04 16.7499C14.04 16.9823 13.8525 17.1698 13.6201 17.1698H7.62009C7.38767 17.1698 7.20017 16.9823 7.20017 16.7499C7.20017 16.5175 7.38767 16.33 7.62009 16.33H13.6201C13.8525 16.33 14.04 16.5175 14.04 16.7499ZM17.7998 16.7499C17.7998 16.9823 17.6123 17.1698 17.3799 17.1698H16.3428C16.1104 17.1698 15.9229 16.9823 15.9229 16.7499C15.9229 16.5175 16.1104 16.33 16.3428 16.33H17.3799C17.6103 16.33 17.7998 16.5175 17.7998 16.7499ZM13.8096 3.84946H7.30959C7.07717 3.84946 6.88967 4.03696 6.88967 4.26937V6.29671C6.88967 6.52912 7.07717 6.71663 7.30959 6.71663H13.8067C14.0391 6.71663 14.2266 6.52912 14.2266 6.29671V4.26937C14.2305 4.03696 14.043 3.84946 13.8096 3.84946ZM13.3897 5.87973H7.73051V4.69223H13.3878V5.87973H13.3897Z" fill="white"/>
</svg>
