<svg width="512" height="512" viewBox="0 0 512 512" fill="none" xmlns="http://www.w3.org/2000/svg">
<rect width="512" height="512" fill="#FFF533"/>
<circle cx="256" cy="256" r="256" fill="#FFF533"/>
<path d="M299.478 169.016L297.248 175.13L284.113 211.233L259.95 277.614L242.704 324.996C242.704 324.996 242.679 324.984 242.667 324.984C242.392 325.817 242.104 326.65 241.797 327.477C237 340.57 229.14 352.186 219.08 361.449C219.08 361.449 219.08 361.455 219.074 361.455C203.635 375.675 183.026 384.344 160.395 384.344C151.125 384.344 142.187 382.892 133.812 380.196C125.081 377.384 116.958 373.23 109.679 367.967C106.88 365.946 104.202 363.765 101.672 361.43C101.678 361.43 101.678 361.424 101.678 361.424H101.684C102.879 361.516 104.098 361.559 105.317 361.559C107.645 361.559 109.931 361.4 112.173 361.094C130.816 358.557 146.212 345.808 152.559 328.654C152.614 328.519 152.663 328.378 152.712 328.237L191.713 221.079C192.173 219.847 192.657 218.622 193.171 217.421C194.109 215.228 195.144 213.09 196.271 211.007C209.743 186.011 236.167 169.016 266.561 169.016H299.466H299.478Z" fill="black"/>
<path d="M432.127 127.031L429.872 133.219L416.847 169.016L375.346 283.061L359.54 326.473L359.178 327.472C347.03 360.659 315.166 384.344 277.776 384.344C268.378 384.344 259.329 382.849 250.856 380.086C242.254 377.28 234.253 373.163 227.067 367.968H227.061C224.273 365.958 221.614 363.79 219.09 361.462C220.156 361.529 221.228 361.566 222.312 361.566C224.781 361.566 227.208 361.388 229.579 361.039H229.585C248.074 358.368 263.311 345.637 269.591 328.562C269.597 328.568 269.603 328.562 269.603 328.562L310.117 217.244L320.147 189.681L323.577 180.264L324.245 178.426C325.477 175.186 326.916 172.043 328.546 169.016C341.589 144.792 366.781 128.073 395.956 127.031H432.127Z" fill="black"/>
<path d="M166.727 211.227L142.687 277.283L118.855 342.744C115.828 351.015 109.61 357.742 101.688 361.418H101.676C85.3181 346.353 74.7744 325.051 73.8003 301.286C73.7513 300.092 73.7267 298.878 73.7267 297.672C73.7267 287.324 75.5402 277.399 78.8669 268.203C90.9299 234.844 122.88 211 160.398 211C162.53 211 164.638 211.08 166.727 211.227Z" fill="black"/>
</svg>
