<svg xmlns="http://www.w3.org/2000/svg" fill="none" viewBox="0 0 418 302.9866666666667" style="max-height: 500px" width="418" height="302.9866666666667">
<g clip-path="url(#clip0_2401_7852)">
<path fill="black" d="M1936.9 242.023C1893.74 242.023 1867.74 216.029 1867.74 175.892C1867.74 135.755 1894.24 109.256 1934.38 109.256C1974.52 109.256 1999.5 133.486 2000.01 171.603C2000.01 175.387 1999.75 179.677 1999 183.718H1904.85V185.482C1905.6 203.907 1917.47 215.012 1935.39 215.012C1949.78 215.012 1959.88 208.702 1962.91 196.587H1997.99C1993.95 221.827 1971.49 242.016 1936.91 242.016L1936.9 242.023ZM1905.6 160.498H1964.16C1961.63 144.598 1950.78 135.763 1934.63 135.763C1918.48 135.763 1907.62 145.103 1905.61 160.498H1905.6Z"/>
<path fill="black" d="M1816.91 240.508V63.8263H1852.5V240.508H1816.91Z"/>
<path fill="black" d="M1780.36 96.8919C1768.75 96.8919 1759.66 88.3125 1759.66 76.9515C1759.66 65.5906 1768.75 56.7622 1780.36 56.7622C1791.97 56.7622 1801.06 65.3416 1801.06 76.9515C1801.06 88.5615 1791.97 96.8919 1780.36 96.8919ZM1762.44 240.508V110.771H1798.28V240.508H1762.44Z"/>
<path fill="black" d="M1687.07 109.263C1721.9 109.263 1747.15 134.254 1747.15 175.394C1747.15 216.534 1721.91 242.031 1686.82 242.031C1668.14 242.031 1655.27 233.956 1646.94 222.844L1643.41 240.515H1612.36V63.8263H1647.95V127.183C1656.53 116.832 1669.15 109.263 1687.07 109.263ZM1678.99 212.999C1698.43 212.999 1711.05 197.853 1711.05 175.643C1711.05 153.434 1698.43 138.288 1678.99 138.288C1659.56 138.288 1647.44 153.434 1647.44 175.394C1647.44 197.355 1659.56 213.006 1678.99 213.006V212.999Z"/>
<path fill="black" d="M1528.72 242.023C1487.32 242.023 1460.31 215.524 1460.31 175.643C1460.31 135.763 1487.32 109.263 1528.72 109.263C1570.11 109.263 1597.12 135.763 1597.12 175.643C1597.12 215.524 1570.11 242.023 1528.72 242.023ZM1528.72 212.999C1548.66 212.999 1561.02 197.604 1561.02 175.643C1561.02 153.683 1548.66 138.288 1528.72 138.288C1508.78 138.288 1496.66 153.683 1496.66 175.643C1496.66 197.604 1508.78 212.999 1528.72 212.999Z"/>
<path fill="black" d="M1250.22 240.508V63.8263H1299.95L1348.91 193.563L1396.36 63.8263H1445.08V240.508H1408.99V122.132L1363.05 240.508H1332.26L1286.31 122.132V240.508H1250.23H1250.22Z"/>
<path fill="black" d="M1130.58 126.927V63.8263H1166.17V240.508H1135.12L1131.59 222.588C1123.01 233.693 1110.39 242.023 1091.71 242.023C1056.88 242.023 1031.38 216.527 1031.38 175.387C1031.38 134.247 1056.88 109.256 1091.46 109.256C1109.38 109.256 1122.25 116.32 1130.58 126.927ZM1099.53 212.999C1118.97 212.999 1131.08 197.853 1131.08 175.892C1131.08 153.932 1118.97 138.281 1099.53 138.281C1080.1 138.281 1067.73 153.426 1067.73 175.636C1067.73 197.846 1080.09 212.991 1099.53 212.991V212.999Z"/>
<path fill="black" d="M980.551 240.508V63.8263H1016.14V240.508H980.551Z"/>
<path fill="black" d="M959.251 110.771H965.305V143.083H951.17C929.97 143.083 921.889 157.218 921.889 176.902V240.508H886.298V110.771H918.609L921.889 130.207C928.96 118.597 939.055 110.771 959.244 110.771H959.251Z"/>
<path fill="black" d="M802.659 242.023C761.263 242.023 734.259 215.524 734.259 175.643C734.259 135.763 761.263 109.263 802.659 109.263C844.055 109.263 871.06 135.763 871.06 175.643C871.06 215.524 844.048 242.023 802.659 242.023ZM802.659 212.999C822.6 212.999 834.964 197.604 834.964 175.643C834.964 153.683 822.6 138.288 802.659 138.288C782.719 138.288 770.604 153.683 770.604 175.643C770.604 197.604 782.719 212.999 802.659 212.999Z"/>
<path fill="black" d="M548.62 240.508L499.399 63.8263L538.775 63.5773L571.335 192.809L605.916 63.8263H639.992L673.563 192.809L706.877 63.8263H745.243L696.021 240.508H652.605L621.809 123.142L592.022 240.508H548.606H548.62Z"/>
<path fill="black" d="M262.135 48.7518L259.545 55.8516L244.293 97.774L216.236 174.854L196.21 229.873C196.21 229.873 196.181 229.859 196.167 229.859C195.847 230.826 195.513 231.794 195.157 232.754C189.587 247.957 180.46 261.445 168.778 272.201C168.778 272.201 168.778 272.208 168.771 272.208C150.844 288.719 126.913 298.786 100.634 298.786C89.8705 298.786 79.4913 297.1 69.7665 293.97C59.6292 290.704 50.1961 285.881 41.7447 279.77C38.4936 277.422 35.3848 274.89 32.4468 272.179C32.4539 272.179 32.4539 272.172 32.4539 272.172H32.461C33.8482 272.279 35.2639 272.329 36.6796 272.329C39.3829 272.329 42.0364 272.144 44.6401 271.788C66.2878 268.843 84.1652 254.039 91.5352 234.12C91.5992 233.963 91.6561 233.8 91.713 233.636L137 109.206C137.534 107.776 138.096 106.353 138.694 104.959C139.782 102.412 140.984 99.9296 142.293 97.5108C157.937 68.4859 188.619 48.7518 223.911 48.7518H262.12H262.135Z"/>
<path fill="black" d="M416.166 -7.62939e-06L413.548 7.18508L398.423 48.7519L350.234 181.178L331.88 231.587L331.46 232.747C317.353 271.283 280.353 298.786 236.937 298.786C226.024 298.786 215.517 297.05 205.678 293.841C195.69 290.583 186.399 285.803 178.055 279.77H178.048C174.811 277.437 171.723 274.918 168.792 272.215C170.03 272.293 171.275 272.336 172.534 272.336C175.401 272.336 178.218 272.13 180.972 271.724H180.979C202.449 268.623 220.141 253.84 227.433 234.013C227.44 234.02 227.447 234.013 227.447 234.013L274.491 104.753L286.137 72.7472L290.121 61.8131L290.896 59.6789C292.326 55.9156 293.998 52.2661 295.89 48.7519C311.036 20.6233 340.288 1.20936 374.165 -7.62939e-06H416.166Z"/>
<path fill="black" d="M107.99 97.7669L80.0746 174.469L52.4013 250.482C48.887 260.086 41.6664 267.897 32.468 272.165H32.4538C13.4596 254.672 1.21648 229.937 0.0853673 202.342C0.0284558 200.955 0 199.546 0 198.145C0 186.129 2.10573 174.605 5.9686 163.927C19.976 125.191 57.0752 97.5037 100.641 97.5037C103.117 97.5037 105.564 97.5962 107.99 97.7669Z"/>
</g>
<defs>
<clipPath id="clip0_2401_7852">
<rect fill="white" height="298.786" width="2000"/>
</clipPath>
</defs>
</svg>