<svg width="24" height="24" viewBox="0 0 24 24" fill="none" xmlns="http://www.w3.org/2000/svg">
<path fill-rule="evenodd" clip-rule="evenodd" d="M17.9143 10.7404C15.3268 9.40446 10.2746 6.7936 7.43492 5.32624C6.92211 5.06092 6.30053 5.13405 5.86272 5.50905C5.42398 5.88405 5.25804 6.48592 5.43991 7.03343L7.05804 11.8802C7.08992 11.9777 7.08992 12.0827 7.05711 12.1802L5.4493 16.9577C5.26461 17.5042 5.43055 18.1089 5.86836 18.4849C6.30711 18.8608 6.92962 18.933 7.44243 18.6686L17.9143 13.2583C18.385 13.0146 18.6803 12.5289 18.6803 11.9992C18.6803 11.4696 18.385 10.9839 17.9143 10.7402L17.9143 10.7404ZM7.95619 12.4719C7.95526 12.4748 7.95338 12.4785 7.95244 12.4823L6.34464 17.2587C6.28276 17.4416 6.33807 17.6422 6.48432 17.7678C6.63058 17.8934 6.83777 17.9178 7.00839 17.8287L17.4803 12.4184C17.6369 12.3378 17.7362 12.1756 17.7362 11.9994C17.7362 11.8231 17.6369 11.6609 17.4803 11.5803L7.00095 6.16542C6.83032 6.07729 6.62314 6.10073 6.47688 6.22635C6.33063 6.35104 6.27532 6.55261 6.33626 6.73448L7.93564 11.527H13.4172C13.6779 11.527 13.8898 11.7389 13.8898 11.9996C13.8898 12.2602 13.6779 12.4721 13.4172 12.4721L7.95619 12.4719Z" fill="#CCCCCC"/>
</svg>
