<svg width="24" height="24" viewBox="0 0 24 24" fill="none" xmlns="http://www.w3.org/2000/svg">
<path fill-rule="evenodd" clip-rule="evenodd" d="M14.5809 8.45242L13.5843 9.65054C13.1325 9.34586 12.5868 9.1668 12.0009 9.1668C11.5387 9.1668 11.1018 9.27743 10.7165 9.47429L9.74712 8.07648C9.97493 7.79335 10.1118 7.43335 10.1118 7.04148C10.1118 6.12929 9.37118 5.38867 8.45806 5.38867C7.54586 5.38867 6.80525 6.12929 6.80525 7.04148C6.80525 7.95367 7.54586 8.69429 8.45806 8.69429C8.63712 8.69429 8.80867 8.66616 8.96993 8.61366L9.95712 10.0377C9.46867 10.5468 9.1668 11.2387 9.1668 12.0009C9.1668 12.4574 9.27461 12.8887 9.46774 13.2712L8.51806 13.8834C8.18618 13.5937 7.75212 13.4174 7.27774 13.4174C6.23429 13.4174 5.38867 14.264 5.38867 15.3074C5.38867 16.3499 6.23429 17.1965 7.27774 17.1965C8.32025 17.1965 9.1668 16.3499 9.1668 15.3074C9.1668 15.0806 9.12649 14.863 9.05336 14.6615L10.0274 14.0343C10.4306 14.4262 10.9499 14.698 11.5284 14.7956V15.8606C10.978 16.0546 10.5843 16.5796 10.5843 17.1965C10.5843 17.9784 11.219 18.613 12.0008 18.613C12.7827 18.613 13.4174 17.9784 13.4174 17.1965C13.4174 16.5796 13.0237 16.0546 12.4733 15.8606V14.7956C13.3011 14.6559 14.008 14.1571 14.4271 13.4652L15.7799 13.9218C15.7968 14.6896 16.4249 15.3074 17.1964 15.3074C17.9783 15.3074 18.613 14.6718 18.613 13.8899C18.613 13.108 17.9783 12.4734 17.1964 12.4734C16.7399 12.4734 16.3339 12.6899 16.0743 13.0246L14.7739 12.5859C14.8142 12.3974 14.8349 12.2015 14.8349 12.0009C14.8349 11.3643 14.6249 10.7765 14.2695 10.3031L15.1902 9.19682C15.5492 9.4743 15.9992 9.63933 16.4877 9.63933C17.6614 9.63933 18.613 8.68681 18.613 7.51401C18.613 6.34026 17.6614 5.38869 16.4877 5.38869C15.3148 5.38869 14.3623 6.34024 14.3623 7.51401C14.3623 7.85056 14.4412 8.16929 14.5809 8.45242ZM12.0009 16.724C12.2615 16.724 12.4734 16.9359 12.4734 17.1965C12.4734 17.4571 12.2615 17.669 12.0009 17.669C11.7403 17.669 11.5284 17.4572 11.5284 17.1965C11.5284 16.9359 11.7403 16.724 12.0009 16.724ZM8.04929 14.7628C7.87866 14.5209 7.59648 14.3624 7.27774 14.3624C6.75648 14.3624 6.33274 14.7852 6.33274 15.3074C6.33274 15.8287 6.75648 16.2515 7.27774 16.2515C7.79899 16.2515 8.2218 15.8287 8.2218 15.3074C8.2218 15.1087 8.15993 14.924 8.05493 14.7712C8.05305 14.7684 8.05116 14.7656 8.04929 14.7628ZM17.1964 13.4174C17.457 13.4174 17.6689 13.6293 17.6689 13.89C17.6689 14.1506 17.457 14.3625 17.1964 14.3625C16.9358 14.3625 16.7239 14.1506 16.7239 13.89C16.7239 13.6293 16.9358 13.4174 17.1964 13.4174ZM13.3132 10.6416C12.9729 10.3135 12.5107 10.1119 12.0007 10.1119C10.9582 10.1119 10.1116 10.9585 10.1116 12.001C10.1116 13.0435 10.9582 13.89 12.0007 13.89C13.0432 13.89 13.8898 13.0435 13.8898 12.001C13.8898 11.4741 13.6741 10.9979 13.3263 10.6547C13.3216 10.651 13.317 10.6463 13.3132 10.6416ZM16.4877 6.33288C17.1392 6.33288 17.6689 6.86256 17.6689 7.51414C17.6689 8.16569 17.1393 8.69446 16.4877 8.69446C15.8361 8.69446 15.3074 8.16571 15.3074 7.51414C15.3074 6.86258 15.8361 6.33288 16.4877 6.33288ZM8.86385 7.62288C9.04666 7.49444 9.16666 7.28162 9.16666 7.04162C9.16666 6.65069 8.84978 6.33288 8.45791 6.33288C8.06698 6.33288 7.7501 6.65069 7.7501 7.04162C7.7501 7.43256 8.06698 7.75037 8.45791 7.75037C8.60604 7.75037 8.74291 7.70443 8.85636 7.62756L8.86385 7.62288Z" fill="#CCCCCC"/>
</svg>
