<svg width="24" height="24" viewBox="0 0 24 24" fill="none" xmlns="http://www.w3.org/2000/svg">
<path fill-rule="evenodd" clip-rule="evenodd" d="M5.38867 14.8343C5.38867 15.2102 5.53773 15.5702 5.80306 15.8356C6.06931 16.1018 6.42931 16.2509 6.80525 16.2509H13.2778L14.6306 17.6384C14.8987 17.914 15.3075 17.9993 15.6628 17.8549C16.0191 17.7096 16.2516 17.3637 16.2516 16.9793V16.2509H17.1966C17.9794 16.2509 18.6131 15.6171 18.6131 14.8343V7.74952C18.6131 6.96671 17.9794 6.33203 17.1966 6.33203H6.80527C6.02246 6.33203 5.38872 6.96671 5.38872 7.74952L5.38867 14.8343ZM15.3074 16.9793C14.6437 16.2996 13.8149 15.4493 13.8149 15.4493C13.7258 15.3584 13.6039 15.3068 13.4764 15.3068H6.80515C6.68046 15.3068 6.55954 15.2571 6.47141 15.1681C6.38235 15.0799 6.33266 14.959 6.33266 14.8343V7.74952C6.33266 7.4889 6.54453 7.27701 6.80517 7.27701H17.1965C17.4571 7.27701 17.669 7.48888 17.669 7.74952V14.8343C17.669 15.0949 17.4571 15.3068 17.1965 15.3068H15.779C15.5183 15.3068 15.3074 15.5178 15.3074 15.7784L15.3074 16.9793Z" fill="#CCCCCC"/>
</svg>
