<svg width="24" height="24" viewBox="0 0 24 24" fill="none" xmlns="http://www.w3.org/2000/svg">
<g id="icon-home">
<path id="Vector" d="M11.2459 4.5H11.245C11.1936 4.5 11.1448 4.50903 11.0996 4.52618H11.0987C11.0717 4.53612 11.0464 4.54876 11.022 4.56411L3.12497 9.12216C3.06809 9.15557 3.02565 9.21065 3.00849 9.27476C2.99134 9.33886 3.00037 9.40659 3.03378 9.46437L3.21617 9.7786C3.26222 9.85896 3.34619 9.90411 3.43287 9.90411C3.47531 9.90411 3.51775 9.89327 3.55748 9.8707L4.38365 9.39305V17.8751C4.39449 18.8376 5.17823 19.6123 6.14347 19.6123L8.43602 19.6132C9.03285 19.6123 9.52044 19.1302 9.52134 18.5342V14.3816C9.52134 13.8859 9.92315 13.4841 10.418 13.4841C11.9448 13.4841 12.0983 13.485 12.0983 13.485C12.5859 13.4931 12.9787 13.8913 12.9787 14.3816V18.5342C12.9823 19.1302 13.4671 19.6123 14.064 19.6123L16.3565 19.6133C17.3218 19.6123 18.1055 18.8367 18.1163 17.8742L18.1172 9.39308L18.9425 9.87073C18.9823 9.8933 19.0256 9.90413 19.068 9.90413C19.1538 9.90413 19.2378 9.85899 19.2847 9.77863L19.4662 9.4644C19.4996 9.40661 19.5087 9.33889 19.4915 9.27478C19.4744 9.21068 19.4328 9.1556 19.375 9.12219L11.4671 4.55789C11.4491 4.54706 11.4301 4.53803 11.4103 4.5299H11.4094C11.3606 4.50914 11.3055 4.50011 11.2495 4.50011L11.2459 4.5ZM11.2504 5.43091L17.2541 8.89539V17.8515C17.2541 18.3472 16.8532 18.7491 16.3584 18.7491L14.0586 18.7509C13.9376 18.7463 13.841 18.6479 13.841 18.5269V14.3709C13.8374 13.402 13.051 12.621 12.0812 12.621L10.4189 12.6219C9.45007 12.6219 8.66 13.4038 8.6591 14.3727C8.65549 18.5262 8.6591 18.5271 8.6591 18.5271C8.6591 18.6481 8.56249 18.7465 8.4424 18.751L6.14264 18.7492C5.64693 18.7492 5.24603 18.3474 5.24603 17.8517V8.89558L11.2504 5.43091Z" fill="#CCCCCC"/>
</g>
</svg>
