<svg width="24" height="24" viewBox="-4 -1 24 18" fill="none" xmlns="http://www.w3.org/2000/svg">
<g id="Group">
<path id="Vector" d="M8.25023 14.0604C8.07516 14.0604 7.93262 13.9178 7.93262 13.7428V9.26608C7.93262 9.09101 8.07515 8.94846 8.25023 8.94846C8.42531 8.94846 8.56785 9.091 8.56785 9.26608V13.1867C8.99467 12.9574 9.48581 12.7467 10.0335 12.5592C11.1521 12.1765 13.1049 11.7776 13.8091 11.6397V3.46095C12.7974 3.40983 11.8593 3.50046 11.0125 3.73131H11.0133C10.932 3.75455 10.8444 3.74371 10.7701 3.70265C10.6965 3.66082 10.6423 3.5911 10.6198 3.50976C10.5973 3.42765 10.6089 3.34011 10.6516 3.26651C10.6942 3.19369 10.7639 3.14024 10.846 3.11855C11.8437 2.84665 12.9554 2.75447 14.1499 2.84665H14.1506C14.3164 2.85982 14.4442 2.99771 14.4435 3.16427V11.9017C14.4435 12.0543 14.3342 12.1852 14.1847 12.2131C14.1584 12.2177 11.547 12.7112 10.2387 13.1589C9.52217 13.4045 8.91484 13.688 8.43532 14.0002L8.42603 14.0056L8.4237 14.0072V14.0079C8.37258 14.042 8.31215 14.0598 8.25018 14.0606L8.25023 14.0604Z" fill="#CCCCCC"/>
<path id="Vector_2" d="M8.25019 14.0605C8.19054 14.0605 8.13245 14.0434 8.08209 14.0117L8.06273 14.0001C7.58321 13.6879 6.97665 13.4051 6.26089 13.1596C4.95172 12.7118 2.34107 12.2191 2.31489 12.2137C2.16461 12.185 2.05616 12.0541 2.05616 11.9015V3.16354C2.05538 2.99699 2.1832 2.85909 2.34898 2.84592C3.54426 2.75374 4.65594 2.84592 5.65364 3.11783C5.82251 3.16431 5.92245 3.33861 5.87674 3.50826C5.83026 3.67713 5.65596 3.77707 5.48631 3.73136C4.64039 3.50051 3.7015 3.40988 2.68972 3.461L2.6905 11.6398C3.39466 11.7784 5.34747 12.1758 6.46614 12.5593C7.01459 12.7467 7.50573 12.9574 7.93256 13.1867V9.26613C7.93256 9.09106 8.07432 8.94851 8.2494 8.94851C8.42524 8.94851 8.56701 9.09105 8.56701 9.26613V13.7428C8.56701 13.8272 8.5337 13.9078 8.47405 13.9675C8.41441 14.0263 8.33384 14.0604 8.24941 14.0604L8.25019 14.0605Z" fill="#CCCCCC"/>
<path id="Vector_3" d="M16.1827 14.0603H8.25023C8.07516 14.0603 7.93262 13.9178 7.93262 13.7427C7.93262 13.5677 8.07515 13.4251 8.25023 13.4251H15.865V4.94037H14.1267C13.9516 4.94037 13.8091 4.7986 13.8091 4.62352C13.8091 4.44768 13.9516 4.30591 14.1267 4.30591H16.1826C16.267 4.30591 16.3476 4.33922 16.4072 4.39887C16.4661 4.45851 16.5002 4.53908 16.5002 4.62351V13.7427C16.5002 13.8271 16.4661 13.9077 16.4072 13.9673C16.3476 14.0262 16.2671 14.0603 16.1827 14.0603Z" fill="#CCCCCC"/>
<path id="Vector_4" d="M8.25006 14.0605H0.317615C0.142544 14.0605 0 13.918 0 13.7429V4.62377C0 4.44792 0.142536 4.30615 0.317615 4.30615H2.37351C2.54858 4.30615 2.69035 4.44791 2.69035 4.62377C2.69035 4.79884 2.54859 4.94061 2.37351 4.94061H0.635191V13.4254H8.24994C8.42502 13.4254 8.56756 13.5679 8.56756 13.743C8.56756 13.918 8.42514 14.0605 8.25006 14.0605Z" fill="#CCCCCC"/>
<path id="Vector_5" d="M9.67778 7.65692H6.8225C6.64743 7.65692 6.50488 7.51516 6.50488 7.34008C6.50488 7.16501 6.64742 7.02246 6.8225 7.02246H9.67778C9.85285 7.02246 9.9954 7.165 9.9954 7.34008C9.9954 7.51515 9.85286 7.65692 9.67778 7.65692Z" fill="#CCCCCC"/>
<path id="Vector_6" d="M9.3426 8.62072H9.04668C8.87161 8.62072 8.72907 8.47819 8.72907 8.30311C8.72907 8.12803 8.8716 7.98549 9.04668 7.98549H9.34724C9.35034 7.82901 9.36506 7.04197 9.37978 6.58647C9.38985 6.29441 9.39527 6.24718 9.40147 6.21231C9.40147 6.20922 9.40302 6.20689 9.40302 6.20457V6.20379C9.51147 5.64527 9.76169 5.12393 10.1304 4.69012C10.4465 4.31674 10.613 3.87364 10.613 3.40885C10.613 1.84715 9.3883 1.13601 8.25036 1.13601C7.11241 1.13601 5.88767 1.84713 5.88767 3.40885C5.88767 3.87366 6.055 4.31674 6.37029 4.69012C6.73902 5.12393 6.98923 5.64527 7.09769 6.20379C7.09769 6.20689 7.09847 6.20922 7.09924 6.21154C7.10544 6.2464 7.11163 6.29365 7.12093 6.58569C7.13565 7.04197 7.15114 7.82901 7.15347 7.98472H7.45403V7.98549C7.62987 7.98549 7.77164 8.12726 7.77164 8.30311C7.77164 8.47818 7.62988 8.61995 7.45403 8.61995H7.15811C6.80719 8.61995 6.52135 8.35191 6.51978 8.02192C6.51978 7.97002 6.50274 7.09466 6.48725 6.60741C6.48028 6.40369 6.4764 6.34092 6.47485 6.32234H6.47408C6.38654 5.87072 6.18359 5.44931 5.88533 5.09915C5.47167 4.60956 5.25244 4.0247 5.25244 3.40809C5.25244 2.5126 5.58011 1.75731 6.20061 1.22429C6.74442 0.75717 7.47182 0.5 8.25035 0.5C9.02811 0.5 9.75629 0.757963 10.3001 1.22429C10.9206 1.75725 11.2483 2.51177 11.2483 3.40809C11.2483 4.02472 11.0298 4.60958 10.6154 5.09915C10.3171 5.44929 10.1142 5.8707 10.0266 6.32156C10.0251 6.34016 10.0212 6.4029 10.0142 6.60664C9.99796 7.09466 9.98247 7.9708 9.9817 8.02115C9.97937 8.35116 9.69353 8.62072 9.3426 8.62072Z" fill="#CCCCCC"/>
<path id="Vector_7" d="M8.77405 9.58271H7.7275C7.40138 9.58271 7.13721 9.31856 7.13721 8.99319V8.30297C7.13721 8.1279 7.27897 7.98535 7.45405 7.98535H9.04673C9.13039 7.98535 9.21173 8.01866 9.2706 8.07831C9.33025 8.13796 9.36356 8.21852 9.36356 8.30296V8.99318C9.36356 9.31853 9.09942 9.58271 8.77405 9.58271ZM7.77164 8.94827H8.72911V8.6206H7.77164V8.94827Z" fill="#CCCCCC"/>
</g>
</svg>
