<svg width="24" height="24" viewBox="0 0 24 24" fill="none" xmlns="http://www.w3.org/2000/svg">
<path fill-rule="evenodd" clip-rule="evenodd" d="M13.8897 9.16678C13.8897 8.38397 13.256 7.75022 12.4732 7.75022H11.5282C10.7454 7.75022 10.1116 8.38397 10.1116 9.16678V17.1965C10.1116 17.9793 10.7454 18.613 11.5282 18.613H12.4732C13.256 18.613 13.8897 17.9793 13.8897 17.1965V9.16678ZM18.6129 6.80522C18.6129 6.02242 17.9792 5.38867 17.1964 5.38867H16.2514C15.4686 5.38867 14.8348 6.02242 14.8348 6.80522V17.1965C14.8348 17.9793 15.4686 18.6131 16.2514 18.6131H17.1964C17.9792 18.6131 18.6129 17.9793 18.6129 17.1965V6.80522ZM9.16678 12.0007C9.16678 11.2179 8.5321 10.5842 7.75022 10.5842H6.80522C6.02242 10.5842 5.38867 11.2179 5.38867 12.0007V17.1963C5.38867 17.9791 6.02242 18.6128 6.80522 18.6128H7.75022C8.5321 18.6128 9.16678 17.9791 9.16678 17.1963V12.0007ZM12.9458 9.16658V17.1963C12.9458 17.4569 12.7339 17.6688 12.4733 17.6688H11.5283C11.2677 17.6688 11.0558 17.4569 11.0558 17.1963V9.16658C11.0558 8.90597 11.2677 8.69407 11.5283 8.69407H12.4733C12.7339 8.69407 12.9458 8.90595 12.9458 9.16658ZM17.669 6.80503V17.1963C17.669 17.4569 17.4571 17.6688 17.1965 17.6688H16.2515C15.9909 17.6688 15.779 17.457 15.779 17.1963V6.80503C15.779 6.54442 15.9909 6.33252 16.2515 6.33252H17.1965C17.4571 6.33252 17.669 6.54439 17.669 6.80503ZM8.2219 12.0006V17.1961C8.2219 17.4567 8.01096 17.6686 7.75034 17.6686H6.80534C6.54473 17.6686 6.33283 17.4567 6.33283 17.1961V12.0006C6.33283 11.7399 6.54471 11.528 6.80534 11.528H7.75034C8.01096 11.528 8.2219 11.7399 8.2219 12.0006Z" fill="#CCCCCC"/>
</svg>
