<svg xmlns="http://www.w3.org/2000/svg" width="30" height="30" viewBox="0 0 30 30" fill="none">
  <g clip-path="url(#clip0_17701_27859)">
    <g filter="url(#filter0_d_17701_27859)">
      <path fill-rule="evenodd" clip-rule="evenodd" d="M15.0005 6.14404C10.1126 6.14404 6.14453 10.1121 6.14453 15C6.14453 19.8879 10.1126 23.856 15.0005 23.856C19.8884 23.856 23.8565 19.8879 23.8565 15C23.8565 10.1121 19.8884 6.14404 15.0005 6.14404ZM15.0005 7.32412C19.2368 7.32412 22.6751 10.7636 22.6751 14.9999C22.6751 19.2362 19.2368 22.6745 15.0005 22.6745C10.7642 22.6745 7.32473 19.2362 7.32473 14.9999C7.32473 10.7636 10.7642 7.32412 15.0005 7.32412ZM11.0408 15.4172L13.9928 18.3692C14.1076 18.484 14.2646 18.5473 14.4275 18.5426C14.5904 18.5367 14.7428 18.4653 14.8506 18.3446L19.5744 13.0301C19.7912 12.7875 19.7689 12.4136 19.5252 12.1969C19.2826 11.9801 18.9088 12.0023 18.692 12.2461L14.3843 17.0917L11.8753 14.5827C11.6456 14.3518 11.2706 14.3518 11.0409 14.5827C10.8101 14.8124 10.81 15.1875 11.0408 15.4172Z" fill="white"/>
    </g>
  </g>
  <defs>
    <filter id="filter0_d_17701_27859" x="2.14453" y="6.14404" width="25.7129" height="25.7119" filterUnits="userSpaceOnUse" color-interpolation-filters="sRGB">
      <feFlood flood-opacity="0" result="BackgroundImageFix"/>
      <feColorMatrix in="SourceAlpha" type="matrix" values="0 0 0 0 0 0 0 0 0 0 0 0 0 0 0 0 0 0 127 0" result="hardAlpha"/>
      <feOffset dy="4"/>
      <feGaussianBlur stdDeviation="2"/>
      <feComposite in2="hardAlpha" operator="out"/>
      <feColorMatrix type="matrix" values="0 0 0 0 0 0 0 0 0 0 0 0 0 0 0 0 0 0 0.25 0"/>
      <feBlend mode="normal" in2="BackgroundImageFix" result="effect1_dropShadow_17701_27859"/>
      <feBlend mode="normal" in="SourceGraphic" in2="effect1_dropShadow_17701_27859" result="shape"/>
    </filter>
    <clipPath id="clip0_17701_27859">
      <rect width="30" height="30" fill="white"/>
    </clipPath>
  </defs>
</svg>