<svg width="15" height="15" viewBox="0 0 15 15" fill="none" xmlns="http://www.w3.org/2000/svg">
<g id="Icon" clip-path="url(#clip0_17544_10094)">
<path id="Vector" d="M7.5 15C3.36437 15 0 11.6356 0 7.5C0 3.36437 3.36437 0 7.5 0C7.84503 0 8.125 0.279975 8.125 0.625C8.125 0.970025 7.84503 1.25 7.5 1.25C4.05375 1.25 1.25 4.05375 1.25 7.5C1.25 10.9462 4.05375 13.75 7.5 13.75C10.9462 13.75 13.75 10.9462 13.75 7.5C13.75 7.15497 14.0294 6.875 14.375 6.875C14.7206 6.875 15 7.15497 15 7.5C15 11.6356 11.6356 15 7.5 15ZM7.5 1.25C7.3375 1.25 7.175 1.18125 7.05625 1.06875C6.94375 0.95 6.875 0.7875 6.875 0.625C6.875 0.4625 6.94375 0.3 7.05625 0.18125C7.29375 -0.05 7.7125 -0.05 7.94375 0.18125C8.05625 0.3 8.125 0.4625 8.125 0.625C8.125 0.7875 8.05625 0.95 7.94375 1.06875C7.825 1.18125 7.6625 1.25 7.5 1.25ZM13.275 5.10625C13.1438 4.7875 13.2931 4.41875 13.6125 4.2875C13.9313 4.15625 14.3 4.30625 14.4313 4.625C14.5625 4.94375 14.4125 5.3125 14.0938 5.44375C14.0125 5.475 13.9313 5.49375 13.8562 5.49375C13.6062 5.49375 13.3744 5.35 13.275 5.10625ZM11.9181 3.08125C11.6744 2.8375 11.6744 2.4375 11.9181 2.19375C12.1625 1.95 12.5563 1.95 12.7994 2.19375C13.0438 2.4375 13.0438 2.8375 12.7994 3.08125C12.6813 3.2 12.5188 3.2625 12.3625 3.2625C12.2 3.2625 12.0438 3.2 11.9181 3.08125ZM9.89375 1.725C9.57436 1.59375 9.425 1.225 9.55625 0.90625C9.6875 0.5875 10.05 0.4375 10.375 0.56875C10.6938 0.7 10.8438 1.06875 10.7063 1.3875C10.6125 1.625 10.375 1.76875 10.1313 1.76875C10.05 1.76875 9.96875 1.75625 9.89375 1.725ZM14.375 8.125C14.2125 8.125 14.0494 8.05625 13.9313 7.94375C13.8181 7.825 13.75 7.6625 13.75 7.5C13.75 7.3375 13.8181 7.175 13.9313 7.05625C14.1687 6.825 14.5875 6.825 14.8188 7.05625C14.9313 7.175 15 7.3375 15 7.5C15 7.6625 14.9313 7.825 14.8188 7.94375C14.7 8.05625 14.5375 8.125 14.375 8.125ZM9.99938 9.375C9.90563 9.375 9.81003 9.35376 9.72061 9.30937L7.22061 8.05937C7.00875 7.95312 6.87501 7.73686 6.87501 7.5V3.125C6.87501 2.77997 7.15499 2.5 7.50001 2.5C7.84504 2.5 8.12501 2.77997 8.12501 3.125V7.11375L10.2794 8.19124C10.5881 8.34564 10.7131 8.72121 10.5588 9.03001C10.4494 9.24876 10.2288 9.37504 9.99941 9.37504L9.99938 9.375Z" fill="white"/>
</g>
<defs>
<clipPath id="clip0_17544_10094">
<rect width="15" height="15" fill="white"/>
</clipPath>
</defs>
</svg>
