<svg width="15" height="15" viewBox="0 0 15 15" fill="none" xmlns="http://www.w3.org/2000/svg">
<g id="icon" clip-path="url(#clip0_17544_10098)">
<path id="Vector" d="M14.5496 4.03256L12.6218 2.10481C12.4824 1.96536 12.2579 1.96536 12.1185 2.10481C11.979 2.24426 11.9814 2.46634 12.1185 2.60579L13.9442 4.42916V10.5967H12.7038C12.6944 10.2873 12.6921 9.67556 12.7249 8.51304C12.7507 7.55855 12.5456 6.89229 12.1085 6.53604C11.8226 6.2999 11.5179 6.26651 11.3315 6.27412L11.3321 2.008C11.3321 0.899987 10.4321 0 9.32413 0H3.41913C2.31112 0 1.41113 0.9 1.41113 2.008V14.2916H0.702144C0.505856 14.2916 0.347656 14.4498 0.347656 14.6461C0.347656 14.8424 0.505856 15.0006 0.702144 15.0006H11.8045C12.0008 15.0006 12.159 14.8424 12.159 14.6461C12.159 14.4498 12.0008 14.2916 11.8045 14.2916H11.3323V6.98312C11.3844 6.97609 11.5332 6.97609 11.6703 7.09152C11.9135 7.30187 12.0366 7.79757 12.0178 8.4949C11.9703 10.1034 11.9897 10.8544 12.0248 11.0226C12.0577 11.1879 12.2018 11.3062 12.3723 11.3062H14.3C14.494 11.3062 14.6545 11.148 14.6545 10.9518V4.28326C14.6545 4.18892 14.6165 4.09927 14.5508 4.03306L14.5496 4.03256ZM2.11955 2.00819C2.11955 1.29217 2.70315 0.709187 3.41855 0.709187H9.32418C10.0402 0.709187 10.6232 1.29279 10.6232 2.00819V14.1734H2.11955V2.00819Z" fill="white"/>
<path id="Vector_2" d="M8.14332 6.37803H4.83632C4.25039 6.37803 3.77344 5.90108 3.77344 5.31514V2.95327C3.77344 2.36733 4.25039 1.89038 4.83632 1.89038H8.14332C8.72926 1.89038 9.20621 2.36733 9.20621 2.95327V5.31514C9.20621 5.90108 8.72926 6.37803 8.14332 6.37803ZM4.8357 2.59878C4.63941 2.59878 4.48121 2.75698 4.48121 2.95327V5.31514C4.48121 5.51143 4.63941 5.66963 4.8357 5.66963H8.1427C8.33899 5.66963 8.49719 5.51143 8.49719 5.31514V2.95327C8.49719 2.75698 8.33899 2.59878 8.1427 2.59878H4.8357Z" fill="white"/>
</g>
<defs>
<clipPath id="clip0_17544_10098">
<rect width="15" height="15" fill="white"/>
</clipPath>
</defs>
</svg>
