<?xml version="1.0" standalone="no"?>
<!DOCTYPE svg PUBLIC "-//W3C//DTD SVG 1.1//EN" "http://www.w3.org/Graphics/SVG/1.1/DTD/svg11.dtd" >
<svg xmlns="http://www.w3.org/2000/svg" xmlns:xlink="http://www.w3.org/1999/xlink" version="1.1">
<metadata>
Created by FontForge 20170731 at Thu Nov 17 15:02:35 2016
 By Aleksey,,,
Copyright 2013 The Ropa Sans Project Authors (nikoltchev@lettersoup.de), with Reserved Font Name "Ropa Sans".
</metadata>
<defs>
<font id="RopaSans-Regular" horiz-adv-x="576" >
  <font-face 
    font-family="Ropa Sans"
    font-weight="400"
    font-stretch="normal"
    units-per-em="1000"
    panose-1="0 0 5 0 0 0 0 0 0 0"
    ascent="800"
    descent="-200"
    x-height="488"
    cap-height="655"
    bbox="-123 -231 1210 865"
    underline-thickness="50"
    underline-position="-150"
    unicode-range="U+000D-FB02"
  />
<missing-glyph horiz-adv-x="434" 
d="M356 683v-868h-275v868h275zM289 625h-143v-29h56v-32h-57v-29h144v29h-57v32h57v29zM232 513h-87v-90h144v29h-57v61zM202 483v-31h-28v31h28zM289 399h-144v-28h57v-33h-57v-28h87v61h57v28zM289 347h-29v-57h-115v-30h144v87zM289 241h-87v-48h30v20h28v-41h-86v69
h-29v-98h144v98zM289 91h-144v-98h144v98zM260 62v-40h-86v40h86zM289 -27h-144v-29h61l-61 -40v-29h144v29h-88l60 40h28v29z" />
    <glyph glyph-name="fi" unicode="fi" horiz-adv-x="504" 
d="M357 684v-74q-54 15 -98 15q-38 0 -56 -18.5t-18 -57.5v-61h249v-488h-85v418h-164v-418h-85v418h-70v70h70v46q1 83 38.5 122t121.5 39q42 0 97 -11z" />
    <glyph glyph-name="fl" unicode="fl" horiz-adv-x="509" 
d="M312 690.5q32 -4.5 54 -9.5l73 6v-687h-85v611q-58 14 -95 14q-38 0 -56 -18.5t-18 -57.5v-61h90v-70h-90v-418h-85v418h-70v70h70v46q1 84 39 122.5t121 38.5q20 0 52 -4.5z" />
    <glyph glyph-name=".notdef" horiz-adv-x="434" 
d="M356 683v-868h-275v868h275zM289 625h-143v-29h56v-32h-57v-29h144v29h-57v32h57v29zM232 513h-87v-90h144v29h-57v61zM202 483v-31h-28v31h28zM289 399h-144v-28h57v-33h-57v-28h87v61h57v28zM289 347h-29v-57h-115v-30h144v87zM289 241h-87v-48h30v20h28v-41h-86v69
h-29v-98h144v98zM289 91h-144v-98h144v98zM260 62v-40h-86v40h86zM289 -27h-144v-29h61l-61 -40v-29h144v29h-88l60 40h28v29z" />
    <glyph glyph-name=".null" horiz-adv-x="0" 
 />
    <glyph glyph-name="nonmarkingreturn" unicode="&#xd;" horiz-adv-x="180" 
 />
    <glyph glyph-name="NULL" horiz-adv-x="0" 
 />
    <glyph glyph-name="NULL" horiz-adv-x="0" 
 />
    <glyph glyph-name="space" unicode=" " horiz-adv-x="180" 
 />
    <glyph glyph-name="exclam" unicode="!" horiz-adv-x="211" 
d="M153 695l-7 -495h-81l-7 495h95zM146.5 96q14.5 -12 14.5 -34v-29q0 -22 -14.5 -33.5t-41.5 -11.5q-26 0 -40.5 11.5t-14.5 33.5v29q0 22 14.5 34t40.5 12q27 0 41.5 -12z" />
    <glyph glyph-name="quotedbl" unicode="&#x22;" horiz-adv-x="315" 
d="M130 683v-254h-85v254h85zM270 683v-254h-85v254h85z" />
    <glyph glyph-name="numbersign" unicode="#" horiz-adv-x="556" 
d="M441 613v-125h80v-70h-80v-223h80v-70h-80v-125h-85v125h-156v-125h-85v125h-80v70h80v223h-80v70h80v125h85v-125h156v125h85zM356 418h-156v-223h156v223z" />
    <glyph glyph-name="dollar" unicode="$" horiz-adv-x="441" 
d="M267 612q29 -2 64 -7t45 -6l-2 -73q-74 14 -131 14q-64 0 -91 -21t-27 -65v-20q0 -26 5.5 -40t21 -24.5t49.5 -20.5l63 -19q58 -17 89.5 -37.5t44.5 -51.5t13 -81v-5q0 -70 -33.5 -110.5t-110.5 -51.5v-87h-75v82q-29 1 -62.5 6t-64.5 11l2 73q76 -17 131 -17q70 0 99 21
t29 65v20q0 23 -6.5 36.5t-25 24t-55.5 21.5l-62 19q-55 17 -84 36.5t-41 51t-12 85.5v5q0 74 36 114.5t116 49.5v85h75v-83z" />
    <glyph glyph-name="percent" unicode="%" horiz-adv-x="860" 
d="M320.5 583.5q39.5 -41.5 39.5 -118.5v-30q0 -77 -39.5 -118.5t-117.5 -41.5t-118 41.5t-40 118.5v30q0 77 40 118.5t118 41.5t117.5 -41.5zM649 613l-335 -613h-87l335 613h87zM148 529.5q-18 -20.5 -18 -64.5v-30q0 -44 18 -64.5t55 -20.5t54.5 20.5t17.5 64.5v30
q0 45 -17.5 65t-54.5 20t-55 -20.5zM790.5 296.5q39.5 -41.5 39.5 -118.5v-30q0 -77 -39.5 -118.5t-117.5 -41.5t-118 41.5t-40 118.5v30q0 77 40 118.5t118 41.5t117.5 -41.5zM618 242.5q-18 -20.5 -18 -64.5v-30q0 -44 18 -64.5t55 -20.5t54.5 20.5t17.5 64.5v30
q0 45 -17.5 65t-54.5 20t-55 -20.5z" />
    <glyph glyph-name="ampersand" unicode="&#x26;" horiz-adv-x="540" 
d="M368 656l-2 -71q-62 11 -116 11q-102 0 -102 -96v-22q0 -52 32 -81.5t93 -29.5h101v73h82v-73h74v-69h-74v-285q-71 -15 -105.5 -20t-77.5 -5q-125 0 -179 45t-54 129v22q0 56 30.5 97.5t86.5 58.5q-92 40 -92 145v22q0 70 48.5 115t136.5 45q47 0 118 -11zM267 298
q-71 0 -106.5 -29t-35.5 -81v-27q0 -49 36.5 -75t111.5 -26q43 0 101 13v225h-107z" />
    <glyph glyph-name="quotesingle" unicode="'" horiz-adv-x="175" 
d="M130 683v-254h-85v254h85z" />
    <glyph glyph-name="parenleft" unicode="(" horiz-adv-x="231" 
d="M241 672q-39 -3 -56.5 -9.5t-23.5 -24t-6 -56.5v-523q0 -38 5.5 -55.5t23 -25t57.5 -9.5v-70q-73 0 -108.5 15.5t-49 53.5t-13.5 115v475q0 77 13.5 115t49 53.5t108.5 15.5v-70z" />
    <glyph glyph-name="parenright" unicode=")" horiz-adv-x="231" 
d="M98.5 733.5q35.5 -15.5 49 -53.5t13.5 -115v-475q0 -77 -13.5 -115t-49 -53.5t-108.5 -15.5v70q40 2 57.5 9.5t23 25t5.5 55.5v523q0 39 -6 56.5t-23.5 24t-56.5 9.5v70q73 0 108.5 -15.5z" />
    <glyph glyph-name="asterisk" unicode="*" horiz-adv-x="410" 
d="M239 695l-10 -112l103 44l23 -66l-111 -25l74 -84l-57 -41l-57 96l-57 -97l-56 42l74 85l-110 24l23 66l102 -43l-10 111h69z" />
    <glyph glyph-name="plus" unicode="+" horiz-adv-x="390" 
d="M233 488v-152h140v-71h-140v-152h-76v152h-140v71h140v152h76z" />
    <glyph glyph-name="comma" unicode="," horiz-adv-x="220" 
d="M151 98.5q14 -11.5 14 -33.5v-32q0 -29 -7 -51l-43 -143h-60l36 153q-35 8 -35 43v30q0 22 14 33.5t40 11.5q27 0 41 -11.5z" />
    <glyph glyph-name="hyphen" unicode="-" horiz-adv-x="350" 
d="M285 328v-65h-220v65h220z" />
    <glyph glyph-name="period" unicode="." horiz-adv-x="223" 
d="M168 63v-29q0 -22 -14.5 -34t-42.5 -12q-27 0 -41.5 12t-14.5 34v29q0 23 14.5 35t41.5 12q57 0 57 -47z" />
    <glyph glyph-name="slash" unicode="/" horiz-adv-x="255" 
d="M273 683l-205 -683h-85l205 683h85z" />
    <glyph glyph-name="zero" unicode="0" horiz-adv-x="500" 
d="M387.5 561.5q47.5 -51.5 47.5 -153.5v-215q0 -102 -47.5 -153.5t-137.5 -51.5t-137.5 51.5t-47.5 153.5v215q0 102 47.5 153.5t137.5 51.5t137.5 -51.5zM150 416v-231q0 -125 100 -125t100 125v231q0 125 -100 125t-100 -125z" />
    <glyph glyph-name="one" unicode="1" horiz-adv-x="312" 
d="M237 601v-601h-85v519h-2l-133 -57l-17 73l162 66h75z" />
    <glyph glyph-name="two" unicode="2" horiz-adv-x="387" 
d="M294 574q46 -39 46 -117v-22q0 -47 -16 -87t-67 -100l-145 -175h235v-73h-337v65l200 253q28 35 36.5 57.5t8.5 58.5v18q0 48 -24.5 68.5t-79.5 20.5q-27 0 -62 -6.5t-64 -15.5v73q77 21 126 21q97 0 143 -39z" />
    <glyph glyph-name="three" unicode="3" horiz-adv-x="389" 
d="M286 572q45 -41 45 -115v-10q0 -46 -19.5 -80.5t-57.5 -52.5q41 -17 65.5 -55t24.5 -86v-10q0 -79 -47.5 -127t-137.5 -48q-47 0 -129 13v71q76 -13 129 -13q48 0 74 26.5t26 72.5v16q0 102 -105 102h-89v68h89q47 0 69.5 23.5t22.5 75.5v19q0 81 -90 81q-44 0 -126 -14
v71q82 13 126 13q85 0 130 -41z" />
    <glyph glyph-name="four" unicode="4" horiz-adv-x="421" 
d="M350 601v-402h61v-70h-61v-129h-83v129h-272v59l258 413h97zM268 504l-182 -305h182v305z" />
    <glyph glyph-name="five" unicode="5" horiz-adv-x="441" 
d="M358 531h-226v-195q57 46 136 46q69 0 103.5 -40.5t34.5 -129.5v-36q0 -188 -195 -188q-35 0 -77 6.5t-74 15.5v69q29 -6 77 -12.5t72 -6.5q55 0 83.5 29.5t28.5 86.5v39q0 96 -74 96q-40 0 -70.5 -15t-61.5 -50h-65v358h308v-73z" />
    <glyph glyph-name="six" unicode="6" horiz-adv-x="475" 
d="M377 533q-123 -2 -177.5 -40.5t-54.5 -114.5v-56q71 67 134 67q72 0 111.5 -44.5t39.5 -132.5v-39q0 -91 -47.5 -138t-138.5 -47q-89 0 -136.5 49.5t-47.5 140.5v184q0 118 79.5 180t237.5 64v-73zM145 250v-77q0 -113 99 -113q101 0 101 108v47q0 49 -21.5 74.5
t-59.5 25.5q-48 0 -119 -65z" />
    <glyph glyph-name="seven" unicode="7" horiz-adv-x="378" 
d="M366 600v-58l-224 -542h-91l224 524v2h-270v74h361z" />
    <glyph glyph-name="eight" unicode="8" horiz-adv-x="460" 
d="M355.5 572q45.5 -41 45.5 -117v-5q0 -44 -16.5 -77t-48.5 -52q43 -20 66 -56t23 -87v-15q0 -83 -50.5 -129t-144.5 -46t-144.5 46t-50.5 129v15q0 104 89 143q-32 19 -48.5 52t-16.5 77v5q0 75 45.5 116.5t125.5 41.5t125.5 -41zM142 460v-19q0 -47 20 -67.5t68 -20.5
t68 20.5t20 67.5v19q0 45 -21.5 66t-66.5 21q-88 0 -88 -87zM149 259q-29 -28 -29 -79v-25q0 -44 28.5 -70t81.5 -26t81.5 26t28.5 70v25q0 51 -29 79t-81 28t-81 -28z" />
    <glyph glyph-name="nine" unicode="9" horiz-adv-x="475" 
d="M368 564q47 -49 47 -142v-214q0 -114 -50.5 -167t-153.5 -53q-29 0 -67.5 5.5t-61.5 10.5v71q30 -5 70 -10.5t59 -5.5q61 0 90 33.5t29 109.5v76q-70 -67 -136 -67q-71 0 -110 45t-39 132v39q0 90 47 138t139 48q90 0 137 -49zM130 432v-47q0 -49 21 -74.5t60 -25.5
q48 0 119 65v77q0 114 -99 114q-101 0 -101 -109z" />
    <glyph glyph-name="colon" unicode=":" horiz-adv-x="221" 
d="M168 63v-29q0 -22 -14.5 -34t-42.5 -12q-27 0 -41.5 12t-14.5 34v29q0 23 14.5 35t41.5 12q57 0 57 -47zM168 431v-29q0 -22 -14.5 -34t-42.5 -12q-27 0 -41.5 12t-14.5 34v29q0 23 14.5 35t41.5 12q57 0 57 -47z" />
    <glyph glyph-name="semicolon" unicode=";" horiz-adv-x="221" 
d="M151 98.5q14 -11.5 14 -33.5v-32q0 -29 -7 -51l-43 -143h-60l36 153q-35 8 -35 43v30q0 22 14 33.5t40 11.5q27 0 41 -11.5zM167 431v-29q0 -22 -14.5 -34t-42.5 -12q-27 0 -41.5 12t-14.5 34v29q0 23 14.5 35t41.5 12q57 0 57 -47z" />
    <glyph glyph-name="less" unicode="&#x3c;" horiz-adv-x="390" 
d="M375 494v-83l-276 -114l276 -115v-83l-360 160v75z" />
    <glyph glyph-name="equal" unicode="=" horiz-adv-x="420" 
d="M387 421v-70h-354v70h354zM387 250v-70h-354v70h354z" />
    <glyph glyph-name="greater" unicode="&#x3e;" horiz-adv-x="390" 
d="M15 494l360 -160v-75l-360 -160v83l276 115l-276 114v83z" />
    <glyph glyph-name="question" unicode="?" horiz-adv-x="395" 
d="M296.5 660q43.5 -35 43.5 -103v-25q0 -45 -20 -85.5t-67 -89.5l-33 -36q-16 -17 -21.5 -31.5t-5.5 -44.5v-45h-81v32q0 49 7 70t33 52l58 68q27 33 36 55t9 57v22q0 37 -22.5 54t-81.5 17q-47 0 -126 -18v70q78 16 131 16q97 0 140.5 -35zM195.5 96q14.5 -12 14.5 -34
v-29q0 -22 -14.5 -33.5t-41.5 -11.5q-26 0 -40.5 11.5t-14.5 33.5v29q0 22 14.5 34t40.5 12q27 0 41.5 -12z" />
    <glyph glyph-name="at" unicode="@" horiz-adv-x="930" 
d="M767.5 600.5q102.5 -94.5 102.5 -282.5v-50q0 -74 -25.5 -131t-74 -89.5t-113.5 -32.5q-56 0 -88 24.5t-38 69.5q-36 -44 -76.5 -69t-77.5 -25q-55 0 -84.5 33t-29.5 95q0 18 3 39l18 138q10 81 51.5 124.5t106.5 43.5q33 0 66.5 -16t55.5 -38l5 41h80l-41 -320
q-2 -33 8.5 -49t41.5 -16q35 0 64 23t46 63.5t17 91.5v50q0 148 -83 224.5t-247 76.5q-147 0 -228.5 -86t-81.5 -245v-100q0 -146 78 -221.5t232 -75.5h135v-76h-135q-395 0 -395 373v100q0 187 99 297t296 110q210 0 312.5 -94.5zM397 386.5q-23 -25.5 -30 -78.5l-15 -115
q-2 -12 -2 -32q0 -70 53 -70q30 0 62.5 23.5t61.5 67.5l22 181q-18 22 -44.5 35.5t-49.5 13.5q-35 0 -58 -25.5z" />
    <glyph glyph-name="A" unicode="A" horiz-adv-x="532" 
d="M318 655l201 -655h-92l-43 152h-241l-43 -152h-87l200 655h105zM264 577l-100 -349h199z" />
    <glyph glyph-name="B" unicode="B" horiz-adv-x="528" 
d="M411 624q55 -43 55 -117v-22q0 -105 -92 -145q56 -12 87.5 -51.5t31.5 -97.5v-22q0 -83 -58.5 -132t-176.5 -49q-67 0 -183 6v669q92 4 176 4q105 0 160 -43zM160 591v-224h98q60 0 91.5 29t31.5 81v17q0 50 -34 75t-109 25q-36 0 -78 -3zM160 298v-230q33 -3 54.5 -4.5
t43.5 -1.5q77 0 113.5 29.5t36.5 82.5v21q0 103 -144 103h-104z" />
    <glyph glyph-name="C" unicode="C" horiz-adv-x="476" 
d="M367.5 659.5q45.5 -7.5 53.5 -8.5l-2 -75q-88 16 -136 16q-68 0 -98 -28t-30 -93v-286q0 -65 29.5 -92.5t98.5 -27.5q48 0 136 16l2 -77q-8 -1 -53.5 -8.5t-84.5 -7.5q-115 0 -164 49t-49 153v275q0 104 49 153t164 49q39 0 84.5 -7.5z" />
    <glyph glyph-name="D" unicode="D" horiz-adv-x="571" 
d="M441.5 599.5q64.5 -67.5 64.5 -194.5v-164q0 -122 -64.5 -187.5t-188.5 -65.5q-85 0 -178 6v669q90 4 183 4q119 0 183.5 -67.5zM160 593v-526q59 -6 93 -6q77 0 122.5 44.5t45.5 128.5v177q0 91 -44 137.5t-124 46.5q-31 0 -93 -2z" />
    <glyph glyph-name="E" unicode="E" horiz-adv-x="485" 
d="M420 655v-77h-260v-207h240v-76h-240v-218h260v-77h-345v655h345z" />
    <glyph glyph-name="F" unicode="F" horiz-adv-x="460" 
d="M420 655v-77h-260v-207h196v-76h-196v-295h-85v655h345z" />
    <glyph glyph-name="G" unicode="G" horiz-adv-x="555" 
d="M368 660.5q48 -6.5 88 -14.5l-2 -75q-113 22 -171 22q-69 0 -98.5 -27.5t-29.5 -91.5v-290q0 -64 29.5 -92.5t98.5 -28.5q45 0 117 14v221h-125v80h210v-353q-120 -37 -202 -37q-115 0 -164 49t-49 153v275q0 106 50 154t163 48q37 0 85 -6.5z" />
    <glyph glyph-name="H" unicode="H" horiz-adv-x="580" 
d="M505 655v-655h-85v300h-260v-300h-85v655h85v-279h260v279h85z" />
    <glyph glyph-name="I" unicode="I" horiz-adv-x="235" 
d="M160 655v-655h-85v655h85z" />
    <glyph glyph-name="J" unicode="J" horiz-adv-x="287" 
d="M212 139q0 -77 -36.5 -114t-116.5 -37q-16 0 -36.5 2.5t-27.5 4.5v71q28 -5 68 -5q32 0 48 16.5t16 54.5v523h85v-516z" />
    <glyph glyph-name="K" unicode="K" horiz-adv-x="525" 
d="M499 655l-251 -317l277 -338h-109l-256 321v-321h-85v655h85v-316l244 316h95z" />
    <glyph glyph-name="L" unicode="L" horiz-adv-x="450" 
d="M160 655v-580h260v-75h-345v655h85z" />
    <glyph glyph-name="M" unicode="M" horiz-adv-x="699" 
d="M546 0l-5 538l-139 -470h-105l-139 470l-5 -538h-83l6 655h126l148 -511l147 511h126l6 -655h-83z" />
    <glyph glyph-name="N" unicode="N" horiz-adv-x="582" 
d="M375 0l-216 553v-553h-84v655h136l212 -553v553h84v-655h-132z" />
    <glyph glyph-name="O" unicode="O" 
d="M453 611q53 -56 53 -159v-249q0 -103 -53 -159t-165 -56t-165 56t-53 159v249q0 103 53 159t165 56t165 -56zM188.5 559q-33.5 -33 -33.5 -97v-268q0 -64 33.5 -97.5t99.5 -33.5t99.5 33.5t33.5 97.5v267q0 64 -33.5 97.5t-99.5 33.5t-99.5 -33z" />
    <glyph glyph-name="P" unicode="P" horiz-adv-x="511" 
d="M423.5 619.5q57.5 -47.5 57.5 -135.5v-24q0 -94 -56 -145t-169 -51q-45 0 -96 8v-272h-85v662q85 5 173 5q118 0 175.5 -47.5zM160 593v-248q60 -8 92 -8q144 0 144 127v17q0 57 -36 85.5t-114 28.5q-44 0 -86 -2z" />
    <glyph glyph-name="Q" unicode="Q" 
d="M453 611q53 -56 53 -159v-249q0 -128 -95 -179l115 -30l2 -79h-19l-196 74q-7 -1 -24 -1q-219 0 -219 215v249q0 103 53 159t165 56t165 -56zM188.5 559q-33.5 -33 -33.5 -97v-268q0 -64 34 -97.5t100 -33.5q132 0 132 133v265q0 64 -33.5 97.5t-99.5 33.5t-99.5 -33z
" />
    <glyph glyph-name="R" unicode="R" horiz-adv-x="540" 
d="M423 621q56 -46 56 -129v-25q0 -58 -32 -102.5t-92 -62.5l170 -302h-95l-159 284q-8 -1 -32 -1q-40 0 -79 3v-286h-85v663q112 4 174 4q118 0 174 -46zM160 593v-236q54 -5 90 -5q144 0 144 117v20q0 54 -35 80t-112 26q-33 0 -87 -2z" />
    <glyph glyph-name="S" unicode="S" horiz-adv-x="461" 
d="M380 651l-2 -75q-82 16 -139 16q-58 0 -83.5 -23t-25.5 -70v-26q0 -25 6.5 -39.5t23.5 -25t51 -21.5l93 -31q67 -23 94.5 -61t27.5 -111v-19q0 -89 -51.5 -133t-168.5 -44q-57 0 -146 20l2 77q83 -20 142 -20q75 0 106 22.5t31 70.5v33q0 35 -15.5 53.5t-54.5 31.5
l-103 34q-69 23 -96 59.5t-27 110.5v11q0 87 46.5 131.5t147.5 44.5q54 0 141 -16z" />
    <glyph glyph-name="T" unicode="T" horiz-adv-x="525" 
d="M495 655v-77h-190v-578h-85v578h-190v77h465z" />
    <glyph glyph-name="U" unicode="U" 
d="M501 207q0 -106 -54 -162.5t-159 -56.5q-104 0 -158.5 55t-54.5 162v450h85v-461q0 -64 33.5 -97.5t94.5 -33.5q62 0 95 33.5t33 97.5v461h85v-448z" />
    <glyph glyph-name="V" unicode="V" horiz-adv-x="526" 
d="M513 655l-197 -655h-112l-191 655h90l157 -573l163 573h90z" />
    <glyph glyph-name="W" unicode="W" horiz-adv-x="848" 
d="M823 655l-151 -655h-114l-134 558l-133 -558h-114l-152 655h90l122 -562l129 562h116l130 -562l121 562h90z" />
    <glyph glyph-name="X" unicode="X" horiz-adv-x="519" 
d="M495 655l-178 -319l189 -336h-103l-146 268l-146 -268h-98l192 338l-180 317h102l137 -250l137 250h94z" />
    <glyph glyph-name="Y" unicode="Y" horiz-adv-x="491" 
d="M478 655l-190 -430v-225h-85v225l-190 430h97l136 -340l137 340h95z" />
    <glyph glyph-name="Z" unicode="Z" horiz-adv-x="480" 
d="M435 655v-67l-296 -511h296v-77h-395v67l296 511h-290v77h389z" />
    <glyph glyph-name="bracketleft" unicode="[" horiz-adv-x="260" 
d="M275 747v-70h-120v-699h120v-70h-205v839h205z" />
    <glyph glyph-name="backslash" unicode="\" horiz-adv-x="255" 
d="M68 683l205 -683h-85l-205 683h85z" />
    <glyph glyph-name="bracketright" unicode="]" horiz-adv-x="260" 
d="M190 747v-839h-205v70h120v699h-120v70h205z" />
    <glyph glyph-name="asciicircum" unicode="^" horiz-adv-x="495" 
d="M285 683l145 -280h-83l-100 201l-99 -201h-83l145 280h75z" />
    <glyph glyph-name="underscore" unicode="_" horiz-adv-x="610" 
d="M545 -120v-65h-480v65h480z" />
    <glyph glyph-name="grave" unicode="`" horiz-adv-x="227" 
d="M121 685l76 -139h-72l-95 139h91z" />
    <glyph glyph-name="a" unicode="a" horiz-adv-x="449" 
d="M344.5 461.5q39.5 -38.5 39.5 -122.5v-339h-81v78q-58 -90 -131 -90q-58 0 -92.5 40t-34.5 109v28q0 60 41 99.5t110 39.5q38 0 103 -13v55q0 43 -19.5 62t-60.5 19q-48 0 -135 -15v73q94 15 135 15q86 0 125.5 -38.5zM153 216q-22 -22 -22 -62v-11q0 -37 17 -58t43 -21
q27 0 55.5 23.5t52.5 66.5v77q-38 7 -82 7q-42 0 -64 -22z" />
    <glyph glyph-name="b" unicode="b" horiz-adv-x="471" 
d="M150 423q26 37 60 57t71 20q62 0 96 -43.5t34 -126.5v-158q0 -91 -43 -137.5t-133 -46.5q-88 0 -129 45t-41 137v513h85v-260zM202 402q-30 -22 -52 -60v-182q0 -49 22.5 -75t62.5 -26q91 0 91 103v156q0 106 -65 106q-29 0 -59 -22z" />
    <glyph glyph-name="c" unicode="c" horiz-adv-x="390" 
d="M343 487l-2 -75q-58 13 -100 13q-47 0 -71.5 -26t-24.5 -74v-161q0 -50 25.5 -75.5t70.5 -25.5q28 0 49 3t51 10l2 -75q-61 -13 -103 -13q-180 0 -180 182v148q0 182 181 182q45 0 102 -13z" />
    <glyph glyph-name="d" unicode="d" horiz-adv-x="476" 
d="M406 0h-81v79q-60 -91 -137 -91q-62 0 -95 42.5t-33 124.5v178q0 79 36.5 123t104.5 44q29 0 61 -14.5t59 -35.5v233h85v-683zM164.5 398.5q-19.5 -25.5 -19.5 -77.5v-155q0 -102 63 -102q30 0 59.5 23.5t53.5 66.5v220q-21 22 -49.5 36t-51.5 14q-36 0 -55.5 -25.5z" />
    <glyph glyph-name="e" unicode="e" horiz-adv-x="447" 
d="M358 454q44 -46 44 -133v-103h-257v-59q0 -51 24.5 -73.5t77.5 -22.5q52 0 130 16l2 -74q-93 -17 -133 -17q-99 0 -142.5 43t-43.5 133v157q0 87 42.5 133t127.5 46q84 0 128 -46zM168 404.5q-23 -24.5 -23 -70.5v-48h172v45q0 48 -23.5 73t-63.5 25q-39 0 -62 -24.5z
" />
    <glyph glyph-name="f" unicode="f" horiz-adv-x="308" 
d="M313 688v-68q-30 5 -62 5q-31 0 -48.5 -20t-17.5 -61v-56h100v-70h-100v-418h-85v418h-70v70h70v51q1 78 39 117t111 39q33 0 63 -7z" />
    <glyph glyph-name="g" unicode="g" horiz-adv-x="476" 
d="M310 487l156 2v-75l-82 2q17 -36 17 -75v-22q0 -73 -45 -117.5t-126 -44.5q-52 0 -85 10q-22 -18 -22 -41v-6q0 -16 10 -23.5t39 -9.5l149 -11q46 -4 74.5 -34.5t28.5 -76.5v-37q0 -43 -17 -70t-62.5 -41t-130.5 -14q-32 0 -75.5 7t-82.5 18l3 79q93 -31 158 -31
q54 0 80.5 6.5t35 19.5t8.5 39v8q0 23 -12.5 36t-35.5 14l-150 10q-48 3 -73 27t-25 65v20q0 22 11.5 43t33.5 37q-17 19 -24.5 48.5t-7.5 72.5v22q0 71 44 113.5t128 42.5q44 0 80 -13zM165.5 407.5q-22.5 -21.5 -22.5 -61.5v-33q0 -37 6.5 -54.5t23.5 -24t51 -6.5
q46 0 69 22t23 63v30q0 42 -12 73q-12 5 -32.5 9t-41.5 4q-42 0 -64.5 -21.5z" />
    <glyph glyph-name="h" unicode="h" horiz-adv-x="481" 
d="M155 423q55 77 128 77q64 0 98.5 -43.5t34.5 -123.5v-333h-85v321q0 100 -65 100q-29 0 -59 -22t-52 -60v-339h-85v683h85v-260z" />
    <glyph glyph-name="i" unicode="i" horiz-adv-x="225" 
d="M155 488v-488h-85v488h85zM153.5 673q14.5 -12 14.5 -34v-29q0 -22 -14.5 -33.5t-41.5 -11.5q-26 0 -40.5 11.5t-14.5 33.5v29q0 22 14.5 34t40.5 12q27 0 41.5 -12z" />
    <glyph glyph-name="j" unicode="j" horiz-adv-x="225" 
d="M153.5 673q14.5 -12 14.5 -34v-29q0 -22 -14.5 -33.5t-41.5 -11.5q-26 0 -40.5 11.5t-14.5 33.5v29q0 22 14.5 34t40.5 12q27 0 41.5 -12zM155 -46q0 -76 -36.5 -113.5t-116.5 -37.5q-15 0 -32.5 2t-27.5 4v71q44 -4 64 -4q33 0 48.5 17t15.5 54v541h85v-534z" />
    <glyph glyph-name="k" unicode="k" horiz-adv-x="427" 
d="M155 683v-409l160 214h95l-166 -214l178 -274h-102l-165 262v-262h-85v683h85z" />
    <glyph glyph-name="l" unicode="l" horiz-adv-x="225" 
d="M155 683v-683h-85v683h85z" />
    <glyph glyph-name="m" unicode="m" horiz-adv-x="741" 
d="M637 456.5q34 -43.5 34 -123.5v-333h-85v321q0 100 -64 100q-28 0 -57.5 -22t-51.5 -60v-339h-85v321q0 100 -64 100q-28 0 -57.5 -22t-51.5 -60v-339h-85v488h80v-73q26 41 60 63t71 22q46 0 77 -23.5t45 -68.5q27 45 62 68.5t74 23.5q64 0 98 -43.5z" />
    <glyph glyph-name="n" unicode="n" horiz-adv-x="486" 
d="M381.5 456.5q34.5 -43.5 34.5 -123.5v-333h-85v321q0 100 -65 100q-29 0 -59 -22t-52 -60v-339h-85v488h80v-73q27 41 60.5 63t72.5 22q64 0 98.5 -43.5z" />
    <glyph glyph-name="o" unicode="o" horiz-adv-x="472" 
d="M368.5 452.5q43.5 -47.5 43.5 -134.5v-148q0 -87 -43.5 -134.5t-132.5 -47.5t-132.5 47.5t-43.5 134.5v148q0 87 43.5 134.5t132.5 47.5t132.5 -47.5zM169 402q-24 -27 -24 -77v-162q0 -50 24 -77t67 -27t67 27t24 77v163q0 50 -24 76.5t-67 26.5t-67 -27z" />
    <glyph glyph-name="p" unicode="p" horiz-adv-x="475" 
d="M380 457q35 -43 35 -124v-178q0 -78 -40.5 -122.5t-109.5 -44.5q-26 0 -55.5 10.5t-54.5 24.5v-208h-85v673h80v-71q55 83 132 83q63 0 98 -43zM206.5 402.5q-29.5 -21.5 -51.5 -58.5v-245q21 -17 46.5 -26.5t46.5 -9.5q82 0 82 104v154q0 103 -65 103q-29 0 -58.5 -21.5
z" />
    <glyph glyph-name="q" unicode="q" horiz-adv-x="476" 
d="M264 484.5q33 -15.5 61 -37.5v41h81v-673h-85v258q-59 -85 -133 -85q-62 0 -95 42.5t-33 124.5v178q0 79 36.5 123t104.5 44q30 0 63 -15.5zM164.5 398.5q-19.5 -25.5 -19.5 -77.5v-155q0 -102 63 -102q30 0 59.5 23.5t53.5 66.5v220q-21 22 -49.5 36t-51.5 14
q-36 0 -55.5 -25.5z" />
    <glyph glyph-name="r" unicode="r" horiz-adv-x="325" 
d="M305 498v-96q-15 3 -39 3q-70 0 -111 -70v-335h-85v488h80v-73q27 41 60.5 63t72.5 22q14 0 22 -2z" />
    <glyph glyph-name="s" unicode="s" horiz-adv-x="382" 
d="M311 488l-2 -72q-52 12 -95 12q-90 0 -90 -58v-9q0 -18 9.5 -29t34.5 -23l94 -44q85 -40 85 -117v-22q-1 -69 -41.5 -103.5t-127.5 -34.5q-45 0 -129 21l4 76q75 -22 123 -22q49 0 68 13.5t19 44.5v10q0 24 -9.5 38t-31.5 24l-97 43q-44 20 -64.5 48t-20.5 65v14
q2 68 42.5 102.5t127.5 34.5q42 0 101 -12z" />
    <glyph glyph-name="t" unicode="t" horiz-adv-x="338" 
d="M170 488h130v-70h-130v-286q0 -38 15.5 -54.5t48.5 -16.5q42 0 82 10l2 -71q-44 -12 -80 -12q-80 0 -116.5 35.5t-36.5 115.5v279h-70v70h70l16 130h69v-130z" />
    <glyph glyph-name="u" unicode="u" horiz-adv-x="480" 
d="M410 0h-80v70q-27 -40 -60 -61t-70 -21q-61 0 -95.5 42.5t-34.5 124.5v333h85v-318q0 -53 16.5 -78t45.5 -25q27 0 56.5 21.5t51.5 59.5v340h85v-488z" />
    <glyph glyph-name="v" unicode="v" horiz-adv-x="432" 
d="M422 488l-151 -488h-111l-150 488h90l116 -426l116 426h90z" />
    <glyph glyph-name="w" unicode="w" horiz-adv-x="678" 
d="M658 488l-113 -488h-107l-99 414l-100 -414h-107l-112 488h90l79 -413l95 413h110l94 -413l80 413h90z" />
    <glyph glyph-name="x" unicode="x" horiz-adv-x="421" 
d="M405 488l-143 -234l154 -254h-97l-110 191l-107 -191h-97l152 251l-142 237h97l99 -175l100 175h94z" />
    <glyph glyph-name="y" unicode="y" horiz-adv-x="436" 
d="M426 488l-224 -673h-85l64 185h-32l-139 488h93l105 -427l130 427h88z" />
    <glyph glyph-name="z" unicode="z" horiz-adv-x="401" 
d="M361 488v-63l-226 -352h226v-73h-326v63l227 352h-222v73h321z" />
    <glyph glyph-name="braceleft" unicode="{" horiz-adv-x="256" 
d="M266 677q-38 0 -56 -6.5t-24 -25t-6 -57.5v-146q0 -51 -13.5 -77.5t-44.5 -37.5q30 -10 44 -37t14 -78v-145q0 -40 7 -58.5t24.5 -24.5t54.5 -6v-70q-72 0 -107.5 13.5t-49.5 51t-14 115.5v124q0 46 -14.5 63t-50.5 17h-25v70h25q36 0 50.5 17.5t14.5 62.5v125
q0 78 15 116t50 51t106 13v-70z" />
    <glyph glyph-name="bar" unicode="|" horiz-adv-x="225" 
d="M155 758v-862h-85v862h85z" />
    <glyph glyph-name="braceright" unicode="}" horiz-adv-x="256" 
d="M97 734q35 -13 50 -51t15 -116v-125q0 -45 14.5 -62.5t50.5 -17.5h25v-70h-25q-36 0 -50.5 -17t-14.5 -63v-124q0 -78 -14 -115.5t-49.5 -51t-107.5 -13.5v70q37 0 54.5 6t24.5 24.5t7 58.5v145q0 51 14 78t44 37q-31 11 -44.5 37.5t-13.5 77.5v146q0 39 -6 57.5t-24 25
t-56 6.5v70q71 0 106 -13z" />
    <glyph glyph-name="asciitilde" unicode="~" horiz-adv-x="390" 
d="M159.5 348.5q17.5 -3.5 39.5 -10.5q23 -7 38.5 -10.5t36.5 -3.5q16 0 38 5.5t38.5 11.5t21.5 8v-70q-3 -2 -16.5 -9t-35.5 -13t-48 -6q-24 0 -41 3.5t-39 10.5q-21 7 -37 10.5t-39 3.5q-16 0 -38 -5.5t-38.5 -11.5t-21.5 -8v70q3 2 16.5 9t35.5 13t48 6q24 0 41.5 -3.5z
" />
    <glyph glyph-name="nbspace" unicode="&#xa0;" horiz-adv-x="180" 
 />
    <glyph glyph-name="exclamdown" unicode="&#xa1;" horiz-adv-x="211" 
d="M64.5 414q-14.5 12 -14.5 34v29q0 22 14.5 33.5t40.5 11.5q27 0 41.5 -11.5t14.5 -33.5v-29q0 -22 -14.5 -34t-41.5 -12q-26 0 -40.5 12zM153 -185h-95l7 495h81z" />
    <glyph glyph-name="cent" unicode="&#xa2;" horiz-adv-x="390" 
d="M260 499q26 -1 78 -10l-2 -75q-30 6 -50 8.5t-48 2.5q-48 0 -73 -26t-25 -74v-161q0 -50 25.5 -75.5t72.5 -25.5q28 0 48 2.5t50 8.5l2 -75q-52 -9 -78 -10v-77h-75v81q-130 23 -130 177v148q0 154 130 177v81h75v-77z" />
    <glyph glyph-name="sterling" unicode="&#xa3;" horiz-adv-x="397" 
d="M347 598v-68q-43 13 -82 13q-52 0 -73.5 -19.5t-21.5 -61.5v-87h95v-70h-95v-121q0 -42 -10 -68t-31 -42h263v-74h-347v60q40 49 40 106v139h-70v70h70v82q0 80 41 118t126 38q44 0 95 -15z" />
    <glyph glyph-name="currency" unicode="&#xa4;" horiz-adv-x="470" 
d="M450 467l-61 -60q17 -35 17 -84v-20q0 -49 -21 -90l65 -64l-56 -56l-62 63q-40 -24 -99 -24q-57 0 -97 22l-60 -61l-56 56l62 61q-23 41 -23 93v20q0 49 19 87l-58 57l56 56l54 -55q43 26 103 26q61 0 105 -28l56 57zM163.5 394q-22.5 -27 -22.5 -71v-20q0 -45 22 -72
t70 -27q47 0 69 27t22 72v20q0 45 -22 71.5t-69 26.5t-69.5 -27z" />
    <glyph glyph-name="yen" unicode="&#xa5;" horiz-adv-x="455" 
d="M460 601l-164 -342h68v-70h-94v-41h94v-70h-94v-78h-85v78h-95v70h95v41h-95v70h69l-164 342h95l138 -321l137 321h95z" />
    <glyph glyph-name="brokenbar" unicode="&#xa6;" horiz-adv-x="225" 
d="M155 758v-370h-85v370h85zM155 266v-370h-85v370h85z" />
    <glyph glyph-name="section" unicode="&#xa7;" horiz-adv-x="418" 
d="M326 683l-2 -71q-53 12 -98 12q-47 0 -65.5 -14t-18.5 -46v-33q0 -21 9.5 -33.5t31.5 -21.5l107 -41q108 -41 108 -120v-31q0 -46 -25 -79t-69 -42q29 -11 46.5 -39t17.5 -65v-38q0 -71 -41 -105.5t-134 -34.5q-31 0 -58 3.5t-65 11.5l2 75q66 -15 121 -15
q51 0 69.5 12.5t18.5 44.5v33q0 26 -9.5 41.5t-31.5 22.5l-107 37q-58 20 -83 48t-25 73v24q0 52 28 88t70 41q-31 11 -49.5 39.5t-18.5 67.5v28q0 71 38.5 105t128.5 34q45 0 104 -12zM138.5 353.5q-26.5 -23.5 -26.5 -59.5v-25q0 -17 13 -29t48 -24l46 -15q45 2 68.5 24
t23.5 57v23q0 44 -61 62l-37 11q-48 -1 -74.5 -24.5z" />
    <glyph glyph-name="dieresis" unicode="&#xa8;" horiz-adv-x="331" 
d="M119.5 671q13.5 -11 13.5 -31v-29q0 -19 -13.5 -30t-38.5 -11q-23 0 -37 11t-14 30v29q0 20 13.5 31t37.5 11q25 0 38.5 -11zM287.5 671q13.5 -11 13.5 -31v-29q0 -19 -13.5 -30t-38.5 -11q-23 0 -37 11t-14 30v29q0 20 13.5 31t37.5 11q25 0 38.5 -11z" />
    <glyph glyph-name="copyright" unicode="&#xa9;" horiz-adv-x="646" 
d="M514 558.5q62 -57.5 62 -154.5v-207q0 -97 -62 -154.5t-191 -57.5t-191 57.5t-62 154.5v207q0 97 62 154.5t191 57.5t191 -57.5zM189 513q-48 -37 -48 -98v-229q0 -61 48 -98t134 -37t134 37t48 98v230q0 61 -48 97.5t-134 36.5t-134 -37zM419 473l-2 -66q-42 5 -76 5
q-27 0 -42 -19.5t-15 -59.5v-55q0 -40 15 -60.5t42 -20.5q34 0 76 5l2 -66q-48 -7 -78 -7q-138 0 -138 148v56q0 72 35 109.5t103 37.5q36 0 78 -7z" />
    <glyph glyph-name="ordfeminine" unicode="&#xaa;" horiz-adv-x="469" 
d="M359.5 628.5q39.5 -38.5 39.5 -122.5v-280h-81v78q-58 -90 -131 -90q-58 0 -92.5 36.5t-34.5 97.5v28q0 54 41 90.5t110 36.5q38 0 103 -13v26q0 43 -19.5 62t-60.5 19q-48 0 -135 -15v70q94 15 135 15q86 0 125.5 -38.5zM168.5 416q-22.5 -19 -22.5 -51v-11
q0 -30 16.5 -47t43.5 -17q29 0 57 18.5t51 57.5v62q-38 7 -82 7q-41 0 -63.5 -19zM399 73v-73h-339v73h339z" />
    <glyph glyph-name="guillemotleft" unicode="&#xab;" horiz-adv-x="488" 
d="M253 438l-93 -170l93 -170h-88l-100 170l100 170h88zM423 438l-93 -170l93 -170h-88l-100 170l100 170h88z" />
    <glyph glyph-name="logicalnot" unicode="&#xac;" horiz-adv-x="390" 
d="M375 335v-222h-76v152h-285v70h361z" />
    <glyph glyph-name="uni00AD" unicode="&#xad;" horiz-adv-x="600" 
d="M285 328v-65h-220v65h220z" />
    <glyph glyph-name="registered" unicode="&#xae;" horiz-adv-x="528" 
d="M404 649.5q44 -44.5 44 -128.5v-34q0 -173 -184 -173q-96 0 -140 44.5t-44 128.5v34q0 84 44 128.5t140 44.5t140 -44.5zM160 619.5q-32 -30.5 -32 -91.5v-48q0 -61 32 -91.5t104 -30.5t104 30.5t32 91.5v49q0 61 -32 91t-104 30t-104 -30.5zM352 550v-10
q0 -19 -12.5 -35t-32.5 -24l52 -86h-49l-44 80h-30v-80h-43v221l72 2q87 0 87 -68zM236 578v-64q13 -1 34 -1q38 0 38 28v8q0 17 -9 24t-31 7q-18 0 -32 -2z" />
    <glyph glyph-name="macron" unicode="&#xaf;" horiz-adv-x="275" 
d="M245 681v-75h-215v75h215z" />
    <glyph glyph-name="degree" unicode="&#xb0;" horiz-adv-x="390" 
d="M314 652.5q40 -42.5 40 -124.5v-22q0 -82 -40 -124.5t-119 -42.5t-119.5 43t-40.5 124v22q0 81 40.5 124t119.5 43t119 -42.5zM112 528v-22q0 -98 83 -98q39 0 60.5 24t21.5 74v22q0 98 -82 98q-83 0 -83 -98z" />
    <glyph glyph-name="plusminus" unicode="&#xb1;" horiz-adv-x="390" 
d="M233 488v-152h140v-71h-140v-152h-76v152h-140v71h140v152h76zM372 70v-70h-356v70h356z" />
    <glyph glyph-name="uni00B2" unicode="&#xb2;" horiz-adv-x="400" 
d="M291.5 732.5q35.5 -27.5 35.5 -80.5v-18q0 -35 -13.5 -64.5t-49.5 -68.5l-97 -104h161v-66h-256v60l148 170q19 22 25 36t6 36v16q0 25 -16.5 36t-55.5 11q-22 0 -49.5 -5t-48.5 -12v65q59 16 98 16q77 0 112.5 -27.5z" />
    <glyph glyph-name="uni00B3" unicode="&#xb3;" horiz-adv-x="400" 
d="M276.5 731.5q34.5 -28.5 34.5 -79.5v-7q0 -33 -14 -55t-46 -37q33 -13 51.5 -40t18.5 -61v-7q0 -55 -38 -88.5t-107 -33.5q-38 0 -97 9v61q52 -8 99 -8q64 0 64 56v13q0 33 -17.5 48.5t-58.5 15.5h-58v59h58q37 0 52.5 15t15.5 47v13q0 25 -14 36t-46 11q-30 0 -95 -10
v62q59 9 95 9q68 0 102.5 -28.5z" />
    <glyph glyph-name="acute" unicode="&#xb4;" horiz-adv-x="227" 
d="M197 685l-95 -139h-72l76 139h91z" />
    <glyph glyph-name="uni00B5" unicode="&#xb5;" horiz-adv-x="480" 
d="M410 0h-80v70q-27 -39 -59.5 -60.5t-65.5 -21.5q-27 0 -53 16v-189h-82v673h85v-318q0 -53 16.5 -78t45.5 -25q28 0 57 21.5t51 59.5v340h85v-488z" />
    <glyph glyph-name="paragraph" unicode="&#xb6;" horiz-adv-x="546" 
d="M280 -185h-86v498h-50q-60 0 -92 30.5t-32 89.5v127q0 58 31.5 90.5t92.5 32.5h136v-868zM471 683v-868h-86v868h86zM154 610q-28 0 -40 -15t-12 -55v-82q0 -39 12 -54.5t40 -15.5h40v222h-40z" />
    <glyph glyph-name="periodcentered" unicode="&#xb7;" horiz-adv-x="221" 
d="M167 264v-29q0 -22 -14.5 -34t-42.5 -12q-27 0 -41.5 12t-14.5 34v29q0 23 14.5 35t41.5 12q57 0 57 -47z" />
    <glyph glyph-name="cedilla" unicode="&#xb8;" horiz-adv-x="204" 
d="M112 -41h10q22 0 37 -18t15 -46v-15q0 -40 -23.5 -58.5t-71.5 -18.5q-19 0 -49 5v53q28 -4 36 -4q41 0 41 24v13q0 15 -8 20.5t-26 5.5h-30v21l27 87h63z" />
    <glyph glyph-name="uni00B9" unicode="&#xb9;" horiz-adv-x="400" 
d="M256 752v-355h80v-66h-252v66h92v279h-1l-97 -39l-15 67l128 48h65z" />
    <glyph glyph-name="ordmasculine" unicode="&#xba;" horiz-adv-x="492" 
d="M378 620q44 -47 44 -135v-88q0 -90 -44.5 -136t-131.5 -46q-86 0 -131 46t-45 136v88q0 88 44 135t132 47t132 -47zM179 569q-24 -27 -24 -77v-102q0 -50 24 -77t67 -27t67 27t24 77v103q0 50 -24 76.5t-67 26.5t-67 -27zM417 73v-73h-342v73h342z" />
    <glyph glyph-name="guillemotright" unicode="&#xbb;" horiz-adv-x="488" 
d="M153 438l100 -170l-100 -170h-88l93 170l-93 170h88zM323 438l100 -170l-100 -170h-88l93 170l-93 170h88z" />
    <glyph glyph-name="onequarter" unicode="&#xbc;" horiz-adv-x="1000" 
d="M246 602v-355h80v-66h-252v66h92v279h-1l-97 -39l-15 67l128 48h65zM690 601l-305 -601h-83l305 601h83zM816 421l-93 -267h109v132h76v-132h56v-64h-56v-90h-77v90h-171l-20 42l104 289h72z" />
    <glyph glyph-name="onehalf" unicode="&#xbd;" horiz-adv-x="1000" 
d="M251 602v-355h80v-66h-252v66h92v279h-1l-97 -39l-15 67l128 48h65zM698 601l-305 -601h-83l305 601h83zM906.5 401.5q35.5 -27.5 35.5 -80.5v-18q0 -35 -13.5 -64.5t-49.5 -68.5l-97 -104h161v-66h-256v60l148 170q19 22 25 36t6 36v16q0 25 -16.5 36t-55.5 11
q-22 0 -49.5 -5t-48.5 -12v65q59 16 98 16q77 0 112.5 -27.5z" />
    <glyph glyph-name="threequarters" unicode="&#xbe;" horiz-adv-x="1000" 
d="M250.5 581.5q34.5 -28.5 34.5 -79.5v-7q0 -33 -14 -55t-46 -37q33 -13 51.5 -40t18.5 -61v-7q0 -55 -38 -88.5t-107 -33.5q-38 0 -97 9v61q52 -8 99 -8q64 0 64 56v13q0 33 -17.5 48.5t-58.5 15.5h-58v59h58q37 0 52.5 15t15.5 47v13q0 25 -14 36t-46 11q-30 0 -95 -10
v62q59 9 95 9q68 0 102.5 -28.5zM660 601l-305 -601h-83l305 601h83zM798 421l-93 -267h109v132h76v-132h56v-64h-56v-90h-77v90h-171l-20 42l104 289h72z" />
    <glyph glyph-name="questiondown" unicode="&#xbf;" horiz-adv-x="395" 
d="M199.5 402q-14.5 12 -14.5 34v29q0 22 14.5 33.5t41.5 11.5q26 0 40.5 -11.5t14.5 -33.5v-29q0 -22 -14.5 -34t-40.5 -12q-27 0 -41.5 12zM98.5 -162q-43.5 35 -43.5 103v25q0 45 20 85.5t67 89.5l33 36q16 17 21.5 31.5t5.5 44.5v45h81v-32q0 -49 -7 -70t-33 -52
l-58 -68q-27 -33 -36 -55t-9 -57v-22q0 -37 22.5 -54t81.5 -17q47 0 126 18v-70q-78 -16 -131 -16q-97 0 -140.5 35z" />
    <glyph glyph-name="Agrave" unicode="&#xc0;" horiz-adv-x="532" 
d="M318 655l201 -655h-92l-43 152h-241l-43 -152h-87l200 655h105zM264 577l-100 -349h199zM244 829l66 -119h-74l-85 119h93z" />
    <glyph glyph-name="Aacute" unicode="&#xc1;" horiz-adv-x="532" 
d="M318 655l201 -655h-92l-43 152h-241l-43 -152h-87l200 655h105zM264 577l-100 -349h199zM380 829l-85 -119h-74l66 119h93z" />
    <glyph glyph-name="Acircumflex" unicode="&#xc2;" horiz-adv-x="532" 
d="M318 655l201 -655h-92l-43 152h-241l-43 -152h-87l200 655h105zM264 577l-100 -349h199zM266 840l140 -61v-68l-140 49l-140 -49v68z" />
    <glyph glyph-name="Atilde" unicode="&#xc3;" horiz-adv-x="532" 
d="M318 655l201 -655h-92l-43 152h-241l-43 -152h-87l200 655h105zM264 577l-100 -349h199zM406 740q-3 -2 -13.5 -9.5t-28.5 -14t-38 -6.5q-26 0 -63 13q-15 5 -30.5 8.5t-28.5 3.5q-15 0 -32 -5.5t-30 -11.5t-16 -8v70q3 2 13.5 9.5t28.5 14t38 6.5q32 0 72 -14
q31 -11 50 -11q15 0 32 5.5t30 11.5t16 8v-70z" />
    <glyph glyph-name="Adieresis" unicode="&#xc4;" horiz-adv-x="532" 
d="M318 655l201 -655h-92l-43 152h-241l-43 -152h-87l200 655h105zM264 577l-100 -349h199zM220.5 813q13.5 -11 13.5 -32v-29q0 -20 -13.5 -31t-38.5 -11q-24 0 -38 11.5t-14 30.5v29q0 21 14 32t38 11q25 0 38.5 -11zM388.5 813q13.5 -11 13.5 -32v-29q0 -20 -14 -31
t-39 -11q-23 0 -37.5 11.5t-14.5 30.5v29q0 21 14 32t38 11q26 0 39.5 -11z" />
    <glyph glyph-name="Aring" unicode="&#xc5;" horiz-adv-x="532" 
d="M350 775q31 -25 31 -75q0 -64 -50 -88l188 -612h-92l-43 152h-241l-43 -152h-87l187 613q-49 24 -49 87q0 50 30.5 75t84.5 25q53 0 84 -25zM216 700q0 -45 50 -45t50 45t-50 45t-50 -45zM264 582l-100 -354h199z" />
    <glyph glyph-name="AE" unicode="&#xc6;" horiz-adv-x="772" 
d="M707 655v-77h-260v-207h240v-76h-240v-218h260v-77h-345v152h-194l-66 -152h-89l293 655h401zM362 597l-161 -369h161v369z" />
    <glyph glyph-name="Ccedilla" unicode="&#xc7;" horiz-adv-x="476" 
d="M367.5 659.5q45.5 -7.5 53.5 -8.5l-2 -75q-88 16 -136 16q-68 0 -98 -28t-30 -93v-286q0 -65 29.5 -92.5t98.5 -27.5q48 0 136 16l2 -77l-29 -4q-59 -11 -100 -12l-9 -29h10q22 0 37 -18t15 -46v-15q0 -40 -23.5 -58.5t-71.5 -18.5q-19 0 -49 5v53q28 -4 36 -4
q41 0 41 24v13q-1 15 -8.5 20.5t-25.5 5.5h-30v21l15 50q-85 10 -122 59t-37 140v275q0 104 49 153t164 49q39 0 84.5 -7.5z" />
    <glyph glyph-name="Egrave" unicode="&#xc8;" horiz-adv-x="485" 
d="M420 655v-77h-260v-207h240v-76h-240v-218h260v-77h-345v655h345zM231 829l66 -119h-74l-85 119h93z" />
    <glyph glyph-name="Eacute" unicode="&#xc9;" horiz-adv-x="485" 
d="M420 655v-77h-260v-207h240v-76h-240v-218h260v-77h-345v655h345zM367 829l-85 -119h-74l66 119h93z" />
    <glyph glyph-name="Ecircumflex" unicode="&#xca;" horiz-adv-x="485" 
d="M420 655v-77h-260v-207h240v-76h-240v-218h260v-77h-345v655h345zM253 840l140 -61v-68l-140 49l-140 -49v68z" />
    <glyph glyph-name="Edieresis" unicode="&#xcb;" horiz-adv-x="485" 
d="M420 655v-77h-260v-207h240v-76h-240v-218h260v-77h-345v655h345zM207.5 813q13.5 -11 13.5 -32v-29q0 -20 -13.5 -31t-38.5 -11q-24 0 -38 11.5t-14 30.5v29q0 21 14 32t38 11q25 0 38.5 -11zM375.5 813q13.5 -11 13.5 -32v-29q0 -20 -14 -31t-39 -11q-23 0 -37.5 11.5
t-14.5 30.5v29q0 21 14 32t38 11q26 0 39.5 -11z" />
    <glyph glyph-name="Igrave" unicode="&#xcc;" horiz-adv-x="235" 
d="M160 655v-655h-85v655h85zM96 829l66 -119h-74l-85 119h93z" />
    <glyph glyph-name="Iacute" unicode="&#xcd;" horiz-adv-x="235" 
d="M160 655v-655h-85v655h85zM232 829l-85 -119h-74l66 119h93z" />
    <glyph glyph-name="Icircumflex" unicode="&#xce;" horiz-adv-x="235" 
d="M160 655v-655h-85v655h85zM118 840l140 -61v-68l-140 49l-140 -49v68z" />
    <glyph glyph-name="Idieresis" unicode="&#xcf;" horiz-adv-x="235" 
d="M160 655v-655h-85v655h85zM72.5 813q13.5 -11 13.5 -32v-29q0 -20 -13.5 -31t-38.5 -11q-24 0 -38 11.5t-14 30.5v29q0 21 14 32t38 11q25 0 38.5 -11zM240.5 813q13.5 -11 13.5 -32v-29q0 -20 -14 -31t-39 -11q-23 0 -37.5 11.5t-14.5 30.5v29q0 21 14 32t38 11
q26 0 39.5 -11z" />
    <glyph glyph-name="Eth" unicode="&#xd0;" 
d="M446.5 599.5q64.5 -67.5 64.5 -194.5v-164q0 -122 -64.5 -187.5t-188.5 -65.5q-85 0 -178 6v309h-70v70h70v290q90 4 183 4q119 0 183.5 -67.5zM165 593v-220h135v-70h-135v-236q58 -6 93 -6q77 0 122.5 44.5t45.5 128.5v177q0 91 -44 137.5t-124 46.5q-31 0 -93 -2z" />
    <glyph glyph-name="Ntilde" unicode="&#xd1;" horiz-adv-x="582" 
d="M375 0l-216 553v-553h-84v655h136l212 -553v553h84v-655h-132zM436 740q-3 -2 -13.5 -9.5t-28.5 -14t-38 -6.5q-26 0 -63 13q-15 5 -30.5 8.5t-28.5 3.5q-15 0 -32 -5.5t-30 -11.5t-16 -8v70q3 2 13.5 9.5t28.5 14t38 6.5q32 0 72 -14q31 -11 50 -11q15 0 32 5.5t30 11.5
t16 8v-70z" />
    <glyph glyph-name="Ograve" unicode="&#xd2;" 
d="M453 611q53 -56 53 -159v-249q0 -103 -53 -159t-165 -56t-165 56t-53 159v249q0 103 53 159t165 56t165 -56zM188.5 559q-33.5 -33 -33.5 -97v-268q0 -64 33.5 -97.5t99.5 -33.5t99.5 33.5t33.5 97.5v267q0 64 -33.5 97.5t-99.5 33.5t-99.5 -33zM266 829l66 -119h-74
l-85 119h93z" />
    <glyph glyph-name="Oacute" unicode="&#xd3;" 
d="M453 611q53 -56 53 -159v-249q0 -103 -53 -159t-165 -56t-165 56t-53 159v249q0 103 53 159t165 56t165 -56zM188.5 559q-33.5 -33 -33.5 -97v-268q0 -64 33.5 -97.5t99.5 -33.5t99.5 33.5t33.5 97.5v267q0 64 -33.5 97.5t-99.5 33.5t-99.5 -33zM402 829l-85 -119h-74
l66 119h93z" />
    <glyph glyph-name="Ocircumflex" unicode="&#xd4;" 
d="M453 611q53 -56 53 -159v-249q0 -103 -53 -159t-165 -56t-165 56t-53 159v249q0 103 53 159t165 56t165 -56zM188.5 559q-33.5 -33 -33.5 -97v-268q0 -64 33.5 -97.5t99.5 -33.5t99.5 33.5t33.5 97.5v267q0 64 -33.5 97.5t-99.5 33.5t-99.5 -33zM288 840l140 -61v-68
l-140 49l-140 -49v68z" />
    <glyph glyph-name="Otilde" unicode="&#xd5;" 
d="M453 611q53 -56 53 -159v-249q0 -103 -53 -159t-165 -56t-165 56t-53 159v249q0 103 53 159t165 56t165 -56zM188.5 559q-33.5 -33 -33.5 -97v-268q0 -64 33.5 -97.5t99.5 -33.5t99.5 33.5t33.5 97.5v267q0 64 -33.5 97.5t-99.5 33.5t-99.5 -33zM428 740
q-3 -2 -13.5 -9.5t-28.5 -14t-38 -6.5q-26 0 -63 13q-15 5 -30.5 8.5t-28.5 3.5q-15 0 -32 -5.5t-30 -11.5t-16 -8v70q3 2 13.5 9.5t28.5 14t38 6.5q32 0 72 -14q31 -11 50 -11q15 0 32 5.5t30 11.5t16 8v-70z" />
    <glyph glyph-name="Odieresis" unicode="&#xd6;" 
d="M453 611q53 -56 53 -159v-249q0 -103 -53 -159t-165 -56t-165 56t-53 159v249q0 103 53 159t165 56t165 -56zM188.5 559q-33.5 -33 -33.5 -97v-268q0 -64 33.5 -97.5t99.5 -33.5t99.5 33.5t33.5 97.5v267q0 64 -33.5 97.5t-99.5 33.5t-99.5 -33zM242.5 813
q13.5 -11 13.5 -32v-29q0 -20 -13.5 -31t-38.5 -11q-24 0 -38 11.5t-14 30.5v29q0 21 14 32t38 11q25 0 38.5 -11zM410.5 813q13.5 -11 13.5 -32v-29q0 -20 -14 -31t-39 -11q-23 0 -37.5 11.5t-14.5 30.5v29q0 21 14 32t38 11q26 0 39.5 -11z" />
    <glyph glyph-name="multiply" unicode="&#xd7;" horiz-adv-x="390" 
d="M302 458l50 -50l-106 -106l108 -108l-54 -53l-108 107l-105 -105l-50 50l105 105l-107 108l53 54l108 -108z" />
    <glyph glyph-name="Oslash" unicode="&#xd8;" 
d="M474 585q32 -51 32 -133v-249q0 -103 -53 -159t-165 -56q-78 0 -129 28l-39 -66h-85l68 118q-33 50 -33 135v249q0 103 53 159t165 56q80 0 130 -29l38 67h85zM188.5 559q-33.5 -33 -33.5 -97v-268q0 -21 3 -39l225 407q-33 30 -95 30q-66 0 -99.5 -33zM194 91
q32 -28 94 -28q66 0 99.5 33.5t33.5 97.5v267q0 20 -3 36z" />
    <glyph glyph-name="Ugrave" unicode="&#xd9;" 
d="M501 207q0 -106 -54 -162.5t-159 -56.5q-104 0 -158.5 55t-54.5 162v450h85v-461q0 -64 33.5 -97.5t94.5 -33.5q62 0 95 33.5t33 97.5v461h85v-448zM266 829l66 -119h-74l-85 119h93z" />
    <glyph glyph-name="Uacute" unicode="&#xda;" 
d="M501 207q0 -106 -54 -162.5t-159 -56.5q-104 0 -158.5 55t-54.5 162v450h85v-461q0 -64 33.5 -97.5t94.5 -33.5q62 0 95 33.5t33 97.5v461h85v-448zM402 829l-85 -119h-74l66 119h93z" />
    <glyph glyph-name="Ucircumflex" unicode="&#xdb;" 
d="M501 207q0 -106 -54 -162.5t-159 -56.5q-104 0 -158.5 55t-54.5 162v450h85v-461q0 -64 33.5 -97.5t94.5 -33.5q62 0 95 33.5t33 97.5v461h85v-448zM288 840l140 -61v-68l-140 49l-140 -49v68z" />
    <glyph glyph-name="Udieresis" unicode="&#xdc;" 
d="M501 207q0 -106 -54 -162.5t-159 -56.5q-104 0 -158.5 55t-54.5 162v450h85v-461q0 -64 33.5 -97.5t94.5 -33.5q62 0 95 33.5t33 97.5v461h85v-448zM242.5 813q13.5 -11 13.5 -32v-29q0 -20 -13.5 -31t-38.5 -11q-24 0 -38 11.5t-14 30.5v29q0 21 14 32t38 11
q25 0 38.5 -11zM410.5 813q13.5 -11 13.5 -32v-29q0 -20 -14 -31t-39 -11q-23 0 -37.5 11.5t-14.5 30.5v29q0 21 14 32t38 11q26 0 39.5 -11z" />
    <glyph glyph-name="Yacute" unicode="&#xdd;" horiz-adv-x="491" 
d="M478 655l-190 -430v-225h-85v225l-190 430h97l136 -340l137 340h95zM360 829l-85 -119h-74l66 119h93z" />
    <glyph glyph-name="Thorn" unicode="&#xde;" horiz-adv-x="499" 
d="M160 533q48 6 88 6q117 0 174 -47t57 -135v-24q0 -93 -55.5 -144t-167.5 -51q-45 0 -96 8v-146h-85v655h85v-122zM160 463v-244q60 -8 92 -8q142 0 142 126v17q0 57 -35.5 85.5t-112.5 28.5q-33 0 -86 -5z" />
    <glyph glyph-name="germandbls" unicode="&#xdf;" horiz-adv-x="483" 
d="M344 659.5q42 -35.5 42 -93.5v-27q0 -31 -13.5 -53.5t-37.5 -47.5q-17 -17 -26 -30.5t-9 -28.5v-15q0 -15 5 -24.5t17 -16.5l47 -28q46 -23 66.5 -53t20.5 -72v-33q0 -82 -31 -115.5t-109 -33.5q-25 0 -98 15l2 75q66 -15 96 -15q27 0 40 15.5t13 50.5v31q0 22 -8.5 36
t-29.5 26l-48 27q-37 21 -51 44.5t-14 63.5v19q0 30 11.5 49t33.5 41q19 20 28.5 35t9.5 37v28q0 27 -19 42t-56 15q-38 0 -54.5 -18t-16.5 -61v-544h-85v534q0 85 37.5 123t124.5 38q70 0 112 -35.5z" />
    <glyph glyph-name="agrave" unicode="&#xe0;" horiz-adv-x="449" 
d="M344.5 461.5q39.5 -38.5 39.5 -122.5v-339h-81v78q-58 -90 -131 -90q-58 0 -92.5 40t-34.5 109v28q0 60 41 99.5t110 39.5q38 0 103 -13v55q0 43 -19.5 62t-60.5 19q-48 0 -135 -15v73q94 15 135 15q86 0 125.5 -38.5zM153 216q-22 -22 -22 -62v-11q0 -37 17 -58t43 -21
q27 0 55.5 23.5t52.5 66.5v77q-38 7 -82 7q-42 0 -64 -22zM187 685l76 -139h-72l-95 139h91z" />
    <glyph glyph-name="aacute" unicode="&#xe1;" horiz-adv-x="449" 
d="M344.5 461.5q39.5 -38.5 39.5 -122.5v-339h-81v78q-58 -90 -131 -90q-58 0 -92.5 40t-34.5 109v28q0 60 41 99.5t110 39.5q38 0 103 -13v55q0 43 -19.5 62t-60.5 19q-48 0 -135 -15v73q94 15 135 15q86 0 125.5 -38.5zM153 216q-22 -22 -22 -62v-11q0 -37 17 -58t43 -21
q27 0 55.5 23.5t52.5 66.5v77q-38 7 -82 7q-42 0 -64 -22zM350 685l-95 -139h-72l76 139h91z" />
    <glyph glyph-name="acircumflex" unicode="&#xe2;" horiz-adv-x="449" 
d="M344.5 461.5q39.5 -38.5 39.5 -122.5v-339h-81v78q-58 -90 -131 -90q-58 0 -92.5 40t-34.5 109v28q0 60 41 99.5t110 39.5q38 0 103 -13v55q0 43 -19.5 62t-60.5 19q-48 0 -135 -15v73q94 15 135 15q86 0 125.5 -38.5zM153 216q-22 -22 -22 -62v-11q0 -37 17 -58t43 -21
q27 0 55.5 23.5t52.5 66.5v77q-38 7 -82 7q-42 0 -64 -22zM225 690l130 -74v-70l-130 65l-130 -65v70z" />
    <glyph glyph-name="atilde" unicode="&#xe3;" horiz-adv-x="449" 
d="M344.5 461.5q39.5 -38.5 39.5 -122.5v-339h-81v78q-58 -90 -131 -90q-58 0 -92.5 40t-34.5 109v28q0 60 41 99.5t110 39.5q38 0 103 -13v55q0 43 -19.5 62t-60.5 19q-48 0 -135 -15v73q94 15 135 15q86 0 125.5 -38.5zM153 216q-22 -22 -22 -62v-11q0 -37 17 -58t43 -21
q27 0 55.5 23.5t52.5 66.5v77q-38 7 -82 7q-42 0 -64 -22zM355 615q-3 -2 -13.5 -9.5t-28.5 -14t-38 -6.5q-23 0 -53 13q-12 5 -24.5 8.5t-24.5 3.5q-15 0 -32 -5.5t-30 -11.5t-16 -8v70q3 2 13.5 9.5t28.5 14t38 6.5q18 0 29.5 -3.5t31.5 -10.5q26 -11 41 -11t32 5.5
t30 11.5t16 8v-70z" />
    <glyph glyph-name="adieresis" unicode="&#xe4;" horiz-adv-x="449" 
d="M344.5 461.5q39.5 -38.5 39.5 -122.5v-339h-81v78q-58 -90 -131 -90q-58 0 -92.5 40t-34.5 109v28q0 60 41 99.5t110 39.5q38 0 103 -13v55q0 43 -19.5 62t-60.5 19q-48 0 -135 -15v73q94 15 135 15q86 0 125.5 -38.5zM153 216q-22 -22 -22 -62v-11q0 -37 17 -58t43 -21
q27 0 55.5 23.5t52.5 66.5v77q-38 7 -82 7q-42 0 -64 -22zM178.5 671q13.5 -11 13.5 -31v-29q0 -19 -13.5 -30t-38.5 -11q-23 0 -37 11t-14 30v29q0 20 13.5 31t37.5 11q25 0 38.5 -11zM346.5 671q13.5 -11 13.5 -31v-29q0 -19 -13.5 -30t-38.5 -11q-23 0 -37 11t-14 30v29
q0 20 13.5 31t37.5 11q25 0 38.5 -11z" />
    <glyph glyph-name="aring" unicode="&#xe5;" horiz-adv-x="449" 
d="M344.5 461.5q39.5 -38.5 39.5 -122.5v-339h-81v78q-58 -90 -131 -90q-58 0 -92.5 40t-34.5 109v28q0 60 41 99.5t110 39.5q38 0 103 -13v55q0 43 -19.5 62t-60.5 19q-48 0 -135 -15v73q94 15 135 15q86 0 125.5 -38.5zM153 216q-22 -22 -22 -62v-11q0 -37 17 -58t43 -21
q27 0 55.5 23.5t52.5 66.5v77q-38 7 -82 7q-42 0 -64 -22zM306 698q30 -25 30 -71t-29.5 -71t-81.5 -25q-51 0 -81 25t-30 71t29.5 71t81.5 25q51 0 81 -25zM174 627q0 -46 51 -46t51 46t-51 46t-51 -46z" />
    <glyph glyph-name="ae" unicode="&#xe6;" horiz-adv-x="690" 
d="M600.5 454q44.5 -46 44.5 -133v-103h-261v-59q0 -50 25.5 -73t78.5 -23q52 0 142 18l-4 -75q-99 -18 -138 -18q-74 0 -113.5 25.5t-54.5 76.5q-64 -102 -148 -102q-58 0 -92.5 40t-34.5 109v28q0 61 41 101t110 40q38 0 103 -13v58q0 42 -19 60.5t-61 18.5
q-48 0 -135 -15v70q94 15 135 15q95 0 131 -57q37 57 122 57q84 0 128.5 -46zM408.5 406q-23.5 -23 -24.5 -67v-51h176v43q0 47 -23.5 72.5t-64.5 25.5q-40 0 -63.5 -23zM153.5 216q-22.5 -22 -22.5 -62v-11q0 -37 16.5 -58t43.5 -21t55.5 23.5t52.5 66.5v77q-38 7 -82 7
q-41 0 -63.5 -22z" />
    <glyph glyph-name="ccedilla" unicode="&#xe7;" horiz-adv-x="390" 
d="M288 497.5q19 -2.5 55 -8.5l-2 -75q-30 6 -50 8.5t-48 2.5q-48 0 -73 -26t-25 -74v-161q0 -50 25.5 -75.5t72.5 -25.5q28 0 48 2.5t50 8.5l2 -75q-36 -6 -55.5 -8.5t-46.5 -2.5l-9 -29h10q22 0 37 -18t15 -46v-15q0 -40 -23.5 -58.5t-71.5 -18.5q-19 0 -49 5v53
q28 -4 36 -4q41 0 41 24v13q-1 15 -8.5 20.5t-25.5 5.5h-30v21l17 54q-120 26 -120 175v148q0 182 183 182q26 0 45 -2.5z" />
    <glyph glyph-name="egrave" unicode="&#xe8;" horiz-adv-x="447" 
d="M358 454q44 -46 44 -133v-103h-257v-59q0 -51 24.5 -73.5t77.5 -22.5q52 0 130 16l2 -74q-93 -17 -133 -17q-99 0 -142.5 43t-43.5 133v157q0 87 42.5 133t127.5 46q84 0 128 -46zM168 404.5q-23 -24.5 -23 -70.5v-48h172v45q0 48 -23.5 73t-63.5 25q-39 0 -62 -24.5z
M189 685l76 -139h-72l-95 139h91z" />
    <glyph glyph-name="eacute" unicode="&#xe9;" horiz-adv-x="447" 
d="M358 454q44 -46 44 -133v-103h-257v-59q0 -51 24.5 -73.5t77.5 -22.5q52 0 130 16l2 -74q-93 -17 -133 -17q-99 0 -142.5 43t-43.5 133v157q0 87 42.5 133t127.5 46q84 0 128 -46zM168 404.5q-23 -24.5 -23 -70.5v-48h172v45q0 48 -23.5 73t-63.5 25q-39 0 -62 -24.5z
M352 685l-95 -139h-72l76 139h91z" />
    <glyph glyph-name="ecircumflex" unicode="&#xea;" horiz-adv-x="447" 
d="M358 454q44 -46 44 -133v-103h-257v-59q0 -51 24.5 -73.5t77.5 -22.5q52 0 130 16l2 -74q-93 -17 -133 -17q-99 0 -142.5 43t-43.5 133v157q0 87 42.5 133t127.5 46q84 0 128 -46zM168 404.5q-23 -24.5 -23 -70.5v-48h172v45q0 48 -23.5 73t-63.5 25q-39 0 -62 -24.5z
M227 690l130 -74v-70l-130 65l-130 -65v70z" />
    <glyph glyph-name="edieresis" unicode="&#xeb;" horiz-adv-x="447" 
d="M358 454q44 -46 44 -133v-103h-257v-59q0 -51 24.5 -73.5t77.5 -22.5q52 0 130 16l2 -74q-93 -17 -133 -17q-99 0 -142.5 43t-43.5 133v157q0 87 42.5 133t127.5 46q84 0 128 -46zM168 404.5q-23 -24.5 -23 -70.5v-48h172v45q0 48 -23.5 73t-63.5 25q-39 0 -62 -24.5z
M180.5 671q13.5 -11 13.5 -31v-29q0 -19 -13.5 -30t-38.5 -11q-23 0 -37 11t-14 30v29q0 20 13.5 31t37.5 11q25 0 38.5 -11zM348.5 671q13.5 -11 13.5 -31v-29q0 -19 -13.5 -30t-38.5 -11q-23 0 -37 11t-14 30v29q0 20 13.5 31t37.5 11q25 0 38.5 -11z" />
    <glyph glyph-name="igrave" unicode="&#xec;" horiz-adv-x="225" 
d="M155 488v-488h-85v488h85zM75 685l76 -139h-72l-95 139h91z" />
    <glyph glyph-name="iacute" unicode="&#xed;" horiz-adv-x="225" 
d="M155 488v-488h-85v488h85zM238 685l-95 -139h-72l76 139h91z" />
    <glyph glyph-name="icircumflex" unicode="&#xee;" horiz-adv-x="225" 
d="M155 488v-488h-85v488h85zM113 690l130 -74v-70l-130 65l-130 -65v70z" />
    <glyph glyph-name="idieresis" unicode="&#xef;" horiz-adv-x="225" 
d="M155 488v-488h-85v488h85zM66.5 671q13.5 -11 13.5 -31v-29q0 -19 -13.5 -30t-38.5 -11q-23 0 -37 11t-14 30v29q0 20 13.5 31t37.5 11q25 0 38.5 -11zM234.5 671q13.5 -11 13.5 -31v-29q0 -19 -13.5 -30t-38.5 -11q-23 0 -37 11t-14 30v29q0 20 13.5 31t37.5 11
q25 0 38.5 -11z" />
    <glyph glyph-name="eth" unicode="&#xf0;" horiz-adv-x="487" 
d="M342 600l85 25v-65l-50 -15q39 -79 39 -205v-170q0 -88 -44 -135t-129 -47q-90 0 -131.5 41t-41.5 128v115q0 82 35 124.5t98 42.5q73 0 128 -78v25q0 77 -32 136l-127 -38v67l86 25q-29 27 -67 41t-81 14v64q155 0 232 -95zM172 338q-17 -25 -17 -78v-112q0 -89 88 -89
t88 89v133q-24 40 -53.5 61t-57.5 21q-31 0 -48 -25z" />
    <glyph glyph-name="ntilde" unicode="&#xf1;" horiz-adv-x="486" 
d="M381.5 456.5q34.5 -43.5 34.5 -123.5v-333h-85v321q0 100 -65 100q-29 0 -59 -22t-52 -60v-339h-85v488h80v-73q27 41 60.5 63t72.5 22q64 0 98.5 -43.5zM377 615q-3 -2 -13.5 -9.5t-28.5 -14t-38 -6.5q-23 0 -53 13q-12 5 -24.5 8.5t-24.5 3.5q-15 0 -32 -5.5t-30 -11.5
t-16 -8v70q3 2 13.5 9.5t28.5 14t38 6.5q18 0 29.5 -3.5t31.5 -10.5q26 -11 41 -11t32 5.5t30 11.5t16 8v-70z" />
    <glyph glyph-name="ograve" unicode="&#xf2;" horiz-adv-x="472" 
d="M368.5 452.5q43.5 -47.5 43.5 -134.5v-148q0 -87 -43.5 -134.5t-132.5 -47.5t-132.5 47.5t-43.5 134.5v148q0 87 43.5 134.5t132.5 47.5t132.5 -47.5zM169 402q-24 -27 -24 -77v-162q0 -50 24 -77t67 -27t67 27t24 77v163q0 50 -24 76.5t-67 26.5t-67 -27zM198 685
l76 -139h-72l-95 139h91z" />
    <glyph glyph-name="oacute" unicode="&#xf3;" horiz-adv-x="472" 
d="M368.5 452.5q43.5 -47.5 43.5 -134.5v-148q0 -87 -43.5 -134.5t-132.5 -47.5t-132.5 47.5t-43.5 134.5v148q0 87 43.5 134.5t132.5 47.5t132.5 -47.5zM169 402q-24 -27 -24 -77v-162q0 -50 24 -77t67 -27t67 27t24 77v163q0 50 -24 76.5t-67 26.5t-67 -27zM361 685
l-95 -139h-72l76 139h91z" />
    <glyph glyph-name="ocircumflex" unicode="&#xf4;" horiz-adv-x="472" 
d="M368.5 452.5q43.5 -47.5 43.5 -134.5v-148q0 -87 -43.5 -134.5t-132.5 -47.5t-132.5 47.5t-43.5 134.5v148q0 87 43.5 134.5t132.5 47.5t132.5 -47.5zM169 402q-24 -27 -24 -77v-162q0 -50 24 -77t67 -27t67 27t24 77v163q0 50 -24 76.5t-67 26.5t-67 -27zM236 690
l130 -74v-70l-130 65l-130 -65v70z" />
    <glyph glyph-name="otilde" unicode="&#xf5;" horiz-adv-x="472" 
d="M368.5 452.5q43.5 -47.5 43.5 -134.5v-148q0 -87 -43.5 -134.5t-132.5 -47.5t-132.5 47.5t-43.5 134.5v148q0 87 43.5 134.5t132.5 47.5t132.5 -47.5zM169 402q-24 -27 -24 -77v-162q0 -50 24 -77t67 -27t67 27t24 77v163q0 50 -24 76.5t-67 26.5t-67 -27zM366 615
q-3 -2 -13.5 -9.5t-28.5 -14t-38 -6.5q-23 0 -53 13q-12 5 -24.5 8.5t-24.5 3.5q-15 0 -32 -5.5t-30 -11.5t-16 -8v70q3 2 13.5 9.5t28.5 14t38 6.5q18 0 29.5 -3.5t31.5 -10.5q26 -11 41 -11t32 5.5t30 11.5t16 8v-70z" />
    <glyph glyph-name="odieresis" unicode="&#xf6;" horiz-adv-x="472" 
d="M368.5 452.5q43.5 -47.5 43.5 -134.5v-148q0 -87 -43.5 -134.5t-132.5 -47.5t-132.5 47.5t-43.5 134.5v148q0 87 43.5 134.5t132.5 47.5t132.5 -47.5zM169 402q-24 -27 -24 -77v-162q0 -50 24 -77t67 -27t67 27t24 77v163q0 50 -24 76.5t-67 26.5t-67 -27zM189.5 671
q13.5 -11 13.5 -31v-29q0 -19 -13.5 -30t-38.5 -11q-23 0 -37 11t-14 30v29q0 20 13.5 31t37.5 11q25 0 38.5 -11zM357.5 671q13.5 -11 13.5 -31v-29q0 -19 -13.5 -30t-38.5 -11q-23 0 -37 11t-14 30v29q0 20 13.5 31t37.5 11q25 0 38.5 -11z" />
    <glyph glyph-name="divide" unicode="&#xf7;" horiz-adv-x="390" 
d="M231.5 477.5q12.5 -11.5 12.5 -32.5v-17q0 -20 -12.5 -31.5t-36.5 -11.5q-23 0 -35.5 11.5t-12.5 31.5v17q0 21 12 32.5t36 11.5t36.5 -11.5zM372 335v-70h-354v70h354zM231.5 203.5q12.5 -11.5 12.5 -32.5v-17q0 -20 -12.5 -31.5t-36.5 -11.5q-23 0 -35.5 11.5
t-12.5 31.5v17q0 21 12 32.5t36 11.5t36.5 -11.5z" />
    <glyph glyph-name="oslash" unicode="&#xf8;" horiz-adv-x="472" 
d="M394 414q18 -40 18 -96v-148q0 -87 -43.5 -134.5t-132.5 -47.5q-65 0 -108 27l-44 -66h-88l82 123q-18 41 -18 98v148q0 87 43.5 134.5t132.5 47.5q66 0 108 -28l44 66h88zM169 402q-24 -27 -24 -77v-157v-10l160 242q-23 29 -69 29q-43 0 -67 -27zM167 87q24 -28 69 -28
q43 0 67 27t24 77v153v10z" />
    <glyph glyph-name="ugrave" unicode="&#xf9;" horiz-adv-x="480" 
d="M410 0h-80v70q-27 -40 -60 -61t-70 -21q-61 0 -95.5 42.5t-34.5 124.5v333h85v-318q0 -53 16.5 -78t45.5 -25q27 0 56.5 21.5t51.5 59.5v340h85v-488zM202 685l76 -139h-72l-95 139h91z" />
    <glyph glyph-name="uacute" unicode="&#xfa;" horiz-adv-x="480" 
d="M410 0h-80v70q-27 -40 -60 -61t-70 -21q-61 0 -95.5 42.5t-34.5 124.5v333h85v-318q0 -53 16.5 -78t45.5 -25q27 0 56.5 21.5t51.5 59.5v340h85v-488zM365 685l-95 -139h-72l76 139h91z" />
    <glyph glyph-name="ucircumflex" unicode="&#xfb;" horiz-adv-x="480" 
d="M410 0h-80v70q-27 -40 -60 -61t-70 -21q-61 0 -95.5 42.5t-34.5 124.5v333h85v-318q0 -53 16.5 -78t45.5 -25q27 0 56.5 21.5t51.5 59.5v340h85v-488zM240 690l130 -74v-70l-130 65l-130 -65v70z" />
    <glyph glyph-name="udieresis" unicode="&#xfc;" horiz-adv-x="480" 
d="M410 0h-80v70q-27 -40 -60 -61t-70 -21q-61 0 -95.5 42.5t-34.5 124.5v333h85v-318q0 -53 16.5 -78t45.5 -25q27 0 56.5 21.5t51.5 59.5v340h85v-488zM193.5 671q13.5 -11 13.5 -31v-29q0 -19 -13.5 -30t-38.5 -11q-23 0 -37 11t-14 30v29q0 20 13.5 31t37.5 11
q25 0 38.5 -11zM361.5 671q13.5 -11 13.5 -31v-29q0 -19 -13.5 -30t-38.5 -11q-23 0 -37 11t-14 30v29q0 20 13.5 31t37.5 11q25 0 38.5 -11z" />
    <glyph glyph-name="yacute" unicode="&#xfd;" horiz-adv-x="436" 
d="M426 488l-224 -673h-85l64 185h-32l-139 488h93l105 -427l130 427h88zM343 685l-95 -139h-72l76 139h91z" />
    <glyph glyph-name="thorn" unicode="&#xfe;" horiz-adv-x="475" 
d="M155 424q26 37 58 56.5t69 19.5q63 0 98 -43t35 -124v-178q0 -78 -40.5 -122.5t-109.5 -44.5q-26 0 -55.5 10.5t-54.5 24.5v-208h-85v868h85v-259zM206.5 402.5q-29.5 -21.5 -51.5 -58.5v-245q21 -17 46.5 -26.5t46.5 -9.5q82 0 82 104v154q0 103 -65 103
q-29 0 -58.5 -21.5z" />
    <glyph glyph-name="ydieresis" unicode="&#xff;" horiz-adv-x="436" 
d="M426 488l-224 -673h-85l64 185h-32l-139 488h93l105 -427l130 427h88zM171.5 671q13.5 -11 13.5 -31v-29q0 -19 -13.5 -30t-38.5 -11q-23 0 -37 11t-14 30v29q0 20 13.5 31t37.5 11q25 0 38.5 -11zM339.5 671q13.5 -11 13.5 -31v-29q0 -19 -13.5 -30t-38.5 -11
q-23 0 -37 11t-14 30v29q0 20 13.5 31t37.5 11q25 0 38.5 -11z" />
    <glyph glyph-name="Amacron" unicode="&#x100;" horiz-adv-x="532" 
d="M318 655l201 -655h-92l-43 152h-241l-43 -152h-87l200 655h105zM264 577l-100 -349h199zM383 790v-75h-235v75h235z" />
    <glyph glyph-name="amacron" unicode="&#x101;" horiz-adv-x="449" 
d="M344.5 461.5q39.5 -38.5 39.5 -122.5v-339h-81v78q-58 -90 -131 -90q-58 0 -92.5 40t-34.5 109v28q0 60 41 99.5t110 39.5q38 0 103 -13v55q0 43 -19.5 62t-60.5 19q-48 0 -135 -15v73q94 15 135 15q86 0 125.5 -38.5zM153 216q-22 -22 -22 -62v-11q0 -37 17 -58t43 -21
q27 0 55.5 23.5t52.5 66.5v77q-38 7 -82 7q-42 0 -64 -22zM332 681v-75h-215v75h215z" />
    <glyph glyph-name="Abreve" unicode="&#x102;" horiz-adv-x="532" 
d="M318 655l201 -655h-92l-43 152h-241l-43 -152h-87l200 655h105zM264 577l-100 -349h199zM406 752q0 -1 -22.5 -13.5t-54 -23t-63.5 -10.5q-34 0 -65 10.5t-53 23t-22 13.5v78q0 -1 23.5 -15t54.5 -26t62 -12t62 12t54.5 26t23.5 15v-78z" />
    <glyph glyph-name="abreve" unicode="&#x103;" horiz-adv-x="449" 
d="M344.5 461.5q39.5 -38.5 39.5 -122.5v-339h-81v78q-58 -90 -131 -90q-58 0 -92.5 40t-34.5 109v28q0 60 41 99.5t110 39.5q38 0 103 -13v55q0 43 -19.5 62t-60.5 19q-48 0 -135 -15v73q94 15 135 15q86 0 125.5 -38.5zM153 216q-22 -22 -22 -62v-11q0 -37 17 -58t43 -21
q27 0 55.5 23.5t52.5 66.5v77q-38 7 -82 7q-42 0 -64 -22zM349 610q0 -2 -15.5 -16t-43 -26t-65.5 -12t-65.5 12t-43 26t-15.5 16v78q0 -2 17.5 -18t45 -29.5t61.5 -13.5t61.5 13.5t45 29.5t17.5 18v-78z" />
    <glyph glyph-name="Aogonek" unicode="&#x104;" horiz-adv-x="532" 
d="M519 0h-22q-26 -14 -41 -37.5t-15 -49.5v-10q0 -20 10 -28.5t32 -8.5q15 0 33 3v-61q-21 -5 -48 -5q-49 0 -74 22t-25 59v13q0 29 15.5 56.5t42.5 46.5l-43 152h-241l-43 -152h-87l200 655h105zM264 577l-100 -349h198z" />
    <glyph glyph-name="aogonek" unicode="&#x105;" horiz-adv-x="449" 
d="M344.5 461.5q39.5 -38.5 39.5 -122.5v-339h-18q-26 -14 -41 -37.5t-15 -49.5v-10q0 -20 9.5 -28.5t31.5 -8.5q15 0 33 3v-61q-21 -5 -48 -5q-49 0 -73.5 21.5t-24.5 59.5v13q0 30 17.5 60t47.5 48v73q-58 -90 -131 -90q-58 0 -92.5 40t-34.5 109v28q0 60 41 99.5
t110 39.5q38 0 103 -13v63q-2 39 -21.5 56t-58.5 17q-48 0 -135 -15v73q94 15 135 15q86 0 125.5 -38.5zM153 216q-22 -22 -22 -62v-11q0 -37 17 -58t43 -21q27 0 55.5 23.5t52.5 66.5v77q-38 7 -82 7q-42 0 -64 -22z" />
    <glyph glyph-name="Cacute" unicode="&#x106;" horiz-adv-x="476" 
d="M367.5 659.5q45.5 -7.5 53.5 -8.5l-2 -75q-88 16 -136 16q-68 0 -98 -28t-30 -93v-286q0 -65 29.5 -92.5t98.5 -27.5q48 0 136 16l2 -77q-8 -1 -53.5 -8.5t-84.5 -7.5q-115 0 -164 49t-49 153v275q0 104 49 153t164 49q39 0 84.5 -7.5zM381 829l-85 -119h-74l66 119h93z
" />
    <glyph glyph-name="cacute" unicode="&#x107;" horiz-adv-x="390" 
d="M343 487l-2 -75q-58 13 -100 13q-47 0 -71.5 -26t-24.5 -74v-161q0 -50 25.5 -75.5t70.5 -25.5q28 0 49 3t51 10l2 -75q-61 -13 -103 -13q-180 0 -180 182v148q0 182 181 182q45 0 102 -13zM348 685l-95 -139h-72l76 139h91z" />
    <glyph glyph-name="Ccaron" unicode="&#x10c;" horiz-adv-x="476" 
d="M367.5 659.5q45.5 -7.5 53.5 -8.5l-2 -75q-88 16 -136 16q-68 0 -98 -28t-30 -93v-286q0 -65 29.5 -92.5t98.5 -27.5q48 0 136 16l2 -77q-8 -1 -53.5 -8.5t-84.5 -7.5q-115 0 -164 49t-49 153v275q0 104 49 153t164 49q39 0 84.5 -7.5zM407 841v-68l-140 -61l-140 61v68
l140 -49z" />
    <glyph glyph-name="ccaron" unicode="&#x10d;" horiz-adv-x="390" 
d="M343 487l-2 -75q-58 13 -100 13q-47 0 -71.5 -26t-24.5 -74v-161q0 -50 25.5 -75.5t70.5 -25.5q28 0 49 3t51 10l2 -75q-61 -13 -103 -13q-180 0 -180 182v148q0 182 181 182q45 0 102 -13zM353 690v-70l-130 -74l-130 74v70l130 -65z" />
    <glyph glyph-name="Dcaron" unicode="&#x10e;" horiz-adv-x="571" 
d="M441.5 599.5q64.5 -67.5 64.5 -194.5v-164q0 -122 -64.5 -187.5t-188.5 -65.5q-85 0 -178 6v669q90 4 183 4q119 0 183.5 -67.5zM160 593v-526q59 -6 93 -6q77 0 122.5 44.5t45.5 128.5v177q0 91 -44 137.5t-124 46.5q-31 0 -93 -2zM401 841v-68l-140 -61l-140 61v68
l140 -49z" />
    <glyph glyph-name="dcaron" unicode="&#x10f;" horiz-adv-x="520" 
d="M535 659v-26q0 -21 -8 -47l-22 -66h-51l17 76q-16 5 -22.5 13.5t-6.5 24.5v25q0 16 12 26t32 10q49 0 49 -36zM406 0h-81v79q-60 -91 -137 -91q-62 0 -95 42.5t-33 124.5v178q0 79 36.5 123t104.5 44q29 0 61 -14.5t59 -35.5v233h85v-683zM164.5 398.5
q-19.5 -25.5 -19.5 -77.5v-155q0 -102 63 -102q30 0 59.5 23.5t53.5 66.5v220q-21 22 -49.5 36t-51.5 14q-36 0 -55.5 -25.5z" />
    <glyph glyph-name="Dcroat" unicode="&#x110;" 
d="M446.5 599.5q64.5 -67.5 64.5 -194.5v-164q0 -122 -64.5 -187.5t-188.5 -65.5q-85 0 -178 6v309h-70v70h70v290q90 4 183 4q119 0 183.5 -67.5zM165 593v-220h135v-70h-135v-236q58 -6 93 -6q77 0 122.5 44.5t45.5 128.5v177q0 91 -44 137.5t-124 46.5q-31 0 -93 -2z" />
    <glyph glyph-name="dcroat" unicode="&#x111;" horiz-adv-x="481" 
d="M406 623h70v-70h-70v-553h-81v79q-60 -91 -137 -91q-62 0 -95 42.5t-33 124.5v178q0 79 36.5 123t104.5 44q29 0 61 -14.5t59 -35.5v103h-120v70h120v60h85v-60zM164.5 398.5q-19.5 -25.5 -19.5 -77.5v-155q0 -102 63 -102q30 0 59.5 23.5t53.5 66.5v220q-21 22 -49.5 36
t-51.5 14q-36 0 -55.5 -25.5z" />
    <glyph glyph-name="Emacron" unicode="&#x112;" horiz-adv-x="485" 
d="M420 655v-77h-260v-207h240v-76h-240v-218h260v-77h-345v655h345zM370 790v-75h-235v75h235z" />
    <glyph glyph-name="emacron" unicode="&#x113;" horiz-adv-x="447" 
d="M358 454q44 -46 44 -133v-103h-257v-59q0 -51 24.5 -73.5t77.5 -22.5q52 0 130 16l2 -74q-93 -17 -133 -17q-99 0 -142.5 43t-43.5 133v157q0 87 42.5 133t127.5 46q84 0 128 -46zM168 404.5q-23 -24.5 -23 -70.5v-48h172v45q0 48 -23.5 73t-63.5 25q-39 0 -62 -24.5z
M334 681v-75h-215v75h215z" />
    <glyph glyph-name="Edotaccent" unicode="&#x116;" horiz-adv-x="485" 
d="M420 655v-77h-260v-207h240v-76h-240v-218h260v-77h-345v655h345zM293.5 818q14.5 -12 14.5 -34v-29q0 -22 -14.5 -33.5t-41.5 -11.5q-26 0 -40.5 11.5t-14.5 33.5v29q0 22 14.5 34t40.5 12q27 0 41.5 -12z" />
    <glyph glyph-name="edotaccent" unicode="&#x117;" horiz-adv-x="447" 
d="M358 454q44 -46 44 -133v-103h-257v-59q0 -51 24.5 -73.5t77.5 -22.5q52 0 130 16l2 -74q-93 -17 -133 -17q-99 0 -142.5 43t-43.5 133v157q0 87 42.5 133t127.5 46q84 0 128 -46zM168 404.5q-23 -24.5 -23 -70.5v-48h172v45q0 48 -23.5 73t-63.5 25q-39 0 -62 -24.5z
M267.5 673q14.5 -12 14.5 -34v-29q0 -22 -14.5 -33.5t-41.5 -11.5q-26 0 -40.5 11.5t-14.5 33.5v29q0 22 14.5 34t40.5 12q27 0 41.5 -12z" />
    <glyph glyph-name="Eogonek" unicode="&#x118;" horiz-adv-x="485" 
d="M420 578h-260v-207h240v-76h-240v-218h260v-77h-59q-26 -14 -41 -37.5t-15 -49.5v-10q0 -20 10 -28.5t32 -8.5q15 0 33 3v-61q-21 -5 -48 -5q-49 0 -74 22t-25 59v13q0 29 15.5 56.5t41.5 46.5h-215v655h345v-77z" />
    <glyph glyph-name="eogonek" unicode="&#x119;" horiz-adv-x="447" 
d="M358 454q44 -46 44 -133v-103h-257v-59q0 -51 24.5 -73.5t77.5 -22.5q52 0 130 16l2 -72q-33 -13 -50.5 -40t-17.5 -54v-10q0 -20 10 -28.5t32 -8.5q15 0 33 3v-61q-21 -5 -48 -5q-49 0 -74 22t-25 59v13q0 25 12 49.5t33 43.5q-26 -2 -38 -2q-99 0 -142.5 43t-43.5 133
v157q0 87 42.5 133t127.5 46q84 0 128 -46zM168 404.5q-23 -24.5 -23 -70.5v-48h172v45q0 48 -23.5 73t-63.5 25q-39 0 -62 -24.5z" />
    <glyph glyph-name="Ecaron" unicode="&#x11a;" horiz-adv-x="485" 
d="M420 655v-77h-260v-207h240v-76h-240v-218h260v-77h-345v655h345zM393 841v-68l-140 -61l-140 61v68l140 -49z" />
    <glyph glyph-name="ecaron" unicode="&#x11b;" horiz-adv-x="447" 
d="M358 454q44 -46 44 -133v-103h-257v-59q0 -51 24.5 -73.5t77.5 -22.5q52 0 130 16l2 -74q-93 -17 -133 -17q-99 0 -142.5 43t-43.5 133v157q0 87 42.5 133t127.5 46q84 0 128 -46zM168 404.5q-23 -24.5 -23 -70.5v-48h172v45q0 48 -23.5 73t-63.5 25q-39 0 -62 -24.5z
M357 690v-70l-130 -74l-130 74v70l130 -65z" />
    <glyph glyph-name="Gbreve" unicode="&#x11e;" horiz-adv-x="555" 
d="M368 660.5q48 -6.5 88 -14.5l-2 -75q-113 22 -171 22q-69 0 -98.5 -27.5t-29.5 -91.5v-290q0 -64 29.5 -92.5t98.5 -28.5q45 0 117 14v221h-125v80h210v-353q-120 -37 -202 -37q-115 0 -164 49t-49 153v275q0 106 50 154t163 48q37 0 85 -6.5zM414 752q0 -1 -22.5 -13.5
t-54 -23t-63.5 -10.5q-34 0 -65 10.5t-53 23t-22 13.5v78q0 -1 23.5 -15t54.5 -26t62 -12t62 12t54.5 26t23.5 15v-78z" />
    <glyph glyph-name="gbreve" unicode="&#x11f;" horiz-adv-x="476" 
d="M310 487l156 2v-75l-82 2q17 -36 17 -75v-22q0 -73 -45 -117.5t-126 -44.5q-52 0 -85 10q-22 -18 -22 -41v-6q0 -16 10 -23.5t39 -9.5l149 -11q46 -4 74.5 -34.5t28.5 -76.5v-37q0 -43 -17 -70t-62.5 -41t-130.5 -14q-32 0 -75.5 7t-82.5 18l3 79q93 -31 158 -31
q54 0 80.5 6.5t35 19.5t8.5 39v8q0 23 -12.5 36t-35.5 14l-150 10q-48 3 -73 27t-25 65v20q0 22 11.5 43t33.5 37q-17 19 -24.5 48.5t-7.5 72.5v22q0 71 44 113.5t128 42.5q44 0 80 -13zM165.5 407.5q-22.5 -21.5 -22.5 -61.5v-33q0 -37 6.5 -54.5t23.5 -24t51 -6.5
q46 0 69 22t23 63v30q0 42 -12 73q-12 5 -32.5 9t-41.5 4q-42 0 -64.5 -21.5zM355 610q0 -2 -15.5 -16t-43 -26t-65.5 -12t-65.5 12t-43 26t-15.5 16v78q0 -2 17.5 -18t45 -29.5t61.5 -13.5t61.5 13.5t45 29.5t17.5 18v-78z" />
    <glyph glyph-name="Gcommaaccent" unicode="&#x122;" horiz-adv-x="555" 
d="M368 660.5q48 -6.5 88 -14.5l-2 -75q-113 22 -171 22q-69 0 -98.5 -27.5t-29.5 -91.5v-290q0 -64 29.5 -92.5t98.5 -28.5q45 0 117 14v221h-125v80h210v-353q-120 -37 -202 -37q-115 0 -164 49t-49 153v275q0 106 50 154t163 48q37 0 85 -6.5zM335 -92v-26q0 -21 -8 -47
l-22 -66h-51l17 76q-16 5 -22.5 13.5t-6.5 24.5v25q0 16 12 26t32 10q49 0 49 -36z" />
    <glyph glyph-name="gcommaaccent" unicode="&#x123;" horiz-adv-x="476" 
d="M185 580v26q0 21 8 47l22 66h51l-17 -76q16 -5 22.5 -13.5t6.5 -24.5v-25q0 -16 -12 -26t-32 -10q-49 0 -49 36zM310 487l156 2v-75l-82 2q17 -36 17 -75v-22q0 -73 -45 -117.5t-126 -44.5q-52 0 -85 10q-22 -18 -22 -41v-6q0 -16 10 -23.5t39 -9.5l149 -11
q46 -4 74.5 -34.5t28.5 -76.5v-37q0 -43 -17 -70t-62.5 -41t-130.5 -14q-32 0 -75.5 7t-82.5 18l3 79q93 -31 158 -31q54 0 80.5 6.5t35 19.5t8.5 39v8q0 23 -12.5 36t-35.5 14l-150 10q-48 3 -73 27t-25 65v20q0 22 11.5 43t33.5 37q-17 19 -24.5 48.5t-7.5 72.5v22
q0 71 44 113.5t128 42.5q44 0 80 -13zM165.5 407.5q-22.5 -21.5 -22.5 -61.5v-33q0 -37 6.5 -54.5t23.5 -24t51 -6.5q46 0 69 22t23 63v30q0 42 -12 73q-12 5 -32.5 9t-41.5 4q-42 0 -64.5 -21.5z" />
    <glyph glyph-name="Imacron" unicode="&#x12a;" horiz-adv-x="235" 
d="M160 655v-655h-85v655h85zM235 790v-75h-235v75h235z" />
    <glyph glyph-name="imacron" unicode="&#x12b;" horiz-adv-x="225" 
d="M155 488v-488h-85v488h85zM220 681v-75h-215v75h215z" />
    <glyph glyph-name="Iogonek" unicode="&#x12e;" horiz-adv-x="235" 
d="M160 0h-19q-26 -14 -41 -37.5t-15 -49.5v-10q0 -20 10 -28.5t32 -8.5q15 0 33 3v-61q-21 -5 -48 -5q-49 0 -74 22t-25 59v13q0 30 16.5 59t45.5 47v652h85v-655z" />
    <glyph glyph-name="iogonek" unicode="&#x12f;" horiz-adv-x="225" 
d="M153.5 683q14.5 -12 14.5 -34v-29q0 -22 -14.5 -33.5t-41.5 -11.5q-26 0 -40.5 11.5t-14.5 33.5v29q0 22 14.5 34t40.5 12q27 0 41.5 -12zM155 0h-18q-26 -14 -41 -37.5t-15 -49.5v-10q0 -20 10 -28.5t32 -8.5q15 0 33 3v-61q-21 -5 -48 -5q-49 0 -74 22t-25 59v13
q0 30 16.5 58.5t44.5 46.5v486h85v-488z" />
    <glyph glyph-name="Idotaccent" unicode="&#x130;" horiz-adv-x="235" 
d="M160 655v-655h-85v655h85zM158.5 818q14.5 -12 14.5 -34v-29q0 -22 -14.5 -33.5t-41.5 -11.5q-26 0 -40.5 11.5t-14.5 33.5v29q0 22 14.5 34t40.5 12q27 0 41.5 -12z" />
    <glyph glyph-name="dotlessi" unicode="&#x131;" horiz-adv-x="225" 
d="M155 488v-488h-85v488h85z" />
    <glyph glyph-name="Kcommaaccent" unicode="&#x136;" horiz-adv-x="525" 
d="M499 655l-251 -317l277 -338h-109l-256 321v-321h-85v655h85v-316l244 316h95zM325 -92v-26q0 -21 -8 -47l-22 -66h-51l17 76q-16 5 -22.5 13.5t-6.5 24.5v25q0 16 12 26t32 10q49 0 49 -36z" />
    <glyph glyph-name="kcommaaccent" unicode="&#x137;" horiz-adv-x="427" 
d="M155 683v-409l160 214h95l-166 -214l178 -274h-102l-165 262v-262h-85v683h85zM282 -92v-26q0 -21 -8 -47l-22 -66h-51l17 76q-16 5 -22.5 13.5t-6.5 24.5v25q0 16 12 26t32 10q49 0 49 -36z" />
    <glyph glyph-name="Lacute" unicode="&#x139;" horiz-adv-x="450" 
d="M160 655v-580h260v-75h-345v655h85zM246 829l-85 -119h-74l66 119h93z" />
    <glyph glyph-name="lacute" unicode="&#x13a;" horiz-adv-x="225" 
d="M155 683v-683h-85v683h85zM236 829l-85 -119h-74l66 119h93z" />
    <glyph glyph-name="Lcommaaccent" unicode="&#x13b;" horiz-adv-x="450" 
d="M160 655v-580h260v-75h-345v655h85zM298 -92v-26q0 -21 -8 -47l-22 -66h-51l17 76q-16 5 -22.5 13.5t-6.5 24.5v25q0 16 12 26t32 10q49 0 49 -36z" />
    <glyph glyph-name="lcommaaccent" unicode="&#x13c;" horiz-adv-x="225" 
d="M155 683v-683h-85v683h85zM159 -92v-26q0 -21 -8 -47l-22 -66h-51l17 76q-16 5 -22.5 13.5t-6.5 24.5v25q0 16 12 26t32 10q49 0 49 -36z" />
    <glyph glyph-name="Lcaron" unicode="&#x13d;" horiz-adv-x="450" 
d="M160 655v-580h260v-75h-345v655h85zM320 630v-26q0 -21 -8 -47l-22 -66h-51l17 76q-16 5 -22.5 13.5t-6.5 24.5v25q0 16 12 26t32 10q49 0 49 -36z" />
    <glyph glyph-name="lcaron" unicode="&#x13e;" horiz-adv-x="279" 
d="M294 659v-26q0 -21 -8 -47l-22 -66h-51l17 76q-16 5 -22.5 13.5t-6.5 24.5v25q0 16 12 26t32 10q49 0 49 -36zM155 683v-683h-85v683h85z" />
    <glyph glyph-name="Lslash" unicode="&#x141;" horiz-adv-x="455" 
d="M165 655v-268l130 37v-76l-130 -37v-236h260v-75h-345v287l-70 -19v76l70 19v292h85z" />
    <glyph glyph-name="lslash" unicode="&#x142;" horiz-adv-x="235" 
d="M160 683v-233l90 28v-70l-90 -28v-380h-85v355l-90 -27v70l90 27v258h85z" />
    <glyph glyph-name="Nacute" unicode="&#x143;" horiz-adv-x="582" 
d="M375 0l-216 553v-553h-84v655h136l212 -553v553h84v-655h-132zM410 829l-85 -119h-74l66 119h93z" />
    <glyph glyph-name="nacute" unicode="&#x144;" horiz-adv-x="486" 
d="M381.5 456.5q34.5 -43.5 34.5 -123.5v-333h-85v321q0 100 -65 100q-29 0 -59 -22t-52 -60v-339h-85v488h80v-73q27 41 60.5 63t72.5 22q64 0 98.5 -43.5zM372 685l-95 -139h-72l76 139h91z" />
    <glyph glyph-name="Ncommaaccent" unicode="&#x145;" horiz-adv-x="582" 
d="M375 0l-216 553v-553h-84v655h136l212 -553v553h84v-655h-132zM350 -92v-26q0 -21 -8 -47l-22 -66h-51l17 76q-16 5 -22.5 13.5t-6.5 24.5v25q0 16 12 26t32 10q49 0 49 -36z" />
    <glyph glyph-name="ncommaaccent" unicode="&#x146;" horiz-adv-x="486" 
d="M381.5 456.5q34.5 -43.5 34.5 -123.5v-333h-85v321q0 100 -65 100q-29 0 -59 -22t-52 -60v-339h-85v488h80v-73q27 41 60.5 63t72.5 22q64 0 98.5 -43.5zM295 -92v-26q0 -21 -8 -47l-22 -66h-51l17 76q-16 5 -22.5 13.5t-6.5 24.5v25q0 16 12 26t32 10q49 0 49 -36z" />
    <glyph glyph-name="Ncaron" unicode="&#x147;" horiz-adv-x="582" 
d="M375 0l-216 553v-553h-84v655h136l212 -553v553h84v-655h-132zM436 841v-68l-140 -61l-140 61v68l140 -49z" />
    <glyph glyph-name="ncaron" unicode="&#x148;" horiz-adv-x="486" 
d="M381.5 456.5q34.5 -43.5 34.5 -123.5v-333h-85v321q0 100 -65 100q-29 0 -59 -22t-52 -60v-339h-85v488h80v-73q27 41 60.5 63t72.5 22q64 0 98.5 -43.5zM377 690v-70l-130 -74l-130 74v70l130 -65z" />
    <glyph glyph-name="Omacron" unicode="&#x14c;" 
d="M453 611q53 -56 53 -159v-249q0 -103 -53 -159t-165 -56t-165 56t-53 159v249q0 103 53 159t165 56t165 -56zM188.5 559q-33.5 -33 -33.5 -97v-268q0 -64 33.5 -97.5t99.5 -33.5t99.5 33.5t33.5 97.5v267q0 64 -33.5 97.5t-99.5 33.5t-99.5 -33zM405 790v-75h-235v75h235
z" />
    <glyph glyph-name="omacron" unicode="&#x14d;" horiz-adv-x="472" 
d="M368.5 452.5q43.5 -47.5 43.5 -134.5v-148q0 -87 -43.5 -134.5t-132.5 -47.5t-132.5 47.5t-43.5 134.5v148q0 87 43.5 134.5t132.5 47.5t132.5 -47.5zM169 402q-24 -27 -24 -77v-162q0 -50 24 -77t67 -27t67 27t24 77v163q0 50 -24 76.5t-67 26.5t-67 -27zM343 681v-75
h-215v75h215z" />
    <glyph glyph-name="Ohungarumlaut" unicode="&#x150;" 
d="M453 611q53 -56 53 -159v-249q0 -103 -53 -159t-165 -56t-165 56t-53 159v249q0 103 53 159t165 56t165 -56zM188.5 559q-33.5 -33 -33.5 -97v-268q0 -64 33.5 -97.5t99.5 -33.5t99.5 33.5t33.5 97.5v267q0 64 -33.5 97.5t-99.5 33.5t-99.5 -33zM297 829l-65 -119h-72
l51 119h86zM439 829l-65 -119h-72l51 119h86z" />
    <glyph glyph-name="ohungarumlaut" unicode="&#x151;" horiz-adv-x="472" 
d="M368.5 452.5q43.5 -47.5 43.5 -134.5v-148q0 -87 -43.5 -134.5t-132.5 -47.5t-132.5 47.5t-43.5 134.5v148q0 87 43.5 134.5t132.5 47.5t132.5 -47.5zM169 402q-24 -27 -24 -77v-162q0 -50 24 -77t67 -27t67 27t24 77v163q0 50 -24 76.5t-67 26.5t-67 -27zM273 685
l-73 -139h-72l59 139h86zM407 685l-73 -139h-72l59 139h86z" />
    <glyph glyph-name="OE" unicode="&#x152;" horiz-adv-x="756" 
d="M370 655h321v-77h-245v-207h225v-76h-225v-218h245v-77h-321q-40 -12 -92 -12q-104 0 -156 55.5t-52 159.5v249q0 104 52.5 159.5t151.5 55.5q54 0 96 -12zM188 558.5q-33 -33.5 -33 -96.5v-268q0 -63 32.5 -97t95.5 -34q51 0 78 8v508q-30 13 -78 13q-62 0 -95 -33.5z
" />
    <glyph glyph-name="oe" unicode="&#x153;" horiz-adv-x="718" 
d="M629 453.5q44 -46.5 44 -132.5v-103h-261v-59q0 -50 25 -73t79 -23q52 0 132 16l2 -74q-93 -17 -134 -17q-101 0 -148 52q-45 -52 -132 -52q-90 0 -133 47.5t-43 134.5v148q0 87 43 134.5t133 47.5q86 0 132 -53q46 53 132 53q85 0 129 -46.5zM169 402q-24 -27 -24 -77
v-162q0 -50 24 -77t67 -27t67 27t24 77v163q0 50 -24 76.5t-67 26.5t-67 -27zM435.5 404q-23.5 -25 -23.5 -72v-44h176v43q0 47 -23.5 72.5t-64.5 25.5t-64.5 -25z" />
    <glyph glyph-name="Racute" unicode="&#x154;" horiz-adv-x="540" 
d="M423 621q56 -46 56 -129v-25q0 -58 -32 -102.5t-92 -62.5l170 -302h-95l-159 284q-8 -1 -32 -1q-40 0 -79 3v-286h-85v663q112 4 174 4q118 0 174 -46zM160 593v-236q54 -5 90 -5q144 0 144 117v20q0 54 -35 80t-112 26q-33 0 -87 -2zM372 829l-85 -119h-74l66 119h93z
" />
    <glyph glyph-name="racute" unicode="&#x155;" horiz-adv-x="325" 
d="M305 498v-96q-15 3 -39 3q-70 0 -111 -70v-335h-85v488h80v-73q27 41 60.5 63t72.5 22q14 0 22 -2zM306 685l-95 -139h-72l76 139h91z" />
    <glyph glyph-name="Rcommaaccent" unicode="&#x156;" horiz-adv-x="540" 
d="M423 621q56 -46 56 -129v-25q0 -58 -32 -102.5t-92 -62.5l170 -302h-95l-159 284q-8 -1 -32 -1q-40 0 -79 3v-286h-85v663q112 4 174 4q118 0 174 -46zM160 593v-236q54 -5 90 -5q144 0 144 117v20q0 54 -35 80t-112 26q-33 0 -87 -2zM330 -92v-26q0 -21 -8 -47l-22 -66
h-51l17 76q-16 5 -22.5 13.5t-6.5 24.5v25q0 16 12 26t32 10q49 0 49 -36z" />
    <glyph glyph-name="rcommaaccent" unicode="&#x157;" horiz-adv-x="325" 
d="M305 498v-96q-15 3 -39 3q-70 0 -111 -70v-335h-85v488h80v-73q27 41 60.5 63t72.5 22q14 0 22 -2zM162 -92v-26q0 -21 -8 -47l-22 -66h-51l17 76q-16 5 -22.5 13.5t-6.5 24.5v25q0 16 12 26t32 10q49 0 49 -36z" />
    <glyph glyph-name="Rcaron" unicode="&#x158;" horiz-adv-x="540" 
d="M423 621q56 -46 56 -129v-25q0 -58 -32 -102.5t-92 -62.5l170 -302h-95l-159 284q-8 -1 -32 -1q-40 0 -79 3v-286h-85v663q112 4 174 4q118 0 174 -46zM160 593v-236q54 -5 90 -5q144 0 144 117v20q0 54 -35 80t-112 26q-33 0 -87 -2zM398 841v-68l-140 -61l-140 61v68
l140 -49z" />
    <glyph glyph-name="rcaron" unicode="&#x159;" horiz-adv-x="325" 
d="M305 498v-96q-15 3 -39 3q-70 0 -111 -70v-335h-85v488h80v-73q27 41 60.5 63t72.5 22q14 0 22 -2zM311 690v-70l-130 -74l-130 74v70l130 -65z" />
    <glyph glyph-name="Sacute" unicode="&#x15a;" horiz-adv-x="461" 
d="M380 651l-2 -75q-82 16 -139 16q-58 0 -83.5 -23t-25.5 -70v-26q0 -25 6.5 -39.5t23.5 -25t51 -21.5l93 -31q67 -23 94.5 -61t27.5 -111v-19q0 -89 -51.5 -133t-168.5 -44q-57 0 -146 20l2 77q83 -20 142 -20q75 0 106 22.5t31 70.5v33q0 35 -15.5 53.5t-54.5 31.5
l-103 34q-69 23 -96 59.5t-27 110.5v11q0 87 46.5 131.5t147.5 44.5q54 0 141 -16zM345 829l-85 -119h-74l66 119h93z" />
    <glyph glyph-name="sacute" unicode="&#x15b;" horiz-adv-x="382" 
d="M311 488l-2 -72q-52 12 -95 12q-90 0 -90 -58v-9q0 -18 9.5 -29t34.5 -23l94 -44q85 -40 85 -117v-22q-1 -69 -41.5 -103.5t-127.5 -34.5q-45 0 -129 21l4 76q75 -22 123 -22q49 0 68 13.5t19 44.5v10q0 24 -9.5 38t-31.5 24l-97 43q-44 20 -64.5 48t-20.5 65v14
q2 68 42.5 102.5t127.5 34.5q42 0 101 -12zM311 685l-95 -139h-72l76 139h91z" />
    <glyph glyph-name="Scedilla" unicode="&#x15e;" horiz-adv-x="461" 
d="M380 651l-2 -75q-82 16 -139 16q-58 0 -83.5 -23t-25.5 -70v-26q0 -25 6.5 -39.5t23.5 -25t51 -21.5l93 -31q67 -23 94.5 -61t27.5 -111v-19q0 -77 -38 -120t-123 -53l-10 -33h10q22 0 37 -18t15 -46v-15q0 -40 -23.5 -58.5t-71.5 -18.5q-19 0 -49 5v53q28 -4 36 -4
q41 0 41 24v13q-1 15 -8.5 20.5t-25.5 5.5h-30v21l14 47q-56 2 -140 20l2 77q83 -20 142 -20q75 0 106 22.5t31 70.5v33q0 35 -15.5 53.5t-54.5 31.5l-103 34q-69 23 -96 59.5t-27 110.5v11q0 87 46.5 131.5t147.5 44.5q54 0 141 -16z" />
    <glyph glyph-name="scedilla" unicode="&#x15f;" horiz-adv-x="382" 
d="M311 488l-2 -72q-52 12 -95 12q-90 0 -90 -58v-9q0 -18 9.5 -29t34.5 -23l94 -44q85 -40 85 -117v-22q-1 -58 -29.5 -91.5t-88.5 -42.5l-10 -33h10q22 0 37 -18t15 -46v-15q0 -40 -23.5 -58.5t-71.5 -18.5q-19 0 -49 5v53q28 -4 36 -4q41 0 41 24v13q-1 15 -8.5 20.5
t-25.5 5.5h-30v21l15 47q-44 3 -116 21l4 76q75 -22 123 -22q49 0 68 13.5t19 44.5v10q0 24 -9.5 38t-31.5 24l-97 43q-44 20 -64.5 48t-20.5 65v14q2 68 42.5 102.5t127.5 34.5q42 0 101 -12z" />
    <glyph glyph-name="Scaron" unicode="&#x160;" horiz-adv-x="461" 
d="M380 651l-2 -75q-82 16 -139 16q-58 0 -83.5 -23t-25.5 -70v-26q0 -25 6.5 -39.5t23.5 -25t51 -21.5l93 -31q67 -23 94.5 -61t27.5 -111v-19q0 -89 -51.5 -133t-168.5 -44q-57 0 -146 20l2 77q83 -20 142 -20q75 0 106 22.5t31 70.5v33q0 35 -15.5 53.5t-54.5 31.5
l-103 34q-69 23 -96 59.5t-27 110.5v11q0 87 46.5 131.5t147.5 44.5q54 0 141 -16zM371 841v-68l-140 -61l-140 61v68l140 -49z" />
    <glyph glyph-name="scaron" unicode="&#x161;" horiz-adv-x="382" 
d="M311 488l-2 -72q-52 12 -95 12q-90 0 -90 -58v-9q0 -18 9.5 -29t34.5 -23l94 -44q85 -40 85 -117v-22q-1 -69 -41.5 -103.5t-127.5 -34.5q-45 0 -129 21l4 76q75 -22 123 -22q49 0 68 13.5t19 44.5v10q0 24 -9.5 38t-31.5 24l-97 43q-44 20 -64.5 48t-20.5 65v14
q2 68 42.5 102.5t127.5 34.5q42 0 101 -12zM316 690v-70l-130 -74l-130 74v70l130 -65z" />
    <glyph glyph-name="uni0162" unicode="&#x162;" horiz-adv-x="525" 
d="M495 578h-190v-578h-26l-12 -41h10q22 0 37 -18t15 -46v-15q0 -40 -23.5 -58.5t-71.5 -18.5q-19 0 -49 5v53q28 -4 36 -4q41 0 41 24v13q-1 15 -8.5 20.5t-25.5 5.5h-30v21l22 71v566h-190v77h465v-77z" />
    <glyph glyph-name="uni0163" unicode="&#x163;" horiz-adv-x="338" 
d="M170 488h130v-70h-130v-286q0 -38 15.5 -54.5t48.5 -16.5q42 0 82 10l2 -71q-44 -12 -80 -12q-17 0 -24 1l-9 -30h10q22 0 37 -18t15 -46v-15q0 -40 -23.5 -58.5t-71.5 -18.5q-19 0 -49 5v53q28 -4 36 -4q41 0 41 24v13q-1 15 -8.5 20.5t-25.5 5.5h-30v21l20 60
q-36 15 -53.5 49t-17.5 89v279h-70v70h70l16 130h69v-130z" />
    <glyph glyph-name="Tcaron" unicode="&#x164;" horiz-adv-x="525" 
d="M495 655v-77h-190v-578h-85v578h-190v77h465zM403 841v-68l-140 -61l-140 61v68l140 -49z" />
    <glyph glyph-name="tcaron" unicode="&#x165;" horiz-adv-x="338" 
d="M170 488h130v-70h-130v-286q0 -38 15.5 -54.5t48.5 -16.5q42 0 82 10l2 -71q-44 -12 -80 -12q-80 0 -116.5 35.5t-36.5 115.5v279h-70v70h70l16 130h69v-130zM344 659v-26q0 -21 -8 -47l-22 -66h-51l17 76q-16 5 -22.5 13.5t-6.5 24.5v25q0 16 12 26t32 10q49 0 49 -36z
" />
    <glyph glyph-name="Umacron" unicode="&#x16a;" 
d="M501 207q0 -106 -54 -162.5t-159 -56.5q-104 0 -158.5 55t-54.5 162v450h85v-461q0 -64 33.5 -97.5t94.5 -33.5q62 0 95 33.5t33 97.5v461h85v-448zM405 790v-75h-235v75h235z" />
    <glyph glyph-name="umacron" unicode="&#x16b;" horiz-adv-x="480" 
d="M410 0h-80v70q-27 -40 -60 -61t-70 -21q-61 0 -95.5 42.5t-34.5 124.5v333h85v-318q0 -53 16.5 -78t45.5 -25q27 0 56.5 21.5t51.5 59.5v340h85v-488zM347 681v-75h-215v75h215z" />
    <glyph glyph-name="Uring" unicode="&#x16e;" 
d="M501 207q0 -106 -54 -162.5t-159 -56.5q-104 0 -158.5 55t-54.5 162v450h85v-461q0 -64 33.5 -97.5t94.5 -33.5q62 0 95 33.5t33 97.5v461h85v-448zM372 840q31 -25 31 -75t-30.5 -75t-84.5 -25q-53 0 -84 25t-31 75t30.5 75t84.5 25q53 0 84 -25zM238 765q0 -45 50 -45
t50 45t-50 45t-50 -45z" />
    <glyph glyph-name="uring" unicode="&#x16f;" horiz-adv-x="480" 
d="M410 0h-80v70q-27 -40 -60 -61t-70 -21q-61 0 -95.5 42.5t-34.5 124.5v333h85v-318q0 -53 16.5 -78t45.5 -25q27 0 56.5 21.5t51.5 59.5v340h85v-488zM321 698q30 -25 30 -71t-29.5 -71t-81.5 -25q-51 0 -81 25t-30 71t29.5 71t81.5 25q51 0 81 -25zM189 627
q0 -46 51 -46t51 46t-51 46t-51 -46z" />
    <glyph glyph-name="Uhungarumlaut" unicode="&#x170;" 
d="M501 207q0 -106 -54 -162.5t-159 -56.5q-104 0 -158.5 55t-54.5 162v450h85v-461q0 -64 33.5 -97.5t94.5 -33.5q62 0 95 33.5t33 97.5v461h85v-448zM297 829l-65 -119h-72l51 119h86zM439 829l-65 -119h-72l51 119h86z" />
    <glyph glyph-name="uhungarumlaut" unicode="&#x171;" horiz-adv-x="480" 
d="M410 0h-80v70q-27 -40 -60 -61t-70 -21q-61 0 -95.5 42.5t-34.5 124.5v333h85v-318q0 -53 16.5 -78t45.5 -25q27 0 56.5 21.5t51.5 59.5v340h85v-488zM277 685l-73 -139h-72l59 139h86zM411 685l-73 -139h-72l59 139h86z" />
    <glyph glyph-name="Uogonek" unicode="&#x172;" 
d="M501 207q0 -75 -27.5 -126.5t-79.5 -71.5q-32 -12 -51.5 -39.5t-19.5 -56.5v-10q0 -20 10 -28.5t32 -8.5q15 0 33 3v-61q-21 -5 -48 -5q-49 0 -74 22t-25 59v13q0 24 11.5 48t31.5 43q-219 0 -219 217v450h85v-461q0 -64 33.5 -97.5t94.5 -33.5q62 0 95 33.5t33 97.5v461
h85v-448z" />
    <glyph glyph-name="uogonek" unicode="&#x173;" horiz-adv-x="483" 
d="M410 0h-16q-26 -14 -41 -37.5t-15 -49.5v-10q0 -20 10 -28.5t32 -8.5q15 0 33 3v-61q-21 -5 -48 -5q-49 0 -74 22t-25 59v13q0 31 17 60t47 47v66q-27 -40 -60 -61t-70 -21q-61 0 -95.5 42.5t-34.5 124.5v333h85v-318q0 -53 16.5 -78t45.5 -25q27 0 56.5 21.5t51.5 59.5
v340h85v-488z" />
    <glyph glyph-name="Ydieresis" unicode="&#x178;" horiz-adv-x="491" 
d="M478 655l-190 -430v-225h-85v225l-190 430h97l136 -340l137 340h95zM200.5 813q13.5 -11 13.5 -32v-29q0 -20 -13.5 -31t-38.5 -11q-24 0 -38 11.5t-14 30.5v29q0 21 14 32t38 11q25 0 38.5 -11zM368.5 813q13.5 -11 13.5 -32v-29q0 -20 -14 -31t-39 -11
q-23 0 -37.5 11.5t-14.5 30.5v29q0 21 14 32t38 11q26 0 39.5 -11z" />
    <glyph glyph-name="Zacute" unicode="&#x179;" horiz-adv-x="480" 
d="M435 655v-67l-296 -511h296v-77h-395v67l296 511h-290v77h389zM353 829l-85 -119h-74l66 119h93z" />
    <glyph glyph-name="zacute" unicode="&#x17a;" horiz-adv-x="401" 
d="M361 488v-63l-226 -352h226v-73h-326v63l227 352h-222v73h321zM334 685l-95 -139h-72l76 139h91z" />
    <glyph glyph-name="Zdotaccent" unicode="&#x17b;" horiz-adv-x="480" 
d="M435 655v-67l-296 -511h296v-77h-395v67l296 511h-290v77h389zM279.5 818q14.5 -12 14.5 -34v-29q0 -22 -14.5 -33.5t-41.5 -11.5q-26 0 -40.5 11.5t-14.5 33.5v29q0 22 14.5 34t40.5 12q27 0 41.5 -12z" />
    <glyph glyph-name="zdotaccent" unicode="&#x17c;" horiz-adv-x="401" 
d="M361 488v-63l-226 -352h226v-73h-326v63l227 352h-222v73h321zM249.5 673q14.5 -12 14.5 -34v-29q0 -22 -14.5 -33.5t-41.5 -11.5q-26 0 -40.5 11.5t-14.5 33.5v29q0 22 14.5 34t40.5 12q27 0 41.5 -12z" />
    <glyph glyph-name="Zcaron" unicode="&#x17d;" horiz-adv-x="480" 
d="M435 655v-67l-296 -511h296v-77h-395v67l296 511h-290v77h389zM379 841v-68l-140 -61l-140 61v68l140 -49z" />
    <glyph glyph-name="zcaron" unicode="&#x17e;" horiz-adv-x="401" 
d="M361 488v-63l-226 -352h226v-73h-326v63l227 352h-222v73h321zM339 690v-70l-130 -74l-130 74v70l130 -65z" />
    <glyph glyph-name="florin" unicode="&#x192;" horiz-adv-x="313" 
d="M303 606v-68q-30 5 -62 5q-31 0 -48.5 -20.5t-17.5 -60.5v-56h100v-70h-100v-521h-85v521h-70v70h70v51q1 78 39 117t111 39q33 0 63 -7z" />
    <glyph glyph-name="Scommaaccent" unicode="&#x218;" horiz-adv-x="461" 
d="M380 651l-2 -75q-82 16 -139 16q-58 0 -83.5 -23t-25.5 -70v-26q0 -25 6.5 -39.5t23.5 -25t51 -21.5l93 -31q67 -23 94.5 -61t27.5 -111v-19q0 -89 -51.5 -133t-168.5 -44q-57 0 -146 20l2 77q83 -20 142 -20q75 0 106 22.5t31 70.5v33q0 35 -15.5 53.5t-54.5 31.5
l-103 34q-69 23 -96 59.5t-27 110.5v11q0 87 46.5 131.5t147.5 44.5q54 0 141 -16zM281 -92v-26q0 -21 -8 -47l-22 -66h-51l17 76q-16 5 -22.5 13.5t-6.5 24.5v25q0 16 12 26t32 10q49 0 49 -36z" />
    <glyph glyph-name="scommaaccent" unicode="&#x219;" horiz-adv-x="382" 
d="M311 488l-2 -72q-52 12 -95 12q-90 0 -90 -58v-9q0 -18 9.5 -29t34.5 -23l94 -44q85 -40 85 -117v-22q-1 -69 -41.5 -103.5t-127.5 -34.5q-45 0 -129 21l4 76q75 -22 123 -22q49 0 68 13.5t19 44.5v10q0 24 -9.5 38t-31.5 24l-97 43q-44 20 -64.5 48t-20.5 65v14
q2 68 42.5 102.5t127.5 34.5q42 0 101 -12zM242 -92v-26q0 -21 -8 -47l-22 -66h-51l17 76q-16 5 -22.5 13.5t-6.5 24.5v25q0 16 12 26t32 10q49 0 49 -36z" />
    <glyph glyph-name="uni021A" unicode="&#x21a;" horiz-adv-x="525" 
d="M495 655v-77h-190v-578h-85v578h-190v77h465zM309 -92v-26q0 -21 -8 -47l-22 -66h-51l17 76q-16 5 -22.5 13.5t-6.5 24.5v25q0 16 12 26t32 10q49 0 49 -36z" />
    <glyph glyph-name="uni021B" unicode="&#x21b;" horiz-adv-x="338" 
d="M170 488h130v-70h-130v-286q0 -38 15.5 -54.5t48.5 -16.5q42 0 82 10l2 -71q-44 -12 -80 -12q-80 0 -116.5 35.5t-36.5 115.5v279h-70v70h70l16 130h69v-130zM234 -92v-26q0 -21 -8 -47l-22 -66h-51l17 76q-16 5 -22.5 13.5t-6.5 24.5v25q0 16 12 26t32 10q49 0 49 -36z
" />
    <glyph glyph-name="uni02BC" unicode="&#x2bc;" horiz-adv-x="183" 
d="M153 659v-26q0 -21 -8 -47l-22 -66h-51l17 76q-16 5 -22.5 13.5t-6.5 24.5v25q0 16 12 26t32 10q49 0 49 -36z" />
    <glyph glyph-name="circumflex" unicode="&#x2c6;" horiz-adv-x="320" 
d="M160 690l130 -74v-70l-130 65l-130 -65v70z" />
    <glyph glyph-name="caron" unicode="&#x2c7;" horiz-adv-x="320" 
d="M290 690v-70l-130 -74l-130 74v70l130 -65z" />
    <glyph glyph-name="uni02C9" unicode="&#x2c9;" horiz-adv-x="275" 
d="M245 681v-75h-215v75h215z" />
    <glyph glyph-name="breve" unicode="&#x2d8;" horiz-adv-x="308" 
d="M278 610q0 -2 -15.5 -16t-43 -26t-65.5 -12t-65.5 12t-43 26t-15.5 16v78q0 -2 17.5 -18t45 -29.5t61.5 -13.5t61.5 13.5t45 29.5t17.5 18v-78z" />
    <glyph glyph-name="dotaccent" unicode="&#x2d9;" horiz-adv-x="171" 
d="M126.5 673q14.5 -12 14.5 -34v-29q0 -22 -14.5 -33.5t-41.5 -11.5q-26 0 -40.5 11.5t-14.5 33.5v29q0 22 14.5 34t40.5 12q27 0 41.5 -12z" />
    <glyph glyph-name="ring" unicode="&#x2da;" horiz-adv-x="282" 
d="M222 698q30 -25 30 -71t-29.5 -71t-81.5 -25q-51 0 -81 25t-30 71t29.5 71t81.5 25q51 0 81 -25zM90 627q0 -46 51 -46t51 46t-51 46t-51 -46z" />
    <glyph glyph-name="ogonek" unicode="&#x2db;" horiz-adv-x="207" 
d="M174 7q-34 -12 -53 -38.5t-19 -55.5v-10q0 -20 10 -28.5t32 -8.5q15 0 33 3v-61q-21 -5 -48 -5q-49 0 -74 22t-25 59v13q0 41 31 78.5t78 46.5z" />
    <glyph glyph-name="tilde" unicode="&#x2dc;" horiz-adv-x="320" 
d="M290 615q-3 -2 -13.5 -9.5t-28.5 -14t-38 -6.5q-23 0 -53 13q-12 5 -24.5 8.5t-24.5 3.5q-15 0 -32 -5.5t-30 -11.5t-16 -8v70q3 2 13.5 9.5t28.5 14t38 6.5q18 0 29.5 -3.5t31.5 -10.5q26 -11 41 -11t32 5.5t30 11.5t16 8v-70z" />
    <glyph glyph-name="hungarumlaut" unicode="&#x2dd;" horiz-adv-x="339" 
d="M175 685l-73 -139h-72l59 139h86zM309 685l-73 -139h-72l59 139h86z" />
    <glyph glyph-name="uni0312" unicode="&#x312;" horiz-adv-x="0" 
d="M-59 658q16 -5 22.5 -13.5t6.5 -24.5v-25q0 -16 -12 -26t-32 -10q-49 0 -49 36v26q0 21 8 47l22 66h51z" />
    <glyph glyph-name="uni0313" unicode="&#x313;" horiz-adv-x="0" 
d="M-30 659v-26q0 -21 -8 -47l-22 -66h-51l17 76q-16 5 -22.5 13.5t-6.5 24.5v25q0 16 12 26t32 10q49 0 49 -36z" />
    <glyph glyph-name="uni0326" unicode="&#x326;" horiz-adv-x="0" 
d="M-30 -92v-26q0 -21 -8 -47l-22 -66h-51l17 76q-16 5 -22.5 13.5t-6.5 24.5v25q0 16 12 26t32 10q49 0 49 -36z" />
    <glyph glyph-name="pi" unicode="&#x3c0;" horiz-adv-x="534" 
d="M506 418h-70v-301q0 -33 9 -46t28 -13q21 0 51 3v-68q-9 -2 -22 -3.5t-25 -1.5q-67 0 -96.5 34.5t-29.5 116.5v279h-176v-418h-85v418h-70v70h486v-70z" />
    <glyph glyph-name="endash" unicode="&#x2013;" horiz-adv-x="610" 
d="M545 328v-65h-480v65h480z" />
    <glyph glyph-name="emdash" unicode="&#x2014;" horiz-adv-x="710" 
d="M645 328v-65h-580v65h580z" />
    <glyph glyph-name="quoteleft" unicode="&#x2018;" horiz-adv-x="217" 
d="M128 597q34 -8 34 -42v-28q0 -22 -13.5 -33t-39.5 -11q-54 0 -54 44v30q0 28 7 50l30 89h59z" />
    <glyph glyph-name="quoteright" unicode="&#x2019;" horiz-adv-x="217" 
d="M162 651v-30q0 -28 -7 -50l-30 -89h-59l23 99q-34 8 -34 42v28q0 22 13.5 33t39.5 11q54 0 54 -44z" />
    <glyph glyph-name="quotesinglbase" unicode="&#x201a;" horiz-adv-x="217" 
d="M162 61v-30q0 -28 -7 -50l-30 -89h-59l23 99q-34 8 -34 42v28q0 22 13.5 33t39.5 11q54 0 54 -44z" />
    <glyph glyph-name="quotedblleft" unicode="&#x201c;" horiz-adv-x="362" 
d="M128 596q34 -8 34 -42v-28q0 -22 -13.5 -33t-39.5 -11q-54 0 -54 44v30q0 28 7 50l30 89h59zM273 596q34 -8 34 -42v-28q0 -22 -13.5 -33t-39.5 -11q-54 0 -54 44v30q0 28 7 50l30 89h59z" />
    <glyph glyph-name="quotedblright" unicode="&#x201d;" horiz-adv-x="362" 
d="M162 651v-30q0 -28 -7 -50l-30 -89h-59l23 99q-34 8 -34 42v28q0 22 13.5 33t39.5 11q54 0 54 -44zM307 651v-30q0 -28 -7 -50l-30 -89h-59l23 99q-34 8 -34 42v28q0 22 13.5 33t39.5 11q54 0 54 -44z" />
    <glyph glyph-name="quotedblbase" unicode="&#x201e;" horiz-adv-x="362" 
d="M162 61v-30q0 -28 -7 -50l-30 -89h-59l23 99q-34 8 -34 42v28q0 22 13.5 33t39.5 11q54 0 54 -44zM307 61v-30q0 -28 -7 -50l-30 -89h-59l23 99q-34 8 -34 42v28q0 22 13.5 33t39.5 11q54 0 54 -44z" />
    <glyph glyph-name="dagger" unicode="&#x2020;" horiz-adv-x="419" 
d="M252 655v-167h152v-80h-152v-408h-85v408h-152v80h152v167h85z" />
    <glyph glyph-name="daggerdbl" unicode="&#x2021;" horiz-adv-x="439" 
d="M262 655v-167h152v-80h-152v-140h152v-80h-152v-188h-85v188h-152v80h152v140h-152v80h152v167h85z" />
    <glyph glyph-name="bullet" unicode="&#x2022;" horiz-adv-x="235" 
d="M163.5 322q16.5 -13 16.5 -38v-33q0 -25 -16.5 -38t-46.5 -13q-29 0 -45.5 13t-16.5 38v33q0 25 16.5 38t45.5 13q30 0 46.5 -13z" />
    <glyph glyph-name="ellipsis" unicode="&#x2026;" horiz-adv-x="553" 
d="M333 63v-29q0 -22 -14.5 -34t-42.5 -12q-27 0 -41.5 12t-14.5 34v29q0 23 14.5 35t41.5 12q57 0 57 -47zM167 63v-29q0 -22 -14.5 -34t-42.5 -12q-27 0 -41.5 12t-14.5 34v29q0 23 14.5 35t41.5 12q57 0 57 -47zM499 63v-29q0 -22 -14.5 -34t-42.5 -12q-27 0 -41.5 12
t-14.5 34v29q0 23 14.5 35t41.5 12q57 0 57 -47z" />
    <glyph glyph-name="perthousand" unicode="&#x2030;" horiz-adv-x="1240" 
d="M320.5 583.5q39.5 -41.5 39.5 -118.5v-30q0 -77 -39.5 -118.5t-117.5 -41.5t-118 41.5t-40 118.5v30q0 77 40 118.5t118 41.5t117.5 -41.5zM649 613l-335 -613h-87l335 613h87zM148 529.5q-18 -20.5 -18 -64.5v-30q0 -44 18 -64.5t55 -20.5t54.5 20.5t17.5 64.5v30
q0 45 -17.5 65t-54.5 20t-55 -20.5zM790.5 296.5q39.5 -41.5 39.5 -118.5v-30q0 -77 -39.5 -118.5t-117.5 -41.5t-118 41.5t-40 118.5v30q0 77 40 118.5t118 41.5t117.5 -41.5zM1170.5 296.5q39.5 -41.5 39.5 -118.5v-30q0 -77 -39.5 -118.5t-117.5 -41.5t-118 41.5
t-40 118.5v30q0 77 40 118.5t118 41.5t117.5 -41.5zM618 242.5q-18 -20.5 -18 -64.5v-30q0 -44 18 -64.5t55 -20.5t54.5 20.5t17.5 64.5v30q0 45 -17.5 65t-54.5 20t-55 -20.5zM998 242.5q-18 -20.5 -18 -64.5v-30q0 -44 18 -64.5t55 -20.5t54.5 20.5t17.5 64.5v30
q0 45 -17.5 65t-54.5 20t-55 -20.5z" />
    <glyph glyph-name="guilsinglleft" unicode="&#x2039;" horiz-adv-x="318" 
d="M253 438l-93 -170l93 -170h-88l-100 170l100 170h88z" />
    <glyph glyph-name="guilsinglright" unicode="&#x203a;" horiz-adv-x="318" 
d="M153 438l100 -170l-100 -170h-88l93 170l-93 170h88z" />
    <glyph glyph-name="fraction" unicode="&#x2044;" horiz-adv-x="380" 
d="M384 601l-305 -601h-83l305 601h83z" />
    <glyph glyph-name="Euro" unicode="&#x20ac;" horiz-adv-x="454" 
d="M429 597l-2 -73q-80 16 -136 16q-60 0 -86.5 -28.5t-26.5 -92.5v-23h209l-15 -70h-194v-62h182l-15 -70h-167v-11q0 -64 27 -92t86 -28q56 0 136 16l2 -75q-88 -16 -138 -16q-106 0 -152 49.5t-46 152.5v4h-83l15 70h68v62h-77l15 70h62v15q0 103 46.5 152.5t151.5 49.5
q50 0 138 -16z" />
    <glyph glyph-name="uni2113" unicode="&#x2113;" horiz-adv-x="225" 
d="M155 683v-683h-85v683h85z" />
    <glyph glyph-name="trademark" unicode="&#x2122;" horiz-adv-x="773" 
d="M341 683v-58h-111v-275h-73v275h-112v58h296zM726 683l2 -333h-69l1 207l-66 -176h-70l-65 176l-4 -207h-69l7 333h83l84 -228l83 228h83z" />
    <glyph glyph-name="uni2126" unicode="&#x2126;" horiz-adv-x="578" 
d="M453.5 612q54.5 -55 54.5 -157v-214q0 -61 -13 -96.5t-50 -64.5h73v-80h-200v77h9q44 0 70 38t26 99v251q0 63 -35 96t-99 33t-99 -33t-35 -96v-251q0 -61 26 -99t70 -38h9v-77h-200v80h73q-37 29 -50 64.5t-13 96.5v214q0 102 54.5 157t164.5 55t164.5 -55z" />
    <glyph glyph-name="estimated" unicode="&#x212e;" horiz-adv-x="955" 
d="M676.5 655q92.5 -48 148 -134t55.5 -194h-657v-218q30 -45 104.5 -71t150.5 -26q75 0 147.5 25.5t112.5 72.5h58q-56 -66 -136.5 -101.5t-182.5 -35.5q-113 0 -205 46.5t-144.5 129.5t-52.5 186t54 187t146.5 132.5t201.5 48.5q107 0 199.5 -48zM327 637.5
q-65 -26.5 -104 -74.5v-196h509v195q-94 102 -254 102q-86 0 -151 -26.5z" />
    <glyph glyph-name="partialdiff" unicode="&#x2202;" horiz-adv-x="461" 
d="M322.5 606q78.5 -89 78.5 -266v-170q0 -88 -44 -135t-129 -47q-90 0 -131.5 41t-41.5 128v115q0 82 35 124.5t98 42.5q73 0 128 -78v25q0 76 -29 131.5t-79 84.5t-113 29v64q149 0 227.5 -89zM157 338q-17 -25 -17 -78v-112q0 -89 88 -89t88 89v133q-24 40 -53.5 61
t-57.5 21q-31 0 -48 -25z" />
    <glyph glyph-name="uni2206" unicode="&#x2206;" horiz-adv-x="530" 
d="M315 655l191 -598v-57h-482v55l190 600h101zM265 577l-150 -501h294z" />
    <glyph glyph-name="product" unicode="&#x220f;" horiz-adv-x="575" 
d="M580 655v-80h-90v-760h-85v760h-235v-760h-85v760h-90v80h585z" />
    <glyph glyph-name="summation" unicode="&#x2211;" horiz-adv-x="399" 
d="M394 655v-77h-288l189 -322v-39l-192 -325h291v-77h-389v67l203 354l-203 352v67h389z" />
    <glyph glyph-name="minus" unicode="&#x2212;" horiz-adv-x="390" 
d="M372 335v-70h-354v70h354z" />
    <glyph glyph-name="uni2215" unicode="&#x2215;" horiz-adv-x="255" 
d="M273 683l-205 -683h-85l205 683h85z" />
    <glyph glyph-name="uni2219" unicode="&#x2219;" horiz-adv-x="235" 
d="M163.5 322q16.5 -13 16.5 -38v-33q0 -25 -16.5 -38t-46.5 -13q-29 0 -45.5 13t-16.5 38v33q0 25 16.5 38t45.5 13q30 0 46.5 -13z" />
    <glyph glyph-name="radical" unicode="&#x221a;" horiz-adv-x="480" 
d="M560 683v-70h-84l-202 -613h-110l-144 488h90l110 -426l195 621h145z" />
    <glyph glyph-name="infinity" unicode="&#x221e;" horiz-adv-x="517" 
d="M471 398q36 -34 36 -96v-11q0 -62 -36 -96t-107 -34q-70 0 -105 46q-35 -46 -106 -46t-107 34t-36 96v11q0 62 36 96t107 34t106 -46q35 46 105 46q71 0 107 -34zM90 302v-11q0 -60 63 -60t63 60v11q0 60 -63 60t-63 -60zM301 302v-11q0 -60 63 -60t63 60v11q0 60 -63 60
t-63 -60z" />
    <glyph glyph-name="integral" unicode="&#x222b;" horiz-adv-x="316" 
d="M326 688v-68q-30 5 -62 5q-31 0 -48.5 -20t-17.5 -61v-581q0 -79 -38.5 -119t-111.5 -40q-33 0 -63 7v68q30 -5 62 -5q31 0 48.5 19.5t17.5 61.5v581q0 79 38.5 119t111.5 40q33 0 63 -7z" />
    <glyph glyph-name="approxequal" unicode="&#x2248;" horiz-adv-x="390" 
d="M159.5 430.5q17.5 -3.5 39.5 -10.5q23 -7 38.5 -10.5t36.5 -3.5q16 0 38 5.5t38.5 11.5t21.5 8v-70q-3 -2 -16.5 -9t-35.5 -13t-48 -6q-24 0 -41 3.5t-39 10.5q-21 7 -37 10.5t-39 3.5q-16 0 -38 -5.5t-38.5 -11.5t-21.5 -8v70q3 2 16.5 9t35.5 13t48 6q24 0 41.5 -3.5z
M159.5 280.5q17.5 -3.5 39.5 -10.5q23 -7 38.5 -10.5t36.5 -3.5q16 0 38 5.5t38.5 11.5t21.5 8v-70q-3 -2 -16.5 -9t-35.5 -13t-48 -6q-24 0 -41 3.5t-39 10.5q-21 7 -37 10.5t-39 3.5q-16 0 -38 -5.5t-38.5 -11.5t-21.5 -8v70q3 2 16.5 9t35.5 13t48 6q24 0 41.5 -3.5z" />
    <glyph glyph-name="notequal" unicode="&#x2260;" horiz-adv-x="390" 
d="M348 484l-40 -63h64v-70h-107l-63 -101h170v-70h-214l-40 -65h-76l40 65h-64v70h108l63 101h-171v70h214l40 63h76z" />
    <glyph glyph-name="lessequal" unicode="&#x2264;" horiz-adv-x="390" 
d="M375 494v-83l-276 -114l276 -115v-83l-360 160v75zM375 70v-70h-360v70h360z" />
    <glyph glyph-name="greaterequal" unicode="&#x2265;" horiz-adv-x="390" 
d="M15 494l360 -160v-75l-360 -160v83l276 115l-276 114v83zM375 70v-70h-360v70h360z" />
    <glyph glyph-name="lozenge" unicode="&#x25ca;" horiz-adv-x="538" 
d="M303 683l230 -341l-230 -342h-68l-230 342l230 341h68zM269 593l-162 -251l162 -252l162 252z" />
    <glyph glyph-name="uni0326.case" horiz-adv-x="0" 
d="M-30 -92v-26q0 -21 -8 -47l-22 -66h-51l17 76q-16 5 -22.5 13.5t-6.5 24.5v25q0 16 12 26t32 10q49 0 49 -36z" />
    <glyph glyph-name="caron.alt" horiz-adv-x="108" 
d="M123 659v-26q0 -21 -8 -47l-22 -66h-51l17 76q-16 5 -22.5 13.5t-6.5 24.5v25q0 16 12 26t32 10q49 0 49 -36z" />
    <glyph glyph-name="acute.case" horiz-adv-x="219" 
d="M189 829l-85 -119h-74l66 119h93z" />
    <glyph glyph-name="breve.case" horiz-adv-x="340" 
d="M310 752q0 -1 -22.5 -13.5t-54 -23t-63.5 -10.5q-34 0 -65 10.5t-53 23t-22 13.5v78q0 -1 23.5 -15t54.5 -26t62 -12t62 12t54.5 26t23.5 15v-78z" />
    <glyph glyph-name="caron.case" horiz-adv-x="340" 
d="M310 841v-68l-140 -61l-140 61v68l140 -49z" />
    <glyph glyph-name="circumflex.case" horiz-adv-x="340" 
d="M170 840l140 -61v-68l-140 49l-140 -49v68z" />
    <glyph glyph-name="dieresis.case" horiz-adv-x="332" 
d="M120.5 813q13.5 -11 13.5 -32v-29q0 -20 -13.5 -31t-38.5 -11q-24 0 -38 11.5t-14 30.5v29q0 21 14 32t38 11q25 0 38.5 -11zM288.5 813q13.5 -11 13.5 -32v-29q0 -20 -14 -31t-39 -11q-23 0 -37.5 11.5t-14.5 30.5v29q0 21 14 32t38 11q26 0 39.5 -11z" />
    <glyph glyph-name="dotaccent.case" horiz-adv-x="171" 
d="M126.5 818q14.5 -12 14.5 -34v-29q0 -22 -14.5 -33.5t-41.5 -11.5q-26 0 -40.5 11.5t-14.5 33.5v29q0 22 14.5 34t40.5 12q27 0 41.5 -12z" />
    <glyph glyph-name="grave.case" horiz-adv-x="219" 
d="M123 829l66 -119h-74l-85 119h93z" />
    <glyph glyph-name="hungarumlaut.case" horiz-adv-x="339" 
d="M167 829l-65 -119h-72l51 119h86zM309 829l-65 -119h-72l51 119h86z" />
    <glyph glyph-name="macron.case" horiz-adv-x="295" 
d="M265 790v-75h-235v75h235z" />
    <glyph glyph-name="ring.case" horiz-adv-x="290" 
d="M229 840q31 -25 31 -75t-30.5 -75t-84.5 -25q-53 0 -84 25t-31 75t30.5 75t84.5 25q53 0 84 -25zM95 765q0 -45 50 -45t50 45t-50 45t-50 -45z" />
    <glyph glyph-name="tilde.case" horiz-adv-x="340" 
d="M310 740q-3 -2 -13.5 -9.5t-28.5 -14t-38 -6.5q-26 0 -63 13q-15 5 -30.5 8.5t-28.5 3.5q-15 0 -32 -5.5t-30 -11.5t-16 -8v70q3 2 13.5 9.5t28.5 14t38 6.5q32 0 72 -14q31 -11 50 -11q15 0 32 5.5t30 11.5t16 8v-70z" />
    </font>
</defs>
</svg>
