<svg xmlns="http://www.w3.org/2000/svg" width="27" height="26" viewBox="0 0 27 26" fill="none">
<path d="M8.1885 5.19995C7.31513 5.19995 6.59961 5.91547 6.59961 6.78884V18.1097C6.59961 18.873 7.22655 19.5 7.98989 19.5H21.4954C22.2588 19.5 22.8857 18.873 22.8857 18.1097V8.97356C22.8857 8.21022 22.2588 7.58328 21.4954 7.58328H20.5024V5.59717C20.5024 5.38919 20.3132 5.19997 20.1052 5.19995H8.1885ZM8.1885 5.9944H19.7079V7.58328H8.1885C7.7415 7.58328 7.39405 7.23583 7.39405 6.78884C7.39405 6.34185 7.7415 5.9944 8.1885 5.9944ZM7.39405 8.16049C7.6282 8.29685 7.89964 8.37773 8.1885 8.37773C12.662 8.37376 17.6505 8.37773 21.4954 8.37773C21.8324 8.37773 22.0913 8.6366 22.0913 8.97356V11.3569H16.3316C15.7883 11.3569 15.3385 11.8067 15.3385 12.35V14.7333C15.3385 15.2766 15.7883 15.7263 16.3316 15.7263H22.0913V18.1097C22.0913 18.4466 21.8324 18.7055 21.4954 18.7055H7.98989C7.65292 18.7055 7.39405 18.4466 7.39405 18.1097V8.16049ZM16.3316 12.1513H22.0913V14.9319H16.3316C16.2147 14.9319 16.1329 14.8502 16.1329 14.7333V12.35C16.1329 12.233 16.2147 12.1511 16.3316 12.1513ZM18.3177 12.7472C17.8789 12.7472 17.5232 13.1029 17.5232 13.5416C17.5232 13.9804 17.8789 14.3361 18.3177 14.3361C18.7564 14.3361 19.1121 13.9804 19.1121 13.5416C19.1121 13.1029 18.7564 12.7472 18.3177 12.7472Z" fill="white"/>
</svg>
