<svg width="24" height="24" viewBox="0 0 24 24" fill="none" xmlns="http://www.w3.org/2000/svg">
<path fill-rule="evenodd" clip-rule="evenodd" d="M6.98962 7.93547C4.22482 10.7003 4.22482 15.1899 6.98962 17.9545C7.1743 18.1392 7.47336 18.1392 7.65806 17.9545C7.84181 17.7698 7.84181 17.4717 7.65806 17.287C5.26181 14.8908 5.26181 10.9993 7.65806 8.60382L7.66463 8.59632C10.059 6.20945 13.9401 6.20945 16.3346 8.59632L16.3412 8.60382C18.7374 10.9991 18.7374 14.8906 16.3412 17.287C16.1565 17.4717 16.1565 17.7698 16.3412 17.9545C16.5259 18.1392 16.8249 18.1392 17.0096 17.9545C19.7744 15.1897 19.7744 10.7 17.0096 7.93547C14.2448 5.16995 9.75442 5.16995 6.98962 7.93547ZM8.32555 9.2714C6.29774 11.2992 6.29774 14.5908 8.32555 16.6185C8.51024 16.8032 8.8093 16.8032 8.994 16.6185C9.17775 16.4348 9.17775 16.1348 8.994 15.951C7.33462 14.2917 7.33462 11.5982 8.994 9.9388C10.6524 8.28035 13.3469 8.28035 15.0053 9.9388C16.6647 11.5982 16.6647 14.2917 15.0053 15.951C14.8215 16.1348 14.8215 16.4348 15.0053 16.6185C15.19 16.8032 15.489 16.8032 15.6737 16.6185C17.7006 14.5907 17.7006 11.2992 15.6737 9.2714C13.6459 7.2436 10.3533 7.2436 8.32555 9.2714ZM9.66149 10.6073C8.37149 11.8973 8.37149 13.9925 9.66149 15.2825C9.84618 15.4672 10.1452 15.4672 10.329 15.2825C10.5137 15.0979 10.5137 14.7997 10.329 14.6151C9.40836 13.6935 9.40836 12.1973 10.329 11.2747C11.2515 10.3532 12.7477 10.3532 13.6693 11.2747C14.5908 12.1972 14.5908 13.6935 13.6693 14.6151C13.4846 14.7997 13.4846 15.0979 13.6693 15.2825C13.854 15.4672 14.153 15.4672 14.3377 15.2825C15.6277 13.9925 15.6277 11.8973 14.3377 10.6073C13.0468 9.3164 10.9524 9.3164 9.66149 10.6073ZM11.9996 11.528C11.2177 11.528 10.5831 12.1626 10.5831 12.9454C10.5831 13.7273 11.2177 14.362 11.9996 14.362C12.7815 14.362 13.4162 13.7273 13.4162 12.9454C13.4162 12.1626 12.7815 11.528 11.9996 11.528ZM11.9996 12.473C12.2602 12.473 12.4721 12.6839 12.4721 12.9455C12.4721 13.2061 12.2603 13.417 11.9996 13.417C11.739 13.417 11.5271 13.2061 11.5271 12.9455C11.5271 12.6839 11.739 12.473 11.9996 12.473Z" fill="#CCCCCC"/>
</svg>
