<svg width="24" height="24" viewBox="0 0 28 28" fill="none" xmlns="http://www.w3.org/2000/svg">
<g clip-path="url(#clip0_9539_8524)">
<path d="M17.5519 4.18668V9.19476L24 20.9548H0L5.76 14.4983L8.86872 17.2405L16.7268 9.13572V5.3106C14.669 7.10215 11.532 6.65967 10.0181 4.43873L9.5587 3.76279C10.8402 3.81529 11.3971 3.75154 12.6758 3.39999C16.7671 2.27592 16.3874 4.18747 17.5517 4.18747L17.5519 4.18668ZM11.2032 4.57575C12.661 5.96607 14.9813 5.937 16.4045 4.48481C15.3826 3.507 14.1742 3.84074 12.8954 4.1923C12.3451 4.34417 11.7836 4.49978 11.2042 4.57574L11.2032 4.57575ZM5.82936 15.6541L1.84032 20.1289H22.6058L17.0446 9.98703L8.91072 18.3757L5.82936 15.6541Z" fill="url(#paint0_linear_7725_34996)"/>
<defs>
<linearGradient id="paint0_linear_7725_34996" x1="5" y1="12" x2="19.5" y2="12" gradientUnits="userSpaceOnUse">
<stop stop-color="#E59010"/>
<stop offset="1" stop-color="#00ADE3"/>
</linearGradient>
</defs>
</g>
<defs>
<clipPath id="clip0_9539_8524">
<rect width="24" height="24" fill="white"/>
</clipPath>
</defs>
</svg>
