<svg width="24" height="24" viewBox="0 0 24 24" fill="none" xmlns="http://www.w3.org/2000/svg">
<path d="M11.4378 9.18753C10.6038 9.18753 9.85161 9.69027 9.53189 10.4605C9.21285 11.2313 9.38945 12.1189 9.97919 12.7086C10.5689 13.2983 11.4565 13.4749 12.2267 13.1553C12.9975 12.8362 13.5003 12.084 13.5003 11.25C13.499 10.1111 12.5767 9.18819 11.4378 9.18753ZM11.4378 12.3225C11.004 12.3225 10.6128 12.0615 10.4472 11.6606C10.2809 11.2597 10.3724 10.7982 10.6792 10.4914C10.986 10.1846 11.4475 10.0931 11.8484 10.2594C12.2486 10.425 12.5103 10.8163 12.5103 11.25C12.509 11.8417 12.0295 12.3219 11.4378 12.3225Z" fill="#CCCCCC"/>
<path d="M11.4385 6.63C9.84393 6.62806 8.36159 7.4479 7.51597 8.79942C6.67034 10.1504 6.58139 11.8422 7.28006 13.275C7.97874 14.7078 9.36698 15.6791 10.9526 15.8448C12.5382 16.0104 14.0967 15.3472 15.077 14.0896C15.9458 14.2534 16.7979 13.7306 17.0454 12.8818C17.2929 12.0323 16.8566 11.1338 16.0354 10.8044C15.9246 9.66169 15.3929 8.60137 14.5427 7.82999C13.6932 7.05784 12.5866 6.63053 11.4387 6.62988L11.4385 6.63ZM11.4385 14.88C10.5059 14.8813 9.60932 14.5236 8.93315 13.881C8.25767 13.2384 7.85484 12.3612 7.80844 11.4299C7.76268 10.4986 8.07657 9.5852 8.68501 8.87949C9.29409 8.17374 10.1513 7.729 11.0795 7.63749C12.007 7.54661 12.9344 7.81537 13.6692 8.38966C14.4039 8.9633 14.8893 9.79797 15.0253 10.7203C14.4091 10.8537 13.916 11.3145 13.7401 11.9197C13.5641 12.525 13.7336 13.1779 14.1822 13.6212C13.4938 14.4192 12.4924 14.8787 11.4385 14.88ZM15.3985 13.1326C15.1027 13.1346 14.8352 12.958 14.7211 12.6853C14.6064 12.4127 14.6683 12.0982 14.8764 11.8887C15.0853 11.6792 15.3992 11.6167 15.6724 11.7295C15.9457 11.843 16.1236 12.1091 16.123 12.405C16.1191 12.8059 15.793 13.1294 15.3921 13.1294L15.3985 13.1326Z" fill="#CCCCCC"/>
<path d="M11.4372 3.91065C9.73511 3.90872 8.08577 4.50039 6.7727 5.58391C5.84329 5.08118 4.68446 5.36219 4.08881 6.23489C3.49326 7.10823 3.65504 8.28963 4.46263 8.97158C3.81616 10.9489 4.04046 13.1081 5.07881 14.9116C6.11651 16.715 7.8716 17.9931 9.90638 18.4276C11.9412 18.862 14.0649 18.4121 15.749 17.1901C17.4332 15.9687 18.5192 14.0892 18.7377 12.0196C18.9562 9.95069 18.2852 7.88555 16.893 6.33933C15.5008 4.7931 13.5176 3.91004 11.4371 3.9107L11.4372 3.91065ZM5.78402 6.32113C6.21779 6.32113 6.60902 6.58281 6.7753 6.98307C6.94095 7.38397 6.84943 7.84545 6.54262 8.15224C6.23582 8.45904 5.77435 8.55057 5.37345 8.38492C4.97319 8.21863 4.71152 7.8274 4.71152 7.39363C4.71281 6.80196 5.19234 6.32242 5.78402 6.32113ZM11.4372 17.5992C9.42755 17.5999 7.53582 16.6485 6.33842 15.0346C5.14024 13.4214 4.77673 11.3357 5.35873 9.41175C6.17535 9.58256 7.0145 9.24482 7.48376 8.55517C7.95364 7.86552 7.96136 6.96124 7.50374 6.26381C9.117 4.99151 11.2466 4.579 13.2182 5.15651C15.1898 5.73402 16.7606 7.22925 17.4334 9.17064C18.1063 11.112 17.7982 13.2588 16.6065 14.9328C15.4148 16.606 13.487 17.5998 11.4323 17.5992L11.4372 17.5992Z" fill="#CCCCCC"/>
</svg>
