<svg width="24" height="24" viewBox="0 0 24 24" fill="none" xmlns="http://www.w3.org/2000/svg">
<path fill-rule="evenodd" clip-rule="evenodd" d="M13.0593 9.01789L10.98 10.0116C10.425 9.21477 9.50246 8.69257 8.45803 8.69257C6.76397 8.69257 5.38867 10.0688 5.38867 11.7629C5.38867 13.457 6.76399 14.8332 8.45803 14.8332C9.34303 14.8332 10.1399 14.4582 10.7005 13.8592L13.0068 15.1904C12.9665 15.3798 12.9459 15.5767 12.9459 15.7773C12.9459 17.342 14.2152 18.6114 15.7791 18.6114C17.3437 18.6114 18.6132 17.3421 18.6132 15.7773C18.6132 14.2135 17.3438 12.9441 15.7791 12.9441C14.7553 12.9441 13.8572 13.4878 13.3594 14.3035L11.2341 13.0763C11.4225 12.6778 11.5284 12.2325 11.5284 11.7628C11.5284 11.4497 11.4816 11.1469 11.3944 10.861L13.4738 9.86721C13.9875 10.5863 14.8294 11.0541 15.7791 11.0541C17.3438 11.0541 18.6132 9.7847 18.6132 8.21992C18.6132 6.65618 17.3439 5.38672 15.7791 5.38672C14.2153 5.38672 12.9459 6.6561 12.9459 8.21992C12.9459 8.49741 12.9853 8.76477 13.0593 9.01789ZM15.779 13.8882C16.8225 13.8882 17.669 14.7348 17.669 15.7773C17.669 16.8207 16.8225 17.6673 15.779 17.6673C14.7365 17.6673 13.89 16.8207 13.89 15.7773C13.89 14.7348 14.7365 13.8882 15.779 13.8882ZM8.45806 9.63757C9.6318 9.63757 10.5843 10.5901 10.5843 11.7629C10.5843 12.9366 9.6318 13.8882 8.45806 13.8882C7.28525 13.8882 6.33274 12.9367 6.33274 11.7629C6.33274 10.5901 7.28525 9.63757 8.45806 9.63757ZM15.779 6.33109C16.8225 6.33109 17.669 7.17765 17.669 8.22016C17.669 9.26361 16.8225 10.1102 15.779 10.1102C14.7365 10.1102 13.89 9.26361 13.89 8.22016C13.89 7.17765 14.7365 6.33109 15.779 6.33109Z" fill="white"/>
</svg>
