<svg width="14" height="16" viewBox="0 0 14 16" fill="none" xmlns="http://www.w3.org/2000/svg">
<g id="AllWhite_Logos_Logomark_RGB 1" clip-path="url(#clip0_17515_20625)">
<g id="Group">
<path id="Vector" d="M7.75885 9.13979L7.03162 11.131C7.01029 11.1861 7.01029 11.2476 7.03162 11.3027L8.28029 14.7298L9.72551 13.8952L7.99202 9.13979C7.95221 9.02925 7.79866 9.02925 7.75885 9.13979Z" fill="white"/>
<path id="Vector_2" d="M9.21273 5.78945C9.17292 5.67891 9.01937 5.67891 8.97956 5.78945L8.25232 7.78063C8.231 7.83573 8.231 7.89722 8.25232 7.95231L10.2986 13.564L11.7438 12.7295L9.21273 5.78945Z" fill="white"/>
</g>
<path id="Vector_3" d="M6.6457 1.42948C6.68266 1.42948 6.71643 1.43872 6.74984 1.4572L12.2603 4.63876C12.3246 4.67573 12.3644 4.74291 12.3644 4.81684V11.18C12.3644 11.2535 12.3246 11.3211 12.2603 11.358L6.74984 14.5428C6.71927 14.5613 6.68231 14.5705 6.6457 14.5705C6.60909 14.5705 6.57496 14.5613 6.54155 14.5428L1.03398 11.3612C0.969645 11.3243 0.929836 11.2571 0.929836 11.1832V4.81684C0.929836 4.74326 0.969645 4.67573 1.03398 4.63876L6.54439 1.4572C6.57496 1.43872 6.61193 1.42948 6.6457 1.42948ZM6.6457 0.5C6.44949 0.5 6.25293 0.55225 6.07806 0.653551L0.567641 3.83511C0.217886 4.03736 0 4.41199 0 4.81684V11.18C0 11.5848 0.217886 11.9623 0.567641 12.1649L6.07806 15.3464C6.25293 15.4477 6.44914 15.5 6.6457 15.5C6.84226 15.5 7.03846 15.4477 7.21334 15.3464L12.7238 12.1649C13.0767 11.9623 13.2914 11.588 13.2914 11.18V4.81684C13.2914 4.41199 13.0735 4.03451 12.7238 3.83191L7.21618 0.653551C7.0381 0.55225 6.8419 0.5 6.64534 0.5H6.6457Z" fill="white"/>
<g id="Group_2">
<path id="Vector_4" d="M6.18218 4.36255H4.78636C4.68222 4.36255 4.58696 4.42688 4.55319 4.52499L1.55859 12.7353L3.00382 13.5699L6.30196 4.52818C6.32969 4.44857 6.2714 4.36255 6.18218 4.36255Z" fill="white"/>
<path id="Vector_5" d="M8.62789 4.36255H7.23207C7.12792 4.36255 7.03266 4.42688 6.9989 4.52499L3.57812 13.9012L5.02335 14.7358L8.74447 4.53138C8.77504 4.44857 8.7139 4.36255 8.62789 4.36255Z" fill="white"/>
</g>
</g>
<defs>
<clipPath id="clip0_17515_20625">
<rect width="13.291" height="15" fill="white" transform="translate(0 0.5)"/>
</clipPath>
</defs>
</svg>
