<svg xmlns="http://www.w3.org/2000/svg" width="16" height="17" viewBox="0 0 16 17" fill="none">
  <path fill-rule="evenodd" clip-rule="evenodd" d="M2.99999 2.81934C2.84687 2.81934 2.71311 2.92371 2.67624 3.07184C2.67624 3.07184 2.44812 3.98996 2.05812 4.72438C1.93875 4.94875 1.805 5.15688 1.655 5.30626C1.55375 5.40751 1.45188 5.48563 1.33312 5.48563C1.14937 5.48563 1 5.635 1 5.81875C1 6.0025 1.14937 6.15187 1.33312 6.15187C1.72687 6.15187 2.10563 5.87312 2.40875 5.43187C2.50062 5.29812 2.58624 5.14812 2.66624 4.99375V10.1656H1.33312C1.14937 10.1656 1 10.315 1 10.4987V11.8319C1 12.0156 1.14937 12.165 1.33312 12.165H2.66624V13.8319C2.66624 14.0157 2.81561 14.165 2.99936 14.165C3.18311 14.165 3.33248 14.0157 3.33248 13.8319V12.165H12.6655V13.8319C12.6655 14.0157 12.8149 14.165 12.9987 14.165C13.1824 14.165 13.3318 14.0157 13.3318 13.8319V12.165H14.6649C14.8487 12.165 14.998 12.0156 14.998 11.8319V10.4987C14.998 10.315 14.8487 10.1656 14.6649 10.1656H13.3318V4.99375C13.4118 5.14812 13.4974 5.29812 13.5893 5.43187C13.8924 5.87312 14.2712 6.15187 14.6649 6.15187C14.8487 6.15187 14.998 6.0025 14.998 5.81875C14.998 5.635 14.8487 5.48563 14.6649 5.48563C14.5468 5.48563 14.4443 5.40688 14.343 5.30626C14.1937 5.15688 14.0593 4.94876 13.9399 4.72438C13.5499 3.99 13.3218 3.07184 13.3218 3.07184C13.2849 2.92372 13.1512 2.81934 12.998 2.81934C12.8449 2.81934 12.7112 2.92371 12.6743 3.07184C12.6743 3.07184 12.0224 5.48558 7.99803 5.48558C3.97376 5.48558 3.32176 3.07184 3.32176 3.07184C3.28489 2.92372 3.15113 2.81934 2.99801 2.81934H2.99999ZM3.33311 4.39814C3.54561 4.64876 3.8206 4.91188 4.17999 5.15688C4.32748 5.25688 4.48873 5.35438 4.66624 5.44626V10.1663H3.33312L3.33311 4.39814ZM12.6662 4.39814V10.1663H11.3331V5.44627C11.5105 5.35377 11.6718 5.2569 11.8193 5.1569C12.1787 4.91252 12.4537 4.64878 12.6662 4.39815L12.6662 4.39814ZM5.33311 5.7356C5.71936 5.87435 6.16123 5.98811 6.66623 6.06123V10.1668H5.33311V5.7356ZM10.6662 5.7356V10.1668H9.33305V6.0612C9.83868 5.98808 10.2799 5.87432 10.6662 5.73558V5.7356ZM7.33311 6.13186C7.54561 6.14561 7.76748 6.15311 7.99999 6.15311C8.23187 6.15311 8.45436 6.14561 8.66687 6.13186V10.1669H7.33375V6.13186H7.33311ZM1.66617 10.8337H14.3331V11.5006H1.66617V10.8337Z" fill="white"/>
</svg>