<svg width="26" height="26" viewBox="0 0 26 26" fill="none" xmlns="http://www.w3.org/2000/svg">
<g id="icon-history">
<path id="Vector" d="M19.5099 13.7763C19.5099 17.6563 16.3537 20.8125 12.4737 20.8125C8.59442 20.8125 5.4375 17.6563 5.4375 13.7763C5.4375 13.3604 5.47435 12.9427 5.54806 12.5338C5.59281 12.2855 5.8306 12.1215 6.07802 12.1653C6.32635 12.2101 6.4913 12.447 6.44656 12.6953C6.4097 12.9015 6.38426 13.1103 6.36846 13.3191H7.56355C7.81537 13.3191 8.01982 13.5236 8.01982 13.7754C8.01982 14.0272 7.81537 14.2317 7.56355 14.2317H6.36934C6.59309 17.2439 9.0042 19.6553 12.0166 19.8789V18.6847C12.0166 18.4329 12.2211 18.2285 12.4729 18.2285C12.7247 18.2285 12.9292 18.4329 12.9292 18.6847V19.8789C15.9414 19.6552 18.3527 17.2441 18.5764 14.2317H17.3822C17.1304 14.2317 16.9259 14.0272 16.9259 13.7754C16.9259 13.5236 17.1304 13.3191 17.3822 13.3191H18.5764C18.3421 10.156 15.6948 7.65334 12.473 7.65334C12.4633 7.65334 12.4537 7.65422 12.444 7.65422L13.3846 8.59483C13.5628 8.77295 13.5628 9.0625 13.3846 9.24063C13.2951 9.33013 13.1784 9.374 13.0617 9.374C12.945 9.374 12.8283 9.32925 12.7388 9.24063L11.1024 7.6042C11.1007 7.60244 11.0989 7.59981 11.0971 7.59806C11.0857 7.58665 11.077 7.57349 11.0664 7.5612C11.0577 7.5498 11.048 7.53927 11.041 7.52786C11.0331 7.51645 11.0278 7.50329 11.0217 7.49101C11.0147 7.47697 11.0059 7.46293 11.0006 7.44801C10.9962 7.43748 10.9936 7.4252 10.991 7.41379C10.9857 7.39624 10.9796 7.3787 10.9769 7.36027C10.9769 7.35764 10.9752 7.35588 10.9752 7.35413C10.9734 7.3436 10.9743 7.33395 10.9734 7.32342C10.9717 7.30587 10.9699 7.2892 10.9699 7.27165C10.9699 7.25761 10.9725 7.24357 10.9743 7.22865C10.9761 7.21374 10.9778 7.19882 10.9804 7.18303C10.984 7.16899 10.9883 7.15495 10.9927 7.14179C10.9971 7.12775 11.0015 7.11283 11.0076 7.09879C11.0138 7.08563 11.0208 7.07247 11.0278 7.06018C11.0348 7.04702 11.0419 7.03386 11.0506 7.02158C11.0603 7.00754 11.0717 6.99525 11.0822 6.98209C11.0892 6.97419 11.0945 6.96542 11.1024 6.95752L12.7388 5.32109C12.917 5.14297 13.2065 5.14297 13.3846 5.32109C13.5628 5.49921 13.5628 5.78876 13.3846 5.96689L12.6081 6.74342C16.4249 6.81624 19.5093 9.94171 19.5093 13.7762L19.5099 13.7763ZM10.0985 15.0249C10.1467 15.0249 10.195 15.017 10.2433 15.0012L12.6194 14.2098C12.7186 14.1764 12.8037 14.1106 12.8598 14.0229L14.9183 10.8044C15.0543 10.592 14.992 10.3095 14.7797 10.1735C14.5674 10.0375 14.2848 10.0998 14.1488 10.3121L12.1772 13.3947L9.9547 14.1353C9.71515 14.2151 9.58616 14.474 9.66602 14.7126C9.73007 14.9039 9.9082 15.025 10.0995 15.025L10.0985 15.0249Z" fill="#CCCCCC"/>
</g>
</svg>
