<svg width="9" height="16" viewBox="0 0 9 16" fill="none" xmlns="http://www.w3.org/2000/svg">
<path id="Vector" d="M6.82708 9.2035C7.85214 8.60931 8.5412 7.49981 8.5412 6.22893V4.77107C8.5412 2.41249 6.62964 0.5 4.27107 0.5C1.91249 0.5 0 2.41249 0 4.77107V6.33333H2.60345V6.43489C2.2874 6.51367 1.98842 6.63611 1.71412 6.7965C0.689067 7.39069 0 8.50019 0 9.77106V11.2289C0 13.5875 1.91154 15.5 4.27012 15.5C6.6287 15.5 8.5412 13.5875 8.5412 11.2289V9.66669H5.93774V9.56513C6.25377 9.48631 6.55277 9.36387 6.82708 9.2035ZM5.1044 11.75C5.1044 12.2103 4.7314 12.5833 4.27107 12.5833C3.81074 12.5833 3.43774 12.2103 3.43774 11.75V4.25C3.43774 3.78967 3.81074 3.41667 4.27107 3.41667C4.7314 3.41667 5.1044 3.78967 5.1044 4.25V11.75Z" fill="#F2F2F2"/>
</svg>
