<svg xmlns="http://www.w3.org/2000/svg" width="15" height="16" viewBox="0 0 15 16" fill="none">
<g clip-path="url(#clip0_17899_10596)">
<path d="M7.08618 10.6694L2.64114 11.6984C2.47902 11.739 2.35742 11.9015 2.35742 12.064V15.1241C2.35742 15.3813 2.56009 15.5437 2.81679 15.4896L9.01822 14.0544C9.27492 14.0002 9.38301 13.7565 9.27492 13.5263L8.15353 11.211C7.97789 10.8454 8.15353 10.4663 8.54534 10.3851L12.5985 9.41018C12.8823 9.34248 13.1255 9.04461 13.1255 8.74673V5.91689C13.1255 5.65963 12.9228 5.48362 12.6661 5.55132L6.81596 6.94592C6.45118 7.02716 6.28905 7.37919 6.45118 7.71769L7.47799 9.84345C7.65363 10.209 7.47799 10.5746 7.08618 10.6694Z" fill="white"/>
<path d="M4.15419 3.01945L5.31611 5.40247C5.46472 5.71388 5.31611 6.03884 4.97834 6.10654L2.83014 6.60752C2.55991 6.67522 2.34375 6.94602 2.34375 7.21681V9.77585C2.34375 10.2091 2.69503 10.4799 3.11386 10.3851L5.11345 9.92478C5.38366 9.87063 5.59984 9.58629 5.59984 9.31549L5.61335 6.68875C5.61335 6.32318 5.91059 5.9576 6.26187 5.87636L12.8146 4.30573C12.9767 4.26512 13.0983 4.10264 13.0983 3.94016V0.880149C13.0983 0.622892 12.8957 0.446873 12.6389 0.514573L4.41089 2.49139C4.15419 2.54555 4.0461 2.78927 4.15419 3.01945Z" fill="white"/>
</g>
<defs>
<clipPath id="clip0_17899_10596">
<rect width="15" height="15" fill="white" transform="translate(0 0.5)"/>
</clipPath>
</defs>
</svg>