<svg width="24" height="24" viewBox="0 0 24 24" fill="none" xmlns="http://www.w3.org/2000/svg">
<path d="M12.0048 23.3448C14.372 23.3448 16.2976 21.4192 16.2976 19.0529V16.8488C19.0051 15.3057 20.6635 12.4698 20.6635 9.31399C20.6635 4.54015 16.7793 0.655273 12.0048 0.655273C7.22541 0.655273 3.33765 4.53943 3.33765 9.31399C3.33765 12.4227 5.03358 15.315 7.70349 16.8402V19.0527C7.70255 21.4189 9.63287 23.3446 12.0048 23.3446V23.3448ZM12.0048 21.4988C10.651 21.4988 9.54957 20.401 9.54957 19.053V17.2071H14.4518V19.053C14.4509 20.4011 13.354 21.4988 12.005 21.4988H12.0048ZM5.18349 9.31404C5.18349 5.55756 8.24349 2.50212 12.0048 2.50212C15.7612 2.50212 18.8167 5.55828 18.8167 9.31404C18.8167 11.8856 17.4114 14.1779 15.1483 15.3608L8.86701 15.3599C6.59449 14.189 5.18349 11.8941 5.18349 9.31406V9.31404Z" fill="#191B1C"/>
<path d="M9.14808 11.7525L9.72557 11.4188C10.1015 11.7788 10.5646 12.0403 11.0765 12.1913V12.8663C11.0765 13.3763 11.489 13.7898 12 13.7898C12.51 13.7898 12.9234 13.3763 12.9234 12.8663V12.1913C13.4362 12.0404 13.8984 11.7788 14.2753 11.4188L14.8537 11.7525C15.2925 12.0057 15.8578 11.8585 16.1147 11.4141C16.3697 10.9725 16.2187 10.4082 15.7762 10.1532L15.1959 9.81847C15.2568 9.56721 15.299 9.30847 15.299 9.03941C15.299 8.76941 15.2578 8.5116 15.1959 8.26034L15.7762 7.92566C16.2178 7.67066 16.3697 7.10628 16.1147 6.66473C15.8597 6.22317 15.2934 6.07221 14.8537 6.32628L14.2743 6.66002C13.8984 6.30002 13.4353 6.03847 12.9234 5.88751V5.21251C12.9234 4.70251 12.5109 4.28906 12 4.28906C11.49 4.28906 11.0765 4.70251 11.0765 5.21251V5.88751C10.5637 6.03845 10.1015 6.30002 9.72463 6.66002L9.14808 6.32721C8.70746 6.07034 8.14214 6.22315 7.88714 6.6647C7.63121 7.10532 7.78308 7.67064 8.22463 7.9247L8.80401 8.25938C8.74214 8.51064 8.70089 8.76938 8.70089 9.03938C8.70089 9.30938 8.74214 9.56813 8.80401 9.81938L8.22463 10.1541C7.78308 10.4091 7.63118 10.9734 7.88618 11.415C8.14305 11.8584 8.71025 12.0056 9.14806 11.7525L9.14808 11.7525ZM12 7.58637C12.8016 7.58637 13.4531 8.23793 13.4531 9.0395C13.4531 9.84105 12.8016 10.4926 12 10.4926C11.1984 10.4926 10.5469 9.84012 10.5469 9.0395C10.5469 8.23795 11.1984 7.58637 12 7.58637V7.58637Z" fill="#191B1C"/>
</svg>
