<svg xmlns="http://www.w3.org/2000/svg" fill="none" viewBox="0 0 92.344 59.345454545454544" style="max-height: 500px" width="92.344" height="59.345454545454544">
  <path fill="#B6BBB4" d="M387.719 36.4389H362.411C363.405 41.3416 366.916 44.058 372.084 44.058C375.86 44.058 378.113 43.3292 381.756 40.8116L385.599 46.3768C381.359 49.8882 377.45 51.2795 371.819 51.2795C361.351 51.2795 353.93 43.3954 353.93 33.2588C353.93 23.1222 361.682 15.2381 371.487 15.2381C382.154 15.2381 387.719 23.5197 387.719 33.3913V36.4389ZM362.344 30.4762H379.57C379.173 26.3023 376.721 22.3271 371.554 22.3271C366.85 22.3271 363.272 25.2422 362.344 30.4762Z"/>
  <path fill="#B6BBB4" d="M317.606 61.3499L319.726 54.3934C322.84 55.8509 326.351 56.7785 329.929 56.7785C338.277 56.7785 340.463 53.3333 340.463 47.5031V44.853C338.608 47.2381 334.765 50.2857 329.001 50.2857C319.726 50.2857 313.167 42.8654 313.167 32.8613C313.167 22.7909 319.726 15.2381 329.001 15.2381C335.229 15.2381 339.469 18.0207 341.92 21.1346L343.378 15.9669H348.744V45.9793C348.744 58.6998 341.987 64 330.591 64C324.032 64 319.66 62.4099 317.606 61.3499ZM331.055 42.7329C336.62 42.7329 340.463 38.6915 340.463 32.8613C340.463 27.0311 336.62 22.7909 331.055 22.7909C325.357 22.7909 321.515 26.8323 321.515 32.8613C321.515 38.824 325.357 42.7329 331.055 42.7329Z"/>
  <path fill="#B6BBB4" d="M302.614 50.5507L301.157 45.3168C298.706 48.4306 294.465 51.2795 288.238 51.2795C278.962 51.2795 272.403 43.2629 272.403 33.2588C272.403 23.1884 278.962 15.2381 288.238 15.2381C294.002 15.2381 297.844 18.352 299.699 20.7371V4.34323H307.981V50.5507H302.614ZM290.291 43.7267C295.857 43.7267 299.699 39.089 299.699 33.2588C299.699 27.3623 295.857 22.7909 290.291 22.7909C284.594 22.7909 280.751 27.2298 280.751 33.2588C280.751 39.2215 284.594 43.7267 290.291 43.7267Z"/>
  <path fill="#B6BBB4" d="M258.012 5.0352C258.012 2.25259 260.132 0 262.981 0C265.764 0 268.016 2.25259 268.016 5.0352C268.016 7.8178 265.764 10.0704 262.981 10.0704C260.132 10.0704 258.012 7.8178 258.012 5.0352ZM267.221 50.5507H258.94V15.9669H267.221V50.5507Z"/>
  <path fill="#B6BBB4" d="M242.115 50.5507H233.833V15.9669H239.133L241.121 22.0621C242.976 18.7495 246.024 14.7743 254.902 15.3043L253.775 24.1159C244.897 23.5197 242.115 28.1573 242.115 33.7226V50.5507Z"/>
  <path fill="#B6BBB4" d="M211.718 50.5507H192.107V4.17389H210.062C217.615 4.17389 226.691 7.28777 226.691 16.8944C226.691 22.3934 223.18 25.2422 220.265 26.766V26.8323C223.379 28.1573 228.347 31.0724 228.347 37.8965C228.347 47.2381 220.463 50.5507 211.718 50.5507ZM200.588 11.5279V23.5197H210.26C215.362 23.5197 218.145 21.2008 218.145 17.6894C218.145 13.2505 215.229 11.5279 209.664 11.5279H200.588ZM200.588 30.7412V43.1967H211.254C217.217 43.1967 219.801 41.2091 219.801 37.1677C219.801 33.325 216.687 30.7412 211.453 30.7412H200.588Z"/>
  <path fill="#B6BBB4" d="M186.552 36.4389H161.244C162.238 41.3416 165.749 44.058 170.917 44.058C174.693 44.058 176.946 43.3292 180.59 40.8116L184.432 46.3768C180.192 49.8882 176.283 51.2795 170.652 51.2795C160.184 51.2795 152.764 43.3954 152.764 33.2588C152.764 23.1222 160.515 15.2381 170.32 15.2381C180.987 15.2381 186.552 23.5197 186.552 33.3913V36.4389ZM161.178 30.4762H178.403C178.006 26.3023 175.554 22.3271 170.387 22.3271C165.683 22.3271 162.105 25.2422 161.178 30.4762Z"/>
  <path fill="#B6BBB4" d="M142.211 50.5507L140.754 45.3168C138.302 48.4306 134.062 51.2795 127.834 51.2795C118.559 51.2795 112 43.2629 112 33.2588C112 23.1884 118.559 15.2381 127.834 15.2381C133.598 15.2381 137.441 18.352 139.296 20.7371V4.34323H147.578V50.5507H142.211ZM129.888 43.7267C135.453 43.7267 139.296 39.089 139.296 33.2588C139.296 27.3623 135.453 22.7909 129.888 22.7909C124.19 22.7909 120.348 27.2298 120.348 33.2588C120.348 39.2215 124.19 43.7267 129.888 43.7267Z"/>
  <path fill="#FBFF3A" d="M78.5778 52H90.6667C90.6667 51.4943 90.6584 50.9906 90.642 50.4889H81.2109L90.5435 48.6325C90.4652 47.5662 90.35 46.5101 90.1992 45.4655L81.352 47.2253L89.9053 43.6824C89.6991 42.5702 89.4522 41.4723 89.1664 40.3902L80.7959 43.8573L88.6554 38.6058C88.301 37.4583 87.9023 36.3302 87.4612 35.2237L79.5077 40.538L86.6745 33.3713C86.1491 32.207 85.5759 31.0689 84.9574 29.9595L77.4914 37.4255L83.7947 27.992C83.0747 26.8409 82.3044 25.7245 81.487 24.6458L74.7814 34.6814L79.804 22.5558C78.8698 21.4631 77.8845 20.4154 76.8518 19.4163L71.7282 31.7858C76.0244 37.3871 78.5778 44.3954 78.5778 52ZM12.0889 52C12.0889 51.0843 12.1259 50.1772 12.1985 49.2802H0.0802429C0.0269992 50.18 0 51.0869 0 52H12.0889ZM12.9956 44.2561L1.13017 41.8959C1.52612 40.1565 2.0221 38.4551 2.61175 36.7981L14.6459 39.1919C13.9662 40.8184 13.4121 42.5106 12.9956 44.2561ZM16.952 34.6792L5.6808 30.0105C6.52799 28.4861 7.46054 27.0156 8.47199 25.6056L20.0575 30.4045C18.9139 31.7417 17.8745 33.1709 16.952 34.6792ZM23.4882 26.9398L13.1744 20.0483C14.3837 18.8312 15.6615 17.6824 17.0017 16.6082L27.743 23.7853C26.2401 24.7243 24.8176 25.78 23.4882 26.9398ZM31.7225 21.6605L22.7471 12.6851C24.214 11.8405 25.7326 11.0757 27.2971 10.3965L36.7696 19.869C35.0268 20.3323 33.3404 20.9336 31.7225 21.6605ZM40.6682 19.0803L33.4289 8.24589C35.0399 7.80862 36.6865 7.45795 38.3634 7.19918L46.0908 18.764C45.839 18.7584 45.5865 18.7556 45.3333 18.7556C43.75 18.7556 42.1925 18.8663 40.6682 19.0803ZM49.3577 18.9967L44.2557 6.67924C44.6139 6.67089 44.9731 6.66669 45.3333 6.66669C46.6445 6.66669 47.9426 6.72235 49.2256 6.83144L54.7214 20.0996C52.9881 19.5904 51.196 19.2185 49.3577 18.9967ZM57.0577 20.882L54.4109 7.57574C56.014 7.90155 57.5863 8.31195 59.123 8.80208L61.9917 23.224C60.4237 22.3144 58.7745 21.5292 57.0577 20.882ZM63.366 24.0665V10.395C64.8174 11.0249 66.2293 11.7285 67.5971 12.5012V27.3113C66.2783 26.1212 64.8636 25.0353 63.366 24.0665ZM68.2013 27.8701L70.8552 14.5281C72.1065 15.382 73.3129 16.297 74.47 17.2687L71.6122 31.6355C70.5718 30.2948 69.4311 29.0359 68.2013 27.8701Z" clip-rule="evenodd" fill-rule="evenodd"/>
  <path fill="#FBFF3A" d="M66.4889 51.9998H78.5777C78.5777 51.4211 78.563 50.846 78.5338 50.2746L72.5203 50.1696L78.4528 49.0969C78.3282 47.6571 78.1119 46.2436 77.8097 44.8623L70.9982 46.094L77.4908 43.5365C77.138 42.1921 76.7031 40.8811 76.1918 39.6089L68.7616 42.5357L75.5679 38.1578C75.0106 36.9425 74.3822 35.7667 73.6881 34.6356L65.9581 39.6076L72.6907 33.1061C71.959 32.0487 71.1677 31.0358 70.3215 30.0723L62.7417 37.392L68.8848 28.5366C68.0128 27.6613 67.0923 26.8344 66.1277 26.0601L59.2788 35.9327L64.197 24.6217C63.2219 23.9486 62.2091 23.3262 61.1624 22.7584L56.3124 33.9125C62.4138 37.6241 66.4889 44.336 66.4889 51.9998ZM24.1778 51.9998H12.0889C12.0889 51.438 12.1028 50.8794 12.1303 50.3245L24.2276 50.5357C24.1946 51.0194 24.1778 51.5076 24.1778 51.9998ZM58.7074 21.555C57.6705 21.0988 56.6059 20.6941 55.5168 20.344L52.9318 32.2498C54.0199 32.6687 55.0646 33.1749 56.0574 33.7599L58.7074 21.555ZM52.549 19.5406C51.4954 19.3074 50.423 19.1242 49.3344 18.9936L49.1216 31.1824C50.2235 31.3816 51.2957 31.6662 52.3311 32.0289L52.549 19.5406ZM45.3333 18.7553C44.4859 18.7553 43.6459 18.787 42.8144 18.8493L44.984 30.847C45.1002 30.8451 45.2166 30.8442 45.3333 30.8442C46.2846 30.8442 47.2212 30.907 48.1392 31.0286L45.9208 18.7604C45.7254 18.757 45.5295 18.7553 45.3333 18.7553ZM39.025 31.8007L32.3312 21.3941C31.4715 21.7598 30.6304 22.1606 29.8096 22.5948L36.3884 32.8227C37.238 32.4257 38.1184 32.0835 39.025 31.8007ZM34.5886 33.772L26.0421 24.9218C25.3263 25.4327 24.6316 25.9712 23.9596 26.5359L32.3892 35.265C33.0888 34.7231 33.8232 34.2242 34.5886 33.772ZM20.5668 29.8224C20.0159 30.4372 19.4875 31.0727 18.983 31.7275L28.9356 38.6319C29.4614 37.9877 30.0243 37.3751 30.6212 36.7974L20.5668 29.8224ZM16.242 35.8971C15.8674 36.5724 15.5157 37.2621 15.1878 37.9652L26.2825 42.7894C26.6221 42.0883 26.9992 41.4089 27.4113 40.7536L16.242 35.8971ZM13.3621 42.8564C13.1646 43.5481 12.989 44.2491 12.836 44.9585L24.6521 47.5241C24.8054 46.8122 24.9946 46.1137 25.2176 45.4304L13.3621 42.8564ZM43.6335 30.9115C42.6241 30.9917 41.6347 31.1428 40.6702 31.3598L36.2049 20.0242C37.1458 19.7561 38.1037 19.5284 39.0766 19.3432L43.6335 30.9115Z" clip-rule="evenodd" fill-rule="evenodd"/>
  <path fill="#FBFF3A" d="M64.8013 51.9995L66.4888 51.9406C66.4879 51.6029 66.4791 51.2672 66.4625 50.9334L56.2075 51.2916L56.0279 51.2623L66.2566 48.8538C66.1994 48.4695 66.1317 48.0885 66.0541 47.7113L56.3402 49.9986L65.5645 45.7948C65.4355 45.3739 65.2938 44.9585 65.1398 44.5492L56.5009 48.4861L64.392 42.8054C64.1775 42.3616 63.948 41.9265 63.7041 41.5007L56.2761 46.8481L62.7177 39.9403C62.4059 39.4917 62.0772 39.0558 61.7325 38.6334L55.6258 45.182L60.5207 37.2719C60.1028 36.841 59.6667 36.4279 59.2137 36.0337L54.5341 43.5959L57.7869 34.896C57.2586 34.5107 56.7118 34.1493 56.1481 33.8133L53.0125 42.2001L54.5209 32.9377C53.8854 32.6308 53.2321 32.3548 52.5631 32.1115L51.0986 41.1038L50.7649 31.5477C50.035 31.3543 49.2896 31.199 48.531 31.084L48.8566 40.4064L46.6139 30.8821C46.1903 30.8568 45.7633 30.8439 45.3333 30.8439C44.9464 30.8439 44.5619 30.8543 44.18 30.8748L46.3748 40.1954L42.2169 31.0719C41.3573 31.1988 40.5145 31.3774 39.6919 31.6044L43.7616 40.5347L37.7837 32.2308C36.9314 32.5565 36.1055 32.9357 35.3103 33.3643L41.143 41.4665L33.5754 34.4096C32.7816 34.9413 32.0258 35.5253 31.3129 36.1567L38.6523 43.0008L29.8674 37.5645C29.1861 38.2942 28.5558 39.0722 27.9822 39.8927L36.4297 45.1202L26.9249 41.5666C26.4111 42.4713 25.962 43.4176 25.584 44.3993L34.611 47.7743L24.9808 46.206C24.6853 47.2462 24.4674 48.319 24.3337 49.4178L33.3196 50.8812L24.1926 51.2C24.1827 51.4653 24.1777 51.7318 24.1777 51.9995H36.2666C36.2666 46.9921 40.3259 42.9328 45.3333 42.9328C50.3407 42.9328 54.4 46.9921 54.4 51.9995L64.8013 51.9995Z" clip-rule="evenodd" fill-rule="evenodd"/>
</svg>