<?xml version="1.0" encoding="utf-8"?>
<svg width="40" height="40" viewBox="0 0 130 130" fill="white" xmlns="http://www.w3.org/2000/svg">
  <g>
    <path d="M65.0001 129.892C47.7745 129.881 31.2567 123.037 19.0709 110.862C6.88505 98.6874 0.0264805 82.1758 0 64.9502C0.0264767 47.7238 6.88468 31.2113 19.0703 19.0351C31.2558 6.85886 47.7737 0.0132205 65.0001 0C82.2265 0.0132205 98.7442 6.85886 110.93 19.0351C123.115 31.2113 129.974 47.7238 130 64.9502C129.974 82.1758 123.115 98.6874 110.929 110.862C98.7435 123.037 82.2257 129.881 65.0001 129.892ZM65.0001 5.00001C49.0991 5.01102 33.8518 11.3292 22.6034 22.5682C11.355 33.8072 5.02428 49.0492 5.00001 64.9502C5.01547 80.8531 11.3437 96.0993 22.5942 107.339C33.8448 118.579 49.0972 124.892 65.0001 124.892C80.903 124.892 96.1554 118.579 107.406 107.339C118.656 96.0993 124.985 80.8531 125 64.9502C124.976 49.0492 118.645 33.8072 107.397 22.5682C96.1482 11.3292 80.9011 5.01102 65.0001 5.00001V5.00001Z" />
    <path d="M73.2181 119.617C58.9468 119.606 45.2626 113.934 35.1673 103.847C25.0721 93.7594 19.3902 80.0796 19.3682 65.8082C19.3902 51.5369 25.0721 37.857 35.1673 27.7695C45.2626 17.6821 58.9468 12.0108 73.2181 11.9998C87.4895 12.0108 101.174 17.6821 111.269 27.7695C121.364 37.857 127.046 51.5369 127.068 65.8082C127.046 80.0796 121.364 93.7594 111.269 103.847C101.174 113.934 87.4895 119.606 73.2181 119.617ZM73.2181 15.8831C59.9775 15.8941 47.2818 21.1566 37.9162 30.516C28.5505 39.8754 23.2796 52.5676 23.2598 65.8082C23.2818 79.0474 28.5538 91.7374 37.9192 101.095C47.2847 110.453 59.9789 115.714 73.2181 115.725C86.4573 115.714 99.1516 110.453 108.517 101.095C117.883 91.7374 123.154 79.0474 123.177 65.8082C123.154 52.569 117.883 39.8789 108.517 30.5213C99.1516 21.1637 86.4573 15.9025 73.2181 15.8915V15.8831Z" />
    <path d="M81.4325 109.35C70.1162 109.341 59.2655 104.844 51.2605 96.8455C43.2556 88.8468 38.7501 77.9996 38.7324 66.6833C38.7501 55.367 43.2556 44.5198 51.2605 36.5211C59.2655 28.5224 70.1162 24.0254 81.4325 24.0166C92.7494 24.0232 103.601 28.5195 111.607 36.5187C119.612 44.5178 124.117 55.3663 124.132 66.6833C124.115 77.9996 119.609 88.8468 111.604 96.8455C103.599 104.844 92.7488 109.341 81.4325 109.35V109.35ZM81.4325 26.7916C70.8515 26.7982 60.7052 31.0021 53.2202 38.4808C45.7351 45.9596 41.5227 56.1023 41.5073 66.6833C41.5249 77.2628 45.7384 87.4034 53.2232 94.8804C60.708 102.357 70.8529 106.56 81.4325 106.567C92.012 106.56 102.157 102.357 109.642 94.8804C117.127 87.4034 121.34 77.2628 121.358 66.6833C121.342 56.1023 117.13 45.9596 109.645 38.4808C102.16 31.0021 92.0135 26.7982 81.4325 26.7916V26.7916Z" />
    <path d="M89.6505 99.0746C81.2893 99.068 73.272 95.7453 67.3574 89.8354C61.4428 83.9254 58.1138 75.9108 58.1006 67.5496C58.1116 59.1869 61.4397 51.1701 67.3545 45.2584C73.2694 39.3467 81.2878 36.0228 89.6505 36.0162C98.0132 36.0228 106.032 39.3467 111.947 45.2584C117.862 51.1701 121.189 59.1869 121.2 67.5496C121.187 75.9108 117.858 83.9254 111.944 89.8354C106.029 95.7453 98.0118 99.068 89.6505 99.0746V99.0746ZM89.6505 37.6829C81.7299 37.6895 74.1354 40.8377 68.5331 46.4369C62.9308 52.0361 59.7783 59.6289 59.7673 67.5496C59.7805 75.4688 62.9339 83.0594 68.536 88.6568C74.1381 94.2542 81.7313 97.4013 89.6505 97.4079C97.5697 97.4013 105.163 94.2542 110.765 88.6568C116.367 83.0594 119.521 75.4688 119.534 67.5496C119.523 59.6289 116.371 52.0361 110.768 46.4369C105.166 40.8377 97.5712 37.6895 89.6505 37.6829Z"/>
  </g>
</svg>
